<?xml version="1.0" encoding="utf-8"?>
<svg version="1.1" id="Layer_1" xmlns="http://www.w3.org/2000/svg" xmlns:xlink="http://www.w3.org/1999/xlink" x="0px" y="0px"
	 viewBox="0 0 500 500" style="enable-background:new 0 0 500 500;" xml:space="preserve">
<style type="text/css">
	.st1{fill:#FFFFFF;}
	.st16{fill:#3FAE49;}
</style>
<rect class="st16" width="500" height="500"/>
<g>
	<path class="st1" d="M206.9,338.5c0.6,0,1.1,0.5,1.1,1.1v36.6c0,0.6-0.5,1.1-1.1,1.1h-14.8c-0.6,0-1.1-0.5-1.1-1.1v-36.6
		c0-0.6,0.5-1.1,1.1-1.1H206.9z"/>
	<path class="st1" d="M369.4,393H125.5c-0.6,0-1.1,0.5-1.1,1.2V409c0,0.6,0.5,1.1,1.1,1.1h243.9c0.6,0,1.1-0.5,1.1-1.1v-14.9
		C370.5,393.5,370,393,369.4,393"/>
	<path class="st1" d="M369.4,422.6H125.5c-0.6,0-1.1,0.5-1.1,1.1v15c0,0.6,0.5,1.1,1.1,1.1h243.9c0.6,0,1.1-0.5,1.1-1.1v-15
		C370.5,423.1,370,422.6,369.4,422.6"/>
	<path class="st1" d="M323,298c-3.1-2.4-11.2-7.9-21.1-7.9c-7.1,0-13.7,2.8-19.6,8.3c-0.4,0.4-0.7,0.9-0.7,1.5v1.3
		c0,0.7,0.2,1.3,0.7,1.7c0.5,0.4,1.1,0.6,1.7,0.4c0.1,0,0.3-0.1,0.5-0.1c0.4-0.2,0.9-0.4,1.2-0.8c1.3-0.9,4.8-2,9.8-2
		c5.2,0,15.3,1.4,25.1,10.5l0.2,0.2c0.5,0.6,1.3,0.9,2.1,0.9c0.8,0,1.6-0.3,2.1-0.9l0.2-0.2c9.9-9.2,20-10.5,25.2-10.5
		c5,0,8.5,1.2,9.8,2c0.3,0.3,0.8,0.6,1.3,0.8c0.2,0.1,0.8,0.2,1.4,0c0.9-0.2,1.5-1.1,1.5-2v-1.2c0-0.6-0.2-1.1-0.7-1.5
		c-6-5.7-12.6-8.5-19.8-8.5C334.2,290,326.1,295.5,323,298"/>
	<path class="st1" d="M307.9,200.8c-0.5,0.2-0.9,0.7-1.1,1.3l-0.2,0.8c-0.2,0.6-0.1,1.3,0.3,1.8c0.4,0.5,0.9,0.8,1.5,0.8
		c0.1,0,0.2,0,0.3,0c0.4,0,0.8-0.1,1.2-0.3c0.2,0,0.7-0.2,1.5-0.2c1.1,0,10.9,0.3,17.4,11.4l0.1,0.2c0.3,0.6,0.9,1.1,1.6,1.3
		c0.2,0.1,0.5,0.1,0.8,0.1c0.5,0,0.9-0.1,1.2-0.3l0.2-0.1c3.6-1.8,7.2-2.7,10.9-2.7c6.2,0,10.2,2.5,11.1,3.6
		c0.2,0.4,0.5,0.7,0.8,0.9c0.2,0.1,0.6,0.3,0.8,0.4c0.1,0,0.2,0,0.4,0.1c0.1,0,0.1,0,0.2,0c0.3,0,0.7-0.1,1-0.2
		c0.5-0.2,0.9-0.7,1-1.2l0.2-0.7c0.1-0.2,0.1-0.4,0.1-0.6c0-0.4-0.1-0.7-0.3-1c-4.7-8.2-11.6-9.9-16.5-9.9c-3.7,0-6.9,1-8.8,1.7
		c-2.2-3-7.9-9.2-16.5-9.2C314,198.5,310.9,199.2,307.9,200.8"/>
	<path class="st1" d="M256.3,238.3l0.1,1.1c0,0.7,0.4,1.3,1,1.6c0.5,0.3,1.1,0.4,1.6,0.2c0.1,0,0.3-0.1,0.4-0.1
		c0.4-0.2,0.8-0.4,1.1-0.8c1-0.7,4.4-2.1,9.3-2.1c4.7,0,11.9,1.3,19.3,7.3l0.2,0.2c0.5,0.4,1.2,0.7,1.9,0.7h0.2
		c0.8-0.1,1.5-0.4,1.9-0.9l0.2-0.2c8.1-8.6,16.9-9.9,21.4-9.9c3.2,0,5.5,0.7,6.4,1.2c0.3,0.3,0.7,0.5,1.3,0.7c0.1,0,0.5,0.1,0.9,0.1
		c0.2,0,0.4-0.1,0.5-0.1c0.9-0.3,1.4-1.2,1.4-2.1l-0.1-1c0-0.6-0.3-1.1-0.7-1.5c-4.9-4.1-10.1-6.1-15.6-6.1
		c-8.6,0-15.4,5.1-18.3,7.5c-2.6-1.8-8.9-5.4-16.3-5.4c-6.5,0-12.3,2.7-17.3,8C256.5,237.2,256.3,237.7,256.3,238.3"/>
	<path class="st1" d="M132.9,257.9c0-14.6,11.8-26.4,26.4-26.4c0.6,0,1.1,0.1,1.7,0.1c1.4-18.5,16.8-33.1,35.6-33.1
		c19.8,0,35.8,16,35.8,35.8c0,5.6-1.3,10.9-3.6,15.6c17.9,4,31.3,19.9,31.3,39c0,22.1-17.9,40-40,40c-1.6,0-53.4-0.3-53.4-0.3
		c-15.6,0-28.3-12.7-28.3-28.3c0-7.5,3-14.3,7.7-19.4C138.2,276.2,132.9,267.7,132.9,257.9"/>
</g>
<polygon class="st1" points="35.6,59.3 35.6,77 35.8,77 47.7,64.6 47.9,64.6 47.9,142.2 64.9,142.2 64.9,40.9 51.3,40.9 "/>
<g>
	<path class="st1" d="M105.4,73c-6.7,0-11.6,2.4-14.3,7h-0.2V54.8h29.3V40.9H75.4V98h15.5v-2.2c0-6,2.7-9.3,7.5-9.3
		c5.2,0,7.3,3.6,7.3,9.1v24.5c0,5.4-1.9,9.1-7.2,9.1c-5.8,0-7.9-3.9-7.9-9.9v-12.7H75.1v11.5c0,15.4,6.1,25.2,23.4,25.2
		c17.2,0,24.2-9.1,24.2-23.2V95.4C122.7,79.4,114.5,73,105.4,73"/>
</g>
<polygon class="st1" points="159.3,40.5 166.5,40.5 166.5,77.1 174.9,77.1 174.9,82.9 159.3,82.9 "/>
<rect x="178.2" y="40.5" class="st1" width="7.1" height="42.3"/>
<polygon class="st1" points="189.4,40.5 206.1,40.5 206.1,46.3 196.5,46.3 196.5,58.5 203.7,58.5 203.7,64.2 196.5,64.2 196.5,82.9 
	189.4,82.9 "/>
<polygon class="st1" points="209.2,40.5 226.2,40.5 226.2,46.3 216.3,46.3 216.3,58.5 223.4,58.5 223.4,64.2 216.3,64.2 216.3,77.1 
	226.2,77.1 226.2,82.9 209.2,82.9 "/>
<g>
	<path class="st1" d="M173.7,132.4v-22.7c0-2.6-1.1-4.4-3.7-4.4c-2.5,0-3.6,1.8-3.6,4.4v22.7c0,2.6,1.1,4.4,3.6,4.4
		C172.6,136.7,173.7,134.9,173.7,132.4 M159.3,131.3v-20.5c0-6.6,3.2-11.4,10.7-11.4c7.6,0,10.8,4.8,10.8,11.4v20.5
		c0,6.6-3.2,11.4-10.8,11.4C162.6,142.7,159.3,137.8,159.3,131.3"/>
</g>
<polygon class="st1" points="190.9,115.6 190.9,142.2 184.9,142.2 184.9,99.8 191.9,99.8 199.6,124.1 199.6,99.8 205.5,99.8 
	205.5,142.2 199.3,142.2 "/>
<polygon class="st1" points="224.8,99.8 231.9,99.8 231.9,136.4 240.4,136.4 240.4,142.2 224.8,142.2 "/>
<path class="st1" d="M251.4,128.8h5.7l-2.8-17h-0.1L251.4,128.8z M242.5,142.2l8-42.3h8.1l8.1,42.3h-7.3l-1.3-7.7h-7.6l-1.2,7.7
	H242.5z"/>
<polygon class="st1" points="275.6,115.6 275.6,142.2 269.6,142.2 269.6,99.8 276.6,99.8 284.3,124.1 284.3,99.8 290.2,99.8 
	290.2,142.2 284,142.2 "/>
<g>
	<path class="st1" d="M304.4,136.4c2.9,0,4.1-1.7,4.1-4.3v-22.2c0-2.5-1.1-4.2-4.1-4.2h-3v30.7H304.4z M315.5,111.2v19.6
		c0,6.5-2.7,11.4-10.3,11.4h-11V99.8h11C312.9,99.8,315.5,104.6,315.5,111.2"/>
</g>
</svg>
