<?xml version="1.0" encoding="utf-8"?>
<svg version="1.1" id="Layer_1" xmlns="http://www.w3.org/2000/svg" xmlns:xlink="http://www.w3.org/1999/xlink" x="0px" y="0px"
	 viewBox="0 0 500 500" style="enable-background:new 0 0 500 500;" xml:space="preserve">
<style type="text/css">
	.st1{fill:#FFFFFF;}
	.st4{fill:#2D9A47;}
</style>
<g>
	<rect class="st4" width="500" height="500"/>
	<path class="st1" d="M408.6,318.6c0-13.3-8.5-24.1-21.4-24.1c-6.5,0-14.2,7.1-18.5,11.4c-4.2-4.4-11.5-11.4-18-11.4
		c-12.9,0-22,10.8-22,24.1c0,6.6,2.6,12.7,6.9,17l33.1,33.2l33.1-33.1l0,0C406,331.3,408.6,325.3,408.6,318.6"/>
	<path class="st1" d="M267.7,422.9c-0.1,0-0.2,0-0.3,0c-2.5-0.2-4.6-2-5-4.5l-16.8-97.9L220,367.7c-1.1,2.1-3.4,3.2-5.7,2.8
		c-2.3-0.4-4.1-2.3-4.4-4.6l-10.8-75.6l-19.8,44.4c-0.9,2-2.8,3.2-5,3.2H97.4c-3,0-5.4-2.4-5.4-5.4c0-3,2.4-5.4,5.4-5.4h73.4
		l26-58.5c1-2.2,3.3-3.5,5.7-3.2c2.4,0.3,4.3,2.2,4.6,4.6l11.1,77.9l25.1-46.6c1.1-2,3.4-3.2,5.7-2.8c2.3,0.4,4.1,2.2,4.5,4.4
		l15.6,90.7l56.8-188.5c0.7-2.1,2.5-3.7,4.8-3.9c2.2-0.2,4.4,1,5.3,3.1l29.9,61.9c1.3,2.7,0.2,6-2.5,7.3c-2.7,1.3-6,0.2-7.3-2.5
		l-23.8-49.3l-59.4,197.2C272.2,421.4,270.1,422.9,267.7,422.9"/>
	<path class="st1" d="M416.2,45.5c0-0.9-0.4-1.3-1.3-1.3h-12.3c-0.9,0-1.3,0.4-1.3,1.3v78.2c0,0.9,0.4,1.3,1.3,1.3h12.3
		c0.9,0,1.3-0.4,1.3-1.3V80h22c3.5,0,6.6-0.3,9.3-0.9c2.7-0.6,5-1.6,6.9-3.1c1.9-1.5,3.3-3.4,4.3-5.9c1-2.5,1.5-5.5,1.5-9.3V45.5
		c0-0.9-0.4-1.3-1.3-1.3h-12c-0.9,0-1.3,0.4-1.3,1.3v14.3c0,2.6-0.6,4.4-1.8,5.3c-1.2,1-3.2,1.6-6.1,1.7V51.8c0-0.9-0.4-1.3-1.3-1.3
		H426c-0.9,0-1.3,0.4-1.3,1.3v15.1h-8.4V45.5z"/>
	<path class="st1" d="M351.5,105.1c0-0.4-0.2-0.5-0.5-0.5h-4.9c-0.3,0-0.5,0.2-0.5,0.5V140c0,0.3,0.2,0.5,0.5,0.5h4.9
		c0.3,0,0.5-0.2,0.5-0.5V105.1z M332.5,140.5c2.2,0,3.8-0.5,4.7-1.6c0.9-1.1,1.4-2.8,1.4-5v-28.7c0-0.4-0.2-0.5-0.5-0.5h-4.9
		c-0.4,0-0.5,0.2-0.5,0.5v27.3c0,1.1-0.2,1.8-0.6,2.2c-0.4,0.4-1.1,0.6-1.9,0.6h-2.6c-0.7,0-1.3,0.2-1.6,0.6
		c-0.3,0.4-0.5,1.1-0.5,2.1c0,1,0.2,1.7,0.5,2.1c0.4,0.3,0.9,0.5,1.6,0.5H332.5z M313.3,150.6c0.4,0,0.5-0.2,0.5-0.5v-4.6
		c0-0.4-0.2-0.5-0.5-0.5h-5.1c-0.4,0-0.5,0.2-0.5,0.5v4.6c0,0.4,0.2,0.5,0.5,0.5H313.3z M300.7,122.7l2.7,2.9
		c0.2,0.2,0.5,0.2,0.7-0.1c0.7-0.8,1.6-1.4,2.5-1.8c0.9-0.5,2-0.7,3.2-0.7c1.2,0,2.2,0.2,3,0.6c0.8,0.4,1.4,1,1.9,1.7
		c0.5,0.7,0.8,1.5,1.1,2.5c0.2,0.9,0.3,2,0.3,3.1c0,0.8-0.1,1.6-0.2,2.1c-0.1,0.6-0.3,1-0.6,1.4c-0.3,0.4-0.8,0.6-1.3,0.7
		c-0.6,0.1-1.3,0.2-2.2,0.2h-14.1c-0.7,0-1.3,0.2-1.6,0.5c-0.3,0.4-0.5,1-0.5,2.1c0,1,0.2,1.6,0.5,2.1c0.4,0.4,0.9,0.6,1.6,0.6h16.3
		c1.7,0,3.1-0.2,4.3-0.7c1.2-0.4,2.1-1.3,2.8-2.5c0.6,1.3,1.5,2.2,2.6,2.6c1.1,0.4,2.4,0.6,3.9,0.6c0.7,0,1.3-0.2,1.6-0.6
		c0.3-0.4,0.5-1.1,0.5-2.1c0-0.9-0.2-1.6-0.5-2c-0.4-0.4-0.9-0.6-1.6-0.6h-0.9c-1.3,0-2.3-0.3-3.1-0.8c-0.8-0.5-1.2-1.3-1.3-2.2
		c0-0.2,0-0.4,0-0.6c0-0.2,0-0.4,0-0.7c0-1.8-0.2-3.5-0.6-5.1c-0.4-1.6-1.1-3-2-4.2c-0.9-1.2-2.2-2.2-3.8-2.9
		c-1.6-0.7-3.6-1.1-5.9-1.1c-2.2,0-4,0.4-5.5,1.2c-1.5,0.8-2.8,1.8-3.9,3.1C300.4,122.1,300.4,122.4,300.7,122.7 M294.1,140
		c1,0.3,2.2,0.5,3.6,0.5c0.7,0,1.3-0.2,1.6-0.6c0.3-0.4,0.5-1.1,0.5-2.1c0-0.9-0.2-1.6-0.5-2c-0.4-0.4-0.9-0.6-1.6-0.6h-0.9
		c-1.3,0-2.4-0.3-3.2-0.8c-0.8-0.6-1.2-1.4-1.2-2.4v-12.8c0-0.3-0.2-0.5-0.5-0.5h-4.5c-0.2,0-0.4,0-0.6,0.1
		c-0.2,0.1-0.3,0.2-0.3,0.4v11c0,0.9,0,1.7-0.1,2.4c0,0.6-0.1,1.2-0.3,1.6c-0.2,0.4-0.4,0.7-0.7,0.9c-0.3,0.2-0.8,0.3-1.5,0.3h-3.4
		c-0.7,0-1.3,0.2-1.6,0.6c-0.3,0.4-0.5,1.1-0.5,2.2c0,1,0.2,1.7,0.5,2c0.4,0.3,0.9,0.5,1.6,0.5h4.9c1.7,0,3-0.2,4-0.6
		c1-0.4,1.7-1.1,2.2-2.1C292.3,138.9,293.1,139.7,294.1,140 M288,150.7c0.4,0,0.5-0.2,0.5-0.5v-4.6c0-0.4-0.2-0.5-0.5-0.5h-4.4
		c-0.4,0-0.5,0.2-0.5,0.5v4.6c0,0.4,0.2,0.5,0.5,0.5H288z M294.8,150.7c0.4,0,0.5-0.2,0.5-0.5v-4.6c0-0.4-0.2-0.5-0.5-0.5h-4.4
		c-0.4,0-0.5,0.2-0.5,0.5v4.6c0,0.4,0.2,0.5,0.5,0.5H294.8z M263.7,122.9c1.8,0,3.1,0.4,4,1.1c0.9,0.7,1.3,1.9,1.3,3.5v3.5
		c0,0.8,0,1.4-0.1,1.9c-0.1,0.5-0.3,1-0.6,1.3c-0.3,0.3-0.7,0.6-1.3,0.7c-0.6,0.1-1.3,0.2-2.3,0.2H255c-0.4,0-0.5,0.2-0.5,0.5v4.2
		c0,0.4,0.2,0.5,0.5,0.5h11.8c1.8,0,3.3-0.2,4.4-0.6c1.1-0.4,2-1.2,2.7-2.4c0.6,1.2,1.4,2.1,2.5,2.5c1.1,0.4,2.4,0.6,3.8,0.6
		c0.7,0,1.3-0.2,1.6-0.6c0.3-0.4,0.5-1.1,0.5-2.1c0-0.9-0.2-1.6-0.5-2c-0.4-0.4-0.9-0.6-1.6-0.6h-0.9c-1.3,0-2.4-0.3-3.2-0.8
		c-0.8-0.6-1.2-1.4-1.2-2.4v-4.9c0-3.3-0.9-5.7-2.6-7.2c-1.7-1.5-4.1-2.2-7-2.2h-8c-0.4,0-0.5,0.2-0.5,0.5v4.2
		c0,0.4,0.2,0.5,0.5,0.5H263.7z M237.1,113.3c0.3,0,0.5-0.2,0.5-0.5v-4.6c0-0.4-0.2-0.5-0.5-0.5h-4.4c-0.4,0-0.5,0.2-0.5,0.5v4.6
		c0,0.4,0.2,0.5,0.5,0.5H237.1z M244,113.3c0.4,0,0.5-0.2,0.5-0.5v-4.6c0-0.4-0.2-0.5-0.5-0.5h-4.4c-0.4,0-0.5,0.2-0.5,0.5v4.6
		c0,0.4,0.2,0.5,0.5,0.5H244z M243.2,129.3c0,2.2-0.4,3.8-1.2,4.8c-0.8,1-2,1.5-3.7,1.5c-1.7,0-2.9-0.5-3.8-1.5
		c-0.8-1-1.2-2.6-1.2-4.8c0-2.1,0.4-3.6,1.2-4.7c0.8-1.1,2.1-1.6,3.8-1.6C241.6,122.9,243.2,125.1,243.2,129.3 M242.6,140.3
		c1.3-0.4,2.5-1.1,3.5-2c1-0.9,1.7-2.1,2.2-3.5c0.5-1.4,0.8-3.2,0.8-5.3c0-2.1-0.3-4-0.8-5.5c-0.5-1.5-1.3-2.7-2.3-3.6
		c-1-0.9-2.1-1.6-3.5-2c-1.3-0.4-2.8-0.6-4.3-0.6c-1.5,0-3,0.2-4.3,0.6c-1.3,0.4-2.5,1.1-3.5,2c-1,0.9-1.7,2.1-2.3,3.6
		c-0.5,1.5-0.8,3.3-0.8,5.5c0,2.1,0.3,3.8,0.8,5.3c0.5,1.4,1.3,2.6,2.2,3.5c0.9,0.9,2.1,1.6,3.4,2c1.3,0.4,2.8,0.6,4.4,0.6
		C239.8,140.9,241.3,140.7,242.6,140.3 M202.3,124.5c0.8,1.1,1.2,2.6,1.2,4.7v6h-4.7c-1.7,0-3-0.4-3.9-1.2c-0.9-0.8-1.3-2.3-1.3-4.5
		c0-2,0.4-3.6,1.3-4.8c0.9-1.2,2.1-1.8,3.8-1.8C200.3,122.9,201.5,123.5,202.3,124.5 M203.4,140.5c0,1.2-0.1,2.1-0.3,2.8
		c-0.2,0.7-0.6,1.3-1,1.6c-0.4,0.4-0.9,0.6-1.5,0.8c-0.6,0.1-1.2,0.2-2,0.2h-6.2c-0.4,0-0.5,0.2-0.5,0.5v4.2c0,0.3,0.2,0.5,0.5,0.5
		h7.1c3.2,0,5.6-0.8,7.3-2.3c1.7-1.5,2.5-3.9,2.5-7.2v-12.4c0-2.1-0.3-4-0.8-5.4c-0.5-1.5-1.3-2.7-2.2-3.6c-1-0.9-2.1-1.6-3.4-2
		c-1.3-0.4-2.8-0.6-4.4-0.6c-1.4,0-2.8,0.2-4.1,0.7c-1.3,0.4-2.5,1.1-3.5,2.1c-1,1-1.8,2.2-2.4,3.8c-0.6,1.5-0.9,3.4-0.9,5.5
		c0,2,0.2,3.7,0.7,5.1c0.5,1.4,1.2,2.5,2,3.4c0.9,0.9,2,1.5,3.2,1.8c1.3,0.4,2.8,0.6,4.4,0.6H203.4z M181.6,105.1
		c0-0.4-0.2-0.5-0.5-0.5h-4.9c-0.4,0-0.5,0.2-0.5,0.5V140c0,0.3,0.2,0.5,0.5,0.5h4.9c0.3,0,0.5-0.2,0.5-0.5V105.1z M162.6,140.5
		c2.2,0,3.8-0.5,4.7-1.6c0.9-1.1,1.4-2.8,1.4-5v-28.7c0-0.4-0.2-0.5-0.5-0.5h-4.9c-0.4,0-0.5,0.2-0.5,0.5v27.3
		c0,1.1-0.2,1.8-0.6,2.2c-0.4,0.4-1,0.6-1.9,0.6h-2.6c-0.7,0-1.3,0.2-1.6,0.6c-0.3,0.4-0.5,1.1-0.5,2.1c0,1,0.2,1.7,0.5,2.1
		c0.4,0.3,0.9,0.5,1.6,0.5H162.6z M146.4,138c0,1.3,0,2.4-0.1,3.4c-0.1,1-0.2,1.8-0.5,2.5c-0.3,0.7-0.7,1.2-1.2,1.6
		c-0.6,0.4-1.4,0.5-2.4,0.5h-1.2c-0.4,0-0.5,0.2-0.5,0.5v4.2c0,0.3,0.2,0.5,0.5,0.5h2c1.8,0,3.2-0.2,4.4-0.7
		c1.2-0.5,2.1-1.2,2.9-2.1c0.7-1,1.2-2.1,1.5-3.6c0.3-1.4,0.5-3.1,0.5-5v-1c0.6,0.7,1.3,1.2,2.2,1.4c0.9,0.2,1.9,0.3,3.1,0.3
		c0.7,0,1.3-0.2,1.6-0.6c0.3-0.4,0.5-1.1,0.5-2.1c0-0.9-0.2-1.6-0.5-2c-0.4-0.4-0.9-0.6-1.6-0.6h-0.9c-1.3,0-2.4-0.3-3.2-0.8
		c-0.8-0.6-1.2-1.4-1.2-2.4v-12.8c0-0.3-0.2-0.5-0.5-0.5H147c-0.4,0-0.5,0.2-0.5,0.5V138z M131.9,129.3c0,2.2-0.4,3.8-1.2,4.7
		c-0.8,0.9-2.1,1.3-3.8,1.3c-1.7,0-2.9-0.5-3.8-1.4c-0.8-0.9-1.2-2.6-1.2-4.9c0-1.9,0.4-3.4,1.3-4.5c0.8-1.1,2.1-1.6,3.7-1.6
		C130.2,122.9,131.9,125.1,131.9,129.3 M126.9,140.5c1.6,0,3.1-0.2,4.4-0.6c1.3-0.4,2.5-1,3.4-1.9c1-0.9,1.7-2,2.2-3.4
		c0.5-1.4,0.8-3.2,0.8-5.2c0-2.1-0.3-4-0.8-5.5c-0.5-1.5-1.3-2.7-2.3-3.6c-1-0.9-2.1-1.6-3.5-2c-1.3-0.4-2.8-0.6-4.3-0.6
		c-1.4,0-2.8,0.2-4.2,0.6c-1.3,0.4-2.5,1.1-3.5,2s-1.8,2.1-2.4,3.6c-0.6,1.5-0.9,3.3-0.9,5.5c0,2.4,0.4,4.4,1.2,5.9h-5
		c-0.7,0-1.2,0.2-1.6,0.6c-0.4,0.4-0.5,1-0.5,2c0,1.1,0.2,1.8,0.5,2.2c0.3,0.3,0.9,0.5,1.6,0.5H126.9z M129.4,113.3
		c0.4,0,0.5-0.2,0.5-0.5v-4.6c0-0.4-0.2-0.5-0.5-0.5h-5.1c-0.4,0-0.5,0.2-0.5,0.5v4.6c0,0.4,0.2,0.5,0.5,0.5H129.4z M101.5,133.9
		c0,2.3,0.5,4,1.4,5c0.9,1.1,2.5,1.6,4.7,1.6h4.2c0.7,0,1.3-0.2,1.6-0.5c0.3-0.3,0.5-1,0.5-2.1c0-1-0.2-1.7-0.5-2.1
		c-0.4-0.4-0.9-0.6-1.6-0.6H110c-0.9,0-1.5-0.2-1.9-0.6c-0.4-0.4-0.6-1.1-0.6-2.2v-27.3c0-0.4-0.2-0.5-0.5-0.5h-4.9
		c-0.3,0-0.5,0.2-0.5,0.5V133.9z M89.5,129.3c0,2.2-0.4,3.8-1.2,4.8c-0.8,1-2,1.5-3.7,1.5c-1.7,0-2.9-0.5-3.8-1.5
		c-0.8-1-1.2-2.6-1.2-4.8c0-2.1,0.4-3.6,1.2-4.7c0.8-1.1,2.1-1.6,3.8-1.6C87.9,122.9,89.5,125.1,89.5,129.3 M88.9,140.3
		c1.3-0.4,2.5-1.1,3.5-2c1-0.9,1.7-2.1,2.2-3.5c0.5-1.4,0.8-3.2,0.8-5.3c0-2.1-0.3-4-0.8-5.5c-0.5-1.5-1.3-2.7-2.3-3.6
		c-1-0.9-2.1-1.6-3.5-2c-1.3-0.4-2.8-0.6-4.3-0.6c-1.6,0-3,0.2-4.3,0.6c-1.3,0.4-2.5,1.1-3.5,2c-1,0.9-1.7,2.1-2.3,3.6
		c-0.5,1.5-0.8,3.3-0.8,5.5c0,2.1,0.3,3.8,0.8,5.3c0.5,1.4,1.3,2.6,2.2,3.5c1,0.9,2.1,1.6,3.4,2c1.3,0.4,2.8,0.6,4.4,0.6
		C86.1,140.9,87.6,140.7,88.9,140.3"/>
	<path class="st1" d="M351.5,43c0-0.4-0.2-0.5-0.5-0.5h-4.9c-0.3,0-0.5,0.2-0.5,0.5v34.9c0,0.4,0.2,0.5,0.5,0.5h4.9
		c0.3,0,0.5-0.2,0.5-0.5V43z M332.5,78.4c2.2,0,3.8-0.5,4.7-1.6c0.9-1.1,1.4-2.8,1.4-5V43c0-0.4-0.2-0.5-0.5-0.5h-4.9
		c-0.3,0-0.5,0.2-0.5,0.5v27.3c0,1.1-0.2,1.8-0.6,2.2c-0.4,0.4-1.1,0.6-1.9,0.6h-2.6c-0.7,0-1.3,0.2-1.6,0.6
		c-0.3,0.4-0.5,1.1-0.5,2.1c0,1,0.2,1.7,0.5,2.1c0.4,0.3,0.9,0.5,1.6,0.5H332.5z M297.7,56.8c0-0.4-0.2-0.5-0.5-0.5h-4.9
		c-0.3,0-0.5,0.2-0.5,0.5v10.8c0,0.7,0,1.4-0.1,2.1c0,0.7-0.1,1.3-0.3,1.8c-0.2,0.5-0.4,0.9-0.8,1.2c-0.4,0.3-0.9,0.4-1.5,0.4h-2.4
		c-0.7,0-1.3,0.2-1.6,0.5c-0.3,0.4-0.5,1.1-0.5,2.2c0,1,0.2,1.7,0.5,2c0.3,0.3,0.9,0.5,1.6,0.5h4.4c0.9,0,1.7-0.1,2.4-0.2
		c0.7-0.1,1.3-0.4,1.9-0.7c0.4,0.2,0.8,0.4,1.3,0.5c0.5,0.1,1,0.2,1.6,0.3c0.6,0.1,1.1,0.1,1.7,0.1c0.6,0,1.2,0,1.7,0h10.4
		c2.3,0,4.2-0.2,5.6-0.6c1.4-0.4,2.5-1.3,3.3-2.8c0.6,1.4,1.4,2.3,2.6,2.7c1.1,0.4,2.5,0.7,4,0.7c0.7,0,1.3-0.2,1.6-0.6
		c0.3-0.4,0.5-1.1,0.5-2.1c0-0.9-0.2-1.6-0.5-2c-0.4-0.4-0.9-0.6-1.6-0.6h-0.9c-1.3,0-2.4-0.3-3.2-0.8c-0.8-0.6-1.2-1.4-1.2-2.4
		c0-0.2,0-0.5,0-0.8c0-0.3,0-0.6,0-1c0-1.9-0.2-3.6-0.7-5.2c-0.5-1.6-1.2-2.9-2.3-4c-1-1.1-2.4-1.9-4-2.5c-1.6-0.6-3.6-0.9-5.9-0.9
		c-2.2,0-4.2,0.3-6.2,0.9c-2,0.6-3.8,1.3-5.5,2.1V56.8z M312.3,61.3c1,0.3,1.7,0.8,2.3,1.4c0.6,0.6,1,1.3,1.2,2.2
		c0.2,0.9,0.3,1.9,0.3,3c0,1.3-0.1,2.3-0.3,3c-0.2,0.7-0.5,1.2-1,1.6c-0.5,0.3-1.2,0.5-2.2,0.6c-0.9,0-2.2,0.1-3.7,0.1h-11.5
		c0.1-0.4,0.1-0.7,0.2-1.1c0-0.4,0.1-0.8,0.1-1.2v-7.2c1.5-0.7,3.2-1.3,5.1-1.9c1.9-0.6,3.9-0.9,5.8-0.9
		C310.1,60.8,311.3,60.9,312.3,61.3 M259.8,60.5l2.7,2.9c0.2,0.2,0.5,0.2,0.7-0.1c0.7-0.8,1.6-1.4,2.5-1.9c1-0.5,2-0.7,3.2-0.7
		c1.2,0,2.2,0.2,3,0.6c0.8,0.4,1.4,1,1.9,1.7c0.5,0.7,0.8,1.5,1.1,2.5c0.2,0.9,0.3,2,0.3,3.1c0,0.8-0.1,1.6-0.2,2.1
		c-0.1,0.6-0.3,1-0.6,1.4c-0.3,0.4-0.8,0.6-1.3,0.7s-1.3,0.2-2.2,0.2h-14.1c-0.7,0-1.3,0.2-1.6,0.5c-0.3,0.4-0.5,1-0.5,2.1
		c0,1,0.2,1.6,0.5,2.1c0.4,0.4,0.9,0.6,1.6,0.6h16.3c1.7,0,3.1-0.2,4.3-0.7c1.2-0.4,2.1-1.3,2.8-2.5c0.6,1.3,1.4,2.2,2.6,2.6
		s2.4,0.6,3.9,0.6c0.7,0,1.3-0.2,1.6-0.6c0.3-0.4,0.5-1.1,0.5-2.1c0-0.9-0.2-1.6-0.5-2c-0.4-0.4-0.9-0.6-1.6-0.6h-0.9
		c-1.3,0-2.3-0.3-3.1-0.8c-0.8-0.5-1.2-1.3-1.3-2.2c0-0.2,0-0.4,0-0.6c0-0.2,0-0.4,0-0.7c0-1.8-0.2-3.5-0.6-5.1
		c-0.4-1.6-1.1-3-2-4.2c-1-1.2-2.2-2.2-3.8-2.9c-1.6-0.7-3.6-1.1-5.9-1.1c-2.2,0-4,0.4-5.5,1.2c-1.5,0.8-2.8,1.8-3.9,3.1
		C259.5,60,259.5,60.2,259.8,60.5 M237.3,69.8c-0.8-0.8-1.3-2-1.3-3.6c0-2.1,0.5-3.5,1.4-4.3c0.9-0.8,2.1-1.2,3.6-1.2h4.7v4.5
		c0,1.9-0.4,3.3-1.2,4.2c-0.8,1-2.1,1.4-3.8,1.4C239.4,70.9,238.2,70.5,237.3,69.8 M240.5,55.5c-1.3,0-2.6,0.2-3.9,0.5
		c-1.2,0.4-2.3,0.9-3.3,1.8c-1,0.8-1.7,1.9-2.3,3.3c-0.6,1.4-0.9,3.1-0.9,5.1c0,1.8,0.3,3.3,0.8,4.5c0.5,1.3,1.2,2.3,2.1,3.1
		c0.9,0.8,1.9,1.4,3.2,1.8c1.2,0.4,2.5,0.6,3.9,0.6c1.1,0,2.2-0.2,3.2-0.5c1-0.3,1.9-0.8,2.6-1.5c0.3,1.5,1,2.6,1.9,3.2
		c1,0.6,2.3,0.9,4,0.9h4.3c0.7,0,1.3-0.2,1.6-0.5c0.3-0.3,0.5-1,0.5-2.1c0-1.8-0.7-2.7-2.1-2.7h-2c-0.9,0-1.5-0.2-1.9-0.6
		c-0.4-0.4-0.6-1.1-0.6-2.2V53.2c0-0.3-0.2-0.5-0.5-0.5h-4.9c-0.4,0-0.5,0.2-0.5,0.5v2.3H240.5z M240.2,49.1c0.3,0,0.5-0.2,0.5-0.5
		v-4.6c0-0.4-0.2-0.5-0.5-0.5h-4.4c-0.4,0-0.5,0.2-0.5,0.5v4.6c0,0.4,0.2,0.5,0.5,0.5H240.2z M247,49.1c0.4,0,0.5-0.2,0.5-0.5v-4.6
		c0-0.4-0.2-0.5-0.5-0.5h-4.4c-0.4,0-0.5,0.2-0.5,0.5v4.6c0,0.4,0.2,0.5,0.5,0.5H247z"/>
</g>
</svg>
