<?xml version="1.0" encoding="utf-8"?>
<!-- Generator: Adobe Illustrator 24.2.1, SVG Export Plug-In . SVG Version: 6.00 Build 0)  -->
<svg version="1.1" id="Layer_1" xmlns="http://www.w3.org/2000/svg" xmlns:xlink="http://www.w3.org/1999/xlink" x="0px" y="0px"
	 viewBox="0 0 500 500" style="enable-background:new 0 0 500 500;" xml:space="preserve">
<style type="text/css">
	.st0{fill:#D19F2A;}
	.st1{fill:#FFFFFF;}
</style>
<g>
	<rect class="st0" width="500" height="500"/>
	<path class="st1" d="M202.8,425.7v6.5c0,0,0,0.1,0,0.1c0,0.1,0,0.1,0,0.2c0.1,1.6,1.4,2.9,3,2.9c0,0,0,0,0.1,0c0,0,0,0,0.1,0H282
		c0,0,0,0,0.1,0c0,0,0,0,0.1,0c1.7,0,3-1.4,3-3c0,0,0,0,0,0c0,0,0,0,0,0v-7.3c42.8-14,74.9-48.7,82-91c0-0.1,0-0.2,0-0.3
		c0-0.1,0-0.3,0-0.4c0-1.7-1.4-3.1-3.1-3.1h-241h-1.4c-1.7,0-3.1,1.4-3.1,3.1l0.2,1.4C126.1,377.3,159.1,412.2,202.8,425.7"/>
	<path class="st1" d="M285.1,226.7c-1,1.4-24.4,35.1,0.5,62.4c11.4,12.5,10.4,23.6,7.2,31h16c3.2-11,1.9-24.8-11.1-39
		c-18.4-20.1,0.2-47.3,0.5-47.7c2.2-3.1,1-7.1-2.6-9C292,222.6,287.3,223.6,285.1,226.7"/>
	<path class="st1" d="M244.5,320.1h16c3.2-11,1.9-24.8-11.1-39c-18.4-20.1,0.2-47.2,0.5-47.7c2.2-3.1,1-7.1-2.6-8.9
		c-3.6-1.8-8.3-0.9-10.5,2.2c-1,1.4-24.4,35.1,0.5,62.4C248.8,301.6,247.8,312.6,244.5,320.1"/>
	<path class="st1" d="M188.6,226.7c-1,1.4-24.4,35.1,0.5,62.4c11.4,12.5,10.5,23.6,7.2,31h16c3.2-11,1.9-24.8-11.1-39
		c-18.4-20.1,0.2-47.3,0.5-47.7c2.2-3.1,1-7.1-2.6-8.9C195.5,222.6,190.8,223.6,188.6,226.7"/>
	<path class="st1" d="M413,123.7c0,0.9,0.4,1.3,1.3,1.3h12.3c0.9,0,1.3-0.4,1.3-1.3V66.4c0-3,0.5-5.3,1.6-6.7
		c1.1-1.4,3.2-2.1,6.5-2.1h20.3c0.9,0,1.3-0.4,1.3-1.3V45.6c0-0.9-0.5-1.3-1.3-1.3h-27.5c-5.6,0-9.6,1.4-12.1,4.3
		c-2.5,2.9-3.8,7.1-3.8,12.7V123.7z"/>
	<path class="st1" d="M320.5,132.8c-0.7,0-1.3,0.2-1.6,0.5c-0.3,0.4-0.5,1-0.5,2.1c0,1,0.2,1.6,0.5,2.1c0.4,0.4,0.9,0.6,1.6,0.6
		h24.6c0.3,0,0.5-0.2,0.5-0.5v-4.2c0-0.4-0.2-0.5-0.5-0.5h-11.5c-0.3-0.1-0.7-0.3-1.1-0.6c-0.5-0.3-0.9-0.7-1.4-1.2
		c-0.4-0.5-0.8-1.2-1.2-1.9c-0.3-0.8-0.5-1.7-0.5-2.7c0-1.8,0.5-3.2,1.5-4.3c1-1.1,2.3-1.6,4.1-1.6c2.2,0,4,0.8,5.6,2.5
		c0.2,0.3,0.5,0.3,0.7,0.1l2.9-3c0.3-0.2,0.3-0.5,0.2-0.7c-0.9-1.2-2.2-2.2-3.8-3c-1.6-0.8-3.6-1.2-5.9-1.2c-2.1,0-4,0.3-5.4,1
		c-1.5,0.7-2.6,1.5-3.5,2.6c-0.9,1-1.5,2.2-1.9,3.5c-0.4,1.3-0.6,2.5-0.6,3.8c0,1.5,0.2,2.9,0.7,3.9c0.5,1.1,1,2,1.7,2.8H320.5z
		 M304.1,132.8c-0.7,0-1.3,0.2-1.6,0.6c-0.3,0.4-0.5,1-0.5,2c0,1.1,0.2,1.9,0.5,2.2c0.4,0.3,0.9,0.5,1.6,0.5h4.4
		c1.6,0,2.8-0.2,3.8-0.6c0.9-0.4,1.6-1.1,2.1-2.1c0.6,1.1,1.4,1.9,2.4,2.2c1,0.3,2.2,0.5,3.6,0.5c0.7,0,1.3-0.2,1.6-0.6
		c0.3-0.4,0.5-1.1,0.5-2.1c0-0.9-0.2-1.6-0.5-2c-0.4-0.4-0.9-0.6-1.6-0.6h-0.9c-1.3,0-2.4-0.3-3.2-0.8c-0.8-0.6-1.2-1.4-1.2-2.4
		v-26.8c0-0.4-0.2-0.5-0.5-0.5h-4.9c-0.3,0-0.5,0.2-0.5,0.5V130c0,1.1-0.2,1.8-0.6,2.2c-0.4,0.4-1.1,0.6-1.9,0.6H304.1z
		 M279.7,143.4c-1,0-2-0.1-3-0.3c-1-0.2-1.9-0.6-2.6-1.1c-0.8-0.5-1.4-1.2-1.9-2.1c-0.5-0.9-0.7-2-0.7-3.3c0-1.4,0.3-2.7,0.8-4
		c0.5-1.3,1.1-2.4,1.7-3.4c0.2-0.3,0.1-0.5-0.2-0.7l-4.2-2.2c-0.3-0.2-0.6-0.2-0.7,0.1c-0.5,0.6-0.9,1.4-1.3,2.2
		c-0.4,0.8-0.8,1.7-1.1,2.6c-0.3,0.9-0.6,1.9-0.8,2.9c-0.2,1-0.3,2-0.3,3c0,3.6,1.1,6.5,3.3,8.6c2.2,2.1,5.6,3.2,10.2,3.2h12
		c1.9,0,3.5-0.2,4.8-0.6c1.3-0.4,2.4-0.9,3.2-1.6c0.8-0.7,1.4-1.4,1.8-2.3c0.4-0.9,0.6-1.8,0.6-2.8c0-0.7-0.1-1.4-0.3-2
		s-0.4-1.1-0.6-1.3h3.6c0.7,0,1.3-0.2,1.6-0.6c0.3-0.4,0.5-1.2,0.5-2.2c0-0.9-0.2-1.6-0.5-1.9c-0.4-0.4-0.9-0.5-1.6-0.5h-5.3
		c-1,0-2-0.1-2.9-0.3c-0.9-0.2-1.9-0.5-2.9-0.8c-1-0.3-2-0.7-3-1.2c-1-0.4-2.1-0.9-3.2-1.3c-0.3-0.1-0.5,0-0.6,0.4l-1.4,4.2
		c-0.1,0.3,0,0.5,0.3,0.6c1.8,0.7,3.4,1.2,4.7,1.7c1.3,0.5,2.4,0.9,3.3,1.4c0.9,0.4,1.5,0.9,1.9,1.4c0.4,0.5,0.6,1,0.6,1.7
		c0,0.8-0.4,1.5-1.2,2c-0.8,0.5-2.2,0.8-4.3,0.8H279.7z M247.7,102.7c0-0.4-0.2-0.5-0.5-0.5h-4.9c-0.3,0-0.5,0.2-0.5,0.5v34.9
		c0,0.4,0.2,0.5,0.5,0.5h4.9c0.3,0,0.5-0.2,0.5-0.5V102.7z M228.7,138.1c2.2,0,3.8-0.5,4.7-1.6c0.9-1.1,1.4-2.8,1.4-5v-28.7
		c0-0.4-0.2-0.5-0.5-0.5h-4.9c-0.3,0-0.5,0.2-0.5,0.5V130c0,1.1-0.2,1.8-0.6,2.2c-0.4,0.4-1,0.6-1.9,0.6h-2.6
		c-0.7,0-1.3,0.2-1.6,0.6c-0.3,0.4-0.5,1.1-0.5,2.1c0,1,0.2,1.7,0.5,2.1c0.4,0.3,0.9,0.5,1.6,0.5H228.7z M209.5,148.1
		c0.4,0,0.5-0.2,0.5-0.5V143c0-0.4-0.2-0.5-0.5-0.5h-5.1c-0.4,0-0.5,0.2-0.5,0.5v4.6c0,0.4,0.2,0.5,0.5,0.5H209.5z M196.9,120.2
		l2.7,2.9c0.2,0.2,0.5,0.2,0.7-0.1c0.7-0.8,1.6-1.4,2.5-1.8c1-0.5,2-0.7,3.2-0.7c1.2,0,2.2,0.2,3,0.6c0.8,0.4,1.4,1,1.9,1.7
		c0.5,0.7,0.8,1.5,1.1,2.5c0.2,0.9,0.3,2,0.3,3.1c0,0.8-0.1,1.6-0.2,2.1c-0.1,0.6-0.3,1-0.6,1.4c-0.3,0.4-0.8,0.6-1.3,0.7
		c-0.6,0.1-1.3,0.2-2.2,0.2H194c-0.7,0-1.3,0.2-1.6,0.5c-0.3,0.4-0.5,1-0.5,2.1c0,1,0.2,1.6,0.5,2.1c0.4,0.4,0.9,0.6,1.6,0.6h16.3
		c1.7,0,3.1-0.2,4.3-0.7c1.2-0.4,2.1-1.3,2.8-2.5c0.6,1.3,1.4,2.2,2.6,2.6c1.1,0.4,2.4,0.6,3.9,0.6c0.7,0,1.3-0.2,1.6-0.6
		c0.3-0.4,0.5-1.1,0.5-2.1c0-0.9-0.2-1.6-0.5-2c-0.4-0.4-0.9-0.6-1.6-0.6h-0.9c-1.3,0-2.3-0.3-3.1-0.8c-0.8-0.5-1.2-1.3-1.3-2.2
		c0-0.2,0-0.4,0-0.6c0-0.2,0-0.4,0-0.7c0-1.8-0.2-3.5-0.6-5.1c-0.4-1.6-1.1-3-2-4.2c-1-1.2-2.2-2.2-3.8-2.9
		c-1.6-0.7-3.6-1.1-5.9-1.1c-2.2,0-4,0.4-5.5,1.2c-1.5,0.8-2.8,1.8-3.9,3.1C196.5,119.7,196.6,120,196.9,120.2 M183.3,122.1
		c0.8,1.1,1.2,2.6,1.2,4.7v6h-4.7c-1.7,0-3-0.4-3.9-1.2c-0.9-0.8-1.3-2.3-1.3-4.5c0-2,0.4-3.6,1.3-4.8c0.9-1.2,2.1-1.8,3.7-1.8
		C181.3,120.5,182.5,121,183.3,122.1 M180.6,148.8c3.2,0,5.6-0.8,7.3-2.3c1.7-1.5,2.5-3.9,2.5-7.2v-1.2h3.6c0.7,0,1.3-0.2,1.6-0.5
		c0.3-0.3,0.5-1.1,0.5-2.2c0-0.9-0.2-1.6-0.5-2c-0.4-0.4-0.9-0.6-1.6-0.6h-3.6v-5.9c0-2.1-0.3-3.9-0.8-5.4c-0.5-1.5-1.3-2.7-2.2-3.6
		c-0.9-0.9-2.1-1.6-3.4-2c-1.3-0.4-2.8-0.6-4.4-0.6c-1.4,0-2.8,0.2-4.1,0.7c-1.3,0.4-2.5,1.1-3.4,2.1c-1,1-1.8,2.2-2.4,3.8
		c-0.6,1.5-0.9,3.4-0.9,5.5c0,2,0.2,3.7,0.7,5.1c0.5,1.4,1.2,2.5,2,3.4c0.9,0.9,2,1.5,3.2,1.9c1.3,0.4,2.8,0.6,4.4,0.6h5.3
		c0,1.1-0.1,2-0.3,2.7c-0.2,0.7-0.5,1.3-0.9,1.6c-0.4,0.4-0.9,0.7-1.5,0.8c-0.6,0.2-1.3,0.2-2.1,0.2h-6.2c-0.4,0-0.5,0.2-0.5,0.5
		v4.2c0,0.4,0.2,0.5,0.5,0.5H180.6z M141.2,146.9c1.6,1.3,3.9,1.9,6.9,1.9h5.8c0.3,0,0.5-0.2,0.5-0.5V144c0-0.4-0.2-0.5-0.5-0.5
		h-5.2c-1.5,0-2.5-0.2-3.1-0.7c-0.5-0.4-0.8-1.1-0.8-2.1c0-0.7,0.2-1.3,0.6-1.9c0.4-0.5,1.1-0.8,2-0.8h16c0.3,0,0.5-0.2,0.5-0.5
		v-4.2c0-0.4-0.2-0.5-0.5-0.5H152c-0.3-0.1-0.7-0.3-1.1-0.6c-0.5-0.3-0.9-0.7-1.4-1.2c-0.4-0.5-0.8-1.2-1.2-1.9
		c-0.3-0.8-0.5-1.7-0.5-2.7c0-1.8,0.5-3.2,1.4-4.3c1-1.1,2.4-1.6,4.1-1.6c2.2,0,4,0.8,5.6,2.5c0.2,0.3,0.5,0.3,0.7,0.1l2.9-3
		c0.3-0.2,0.3-0.5,0.2-0.7c-0.9-1.2-2.2-2.2-3.8-3c-1.6-0.8-3.6-1.2-5.9-1.2c-2.1,0-3.9,0.3-5.4,1c-1.5,0.7-2.6,1.5-3.5,2.6
		c-0.9,1-1.5,2.2-1.9,3.5c-0.4,1.3-0.6,2.5-0.6,3.8c0,1.7,0.3,3.1,0.8,4.2c0.5,1.2,1.2,2.1,1.9,3c-0.7,0.2-1.4,0.5-2.1,0.8
		c-0.7,0.4-1.2,0.9-1.7,1.5c-0.5,0.6-0.9,1.3-1.2,2.2c-0.3,0.9-0.4,1.9-0.4,3.1C138.8,143.6,139.6,145.6,141.2,146.9"/>
	<path class="st1" d="M344.4,40.6c0-0.4-0.2-0.5-0.5-0.5H339c-0.3,0-0.5,0.2-0.5,0.5v34.9c0,0.3,0.2,0.5,0.5,0.5h4.9
		c0.4,0,0.5-0.2,0.5-0.5V40.6z M325.4,75.9c2.2,0,3.8-0.5,4.7-1.6c0.9-1.1,1.4-2.8,1.4-5V40.6c0-0.4-0.2-0.5-0.5-0.5h-4.9
		c-0.3,0-0.5,0.2-0.5,0.5v27.3c0,1.1-0.2,1.8-0.6,2.2c-0.4,0.4-1.1,0.6-1.9,0.6h-2.6c-0.7,0-1.3,0.2-1.6,0.6
		c-0.3,0.4-0.5,1.1-0.5,2.1c0,1,0.2,1.7,0.5,2.1c0.4,0.3,0.9,0.5,1.6,0.5H325.4z M305.3,48.7c0.3,0,0.5-0.2,0.5-0.5v-4.6
		c0-0.4-0.2-0.5-0.5-0.5h-4.4c-0.4,0-0.5,0.2-0.5,0.5v4.6c0,0.4,0.2,0.5,0.5,0.5H305.3z M312.2,48.7c0.4,0,0.5-0.2,0.5-0.5v-4.6
		c0-0.4-0.2-0.5-0.5-0.5h-4.4c-0.4,0-0.5,0.2-0.5,0.5v4.6c0,0.4,0.2,0.5,0.5,0.5H312.2z M309.8,59.1c1,0.9,1.5,2.1,1.5,3.8
		c0,1.8-0.5,3.2-1.5,4.4c-1,1.1-2.2,2-3.5,2.6c-1.4-0.6-2.6-1.4-3.6-2.6c-1-1.1-1.5-2.6-1.5-4.4c0-1.7,0.5-3,1.5-3.8
		c1-0.9,2.2-1.3,3.6-1.3C307.7,57.8,308.9,58.2,309.8,59.1 M298.1,55.6c-1.9,1.7-2.9,4-2.9,6.8c0,1.7,0.4,3.3,1.2,4.7
		c0.8,1.4,1.8,2.6,3.1,3.5h-7.4c-0.7,0-1.3,0.2-1.6,0.5c-0.3,0.3-0.5,1-0.5,2.1c0,1,0.2,1.7,0.5,2.1c0.4,0.4,0.9,0.6,1.6,0.6h7
		c1,0,2.2-0.1,3.5-0.2c1.3-0.1,2.6-0.5,3.7-1.1c1,0.6,2.1,1,3.2,1.1c1.1,0.1,2.3,0.2,3.6,0.2h7.3c0.7,0,1.3-0.2,1.6-0.6
		c0.3-0.4,0.5-1.1,0.5-2.2c0-1-0.2-1.7-0.5-2c-0.4-0.3-0.9-0.5-1.6-0.5H313c1.3-0.9,2.4-2.1,3.2-3.5c0.8-1.4,1.2-3,1.2-4.7
		c0-2.8-1-5.1-2.9-6.8c-1.9-1.7-4.6-2.6-8.2-2.6C302.7,53.1,300,53.9,298.1,55.6 M262.5,54.3c0-0.4-0.2-0.5-0.5-0.5h-4.9
		c-0.4,0-0.5,0.2-0.5,0.5v10.8c0,0.7,0,1.4-0.1,2.1c0,0.7-0.1,1.3-0.3,1.8c-0.2,0.5-0.4,0.9-0.8,1.2s-0.9,0.4-1.5,0.4h-2.4
		c-0.7,0-1.3,0.2-1.6,0.5c-0.3,0.4-0.5,1.1-0.5,2.2c0,1,0.2,1.7,0.5,2c0.4,0.3,0.9,0.5,1.6,0.5h4.4c0.9,0,1.7-0.1,2.4-0.2
		c0.7-0.1,1.3-0.3,1.9-0.7c0.3,0.2,0.8,0.4,1.3,0.5c0.5,0.1,1,0.2,1.6,0.3c0.6,0.1,1.1,0.1,1.7,0.1c0.6,0,1.2,0,1.7,0h10.4
		c2.3,0,4.2-0.2,5.6-0.6c1.4-0.4,2.5-1.3,3.2-2.7c0.6,1.3,1.4,2.2,2.6,2.7c1.1,0.4,2.5,0.7,4,0.7c0.7,0,1.3-0.2,1.6-0.6
		c0.3-0.4,0.5-1.1,0.5-2.1c0-0.9-0.2-1.6-0.5-2c-0.3-0.4-0.9-0.6-1.6-0.6h-0.9c-1.3,0-2.4-0.3-3.2-0.8c-0.8-0.6-1.2-1.4-1.2-2.4
		c0-0.2,0-0.5,0-0.8c0-0.3,0-0.6,0-1c0-1.9-0.2-3.6-0.7-5.2c-0.5-1.6-1.2-2.9-2.3-4c-1-1.1-2.4-1.9-4-2.5c-1.6-0.6-3.6-0.9-5.9-0.9
		c-2.1,0-4.2,0.3-6.2,0.9c-2,0.6-3.8,1.3-5.5,2.1V54.3z M277,58.8c1,0.3,1.7,0.8,2.3,1.4c0.6,0.6,1,1.3,1.2,2.2
		c0.2,0.9,0.3,1.9,0.3,3c0,1.3-0.1,2.3-0.3,3c-0.2,0.7-0.5,1.2-1,1.6c-0.5,0.3-1.2,0.5-2.2,0.6c-0.9,0.1-2.2,0.1-3.7,0.1h-11.5
		c0.1-0.4,0.1-0.7,0.2-1.1c0-0.4,0.1-0.8,0.1-1.2v-7.1c1.5-0.7,3.2-1.3,5.1-1.9c1.9-0.6,3.8-0.9,5.8-0.9
		C274.9,58.4,276.1,58.5,277,58.8 M276.3,48.7c0.3,0,0.5-0.2,0.5-0.5v-4.6c0-0.4-0.2-0.5-0.5-0.5h-5.1c-0.4,0-0.5,0.2-0.5,0.5v4.6
		c0,0.4,0.2,0.5,0.5,0.5H276.3z M240.9,69.3c0,2.3,0.5,4,1.4,5c0.9,1.1,2.5,1.6,4.7,1.6h4.2c0.7,0,1.3-0.2,1.6-0.5
		c0.3-0.3,0.5-1,0.5-2.1c0-1-0.2-1.7-0.5-2.1c-0.4-0.4-0.9-0.6-1.6-0.6h-1.9c-0.9,0-1.5-0.2-1.9-0.6c-0.4-0.4-0.6-1.1-0.6-2.2V40.6
		c0-0.4-0.2-0.5-0.5-0.5h-4.9c-0.3,0-0.5,0.2-0.5,0.5V69.3z M217.6,71.6c-0.4,0-0.5,0.2-0.5,0.6v3.2c0,0.4,0.2,0.6,0.5,0.6h18
		c0.4,0,0.5-0.2,0.5-0.6v-3.2c0-0.4-0.2-0.6-0.5-0.6h-8.9c-0.5-0.4-1-1-1.6-1.8c-0.5-0.8-0.8-1.8-0.8-2.8c0-1.2,0.4-2.3,1.1-3
		c0.7-0.8,1.7-1.2,3-1.2c0.8,0,1.5,0.2,2.2,0.5c0.7,0.3,1.3,0.8,1.8,1.3c0.2,0.2,0.5,0.2,0.8,0l2.2-2.2c0.1-0.1,0.1-0.2,0.2-0.3
		c0-0.1,0-0.3-0.2-0.5c-0.7-1-1.7-1.8-2.9-2.3c-1.3-0.6-2.6-0.9-4.2-0.9c-1.6,0-3,0.3-4.1,0.8c-1.1,0.5-2.1,1.2-2.8,2
		c-0.7,0.8-1.3,1.7-1.6,2.8c-0.3,1-0.5,2-0.5,3c0,1,0.1,1.8,0.3,2.6c0.2,0.8,0.5,1.5,0.9,2.1H217.6z M200.1,40.6
		c0-0.4-0.2-0.5-0.5-0.5h-4.9c-0.3,0-0.5,0.2-0.5,0.5v34.9c0,0.3,0.2,0.5,0.5,0.5h4.9c0.3,0,0.5-0.2,0.5-0.5V40.6z M181.1,75.9
		c2.2,0,3.8-0.5,4.7-1.6c0.9-1.1,1.4-2.8,1.4-5V40.6c0-0.4-0.2-0.5-0.5-0.5h-4.9c-0.3,0-0.5,0.2-0.5,0.5v27.3c0,1.1-0.2,1.8-0.6,2.2
		c-0.4,0.4-1,0.6-1.9,0.6h-2.6c-0.7,0-1.3,0.2-1.6,0.6c-0.3,0.4-0.5,1.1-0.5,2.1c0,1,0.2,1.7,0.5,2.1c0.4,0.3,0.9,0.5,1.6,0.5H181.1
		z M172.6,75.4c1,0.3,2.2,0.5,3.6,0.5c0.7,0,1.3-0.2,1.6-0.6c0.3-0.4,0.5-1.1,0.5-2.1c0-0.9-0.2-1.6-0.5-2c-0.4-0.4-0.9-0.6-1.6-0.6
		h-0.9c-1.3,0-2.4-0.3-3.2-0.8c-0.8-0.6-1.2-1.4-1.2-2.4V54.6c0-0.3-0.2-0.5-0.5-0.5h-4.5c-0.2,0-0.4,0-0.6,0.1
		c-0.2,0.1-0.3,0.2-0.3,0.4v11c0,0.9,0,1.7-0.1,2.4c0,0.6-0.1,1.2-0.3,1.6c-0.2,0.4-0.4,0.7-0.7,0.9c-0.3,0.2-0.8,0.3-1.4,0.3H159
		c-0.7,0-1.3,0.2-1.6,0.6c-0.3,0.4-0.5,1.1-0.5,2.2c0,1,0.2,1.7,0.5,2c0.4,0.3,0.9,0.5,1.6,0.5h4.9c1.7,0,3-0.2,4-0.6
		c1-0.4,1.7-1.1,2.2-2.1C170.7,74.4,171.5,75.1,172.6,75.4 M166.8,48.7c0.3,0,0.5-0.2,0.5-0.5v-4.6c0-0.4-0.2-0.5-0.5-0.5h-4.4
		c-0.4,0-0.5,0.2-0.5,0.5v4.6c0,0.4,0.2,0.5,0.5,0.5H166.8z M173.6,48.7c0.4,0,0.5-0.2,0.5-0.5v-4.6c0-0.4-0.2-0.5-0.5-0.5h-4.4
		c-0.4,0-0.5,0.2-0.5,0.5v4.6c0,0.4,0.2,0.5,0.5,0.5H173.6z M148.4,69.3c0,2.3,0.5,4,1.4,5c0.9,1.1,2.5,1.6,4.7,1.6h4.2
		c0.7,0,1.3-0.2,1.6-0.5c0.3-0.3,0.5-1,0.5-2.1c0-1-0.2-1.7-0.5-2.1c-0.4-0.4-0.9-0.6-1.6-0.6h-1.9c-0.9,0-1.5-0.2-1.9-0.6
		c-0.4-0.4-0.6-1.1-0.6-2.2V40.6c0-0.4-0.2-0.5-0.5-0.5h-4.9c-0.4,0-0.5,0.2-0.5,0.5V69.3z M136.3,64.7c0,2.2-0.4,3.8-1.2,4.8
		c-0.8,1-2,1.5-3.7,1.5c-1.7,0-2.9-0.5-3.8-1.5c-0.8-1-1.2-2.6-1.2-4.8c0-2.1,0.4-3.6,1.2-4.7c0.8-1.1,2.1-1.6,3.8-1.6
		C134.7,58.4,136.3,60.5,136.3,64.7 M135.8,75.7c1.3-0.4,2.5-1.1,3.5-2c1-0.9,1.7-2.1,2.2-3.5c0.5-1.4,0.8-3.2,0.8-5.3
		c0-2.1-0.3-4-0.8-5.5c-0.5-1.5-1.3-2.7-2.3-3.6c-1-0.9-2.1-1.6-3.5-2c-1.3-0.4-2.8-0.6-4.3-0.6c-1.6,0-3,0.2-4.3,0.6
		c-1.3,0.4-2.5,1.1-3.5,2c-1,0.9-1.7,2.1-2.3,3.6c-0.6,1.5-0.8,3.3-0.8,5.5c0,0.4,0,0.8,0,1.2c0,0.4,0,0.7,0.1,1.1
		c-0.1,0.7-0.3,1.2-0.7,1.6c-0.4,0.4-0.8,0.8-1.3,1.1c-0.5,0.3-1,0.7-1.5,1c-0.5,0.3-1.1,0.7-1.5,1.2c-0.5,0.5-0.9,1.1-1.2,1.9
		c-0.3,0.7-0.5,1.7-0.5,2.8v9.9h5.9v-8.8c0-0.8,0.1-1.4,0.4-1.9c0.3-0.4,0.6-0.8,0.9-1c0.4-0.3,0.7-0.5,1.1-0.7c0.4-0.2,0.7-0.6,1-1
		c0.9,1.1,2,1.9,3.4,2.4c1.4,0.5,2.9,0.7,4.6,0.7C133,76.3,134.4,76.1,135.8,75.7"/>
</g>
</svg>
