<?xml version="1.0" encoding="utf-8"?>
<svg version="1.1" id="Layer_1" xmlns="http://www.w3.org/2000/svg" xmlns:xlink="http://www.w3.org/1999/xlink" x="0px" y="0px"
	 viewBox="0 0 500 500" style="enable-background:new 0 0 500 500;" xml:space="preserve">
<style type="text/css">
	.st1{fill:#FFFFFF;}
	.st12{fill:#F99D25;}
</style>
<g>
	<rect class="st12" width="500" height="500"/>
	<path class="st1" d="M103.1,387.8h0.7h66.9c0.9,0,1.7-0.7,1.7-1.7c0-0.4-0.2-0.8-0.4-1.1l-0.1-0.1l-33.6-43.5l-0.3-0.4
		c-0.3-0.3-0.7-0.5-1.2-0.5c-0.4,0-0.8,0.2-1.1,0.4l-0.2,0.2l-0.3,0.4l-32.8,43l-0.5,0.6c-0.2,0.3-0.3,0.6-0.3,0.9
		C101.4,387.1,102.2,387.8,103.1,387.8"/>
	<path class="st1" d="M170.4,393.9h-67.7c-0.9,0-1.7,0.7-1.7,1.7v53c0,0.9,0.7,1.7,1.7,1.7h21.8v-33.3c0-0.9,0.7-1.7,1.7-1.7h20.2
		c0.9,0,1.7,0.7,1.7,1.7v33.3h22.4c0.9,0,1.7-0.7,1.7-1.7v-53C172.1,394.7,171.3,393.9,170.4,393.9"/>
	<path class="st1" d="M398.3,401.8c0,0.9-0.7,1.6-1.6,1.6h-20c-0.9,0-1.6-0.7-1.6-1.6v-12.2c0-0.9,0.7-1.6,1.6-1.6h20
		c0.9,0,1.6,0.7,1.6,1.6V401.8z M398.3,424.2c0,0.9-0.7,1.6-1.6,1.6h-20c-0.9,0-1.6-0.7-1.6-1.6v-12.2c0-0.9,0.7-1.6,1.6-1.6h20
		c0.9,0,1.6,0.7,1.6,1.6V424.2z M367.7,401.8c0,0.9-0.7,1.6-1.6,1.6h-20c-0.9,0-1.6-0.7-1.6-1.6v-12.2c0-0.9,0.7-1.6,1.6-1.6h20
		c0.9,0,1.6,0.7,1.6,1.6V401.8z M367.7,424.2c0,0.9-0.7,1.6-1.6,1.6h-20c-0.9,0-1.6-0.7-1.6-1.6v-12.2c0-0.9,0.7-1.6,1.6-1.6h20
		c0.9,0,1.6,0.7,1.6,1.6V424.2z M404.4,380.1h-67c-0.9,0-1.6,0.7-1.6,1.6v67.6c0,0.9,0.7,1.6,1.6,1.6h67c0.9,0,1.6-0.7,1.6-1.6
		v-67.6C406,380.8,405.3,380.1,404.4,380.1"/>
	<path class="st1" d="M239.1,271.1c0,0.5-0.4,0.9-0.9,0.9h-15c-0.5,0-0.9-0.4-0.9-0.9v-16.7c0-0.5,0.4-0.9,0.9-0.9h15
		c0.5,0,0.9,0.4,0.9,0.9V271.1z M239.1,309.5c0,0.5-0.4,0.9-0.9,0.9h-15c-0.5,0-0.9-0.4-0.9-0.9v-16.7c0-0.5,0.4-0.8,0.9-0.8h15
		c0.5,0,0.9,0.4,0.9,0.8V309.5z M239.1,348c0,0.5-0.4,0.9-0.9,0.9h-15c-0.5,0-0.9-0.4-0.9-0.9v-16.7c0-0.5,0.4-0.9,0.9-0.9h15
		c0.5,0,0.9,0.4,0.9,0.9V348z M239.1,386.4c0,0.5-0.4,0.9-0.9,0.9h-15c-0.5,0-0.9-0.4-0.9-0.9v-16.7c0-0.5,0.4-0.9,0.9-0.9h15
		c0.5,0,0.9,0.4,0.9,0.9V386.4z M239.1,424.8c0,0.5-0.4,0.9-0.9,0.9h-15c-0.5,0-0.9-0.4-0.9-0.9v-16.7c0-0.5,0.4-0.9,0.9-0.9h15
		c0.5,0,0.9,0.4,0.9,0.9V424.8z M209.6,271.1c0,0.5-0.4,0.9-0.9,0.9h-15c-0.5,0-0.9-0.4-0.9-0.9v-16.7c0-0.5,0.4-0.9,0.9-0.9h15
		c0.5,0,0.9,0.4,0.9,0.9V271.1z M209.6,309.5c0,0.5-0.4,0.9-0.9,0.9h-15c-0.5,0-0.9-0.4-0.9-0.9v-16.7c0-0.5,0.4-0.8,0.9-0.8h15
		c0.5,0,0.9,0.4,0.9,0.8V309.5z M209.6,348c0,0.5-0.4,0.9-0.9,0.9h-15c-0.5,0-0.9-0.4-0.9-0.9v-16.7c0-0.5,0.4-0.9,0.9-0.9h15
		c0.5,0,0.9,0.4,0.9,0.9V348z M209.6,386.4c0,0.5-0.4,0.9-0.9,0.9h-15c-0.5,0-0.9-0.4-0.9-0.9v-16.7c0-0.5,0.4-0.9,0.9-0.9h15
		c0.5,0,0.9,0.4,0.9,0.9V386.4z M209.6,424.8c0,0.5-0.4,0.9-0.9,0.9h-15c-0.5,0-0.9-0.4-0.9-0.9v-16.7c0-0.5,0.4-0.9,0.9-0.9h15
		c0.5,0,0.9,0.4,0.9,0.9V424.8z M248.6,223h-65.6c-0.9,0-1.6,0.7-1.6,1.6v224c0,0.9,0.7,1.6,1.6,1.6h65.6c0.9,0,1.6-0.7,1.6-1.6
		v-224C250.2,223.8,249.5,223,248.6,223"/>
	<path class="st1" d="M405.9,373.3c0,0.8-0.6,1.3-1.3,1.3h-67.4c-0.7,0-1.3-0.6-1.3-1.3v-13.5c0-0.7,0.6-1.3,1.3-1.3h67.4
		c0.7,0,1.3,0.6,1.3,1.3V373.3z"/>
	<path class="st1" d="M320.4,333.8c0,0.9-0.7,1.6-1.6,1.6h-19.5c-0.9,0-1.6-0.7-1.6-1.6v-12.2c0-0.9,0.7-1.6,1.6-1.6h19.5
		c0.9,0,1.6,0.7,1.6,1.6V333.8z M320.4,356.4c0,0.9-0.7,1.6-1.6,1.6h-19.5c-0.9,0-1.6-0.7-1.6-1.6v-12.2c0-0.9,0.7-1.6,1.6-1.6h19.5
		c0.9,0,1.6,0.7,1.6,1.6V356.4z M320.4,379c0,0.9-0.7,1.6-1.6,1.6h-19.5c-0.9,0-1.6-0.7-1.6-1.6v-12.2c0-0.9,0.7-1.6,1.6-1.6h19.5
		c0.9,0,1.6,0.7,1.6,1.6V379z M320.4,401.6c0,0.9-0.7,1.6-1.6,1.6h-19.5c-0.9,0-1.6-0.7-1.6-1.6v-12.2c0-0.9,0.7-1.6,1.6-1.6h19.5
		c0.9,0,1.6,0.7,1.6,1.6V401.6z M320.4,424.2c0,0.9-0.7,1.6-1.6,1.6h-19.5c-0.9,0-1.6-0.7-1.6-1.6V412c0-0.9,0.7-1.6,1.6-1.6h19.5
		c0.9,0,1.6,0.7,1.6,1.6V424.2z M290.6,329.5v0.6v26.4c0,0.9-0.7,1.6-1.6,1.6h-19.5c-0.9,0-1.6-0.7-1.6-1.6v-3.3v-0.1
		c0-0.2,0-0.4,0.1-0.6c0-0.1,0-0.1,0.1-0.2c0-0.1,0.1-0.1,0.1-0.2c0-0.1,0.1-0.2,0.2-0.3c2.5-3.6,13.8-17.5,18.5-23.3l0.5-0.6
		c0.3-0.4,0.9-0.7,1.4-0.7c0.9,0,1.6,0.7,1.8,1.5V329.5z M290.5,379c0,0.9-0.7,1.6-1.6,1.6h-19.5c-0.9,0-1.6-0.7-1.6-1.6v-12.2
		c0-0.9,0.7-1.6,1.6-1.6h19.5c0.9,0,1.6,0.7,1.6,1.6V379z M290.5,401.6c0,0.9-0.7,1.6-1.6,1.6h-19.5c-0.9,0-1.6-0.7-1.6-1.6v-12.2
		c0-0.9,0.7-1.6,1.6-1.6h19.5c0.9,0,1.6,0.7,1.6,1.6V401.6z M290.5,424.2c0,0.9-0.7,1.6-1.6,1.6h-19.5c-0.9,0-1.6-0.7-1.6-1.6V412
		c0-0.9,0.7-1.6,1.6-1.6h19.5c0.9,0,1.6,0.7,1.6,1.6V424.2z M300.7,309.7l0.5-0.6c4.4-5.7,11.8-14.8,15.5-19.2l0.5-0.6
		c0.3-0.4,0.9-0.7,1.4-0.7c0.9,0,1.6,0.6,1.8,1.5v0.7v0.6v19.4c0,1-0.8,1.8-1.8,1.8c0,0-0.1,0-0.1,0c0,0-0.1,0-0.1,0h-15.3h-0.8
		c0,0-0.1,0-0.1,0c0,0,0,0-0.1,0c-1,0-1.8-0.8-1.8-1.8C300.3,310.4,300.5,310.1,300.7,309.7 M327.8,265.4c-0.2-0.7-0.9-1.3-1.6-1.3
		c-0.4,0-0.7,0.1-0.9,0.3c0,0-0.1,0-0.1,0.1l-0.6,0.7l-64.4,81.7l-0.3,0.4c-0.3,0.3-0.5,0.8-0.6,1.3v0.1V449c0,0.9,0.7,1.6,1.6,1.6
		h65.5c0.9,0,1.6-0.7,1.6-1.6V266C328,265.8,327.9,265.6,327.8,265.4"/>
	<path class="st1" d="M471.6,41.5c0-0.9-0.4-1.3-1.3-1.3H458c-0.9,0-1.3,0.4-1.3,1.3v78.2c0,0.9,0.4,1.3,1.3,1.3h12.3
		c0.9,0,1.3-0.4,1.3-1.3V41.5z M426.1,41.5c0-0.9-0.4-1.3-1.3-1.3h-12.3c-0.9,0-1.3,0.4-1.3,1.3v78.2c0,0.9,0.4,1.3,1.3,1.3h12.3
		c0.9,0,1.3-0.4,1.3-1.3V41.5z"/>
	<path class="st1" d="M351.1,123.8c0,2.2-0.4,3.8-1.1,4.8c-0.7,1-1.9,1.5-3.5,1.5c-1.5,0-2.7-0.5-3.4-1.5c-0.7-1-1.1-2.6-1.1-4.8
		c0-2.1,0.4-3.7,1.1-4.7c0.7-1.1,1.9-1.6,3.4-1.6C349.5,117.4,351.1,119.5,351.1,123.8 M350.6,134.7c1.2-0.4,2.3-1.1,3.2-2
		c0.9-0.9,1.6-2.1,2-3.5c0.5-1.4,0.7-3.2,0.7-5.3c0-2.1-0.3-4-0.8-5.5c-0.5-1.5-1.2-2.7-2.1-3.6c-0.9-0.9-2-1.6-3.2-2
		c-1.2-0.4-2.6-0.6-4-0.6c-1.4,0-2.7,0.2-3.9,0.6c-1.2,0.4-2.2,1.1-3.1,1.9c-0.9,0.9-1.6,2.1-2.1,3.5c-0.5,1.4-0.8,3.2-0.8,5.2v0.8
		c0,0.2,0,0.5,0,0.8c0,0.9-0.1,1.7-0.3,2.3c-0.2,0.6-0.4,1.1-0.7,1.5c-0.3,0.4-0.6,0.6-1,0.8c-0.4,0.2-0.7,0.2-1.1,0.2h-1.9
		c-0.7,0-1.2,0.2-1.5,0.5c-0.3,0.4-0.5,1-0.5,2.1c0,1,0.2,1.6,0.5,2.1c0.3,0.4,0.8,0.6,1.5,0.6h1.7c0.5,0,0.9,0,1.5-0.1
		c0.5-0.1,1-0.2,1.5-0.4c0.5-0.2,1-0.5,1.4-0.8c0.5-0.4,0.8-0.8,1.2-1.4c0.9,1.1,2,1.9,3.3,2.4c1.3,0.5,2.8,0.7,4.4,0.7
		C348,135.4,349.3,135.1,350.6,134.7 M306.8,117.1l2.5,2.9c0.2,0.2,0.5,0.2,0.7-0.1c0.7-0.8,1.5-1.4,2.3-1.9
		c0.9-0.5,1.8-0.7,2.9-0.7c1.1,0,2,0.2,2.7,0.6c0.7,0.4,1.3,1,1.8,1.7c0.5,0.7,0.8,1.5,1,2.5c0.2,0.9,0.3,2,0.3,3.1
		c0,0.8,0,1.6-0.1,2.1c-0.1,0.6-0.3,1-0.6,1.4c-0.3,0.4-0.7,0.6-1.2,0.7c-0.5,0.1-1.2,0.2-2,0.2h-12.9c-0.7,0-1.2,0.2-1.5,0.5
		c-0.3,0.4-0.5,1-0.5,2.1c0,1,0.2,1.6,0.5,2.1c0.3,0.4,0.8,0.6,1.5,0.6h15c1.6,0,2.9-0.2,4-0.7c1.1-0.4,1.9-1.3,2.6-2.5
		c0.6,1.3,1.3,2.2,2.4,2.6c1,0.4,2.2,0.6,3.6,0.6c0.7,0,1.2-0.2,1.5-0.6c0.3-0.4,0.5-1.1,0.5-2.1c0-0.9-0.2-1.6-0.5-2
		c-0.3-0.4-0.8-0.6-1.5-0.6h-0.8c-1.2,0-2.1-0.3-2.8-0.8c-0.7-0.5-1.1-1.3-1.2-2.2c0-0.2,0-0.4,0-0.6c0-0.2,0-0.4,0-0.7
		c0-1.8-0.2-3.5-0.6-5.1c-0.4-1.6-1-3-1.9-4.2c-0.9-1.2-2-2.2-3.5-2.9c-1.5-0.7-3.3-1.1-5.4-1.1c-2,0-3.7,0.4-5.1,1.2
		c-1.4,0.8-2.6,1.8-3.6,3.1C306.5,116.6,306.5,116.9,306.8,117.1 M289.1,129.7c-0.7,0-1.2,0.2-1.5,0.6c-0.3,0.4-0.5,1-0.5,2
		c0,1.1,0.2,1.9,0.5,2.2c0.3,0.3,0.8,0.5,1.5,0.5h4.1c1.4,0,2.6-0.2,3.4-0.6c0.8-0.4,1.5-1.1,1.9-2.1c0.5,1.1,1.3,1.9,2.2,2.2
		c0.9,0.3,2,0.5,3.3,0.5c0.7,0,1.2-0.2,1.5-0.6c0.3-0.4,0.5-1.1,0.5-2.1c0-0.9-0.2-1.6-0.5-2c-0.3-0.4-0.8-0.6-1.5-0.6h-0.8
		c-1.2,0-2.2-0.3-2.9-0.8c-0.7-0.6-1.1-1.4-1.1-2.4V99.6c0-0.4-0.2-0.5-0.5-0.5h-4.5c-0.3,0-0.5,0.2-0.5,0.5v27.3
		c0,1.1-0.2,1.8-0.6,2.2c-0.4,0.4-1,0.6-1.8,0.6H289.1z M285.7,134.5c0.9,0.3,2,0.5,3.3,0.5c0.7,0,1.2-0.2,1.5-0.6
		c0.3-0.4,0.5-1.1,0.5-2.1c0-0.9-0.2-1.6-0.5-2c-0.3-0.4-0.8-0.6-1.5-0.6h-0.8c-1.2,0-2.2-0.3-2.9-0.8c-0.7-0.6-1.1-1.4-1.1-2.4
		v-12.8c0-0.3-0.2-0.5-0.5-0.5h-4.1c-0.2,0-0.4,0-0.6,0.1c-0.2,0.1-0.3,0.2-0.3,0.4v10.9c0,0.9,0,1.7,0,2.4c0,0.6-0.1,1.2-0.3,1.6
		c-0.1,0.4-0.4,0.7-0.7,0.9c-0.3,0.2-0.8,0.3-1.3,0.3h-3.2c-0.7,0-1.2,0.2-1.5,0.6c-0.3,0.4-0.5,1.1-0.5,2.2c0,1,0.2,1.7,0.5,2
		c0.3,0.3,0.8,0.5,1.5,0.5h4.5c1.5,0,2.8-0.2,3.7-0.6c0.9-0.4,1.6-1.1,2-2.1C284,133.4,284.8,134.1,285.7,134.5 M280,145.1
		c0.3,0,0.5-0.2,0.5-0.5V140c0-0.4-0.2-0.5-0.5-0.5h-4.1c-0.3,0-0.5,0.2-0.5,0.5v4.6c0,0.4,0.2,0.5,0.5,0.5H280z M286.3,145.1
		c0.3,0,0.5-0.2,0.5-0.5V140c0-0.4-0.2-0.5-0.5-0.5h-4.1c-0.3,0-0.5,0.2-0.5,0.5v4.6c0,0.4,0.2,0.5,0.5,0.5H286.3z M255,126.4
		c-0.8-0.8-1.2-2-1.2-3.6c0-2.1,0.4-3.5,1.3-4.3c0.8-0.8,2-1.2,3.4-1.2h4.3v4.5c0,1.9-0.4,3.3-1.1,4.2c-0.7,1-1.9,1.4-3.5,1.4
		C256.8,127.5,255.8,127.2,255,126.4 M257.9,112.1c-1.2,0-2.4,0.2-3.5,0.5c-1.1,0.4-2.1,0.9-3,1.8c-0.9,0.8-1.6,1.9-2.1,3.3
		c-0.5,1.4-0.8,3.1-0.8,5.1c0,1.8,0.2,3.3,0.7,4.5c0.5,1.3,1.1,2.3,2,3.1c0.8,0.8,1.8,1.4,2.9,1.8c1.1,0.4,2.3,0.6,3.6,0.6
		c1,0,2-0.2,3-0.5c0.9-0.3,1.7-0.8,2.4-1.5c0.3,1.5,0.9,2.6,1.8,3.2c0.9,0.6,2.1,0.9,3.7,0.9h3.9c0.7,0,1.2-0.2,1.5-0.5
		c0.3-0.3,0.5-1,0.5-2.1c0-1.8-0.6-2.7-1.9-2.7h-1.8c-0.8,0-1.4-0.2-1.8-0.6c-0.4-0.4-0.6-1.1-0.6-2.2v-17.1c0-0.3-0.2-0.5-0.5-0.5
		h-4.5c-0.3,0-0.5,0.2-0.5,0.5v2.3H257.9z M257.6,105.7c0.3,0,0.5-0.2,0.5-0.5v-4.6c0-0.4-0.2-0.5-0.5-0.5h-4.1
		c-0.3,0-0.5,0.2-0.5,0.5v4.6c0,0.4,0.2,0.5,0.5,0.5H257.6z M263.9,105.7c0.3,0,0.5-0.2,0.5-0.5v-4.6c0-0.4-0.2-0.5-0.5-0.5h-4.1
		c-0.3,0-0.5,0.2-0.5,0.5v4.6c0,0.4,0.2,0.5,0.5,0.5H263.9z M227.1,123.8c0,2.2-0.4,3.8-1.1,4.8c-0.7,1-1.9,1.5-3.5,1.5
		c-1.5,0-2.7-0.5-3.4-1.5c-0.7-1-1.1-2.6-1.1-4.8c0-2.1,0.4-3.7,1.1-4.7c0.7-1.1,1.9-1.6,3.4-1.6
		C225.5,117.4,227.1,119.5,227.1,123.8 M226.6,134.7c1.2-0.4,2.3-1.1,3.2-2c0.9-0.9,1.6-2.1,2-3.5c0.5-1.4,0.7-3.2,0.7-5.3
		c0-2.1-0.3-4-0.8-5.5c-0.5-1.5-1.2-2.7-2.1-3.6c-0.9-0.9-2-1.6-3.2-2c-1.2-0.4-2.6-0.6-4-0.6c-1.4,0-2.7,0.2-3.9,0.6
		c-1.2,0.4-2.2,1.1-3.1,1.9c-0.9,0.9-1.6,2.1-2.1,3.5c-0.5,1.4-0.8,3.2-0.8,5.2v0.8c0,0.2,0,0.5,0,0.8c0,0.9-0.1,1.7-0.3,2.3
		c-0.2,0.6-0.4,1.1-0.7,1.5c-0.3,0.4-0.6,0.6-1,0.8c-0.4,0.2-0.7,0.2-1.1,0.2h-1.9c-0.7,0-1.2,0.2-1.5,0.5c-0.3,0.4-0.5,1-0.5,2.1
		c0,1,0.2,1.6,0.5,2.1c0.3,0.4,0.8,0.6,1.5,0.6h1.7c0.5,0,0.9,0,1.5-0.1c0.5-0.1,1-0.2,1.5-0.4c0.5-0.2,1-0.5,1.4-0.8
		c0.5-0.4,0.9-0.8,1.2-1.4c0.9,1.1,2,1.9,3.3,2.4c1.3,0.5,2.8,0.7,4.4,0.7C224,135.4,225.3,135.1,226.6,134.7 M178.1,117.7
		c0-0.4-0.2-0.5-0.5-0.5h-4.5c-0.3,0-0.5,0.2-0.5,0.5v6.8c0,1,0,1.8,0,2.4c0,0.6-0.1,1.2-0.2,1.6c-0.1,0.4-0.4,0.7-0.7,0.9
		c-0.3,0.2-0.8,0.3-1.3,0.3h-3.9c-0.7,0-1.2,0.2-1.5,0.6c-0.3,0.4-0.5,1.2-0.5,2.2c0,0.6,0,1,0.1,1.3c0.1,0.3,0.2,0.6,0.4,0.7
		c0.2,0.2,0.4,0.3,0.7,0.3c0.3,0,0.6,0.1,1,0.1h5.2c1.4,0,2.6-0.2,3.4-0.6c0.9-0.4,1.5-1.2,1.9-2.2c0.8,1.9,2.4,2.8,4.7,2.8h2.1
		c1.5,0,2.6-0.2,3.5-0.6c0.9-0.4,1.5-1.1,2-2.2c0.4,0.9,1,1.6,1.8,2.1c0.8,0.5,1.8,0.7,2.9,0.7h2.1c1.5,0,2.6-0.2,3.5-0.6
		c0.9-0.4,1.5-1.1,2-2.1c0.6,1.1,1.3,1.9,2.2,2.2c0.9,0.3,2,0.5,3.3,0.5c0.6,0,1.1-0.2,1.5-0.6c0.3-0.4,0.5-1.1,0.5-2.1
		c0-0.9-0.2-1.6-0.5-2c-0.3-0.4-0.8-0.6-1.5-0.6h-0.8c-1.2,0-2.2-0.3-2.9-0.8c-0.7-0.6-1.1-1.4-1.1-2.4v-12.8c0-0.3-0.2-0.5-0.5-0.5
		h-4.5c-0.3,0-0.5,0.2-0.5,0.5v10.9c0,1.1,0,2-0.1,2.7c-0.1,0.7-0.2,1.2-0.5,1.6c-0.2,0.4-0.6,0.6-1.1,0.7c-0.5,0.1-1.1,0.2-1.8,0.2
		c-1,0-1.8-0.3-2.4-0.8c-0.6-0.5-0.9-1.3-0.9-2.4v-8.8c0-0.4-0.2-0.5-0.5-0.5h-4.5c-0.3,0-0.5,0.2-0.5,0.5v6.8c0,1.1,0,2-0.1,2.7
		c0,0.7-0.2,1.2-0.4,1.6c-0.2,0.4-0.6,0.6-1.1,0.8c-0.5,0.1-1.1,0.2-1.9,0.2c-1.2,0-2-0.3-2.6-0.8c-0.5-0.5-0.8-1.4-0.8-2.5V117.7z
		 M163.1,134.5c0.9,0.3,2,0.5,3.3,0.5c0.7,0,1.2-0.2,1.5-0.6c0.3-0.4,0.5-1.1,0.5-2.1c0-0.9-0.2-1.6-0.5-2c-0.3-0.4-0.8-0.6-1.5-0.6
		h-0.8c-1.2,0-2.2-0.3-2.9-0.8c-0.7-0.6-1.1-1.4-1.1-2.4v-12.8c0-0.3-0.2-0.5-0.5-0.5H157c-0.2,0-0.4,0-0.6,0.1
		c-0.2,0.1-0.3,0.2-0.3,0.4v10.9c0,0.9,0,1.7,0,2.4c0,0.6-0.1,1.2-0.3,1.6c-0.1,0.4-0.4,0.7-0.7,0.9c-0.3,0.2-0.8,0.3-1.3,0.3h-3.2
		c-0.7,0-1.2,0.2-1.5,0.6c-0.3,0.4-0.5,1.1-0.5,2.2c0,1,0.2,1.7,0.5,2c0.3,0.3,0.8,0.5,1.5,0.5h4.5c1.5,0,2.8-0.2,3.7-0.6
		c0.9-0.4,1.6-1.1,2-2.1C161.5,133.4,162.2,134.1,163.1,134.5 M157.8,107.8c0.3,0,0.5-0.2,0.5-0.5v-4.6c0-0.4-0.2-0.5-0.5-0.5h-4.1
		c-0.3,0-0.5,0.2-0.5,0.5v4.6c0,0.4,0.2,0.5,0.5,0.5H157.8z M164.1,107.8c0.3,0,0.5-0.2,0.5-0.5v-4.6c0-0.4-0.2-0.5-0.5-0.5H160
		c-0.3,0-0.5,0.2-0.5,0.5v4.6c0,0.4,0.2,0.5,0.5,0.5H164.1z M135.2,117.4c1.7,0,2.9,0.4,3.7,1.1c0.8,0.7,1.2,1.9,1.2,3.5v3.5
		c0,0.8,0,1.4-0.1,1.9c-0.1,0.5-0.3,1-0.5,1.3c-0.3,0.3-0.7,0.6-1.2,0.7c-0.5,0.1-1.2,0.2-2.1,0.2h-9c-0.3,0-0.5,0.2-0.5,0.5v4.2
		c0,0.4,0.2,0.5,0.5,0.5H138c1.6,0,3-0.2,4-0.6c1-0.4,1.9-1.2,2.5-2.4c0.5,1.2,1.3,2.1,2.3,2.5c1,0.4,2.2,0.6,3.5,0.6
		c0.7,0,1.2-0.2,1.5-0.6c0.3-0.4,0.5-1.1,0.5-2.1c0-0.9-0.2-1.6-0.5-2c-0.3-0.4-0.8-0.6-1.5-0.6h-0.8c-1.2,0-2.2-0.3-2.9-0.8
		c-0.7-0.6-1.1-1.3-1.1-2.4v-5c0-3.3-0.8-5.7-2.4-7.2c-1.6-1.5-3.7-2.2-6.5-2.2h-7.4c-0.3,0-0.5,0.2-0.5,0.5v4.2
		c0,0.4,0.2,0.5,0.5,0.5H135.2z M121,99.6c0-0.4-0.2-0.5-0.5-0.5h-4.5c-0.3,0-0.5,0.2-0.5,0.5v34.9c0,0.4,0.2,0.5,0.5,0.5h4.5
		c0.3,0,0.5-0.2,0.5-0.5V99.6z M104.5,123.8c0,2.2-0.4,3.8-1.1,4.8c-0.7,1-1.9,1.5-3.5,1.5c-1.5,0-2.7-0.5-3.4-1.5
		c-0.7-1-1.1-2.6-1.1-4.8c0-2.1,0.4-3.7,1.1-4.7c0.7-1.1,1.9-1.6,3.4-1.6C103,117.4,104.5,119.5,104.5,123.8 M104,134.7
		c1.2-0.4,2.3-1.1,3.2-2c0.9-0.9,1.6-2.1,2-3.5c0.5-1.4,0.7-3.2,0.7-5.3c0-2.1-0.3-4-0.8-5.5c-0.5-1.5-1.2-2.7-2.1-3.6
		c-0.9-0.9-2-1.6-3.2-2c-1.2-0.4-2.6-0.6-4-0.6s-2.7,0.2-3.9,0.6c-1.2,0.4-2.3,1.1-3.1,1.9c-0.9,0.9-1.6,2.1-2.1,3.5
		c-0.5,1.4-0.8,3.2-0.8,5.2v0.8c0,0.2,0,0.5,0,0.8c0,0.9-0.1,1.7-0.3,2.3c-0.2,0.6-0.4,1.1-0.7,1.5c-0.3,0.4-0.6,0.6-1,0.8
		c-0.4,0.2-0.7,0.2-1.1,0.2H85c-0.7,0-1.2,0.2-1.5,0.5c-0.3,0.4-0.5,1-0.5,2.1c0,1,0.2,1.6,0.5,2.1c0.3,0.4,0.8,0.6,1.5,0.6h1.7
		c0.5,0,0.9,0,1.5-0.1c0.5-0.1,1-0.2,1.5-0.4c0.5-0.2,1-0.5,1.4-0.8c0.5-0.4,0.8-0.8,1.2-1.4c0.9,1.1,2,1.9,3.3,2.4
		c1.3,0.5,2.8,0.7,4.4,0.7C101.4,135.4,102.8,135.1,104,134.7 M67,126.4c-0.8-0.8-1.2-2-1.2-3.6c0-2.1,0.4-3.5,1.3-4.3
		c0.8-0.8,2-1.2,3.4-1.2h4.3v4.5c0,1.9-0.4,3.3-1.1,4.2c-0.7,1-1.9,1.4-3.5,1.4C68.9,127.5,67.8,127.2,67,126.4 M69.9,112.1
		c-1.2,0-2.4,0.2-3.5,0.5c-1.1,0.4-2.1,0.9-3,1.8c-0.9,0.8-1.6,1.9-2.1,3.3c-0.5,1.4-0.8,3.1-0.8,5.1c0,1.8,0.2,3.3,0.7,4.5
		c0.5,1.3,1.1,2.3,2,3.1c0.8,0.8,1.8,1.4,2.9,1.8c1.1,0.4,2.3,0.6,3.6,0.6c1,0,2-0.2,3-0.5c0.9-0.3,1.8-0.8,2.4-1.5
		c0.3,1.5,0.9,2.6,1.8,3.2c0.9,0.6,2.1,0.9,3.7,0.9h3.9c0.7,0,1.2-0.2,1.5-0.5c0.3-0.3,0.5-1,0.5-2.1c0-1.8-0.6-2.7-1.9-2.7h-1.8
		c-0.8,0-1.4-0.2-1.8-0.6c-0.4-0.4-0.6-1.1-0.6-2.2v-17.1c0-0.3-0.2-0.5-0.5-0.5h-4.5c-0.3,0-0.5,0.2-0.5,0.5v2.3H69.9z M69.6,105.7
		c0.3,0,0.5-0.2,0.5-0.5v-4.6c0-0.4-0.2-0.5-0.5-0.5h-4.1c-0.3,0-0.5,0.2-0.5,0.5v4.6c0,0.4,0.2,0.5,0.5,0.5H69.6z M75.9,105.7
		c0.3,0,0.5-0.2,0.5-0.5v-4.6c0-0.4-0.2-0.5-0.5-0.5h-4.1c-0.3,0-0.5,0.2-0.5,0.5v4.6c0,0.4,0.2,0.5,0.5,0.5H75.9z"/>
	<path class="st1" d="M351.1,61.6c0,2.2-0.4,3.8-1.1,4.8c-0.7,1-1.9,1.5-3.5,1.5c-1.5,0-2.7-0.5-3.4-1.5c-0.7-1-1.1-2.6-1.1-4.8
		c0-2.1,0.4-3.6,1.1-4.7c0.7-1.1,1.9-1.6,3.4-1.6C349.5,55.3,351.1,57.4,351.1,61.6 M350.6,72.6c1.2-0.4,2.3-1.1,3.2-2
		c0.9-0.9,1.6-2.1,2-3.5c0.5-1.4,0.7-3.2,0.7-5.3c0-2.1-0.3-4-0.8-5.5c-0.5-1.5-1.2-2.7-2.1-3.6c-0.9-0.9-2-1.6-3.2-2
		c-1.2-0.4-2.6-0.6-4-0.6c-1.4,0-2.7,0.2-3.9,0.6c-1.2,0.4-2.2,1.1-3.1,1.9c-0.9,0.9-1.6,2.1-2.1,3.5c-0.5,1.4-0.8,3.2-0.8,5.2V62
		c0,0.2,0,0.5,0,0.8c0,0.9-0.1,1.7-0.3,2.3c-0.2,0.6-0.4,1.1-0.7,1.5c-0.3,0.4-0.6,0.6-1,0.8c-0.4,0.2-0.7,0.2-1.1,0.2h-1.9
		c-0.7,0-1.2,0.2-1.5,0.5c-0.3,0.4-0.5,1-0.5,2.1c0,1,0.2,1.6,0.5,2.1c0.3,0.4,0.8,0.6,1.5,0.6h1.7c0.5,0,0.9,0,1.5-0.1
		c0.5-0.1,1-0.2,1.5-0.4c0.5-0.2,1-0.5,1.4-0.8c0.5-0.4,0.9-0.8,1.2-1.4c0.9,1.1,2,1.9,3.3,2.4c1.3,0.5,2.8,0.7,4.4,0.7
		C348,73.2,349.3,73,350.6,72.6 M316.3,55.3c1.7,0,2.9,0.4,3.7,1.1c0.8,0.7,1.2,1.9,1.2,3.5v3.5c0,0.8,0,1.4-0.1,1.9
		c-0.1,0.5-0.3,1-0.5,1.3c-0.3,0.3-0.7,0.6-1.2,0.7c-0.5,0.1-1.2,0.2-2.1,0.2h-9c-0.3,0-0.5,0.2-0.5,0.5v4.2c0,0.4,0.2,0.5,0.5,0.5
		h10.9c1.6,0,3-0.2,4-0.6c1-0.4,1.9-1.2,2.5-2.4c0.5,1.2,1.3,2.1,2.3,2.5c1,0.4,2.2,0.6,3.5,0.6c0.7,0,1.2-0.2,1.5-0.6
		c0.3-0.4,0.5-1.1,0.5-2.1c0-0.9-0.2-1.6-0.5-2c-0.3-0.4-0.8-0.6-1.5-0.6h-0.8c-1.2,0-2.2-0.3-2.9-0.8c-0.7-0.6-1.1-1.3-1.1-2.4
		v-4.9c0-3.3-0.8-5.7-2.4-7.2c-1.6-1.5-3.7-2.2-6.5-2.2h-7.4c-0.3,0-0.5,0.2-0.5,0.5v4.2c0,0.4,0.2,0.5,0.5,0.5H316.3z M279.4,66
		c-0.6,1.9-0.8,3.8-0.8,5.7c0,2,0.3,3.8,0.9,5.3c0.6,1.5,1.4,2.8,2.5,3.8c1.1,1,2.3,1.8,3.8,2.2c1.4,0.5,3,0.7,4.7,0.7
		c1.8,0,3.4-0.2,4.9-0.7c1.5-0.5,2.7-1.2,3.8-2.2c1.1-1,1.9-2.3,2.4-3.8c0.6-1.5,0.8-3.3,0.8-5.3V55.9c0-0.4-0.2-0.5-0.5-0.5h-4.5
		c-0.3,0-0.5,0.2-0.5,0.5v15.7c0,2.4-0.6,4.1-1.7,5.2c-1.1,1.1-2.6,1.6-4.5,1.6c-0.7,0-1.5-0.1-2.3-0.3c-0.8-0.2-1.5-0.6-2.1-1.2
		c-0.6-0.6-1.1-1.3-1.6-2.2c-0.4-0.9-0.6-2.1-0.6-3.5c0-1.6,0.2-3,0.7-4.4c0.5-1.3,1-2.5,1.5-3.5c0.1-0.1,0.1-0.3,0.1-0.4
		c0-0.1-0.1-0.2-0.3-0.3l-3.9-1.7c-0.3-0.2-0.6-0.2-0.7,0.1C280.7,62.4,280,64.1,279.4,66 M294.2,52.7c0.3,0,0.5-0.2,0.5-0.5v-4.6
		c0-0.4-0.2-0.5-0.5-0.5h-4.7c-0.3,0-0.5,0.2-0.5,0.5v4.6c0,0.4,0.2,0.5,0.5,0.5H294.2z M255.5,56.9c0.7,1.1,1.1,2.6,1.1,4.7v6h-4.3
		c-1.6,0-2.7-0.4-3.6-1.2c-0.8-0.8-1.2-2.3-1.2-4.5c0-2,0.4-3.6,1.2-4.8c0.8-1.2,2-1.8,3.4-1.8C253.7,55.3,254.8,55.8,255.5,56.9
		 M256.6,72.8c0,1.2-0.1,2.1-0.3,2.8c-0.2,0.7-0.5,1.2-0.9,1.6c-0.4,0.4-0.9,0.6-1.4,0.8c-0.6,0.1-1.1,0.2-1.8,0.2h-5.7
		c-0.3,0-0.5,0.2-0.5,0.5V83c0,0.4,0.2,0.5,0.5,0.5h6.6c2.9,0,5.1-0.8,6.7-2.3c1.5-1.5,2.3-3.9,2.3-7.2V61.6c0-2.1-0.2-4-0.7-5.4
		c-0.5-1.5-1.2-2.7-2-3.6c-0.9-0.9-1.9-1.6-3.1-2c-1.2-0.4-2.6-0.6-4-0.6c-1.3,0-2.6,0.2-3.8,0.7c-1.2,0.4-2.3,1.1-3.2,2.1
		c-0.9,1-1.7,2.2-2.2,3.8c-0.5,1.5-0.8,3.4-0.8,5.5c0,2,0.2,3.7,0.7,5.1c0.4,1.4,1.1,2.5,1.9,3.4c0.8,0.9,1.8,1.5,3,1.9
		c1.2,0.4,2.5,0.6,4.1,0.6H256.6z M231.8,61.6c0,2.2-0.4,3.8-1.1,4.8c-0.7,1-1.9,1.5-3.5,1.5c-1.5,0-2.7-0.5-3.4-1.5
		c-0.7-1-1.1-2.6-1.1-4.8c0-2.1,0.4-3.6,1.1-4.7s1.9-1.6,3.4-1.6C230.2,55.3,231.8,57.4,231.8,61.6 M231.3,72.6
		c1.2-0.4,2.3-1.1,3.2-2c0.9-0.9,1.6-2.1,2-3.5c0.5-1.4,0.7-3.2,0.7-5.3c0-2.1-0.3-4-0.8-5.5c-0.5-1.5-1.2-2.7-2.1-3.6
		c-0.9-0.9-2-1.6-3.2-2c-1.2-0.4-2.6-0.6-4-0.6c-1.4,0-2.7,0.2-3.9,0.6c-1.2,0.4-2.3,1.1-3.1,1.9c-0.9,0.9-1.6,2.1-2.1,3.5
		c-0.5,1.4-0.8,3.2-0.8,5.2V62c0,0.2,0,0.5,0,0.8c0,0.9-0.1,1.7-0.3,2.3c-0.2,0.6-0.4,1.1-0.7,1.5c-0.3,0.4-0.6,0.6-1,0.8
		c-0.4,0.2-0.7,0.2-1.1,0.2h-1.9c-0.7,0-1.2,0.2-1.5,0.5s-0.5,1-0.5,2.1c0,1,0.2,1.6,0.5,2.1c0.3,0.4,0.8,0.6,1.5,0.6h1.7
		c0.5,0,0.9,0,1.5-0.1c0.5-0.1,1-0.2,1.5-0.4c0.5-0.2,1-0.5,1.4-0.8c0.5-0.4,0.9-0.8,1.2-1.4c0.9,1.1,2,1.9,3.3,2.4
		c1.3,0.5,2.8,0.7,4.4,0.7C228.7,73.2,230,73,231.3,72.6 M199.1,82.9c0.3,0,0.5-0.2,0.5-0.5v-4.6c0-0.4-0.2-0.5-0.5-0.5h-4.7
		c-0.3,0-0.5,0.2-0.5,0.5v4.6c0,0.4,0.2,0.5,0.5,0.5H199.1z M187.5,55l2.5,2.9c0.2,0.2,0.5,0.2,0.7-0.1c0.7-0.8,1.5-1.4,2.3-1.9
		c0.9-0.5,1.8-0.7,2.9-0.7c1.1,0,2,0.2,2.7,0.6c0.7,0.4,1.3,1,1.8,1.7c0.5,0.7,0.8,1.5,1,2.5c0.2,0.9,0.3,2,0.3,3.1
		c0,0.8,0,1.6-0.1,2.1c-0.1,0.6-0.3,1-0.6,1.4c-0.3,0.4-0.7,0.6-1.2,0.7c-0.5,0.1-1.2,0.2-2,0.2h-12.9c-0.7,0-1.2,0.2-1.5,0.5
		c-0.3,0.4-0.5,1-0.5,2.1c0,1,0.2,1.6,0.5,2.1c0.3,0.4,0.8,0.6,1.5,0.6h15c1.6,0,2.9-0.2,4-0.7c1.1-0.4,1.9-1.3,2.6-2.5
		c0.6,1.3,1.3,2.2,2.4,2.6s2.2,0.6,3.6,0.6c0.7,0,1.2-0.2,1.5-0.6c0.3-0.4,0.5-1.1,0.5-2.1c0-0.9-0.2-1.6-0.5-2
		c-0.3-0.4-0.8-0.6-1.5-0.6h-0.8c-1.2,0-2.1-0.3-2.8-0.8c-0.7-0.5-1.1-1.3-1.2-2.2c0-0.2,0-0.4,0-0.6c0-0.2,0-0.4,0-0.7
		c0-1.8-0.2-3.5-0.6-5.1c-0.4-1.6-1-3-1.9-4.2c-0.9-1.2-2-2.2-3.5-2.9c-1.5-0.7-3.3-1.1-5.4-1.1c-2,0-3.7,0.4-5.1,1.2
		c-1.4,0.8-2.6,1.8-3.6,3.1C187.2,54.5,187.2,54.7,187.5,55 M181.5,72.3c0.9,0.3,2,0.5,3.3,0.5c0.7,0,1.2-0.2,1.5-0.6
		c0.3-0.4,0.5-1.1,0.5-2.1c0-0.9-0.2-1.6-0.5-2c-0.3-0.4-0.8-0.6-1.5-0.6h-0.8c-1.2,0-2.2-0.3-2.9-0.8c-0.7-0.6-1.1-1.4-1.1-2.4
		V51.5c0-0.3-0.2-0.5-0.5-0.5h-4.1c-0.2,0-0.4,0-0.6,0.1c-0.2,0.1-0.3,0.2-0.3,0.4v11c0,0.9,0,1.7,0,2.4c0,0.6-0.1,1.2-0.3,1.6
		c-0.1,0.4-0.4,0.7-0.7,0.9c-0.3,0.2-0.8,0.3-1.3,0.3H169c-0.7,0-1.2,0.2-1.5,0.6c-0.3,0.4-0.5,1.1-0.5,2.2c0,1,0.2,1.7,0.5,2
		c0.3,0.3,0.8,0.5,1.5,0.5h4.5c1.5,0,2.8-0.2,3.7-0.6c0.9-0.4,1.6-1.1,2-2.1C179.8,71.3,180.5,72,181.5,72.3 M176.1,45.6
		c0.3,0,0.5-0.2,0.5-0.5v-4.6c0-0.4-0.2-0.5-0.5-0.5H172c-0.3,0-0.5,0.2-0.5,0.5v4.6c0,0.4,0.2,0.5,0.5,0.5H176.1z M182.4,45.6
		c0.3,0,0.5-0.2,0.5-0.5v-4.6c0-0.4-0.2-0.5-0.5-0.5h-4.1c-0.3,0-0.5,0.2-0.5,0.5v4.6c0,0.4,0.2,0.5,0.5,0.5H182.4z M144.4,62
		c0,0.2,0,0.5,0,0.8c0,1.8-0.4,3.1-1,3.8c-0.6,0.7-1.3,1-2.1,1h-1.9c-0.7,0-1.2,0.2-1.5,0.5c-0.3,0.4-0.5,1-0.5,2.1
		c0,1,0.2,1.6,0.5,2.1c0.3,0.4,0.8,0.6,1.5,0.6h1.7c0.5,0,0.9,0,1.5-0.1c0.5-0.1,1-0.2,1.5-0.4c0.5-0.2,1-0.5,1.4-0.8
		c0.5-0.4,0.8-0.8,1.2-1.4c0.9,1.1,2,1.9,3.3,2.4c1.3,0.5,2.8,0.7,4.4,0.7c1.7,0,3.1-0.2,4.4-0.7c1.3-0.5,2.4-1.3,3.3-2.5
		c0.4,0.7,0.9,1.2,1.4,1.6c0.5,0.4,1.1,0.7,1.7,0.9c0.6,0.2,1.2,0.3,1.8,0.3c0.6,0,1.2,0,1.7,0c0.7,0,1.2-0.2,1.5-0.6
		c0.3-0.4,0.5-1.1,0.5-2.1c0-0.9-0.2-1.6-0.5-2c-0.3-0.4-0.8-0.6-1.5-0.6h-1.4c-0.8,0-1.5-0.3-2.1-0.9c-0.6-0.6-0.9-1.7-0.9-3.1
		c0-0.3,0-0.6,0-0.9v-0.9c0-2.1-0.3-4-0.8-5.5c-0.5-1.5-1.2-2.7-2.1-3.6s-2-1.6-3.2-2c-1.2-0.4-2.6-0.6-4-0.6s-2.7,0.2-3.9,0.6
		c-1.2,0.4-2.3,1.1-3.1,1.9c-0.9,0.9-1.6,2.1-2.1,3.5c-0.5,1.4-0.8,3.2-0.8,5.2V62z M159,61.6c0,2.2-0.4,3.8-1.1,4.8
		c-0.7,1-1.9,1.5-3.5,1.5c-1.5,0-2.7-0.5-3.4-1.5c-0.7-1-1.1-2.6-1.1-4.8c0-2.1,0.4-3.6,1.1-4.7c0.7-1.1,1.9-1.6,3.4-1.6
		C157.5,55.3,159,57.4,159,61.6 M124.4,60.4c-1.1-1.6-2.3-3-3.8-4c0.4-0.2,1-0.5,2-0.7c1-0.3,2.1-0.4,3.4-0.4c1.5,0,2.7,0.3,3.7,0.8
		c1,0.6,1.4,1.6,1.4,3c0,0.7-0.1,1.4-0.4,2.1c-0.3,0.7-0.6,1.3-1,1.9c-0.4,0.6-0.9,1.1-1.4,1.6c-0.5,0.5-1.1,0.9-1.6,1.3
		C126.2,63.9,125.5,62,124.4,60.4 M122,50.3c-1.3,0.2-2.4,0.6-3.4,0.9c-1,0.4-1.8,0.8-2.4,1.2c-0.6,0.5-0.9,0.9-0.9,1.3v3.3
		c0,0.3,0,0.5,0.1,0.8c0,0.2,0.3,0.5,0.6,0.8c0.6,0.5,1.3,1,1.9,1.5c0.6,0.5,1.2,1.1,1.8,1.7c0.6,0.6,1,1.4,1.5,2.2
		c0.4,0.8,0.8,1.8,1,3c-0.9,0.2-1.6,0.3-2.3,0.4c-0.6,0.1-1.2,0.1-1.8,0.1h-5.7c-0.8,0-1.4,0.2-1.6,0.7c-0.2,0.5-0.3,1.2-0.3,2.1
		c0,1,0.2,1.6,0.5,2c0.3,0.4,0.8,0.5,1.4,0.5h7c0.9,0,2-0.1,3.2-0.3c1.2-0.2,2.3-0.7,3.4-1.3c0.9,0.6,1.9,1.1,3,1.3
		c1.1,0.2,2.2,0.3,3.3,0.3h7.2c0.6,0,1.1-0.2,1.4-0.5c0.3-0.3,0.5-1,0.5-2c0-1-0.1-1.7-0.4-2.1c-0.3-0.4-0.8-0.6-1.5-0.6h-6.1h-1
		c-0.3,0-0.6,0-0.8-0.1c0.6-0.4,1.2-0.9,1.8-1.6c0.6-0.6,1.2-1.3,1.7-2.1c0.5-0.8,0.9-1.7,1.2-2.6c0.3-0.9,0.5-1.9,0.5-3
		c0-2.5-0.9-4.4-2.6-5.9c-1.7-1.5-4.4-2.3-8.2-2.3C124.6,50,123.3,50.1,122,50.3 M102.8,66.2c0,2.3,0.4,4,1.3,5
		c0.9,1.1,2.3,1.6,4.3,1.6h3.8c0.7,0,1.2-0.1,1.5-0.5c0.3-0.3,0.5-1,0.5-2.1c0-1-0.2-1.7-0.5-2.1c-0.3-0.4-0.8-0.6-1.5-0.6h-1.7
		c-0.8,0-1.4-0.2-1.8-0.6c-0.4-0.4-0.6-1.1-0.6-2.2V37.5c0-0.3-0.2-0.5-0.5-0.5h-4.5c-0.3,0-0.5,0.2-0.5,0.5V66.2z M78.4,48.8
		c0.3,0,0.5-0.2,0.5-0.5v-4.6c0-0.4-0.2-0.5-0.5-0.5h-4.1c-0.3,0-0.5,0.2-0.5,0.5v4.6c0,0.4,0.2,0.5,0.5,0.5H78.4z M84.7,48.8
		c0.3,0,0.5-0.2,0.5-0.5v-4.6c0-0.4-0.2-0.5-0.5-0.5h-4.1c-0.3,0-0.5,0.2-0.5,0.5v4.6c0,0.4,0.2,0.5,0.5,0.5H84.7z M89.4,67.6H69.3
		c-0.8,0-1.4-0.2-1.8-0.6c-0.4-0.4-0.6-1.1-0.6-2.2v-10c0-0.4-0.2-0.5-0.5-0.5H62c-0.3,0-0.5,0.2-0.5,0.5v11.4c0,2.3,0.4,4,1.3,5.1
		c0.9,1.1,2.3,1.6,4.4,1.6h24.2c2.1,0,3.6-0.5,4.5-1.6c0.9-1.1,1.3-2.8,1.3-5V51.5c0-0.4-0.2-0.5-0.5-0.5h-4.5
		c-0.3,0-0.5,0.2-0.5,0.5v13.3c0,1.1-0.2,1.8-0.6,2.2C90.8,67.4,90.2,67.6,89.4,67.6"/>
</g>
</svg>
