<?xml version="1.0" encoding="utf-8"?>
<!-- Generator: Adobe Illustrator 24.2.1, SVG Export Plug-In . SVG Version: 6.00 Build 0)  -->
<svg version="1.1" id="Layer_1" xmlns="http://www.w3.org/2000/svg" xmlns:xlink="http://www.w3.org/1999/xlink" x="0px" y="0px"
	 viewBox="0 0 500 500" style="enable-background:new 0 0 500 500;" xml:space="preserve">
<style type="text/css">
	.st1{fill:#FFFFFF;}
	.st18{fill:#1B3668;}
</style>
<g>
	<rect class="st18" width="500" height="500"/>
	<path class="st1" d="M286,340.7c9.6-8.9,15.6-21.5,15.6-35.6c0-2.1-0.1-4.2-0.4-6.2c19.4,2.1,34.6,18.6,34.6,38.6
		c0,11.4-4.9,21.6-12.7,28.7C315.7,352.4,302,342.6,286,340.7 M318.9,388.9c0,21.4-17.4,38.8-38.8,38.8c-7,0-13.5-1.9-19.1-5.1
		c8.2-8.7,13.3-20.5,13.3-33.4c0-3.2-0.3-6.3-0.9-9.3c7,3.9,15,6.1,23.5,6.1c7.6,0,14.8-1.8,21.2-4.9
		C318.7,383.6,318.9,386.2,318.9,388.9 M187,389.2c0-2.8,0.3-5.4,0.8-8c6.4,3.1,13.6,4.8,21.1,4.8c8.5,0,16.5-2.2,23.5-6.1
		c-0.5,2.9-0.8,5.9-0.8,8.9c0,13.1,5.2,25,13.7,33.8c-5.7,3.4-12.4,5.3-19.5,5.3C204.4,428,187,410.6,187,389.2 M170.2,337.4
		c0-20,15.2-36.5,34.6-38.6c-0.3,2-0.4,4.1-0.4,6.2c0,14.2,6.1,27,15.9,35.9c-16.1,1.8-29.9,11.6-37.2,25.2
		C175.1,359.1,170.2,348.8,170.2,337.4 M253,266.3c15.9,0,29.6,9.6,35.6,23.3c-15.8,2.8-29,13.2-35.6,27.3
		c-6.6-14.1-19.8-24.5-35.6-27.3C223.4,275.9,237.1,266.3,253,266.3 M262.2,354.5c5.4-2.8,11.5-4.4,17.9-4.4
		c15.3,0,28.4,8.9,34.8,21.7c-5.4,2.8-11.5,4.4-17.9,4.4C281.7,376.2,268.5,367.3,262.2,354.5 M243.6,354.8
		c-6.4,12.7-19.5,21.4-34.6,21.4c-6.4,0-12.5-1.6-17.8-4.4c6.4-12.7,19.5-21.4,34.6-21.4C232.2,350.4,238.3,352,243.6,354.8
		 M214.7,299.1c18.7,2.8,33.1,18.9,33.1,38.3c0,2-0.2,4-0.5,6c-18.7-2.8-33.1-18.9-33.1-38.3C214.2,303,214.4,301,214.7,299.1
		 M253.1,416.7c-7.3-7.1-11.8-16.9-11.8-27.8c0-10.7,4.4-20.4,11.4-27.5c7.3,7,11.8,16.9,11.8,27.8
		C264.6,399.9,260.2,409.6,253.1,416.7 M291.7,305.1c0,19.4-14.4,35.5-33.1,38.3c-0.3-1.9-0.5-3.9-0.5-6c0-19.4,14.4-35.5,33.1-38.3
		C291.5,301,291.7,303,291.7,305.1 M345.5,337.4c0-26.2-20.8-47.6-46.8-48.5c-6.7-18.9-24.7-32.4-45.8-32.4
		c-21.1,0-39.1,13.5-45.8,32.4c-26,0.9-46.8,22.3-46.8,48.5c0,15.5,7.3,29.4,18.7,38.3c-1.2,4.3-1.9,8.8-1.9,13.5
		c0,26.8,21.8,48.6,48.6,48.6c10.2,0,19.6-3.1,27.4-8.5c7.7,5.2,17,8.2,26.9,8.2c26.8,0,48.6-21.8,48.6-48.6c0-4.6-0.6-9-1.8-13.2
		C338.2,366.8,345.5,352.9,345.5,337.4"/>
	<path class="st1" d="M434.2,111.3l-15.5-59.2c-0.3-0.9-0.8-1.2-1.6-0.9l-12,2.9c-1,0.3-1.4,0.8-1.2,1.5l22.6,75.6
		c0.4,1.1,1.4,1.7,3.1,1.9c1.7,0.2,3.2,0.3,4.7,0.3c0.8,0,1.6,0,2.5-0.1c0.8,0,1.6-0.1,2.4-0.3c0.8-0.1,1.4-0.4,2-0.7
		c0.6-0.3,1-0.7,1.1-1.3l22.6-75.5c0.2-0.7-0.2-1.2-1.2-1.5l-12-3.1c-0.8-0.3-1.3,0-1.6,0.9L434.2,111.3z M392.3,53.3
		c0-0.9-0.4-1.3-1.3-1.3h-12.3c-0.9,0-1.3,0.4-1.3,1.3v78.2c0,0.9,0.4,1.3,1.3,1.3H391c0.9,0,1.3-0.4,1.3-1.3V53.3z"/>
	<path class="st1" d="M324.6,168.7c0-0.4-0.2-0.5-0.5-0.5h-4.6c-0.3,0-0.5,0.2-0.5,0.5v34.9c0,0.4,0.2,0.5,0.5,0.5h4.6
		c0.3,0,0.5-0.2,0.5-0.5V168.7z M299.1,176.1c0-0.3-0.2-0.5-0.5-0.5H294c-0.3,0-0.5,0.2-0.5,0.5v22.7h-8.9c-0.3,0-0.5,0.2-0.5,0.5
		v4.2c0,0.4,0.2,0.5,0.5,0.5h22c2.1,0,3.6-0.5,4.5-1.6c0.9-1.1,1.3-2.8,1.3-5v-28.7c0-0.4-0.2-0.5-0.5-0.5h-4.6
		c-0.3,0-0.5,0.2-0.5,0.5V196c0,1.1-0.2,1.8-0.6,2.2c-0.4,0.4-1,0.6-1.8,0.6h-5.3V176.1z M290.9,169.5c-0.2,0-0.3,0.1-0.3,0.4v2
		c0,0.2,0.1,0.4,0.3,0.4h10.6c0.2,0,0.3-0.1,0.3-0.4v-2c0-0.2-0.1-0.4-0.3-0.4h-5.1c-0.4-0.2-0.7-0.6-1.1-1.1
		c-0.3-0.5-0.5-1.1-0.5-1.8c0-0.8,0.2-1.4,0.7-1.9c0.4-0.5,1-0.8,1.8-0.8c0.5,0,0.9,0.1,1.3,0.3c0.4,0.2,0.8,0.5,1.1,0.9
		c0.1,0.1,0.3,0.1,0.5-0.1l1.3-1.3c0.1-0.1,0.1-0.3,0-0.5c-0.4-0.6-1-1.1-1.8-1.5c-0.7-0.4-1.6-0.6-2.5-0.6c-1,0-1.8,0.2-2.5,0.5
		c-0.7,0.3-1.2,0.8-1.7,1.3c-0.4,0.5-0.7,1.1-0.9,1.7c-0.2,0.6-0.3,1.2-0.3,1.8c0,0.6,0.1,1.2,0.2,1.7c0.1,0.5,0.3,1,0.6,1.3H290.9z
		 M265.1,192.5c0.5,0.6,0.7,1.6,0.7,2.8c0,1.2-0.2,2.1-0.7,2.7c-0.4,0.6-1.1,0.9-2,1h-0.6c-0.8-0.1-1.5-0.4-2-1
		c-0.5-0.6-0.7-1.5-0.7-2.7c0-1.2,0.3-2.1,0.8-2.8c0.5-0.6,1.2-1,2.2-1C263.9,191.5,264.6,191.9,265.1,192.5 M271.1,204.1
		c1.6,0,2.9-0.2,4-0.6c1.1-0.4,2-1,2.7-1.8c0.7-0.8,1.2-1.9,1.5-3.3c0.3-1.4,0.5-3,0.5-5c0-1.6-0.2-3.2-0.6-4.8
		c-0.4-1.6-1.1-3-2.1-4.3c-1-1.3-2.4-2.3-4.1-3.1c-1.7-0.8-3.9-1.2-6.6-1.2c-3.7,0-7.1,0.9-10.2,2.6c-0.2,0.1-0.2,0.2-0.2,0.4
		c0,0.1,0,0.3,0.1,0.5l1.2,3.2c0,0.1,0.1,0.2,0.3,0.2c0.1,0,0.3-0.1,0.5-0.2c1.3-0.6,2.5-1,3.8-1.3c1.3-0.2,2.5-0.4,3.6-0.4
		c2.9,0,5.1,0.8,6.5,2.3c1.4,1.5,2.1,3.6,2.1,6.2c0,0.9-0.1,1.7-0.2,2.4c-0.1,0.7-0.3,1.2-0.6,1.7c-0.3,0.4-0.7,0.8-1.3,1
		c-0.5,0.2-1.2,0.3-2.1,0.3c0.2-0.6,0.3-1.2,0.4-1.8c0.1-0.7,0.1-1.3,0.1-1.8c0-2.7-0.7-4.6-2.1-5.9c-1.4-1.3-3.1-1.9-5.2-1.9
		c-1,0-1.9,0.1-2.8,0.4c-0.9,0.3-1.6,0.8-2.3,1.4c-0.7,0.6-1.2,1.4-1.6,2.4c-0.4,1-0.6,2.2-0.6,3.5c0,1.4,0.2,2.6,0.7,3.7h-5.6
		c-0.7,0-1.2,0.2-1.5,0.6c-0.3,0.4-0.5,1.1-0.5,2.1c0,0.9,0.2,1.6,0.5,2c0.3,0.4,0.8,0.6,1.5,0.6H271.1z M235.1,186.5
		c1.7,0,3,0.4,3.8,1.1c0.9,0.7,1.3,1.9,1.3,3.5v3.5c0,0.8,0,1.4-0.1,1.9c-0.1,0.5-0.3,1-0.6,1.3c-0.3,0.3-0.7,0.6-1.2,0.7
		c-0.5,0.1-1.3,0.2-2.2,0.2h-9.3c-0.3,0-0.5,0.2-0.5,0.5v4.2c0,0.4,0.2,0.5,0.5,0.5h11.2c1.7,0,3.1-0.2,4.2-0.6
		c1.1-0.4,1.9-1.2,2.6-2.4c0.6,1.2,1.4,2.1,2.4,2.5c1,0.4,2.2,0.6,3.6,0.6c0.7,0,1.2-0.2,1.5-0.6c0.3-0.4,0.5-1.1,0.5-2.1
		c0-0.9-0.2-1.6-0.5-2c-0.3-0.4-0.8-0.6-1.5-0.6H250c-1.3,0-2.3-0.3-3-0.8c-0.7-0.6-1.1-1.3-1.1-2.4v-5c0-3.3-0.8-5.7-2.5-7.2
		c-1.6-1.5-3.9-2.2-6.7-2.2h-7.6c-0.3,0-0.5,0.2-0.5,0.5v4.2c0,0.4,0.2,0.5,0.5,0.5H235.1z M220.5,168.7c0-0.4-0.2-0.5-0.5-0.5h-4.6
		c-0.3,0-0.5,0.2-0.5,0.5v34.9c0,0.4,0.2,0.5,0.5,0.5h4.6c0.3,0,0.5-0.2,0.5-0.5V168.7z M201.3,176.9c0.3,0,0.5-0.2,0.5-0.5v-4.6
		c0-0.4-0.2-0.5-0.5-0.5h-4.8c-0.3,0-0.5,0.2-0.5,0.5v4.6c0,0.4,0.2,0.5,0.5,0.5H201.3z M203.4,192.9c0,2.2-0.4,3.8-1.1,4.7
		c-0.8,0.9-1.9,1.3-3.5,1.3c-1.6,0-2.8-0.5-3.6-1.4c-0.8-0.9-1.2-2.6-1.2-4.9c0-1.9,0.4-3.4,1.2-4.5c0.8-1.1,2-1.6,3.5-1.6
		C201.8,186.5,203.4,188.6,203.4,192.9 M198.7,204.1c1.5,0,2.9-0.2,4.2-0.6c1.3-0.4,2.4-1,3.3-1.9c0.9-0.9,1.6-2,2.1-3.4
		c0.5-1.4,0.7-3.2,0.7-5.2c0-2.1-0.3-4-0.8-5.5c-0.5-1.5-1.2-2.7-2.2-3.6c-0.9-0.9-2-1.6-3.3-2c-1.3-0.4-2.6-0.6-4.1-0.6
		c-1.4,0-2.7,0.2-4,0.6c-1.2,0.4-2.3,1.1-3.3,2c-1,0.9-1.7,2.1-2.3,3.6c-0.6,1.5-0.8,3.3-0.8,5.5c0,2.4,0.4,4.3,1.2,5.8h-15.6
		c-0.8,0-1.4-0.2-1.8-0.6c-0.4-0.4-0.6-1.1-0.6-2.2v-10c0-0.4-0.2-0.5-0.5-0.5h-4.6c-0.3,0-0.5,0.2-0.5,0.5v11.4
		c0,2.3,0.5,4,1.4,5.1c0.9,1.1,2.4,1.6,4.5,1.6H198.7z"/>
	<path class="st1" d="M318.8,142c2.1,0,3.6-0.5,4.5-1.6c0.9-1.1,1.3-2.8,1.3-5v-28.7c0-0.4-0.2-0.5-0.5-0.5h-4.6
		c-0.3,0-0.5,0.2-0.5,0.5v27.3c0,1.1-0.2,1.8-0.6,2.2c-0.4,0.4-1,0.6-1.8,0.6h-2.5c-0.7,0-1.2,0.2-1.5,0.6c-0.3,0.4-0.5,1.1-0.5,2.1
		c0,1,0.2,1.7,0.5,2.1c0.3,0.3,0.8,0.5,1.5,0.5H318.8z M310.6,141.5c1,0.3,2.1,0.5,3.4,0.5c0.7,0,1.2-0.2,1.5-0.6
		c0.3-0.4,0.5-1.1,0.5-2.1c0-0.9-0.2-1.6-0.5-2c-0.3-0.4-0.8-0.6-1.5-0.6h-0.8c-1.3,0-2.3-0.3-3-0.8c-0.7-0.6-1.1-1.4-1.1-2.4v-12.8
		c0-0.3-0.2-0.5-0.5-0.5h-4.3c-0.2,0-0.4,0-0.6,0.1c-0.2,0.1-0.3,0.2-0.3,0.4v10.9c0,0.9,0,1.7,0,2.4c0,0.6-0.1,1.2-0.3,1.6
		c-0.1,0.4-0.4,0.7-0.7,0.9c-0.3,0.2-0.8,0.3-1.4,0.3h-3.3c-0.7,0-1.2,0.2-1.5,0.6c-0.3,0.4-0.5,1.1-0.5,2.2c0,1,0.2,1.7,0.5,2
		c0.3,0.3,0.8,0.5,1.5,0.5h4.7c1.6,0,2.9-0.2,3.8-0.6c0.9-0.4,1.7-1.1,2.1-2.1C308.9,140.4,309.7,141.1,310.6,141.5 M305.1,114.8
		c0.3,0,0.5-0.2,0.5-0.5v-4.6c0-0.4-0.2-0.5-0.5-0.5h-4.2c-0.3,0-0.5,0.2-0.5,0.5v4.6c0,0.4,0.2,0.5,0.5,0.5H305.1z M311.7,114.8
		c0.3,0,0.5-0.2,0.5-0.5v-4.6c0-0.4-0.2-0.5-0.5-0.5h-4.2c-0.3,0-0.5,0.2-0.5,0.5v4.6c0,0.4,0.2,0.5,0.5,0.5H311.7z M271.9,124.1
		l2.6,2.9c0.2,0.2,0.5,0.2,0.7,0c0.7-0.8,1.5-1.4,2.4-1.9c0.9-0.5,1.9-0.7,3-0.7c1.1,0,2.1,0.2,2.8,0.6c0.8,0.4,1.4,1,1.8,1.7
		c0.5,0.7,0.8,1.5,1,2.5c0.2,0.9,0.3,2,0.3,3.1c0,0.8,0,1.6-0.1,2.1c-0.1,0.6-0.3,1-0.6,1.4c-0.3,0.4-0.7,0.6-1.3,0.7
		c-0.5,0.1-1.2,0.2-2.1,0.2h-13.3c-0.7,0-1.2,0.2-1.5,0.5c-0.3,0.4-0.5,1-0.5,2.1c0,1,0.2,1.6,0.5,2.1c0.3,0.4,0.8,0.6,1.5,0.6h15.5
		c1.6,0,3-0.2,4.1-0.7c1.1-0.4,2-1.3,2.6-2.5c0.6,1.3,1.4,2.2,2.4,2.6c1.1,0.4,2.3,0.6,3.7,0.6c0.7,0,1.2-0.2,1.5-0.6
		c0.3-0.4,0.5-1.1,0.5-2.1c0-0.9-0.2-1.6-0.5-2c-0.3-0.4-0.8-0.6-1.5-0.6h-0.9c-1.2,0-2.2-0.3-2.9-0.8c-0.7-0.5-1.1-1.3-1.2-2.2
		c0-0.2,0-0.4,0-0.6c0-0.2,0-0.4,0-0.7c0-1.8-0.2-3.5-0.6-5.1c-0.4-1.6-1-3-1.9-4.2c-0.9-1.2-2.1-2.2-3.6-2.9
		c-1.5-0.7-3.4-1.1-5.6-1.1c-2.1,0-3.8,0.4-5.3,1.2c-1.4,0.8-2.7,1.8-3.7,3.1C271.6,123.6,271.6,123.8,271.9,124.1 M254.7,114.8
		c0.3,0,0.5-0.2,0.5-0.5v-4.6c0-0.4-0.2-0.5-0.5-0.5h-4.2c-0.3,0-0.5,0.2-0.5,0.5v4.6c0,0.4,0.2,0.5,0.5,0.5H254.7z M261.2,114.8
		c0.3,0,0.5-0.2,0.5-0.5v-4.6c0-0.4-0.2-0.5-0.5-0.5H257c-0.3,0-0.5,0.2-0.5,0.5v4.6c0,0.4,0.2,0.5,0.5,0.5H261.2z M259,125.1
		c0.9,0.9,1.4,2.1,1.4,3.8c0,1.8-0.5,3.2-1.4,4.4c-0.9,1.1-2.1,2-3.4,2.6c-1.3-0.6-2.5-1.4-3.4-2.6c-0.9-1.1-1.4-2.6-1.4-4.4
		c0-1.7,0.5-3,1.4-3.8c1-0.9,2.1-1.3,3.4-1.3C257,123.8,258.1,124.2,259,125.1 M247.8,121.7c-1.8,1.7-2.7,4-2.7,6.8
		c0,1.7,0.4,3.3,1.1,4.7c0.8,1.4,1.7,2.6,3,3.5h-7.1c-0.7,0-1.2,0.2-1.5,0.5c-0.3,0.3-0.5,1-0.5,2.1c0,1,0.2,1.7,0.5,2.1
		c0.3,0.4,0.8,0.6,1.5,0.6h6.7c1,0,2.1-0.1,3.3-0.2c1.3-0.1,2.4-0.5,3.5-1.1c1,0.6,2,1,3.1,1.1c1.1,0.1,2.2,0.2,3.4,0.2h7
		c0.7,0,1.2-0.2,1.5-0.6c0.3-0.4,0.5-1.1,0.5-2.2c0-1-0.2-1.7-0.5-2c-0.3-0.3-0.8-0.5-1.5-0.5H262c1.3-0.9,2.3-2.1,3-3.5
		c0.8-1.4,1.1-3,1.1-4.7c0-2.8-0.9-5.1-2.7-6.8c-1.8-1.7-4.4-2.6-7.8-2.6C252.2,119.1,249.6,120,247.8,121.7 M238.7,141.5
		c1,0.3,2.1,0.5,3.4,0.5c0.7,0,1.2-0.2,1.5-0.6c0.3-0.4,0.5-1.1,0.5-2.1c0-0.9-0.2-1.6-0.5-2c-0.3-0.4-0.8-0.6-1.5-0.6h-0.8
		c-1.3,0-2.3-0.3-3-0.8c-0.7-0.6-1.1-1.4-1.1-2.4v-12.8c0-0.3-0.2-0.5-0.5-0.5h-4.3c-0.2,0-0.4,0-0.6,0.1c-0.2,0.1-0.3,0.2-0.3,0.4
		v10.9c0,0.9,0,1.7-0.1,2.4c0,0.6-0.1,1.2-0.3,1.6c-0.2,0.4-0.4,0.7-0.7,0.9c-0.3,0.2-0.8,0.3-1.4,0.3h-3.3c-0.7,0-1.2,0.2-1.5,0.6
		c-0.3,0.4-0.5,1.1-0.5,2.2c0,1,0.2,1.7,0.5,2c0.3,0.3,0.8,0.5,1.5,0.5h4.7c1.6,0,2.9-0.2,3.8-0.6c0.9-0.4,1.7-1.1,2.1-2.1
		C237,140.4,237.7,141.1,238.7,141.5 M232.8,152.1c0.3,0,0.5-0.2,0.5-0.5V147c0-0.4-0.2-0.5-0.5-0.5h-4.2c-0.3,0-0.5,0.2-0.5,0.5
		v4.6c0,0.4,0.2,0.5,0.5,0.5H232.8z M239.3,152.1c0.3,0,0.5-0.2,0.5-0.5V147c0-0.4-0.2-0.5-0.5-0.5h-4.2c-0.3,0-0.5,0.2-0.5,0.5v4.6
		c0,0.4,0.2,0.5,0.5,0.5H239.3z M215.6,126c0.8,1.1,1.2,2.6,1.2,4.7v6h-4.5c-1.6,0-2.8-0.4-3.7-1.3c-0.9-0.9-1.3-2.4-1.3-4.6
		c0-2,0.4-3.6,1.3-4.7c0.8-1.1,2-1.7,3.5-1.7C213.6,124.4,214.8,124.9,215.6,126 M200.8,147.3c-1,0-1.9-0.1-2.9-0.3
		c-0.9-0.2-1.8-0.6-2.5-1.1c-0.7-0.5-1.3-1.2-1.8-2.1c-0.5-0.9-0.7-2-0.7-3.3c0-1.4,0.2-2.7,0.7-4c0.5-1.3,1-2.5,1.6-3.4
		c0.2-0.3,0.1-0.5-0.2-0.7l-4-2.2c-0.3-0.2-0.5-0.2-0.7,0.1c-0.4,0.6-0.8,1.4-1.2,2.2c-0.4,0.8-0.7,1.7-1,2.6
		c-0.3,0.9-0.5,1.9-0.7,2.9c-0.2,1-0.3,2-0.3,3c0,3.6,1.1,6.5,3.2,8.6c2.1,2.1,5.4,3.2,9.7,3.2h12.2c1.8,0,3.3-0.2,4.6-0.6
		c1.3-0.4,2.3-0.9,3.1-1.6c0.8-0.7,1.4-1.5,1.8-2.5c0.4-0.9,0.6-2,0.6-3.1V142h3.5c0.7,0,1.2-0.2,1.5-0.6c0.3-0.4,0.5-1.1,0.5-2.1
		c0-1-0.2-1.7-0.5-2.1c-0.3-0.4-0.8-0.6-1.5-0.6h-3.5v-5.9c0-2.1-0.3-4-0.8-5.5c-0.5-1.5-1.2-2.7-2.2-3.6c-0.9-0.9-2-1.6-3.3-2
		c-1.3-0.4-2.6-0.6-4.1-0.6c-1.4,0-2.7,0.2-3.9,0.6c-1.2,0.4-2.3,1.1-3.3,2c-0.9,0.9-1.7,2.1-2.2,3.6c-0.6,1.5-0.8,3.3-0.8,5.5
		c0,4,0.9,6.9,2.6,8.6c1.7,1.7,4.2,2.5,7.3,2.5h5.1v2.4c0,0.9-0.4,1.6-1.1,2.1c-0.7,0.5-2.1,0.8-4.1,0.8H200.8z M210.9,114.8
		c0.3,0,0.5-0.2,0.5-0.5v-4.6c0-0.4-0.2-0.5-0.5-0.5h-4.2c-0.3,0-0.5,0.2-0.5,0.5v4.6c0,0.4,0.2,0.5,0.5,0.5H210.9z M217.5,114.8
		c0.3,0,0.5-0.2,0.5-0.5v-4.6c0-0.4-0.2-0.5-0.5-0.5h-4.2c-0.3,0-0.5,0.2-0.5,0.5v4.6c0,0.4,0.2,0.5,0.5,0.5H217.5z"/>
	<path class="st1" d="M302.2,74.6c-0.7,0-1.2,0.2-1.5,0.5c-0.3,0.4-0.5,1-0.5,2.1c0,1,0.2,1.6,0.5,2.1c0.3,0.4,0.8,0.6,1.5,0.6h23.1
		c0.3,0,0.5-0.2,0.5-0.5v-4.2c0-0.4-0.2-0.5-0.5-0.5h-10.8c-0.3-0.1-0.6-0.3-1.1-0.6c-0.4-0.3-0.9-0.7-1.3-1.2
		c-0.4-0.5-0.8-1.2-1.1-1.9c-0.3-0.8-0.5-1.7-0.5-2.7c0-1.8,0.5-3.2,1.4-4.3c0.9-1.1,2.2-1.6,3.9-1.6c2.1,0,3.8,0.8,5.3,2.5
		c0.2,0.3,0.5,0.3,0.7,0.1l2.7-3c0.3-0.2,0.3-0.5,0.1-0.7c-0.9-1.2-2-2.2-3.6-3c-1.5-0.8-3.4-1.2-5.6-1.2c-2,0-3.7,0.3-5.1,1
		c-1.4,0.7-2.5,1.5-3.3,2.6c-0.8,1-1.4,2.2-1.8,3.5c-0.4,1.3-0.5,2.5-0.5,3.8c0,1.5,0.2,2.9,0.6,3.9c0.4,1.1,1,2,1.6,2.8H302.2z
		 M287.9,52.6c0.3,0,0.5-0.2,0.5-0.5v-4.6c0-0.4-0.2-0.5-0.5-0.5h-4.2c-0.3,0-0.5,0.2-0.5,0.5v4.6c0,0.4,0.2,0.5,0.5,0.5H287.9z
		 M294.3,52.6c0.3,0,0.5-0.2,0.5-0.5v-4.6c0-0.4-0.2-0.5-0.5-0.5h-4.2c-0.3,0-0.5,0.2-0.5,0.5v4.6c0,0.4,0.2,0.5,0.5,0.5H294.3z
		 M292.2,63c0.9,0.9,1.4,2.1,1.4,3.8c0,1.8-0.5,3.2-1.4,4.4c-0.9,1.1-2,2-3.3,2.6c-1.3-0.6-2.5-1.5-3.4-2.6
		c-0.9-1.1-1.4-2.6-1.4-4.4c0-1.7,0.5-3,1.4-3.8c0.9-0.9,2.1-1.3,3.4-1.3C290.1,61.7,291.2,62.1,292.2,63 M281.1,59.5
		c-1.8,1.7-2.7,4-2.7,6.8c0,1.7,0.4,3.3,1.1,4.7c0.7,1.4,1.7,2.6,3,3.5h-7c-0.7,0-1.2,0.2-1.5,0.5c-0.3,0.3-0.5,1-0.5,2.1
		c0,1,0.2,1.7,0.5,2.1c0.3,0.4,0.8,0.6,1.5,0.6h6.6c1,0,2.1,0,3.3-0.2c1.2-0.1,2.4-0.5,3.5-1.1c1,0.6,2,1,3,1.1
		c1.1,0.1,2.2,0.2,3.4,0.2h6.9c0.7,0,1.2-0.2,1.5-0.6c0.3-0.4,0.5-1.1,0.5-2.2c0-1-0.2-1.7-0.5-2c-0.3-0.3-0.8-0.5-1.5-0.5h-7.1
		c1.3-0.9,2.3-2.1,3-3.5c0.7-1.4,1.1-3,1.1-4.7c0-2.8-0.9-5.1-2.7-6.8c-1.8-1.7-4.4-2.6-7.7-2.6S282.9,57.8,281.1,59.5 M259.9,62.2
		c1.7,0,3,0.4,3.8,1.1c0.8,0.7,1.3,1.9,1.3,3.5v3.5c0,0.8,0,1.4-0.1,1.9c-0.1,0.5-0.3,1-0.6,1.3c-0.3,0.3-0.7,0.6-1.2,0.7
		c-0.5,0.1-1.2,0.2-2.1,0.2h-9.2c-0.3,0-0.5,0.2-0.5,0.5v4.2c0,0.4,0.2,0.5,0.5,0.5h11.1c1.7,0,3.1-0.2,4.1-0.6
		c1.1-0.4,1.9-1.2,2.5-2.4c0.6,1.2,1.3,2.1,2.4,2.5c1,0.4,2.2,0.6,3.6,0.6c0.7,0,1.2-0.2,1.5-0.6c0.3-0.4,0.5-1.1,0.5-2.1
		c0-0.9-0.2-1.6-0.5-2c-0.3-0.4-0.8-0.6-1.5-0.6h-0.8c-1.3,0-2.3-0.3-3-0.8c-0.7-0.6-1.1-1.3-1.1-2.4v-4.9c0-3.3-0.8-5.7-2.4-7.2
		c-1.6-1.5-3.8-2.2-6.6-2.2h-7.5c-0.3,0-0.5,0.2-0.5,0.5v4.2c0,0.4,0.2,0.5,0.5,0.5H259.9z M233.7,44.4c0-0.3-0.2-0.5-0.5-0.5h-4.6
		c-0.3,0-0.5,0.2-0.5,0.5v34.9c0,0.4,0.2,0.5,0.5,0.5h4.6c0.3,0,0.5-0.2,0.5-0.5V44.4z M215.9,79.8c2.1,0,3.5-0.5,4.4-1.6
		c0.9-1.1,1.3-2.8,1.3-5V44.4c0-0.3-0.2-0.5-0.5-0.5h-4.6c-0.3,0-0.5,0.2-0.5,0.5v27.3c0,1.1-0.2,1.8-0.6,2.2
		c-0.4,0.4-1,0.6-1.8,0.6h-2.4c-0.7,0-1.2,0.2-1.5,0.6c-0.3,0.4-0.5,1.1-0.5,2.1c0,1,0.2,1.7,0.5,2.1c0.3,0.3,0.8,0.5,1.5,0.5H215.9
		z M193.3,45.8c0.3,0,0.5-0.2,0.5-0.5v-4.6c0-0.4-0.2-0.5-0.5-0.5h-4.2c-0.3,0-0.5,0.2-0.5,0.5v4.6c0,0.4,0.2,0.5,0.5,0.5H193.3z
		 M190.1,52.6c0.3,0,0.5-0.2,0.5-0.5v-4.6c0-0.4-0.2-0.5-0.5-0.5h-4.2c-0.3,0-0.5,0.2-0.5,0.5v4.6c0,0.4,0.2,0.5,0.5,0.5H190.1z
		 M196.5,52.6c0.3,0,0.5-0.2,0.5-0.5v-4.6c0-0.4-0.2-0.5-0.5-0.5h-4.2c-0.3,0-0.5,0.2-0.5,0.5v4.6c0,0.4,0.2,0.5,0.5,0.5H196.5z
		 M181.4,62.6c0-0.3-0.2-0.5-0.5-0.5h-4.6c-0.3,0-0.5,0.2-0.5,0.5v6.8c0,1,0,1.8,0,2.4c0,0.6-0.1,1.2-0.2,1.6
		c-0.1,0.4-0.4,0.7-0.7,0.9c-0.3,0.2-0.8,0.3-1.4,0.3h-4c-0.7,0-1.2,0.2-1.5,0.6c-0.3,0.4-0.5,1.2-0.5,2.2c0,0.6,0,1,0.1,1.3
		c0.1,0.3,0.3,0.6,0.5,0.7c0.2,0.2,0.4,0.3,0.7,0.3c0.3,0,0.6,0,1,0h5.4c1.5,0,2.7-0.2,3.5-0.6c0.9-0.4,1.5-1.2,2-2.2
		c0.9,1.9,2.5,2.8,4.8,2.8h2.2c1.5,0,2.7-0.2,3.5-0.6c0.9-0.4,1.5-1.1,2-2.2c0.4,0.9,1.1,1.6,1.9,2.1c0.8,0.5,1.8,0.7,3,0.7h2.1
		c1.5,0,2.7-0.2,3.6-0.6c0.9-0.4,1.5-1.1,2-2.1c0.6,1.1,1.3,1.9,2.3,2.2c0.9,0.3,2.1,0.5,3.4,0.5c0.7,0,1.2-0.2,1.5-0.6
		c0.3-0.4,0.5-1.1,0.5-2.1c0-0.9-0.2-1.6-0.5-2c-0.3-0.4-0.8-0.6-1.5-0.6h-0.8c-1.3,0-2.3-0.3-3-0.8c-0.7-0.6-1.1-1.4-1.1-2.4V58.4
		c0-0.3-0.2-0.5-0.5-0.5h-4.6c-0.3,0-0.5,0.2-0.5,0.5v11c0,1.1,0,2-0.1,2.7c-0.1,0.7-0.2,1.2-0.5,1.6c-0.3,0.4-0.6,0.6-1.1,0.7
		c-0.5,0.1-1.1,0.2-1.9,0.2c-1,0-1.9-0.3-2.5-0.8c-0.6-0.5-0.9-1.3-0.9-2.4v-8.8c0-0.3-0.2-0.5-0.5-0.5h-4.6c-0.3,0-0.5,0.2-0.5,0.5
		v6.8c0,1.1,0,2-0.1,2.7c-0.1,0.7-0.2,1.2-0.4,1.6c-0.2,0.4-0.6,0.6-1.1,0.8c-0.5,0.1-1.1,0.2-2,0.2c-1.2,0-2.1-0.3-2.6-0.8
		c-0.5-0.5-0.8-1.4-0.8-2.5V62.6z M158.8,77.3c0,1.3,0,2.4-0.1,3.4c0,1-0.2,1.8-0.4,2.5c-0.2,0.7-0.6,1.2-1.2,1.6
		c-0.5,0.4-1.3,0.5-2.2,0.5h-1.1c-0.3,0-0.5,0.2-0.5,0.5V90c0,0.4,0.2,0.5,0.5,0.5h1.8c1.7,0,3-0.2,4.2-0.7c1.1-0.5,2-1.2,2.7-2.1
		c0.7-1,1.2-2.1,1.4-3.6c0.3-1.4,0.4-3.1,0.4-5v-1c0.6,0.7,1.3,1.2,2.1,1.4c0.8,0.2,1.8,0.3,2.9,0.3c0.7,0,1.2-0.2,1.5-0.6
		c0.3-0.4,0.5-1.1,0.5-2.1c0-0.9-0.2-1.6-0.5-2c-0.3-0.4-0.8-0.6-1.5-0.6h-0.8c-1.3,0-2.3-0.3-3-0.8c-0.7-0.6-1.1-1.4-1.1-2.4V58.4
		c0-0.3-0.2-0.5-0.5-0.5h-4.6c-0.3,0-0.5,0.2-0.5,0.5V77.3z M149.9,44.4c0-0.3-0.2-0.5-0.5-0.5h-4.6c-0.3,0-0.5,0.2-0.5,0.5v34.9
		c0,0.4,0.2,0.5,0.5,0.5h4.6c0.3,0,0.5-0.2,0.5-0.5V44.4z M134.9,47.5c0.1-0.3,0.1-0.5-0.2-0.7l-3.2-2.9c-0.2-0.1-0.4-0.1-0.6,0.2
		l-10.7,13.4c-0.1,0.2-0.3,0.4-0.5,0.6c-0.2,0.2-0.3,0.4-0.3,0.7v3.7c0,0.4,0.2,0.5,0.5,0.5h8c1.8,0,3,0.4,3.8,1.1
		c0.8,0.8,1.2,1.9,1.2,3.5v2.8c0,0.8,0,1.5-0.1,2c-0.1,0.5-0.3,0.9-0.5,1.3c-0.3,0.3-0.7,0.5-1.2,0.7c-0.5,0.1-1.2,0.2-2.1,0.2
		h-12.3c-0.7,0-1.2,0.2-1.5,0.5c-0.3,0.3-0.5,1-0.5,2c0,1,0.2,1.8,0.5,2.2c0.3,0.4,0.8,0.6,1.5,0.6h14.6c1.3,0,2.3-0.1,3.3-0.4
		c0.9-0.3,1.7-0.8,2.3-1.5c0.6-0.7,1-1.6,1.3-2.8c0.3-1.1,0.4-2.6,0.4-4.4v-3.2c0-2.2-0.3-3.9-0.8-5.2c-0.6-1.3-1.3-2.3-2.4-3
		c-1-0.7-2.3-1.1-3.7-1.4c-1.5-0.2-3.1-0.4-4.8-0.4L134.9,47.5z M106.9,73.2c0,2.3,0.4,4,1.3,5c0.9,1.1,2.4,1.6,4.4,1.6h3.9
		c0.7,0,1.2-0.1,1.5-0.5c0.3-0.3,0.5-1,0.5-2.1c0-1-0.2-1.7-0.5-2.1c-0.3-0.4-0.8-0.6-1.5-0.6h-1.7c-0.8,0-1.4-0.2-1.8-0.6
		c-0.4-0.4-0.6-1.1-0.6-2.2V44.4c0-0.3-0.2-0.5-0.5-0.5h-4.6c-0.3,0-0.5,0.2-0.5,0.5V73.2z M81.9,55.8c0.3,0,0.5-0.2,0.5-0.5v-4.6
		c0-0.4-0.2-0.5-0.5-0.5h-4.2c-0.3,0-0.5,0.2-0.5,0.5v4.6c0,0.4,0.2,0.5,0.5,0.5H81.9z M88.3,55.8c0.3,0,0.5-0.2,0.5-0.5v-4.6
		c0-0.4-0.2-0.5-0.5-0.5h-4.2c-0.3,0-0.5,0.2-0.5,0.5v4.6c0,0.4,0.2,0.5,0.5,0.5H88.3z M93.1,74.6H72.6c-0.8,0-1.4-0.2-1.8-0.6
		c-0.4-0.4-0.6-1.1-0.6-2.2v-10c0-0.4-0.2-0.5-0.5-0.5h-4.6c-0.3,0-0.5,0.2-0.5,0.5v11.4c0,2.3,0.4,4,1.3,5.1
		c0.9,1.1,2.4,1.6,4.5,1.6h24.8c2.2,0,3.7-0.5,4.6-1.6c0.9-1.1,1.3-2.8,1.3-5V58.4c0-0.4-0.2-0.5-0.5-0.5H96c-0.3,0-0.5,0.2-0.5,0.5
		v13.3c0,1.1-0.2,1.8-0.6,2.2C94.6,74.3,94,74.6,93.1,74.6"/>
</g>
</svg>
