<?xml version="1.0" encoding="utf-8"?>
<!-- Generator: Adobe Illustrator 24.2.1, SVG Export Plug-In . SVG Version: 6.00 Build 0)  -->
<svg version="1.1" id="Layer_1" xmlns="http://www.w3.org/2000/svg" xmlns:xlink="http://www.w3.org/1999/xlink" x="0px" y="0px"
	 viewBox="0 0 500 500" style="enable-background:new 0 0 500 500;" xml:space="preserve">
<style type="text/css">
	.st1{fill:#FFFFFF;}
	.st10{fill:#CD8B2A;}
</style>
<g>
	<rect class="st10" width="500" height="500"/>
	<path class="st1" d="M360.6,293c-19.3-15.2-44.9-15.5-54.2-13.3l-1.1,0.3c-10.8,2.6-28,6.8-48.1,31.7c-0.1,0.1-0.2,0.3-0.3,0.4
		l-0.3,0.3c-0.2,0.3-0.3,0.6-0.3,1c0,0.3,0.1,0.6,0.2,0.8l0.5,0.8c2.5,4.2,5.7,9.7,8.4,14.7c0,0.1,0.1,0.1,0.1,0.2
		c0.3,0.6,0.9,0.9,1.5,0.9c0.5,0,0.9-0.2,1.2-0.5c0.1-0.2,0.3-0.3,0.4-0.5c17.8-24.7,31.9-28.1,41.4-30.3l1.1-0.3
		c4.9-1.2,23.7-1.1,37.2,9.6c10.5,8.3,15.9,21.6,15.9,39.4c0,29.9-14.5,41.6-26.7,46.1c-18.9,7.1-37-2.4-37.1-2.5l-0.8-0.4
		c-10.4-4.5-25.9-13.9-40.4-43.2c-29.4-59.1-54-64.6-70.3-68.3l-0.9-0.2c-7.4-1.7-33.2-2.9-53.4,13.3c-10.6,8.4-23.2,24.8-23.2,55
		c0,18.4,3.8,30.6,13.5,43.3c2.1,2.9,23.9,30.9,66,22.8c6.7-1.3,15.9-4.5,25.9-12l9.3,8.4c0.6,0.6,1.6,0.5,2.1-0.1
		c0.3-0.3,0.4-0.6,0.4-1v-0.1l6.7-41.1l0-0.5c0-0.4-0.2-0.8-0.5-1.1c-0.3-0.3-0.6-0.4-1-0.4l-0.3,0l-0.4,0l-39.4,11l-0.7,0.1
		c-0.3,0.1-0.6,0.2-0.8,0.4c-0.6,0.6-0.5,1.6,0.1,2.1l0.5,0.4l8.8,8c-5.7,3.7-10.7,5.4-14.5,6.1c-30.5,5.8-45.5-14.1-46.1-14.9
		l-0.2-0.3c-7.1-9.3-9.5-17.2-9.5-31.3c0-17.9,5.3-31.1,15.6-39.4c13.2-10.5,31.3-10.6,36.5-9.4l0.9,0.2c13.3,3,31.6,7.2,56.8,57.7
		c13.1,26.3,29.5,43.4,50.1,52.5c2.6,1.3,15.1,7.3,31.4,7.3c6.8,0,14.2-1,21.9-3.9c11.9-4.5,39.7-19.7,39.7-64.9
		C384.1,317.9,371.3,301.5,360.6,293"/>
	<path class="st1" d="M427.6,119.6c0,0.9,0.4,1.3,1.3,1.3h12.3c0.9,0,1.3-0.4,1.3-1.3V62.3c0-3,0.5-5.3,1.6-6.7
		c1.1-1.4,3.2-2.1,6.5-2.1H471c0.9,0,1.3-0.4,1.3-1.3V41.5c0-0.9-0.4-1.3-1.3-1.3h-27.5c-5.6,0-9.6,1.4-12.1,4.3
		c-2.5,2.9-3.8,7.1-3.8,12.7V119.6z M408.2,41.5c0-0.9-0.4-1.3-1.3-1.3h-12.3c-0.9,0-1.3,0.4-1.3,1.3v78.2c0,0.9,0.4,1.3,1.3,1.3
		h12.3c0.9,0,1.3-0.4,1.3-1.3V41.5z"/>
	<path class="st1" d="M349.7,163.2c0-0.4-0.2-0.5-0.5-0.5h-4.9c-0.4,0-0.5,0.2-0.5,0.5v34.9c0,0.4,0.2,0.5,0.5,0.5h4.9
		c0.3,0,0.5-0.2,0.5-0.5V163.2z M330.7,198.6c2.2,0,3.8-0.5,4.7-1.6c0.9-1.1,1.4-2.8,1.4-5v-28.7c0-0.4-0.2-0.5-0.5-0.5h-4.9
		c-0.3,0-0.5,0.2-0.5,0.5v27.3c0,1.1-0.2,1.8-0.6,2.2c-0.4,0.4-1.1,0.6-1.9,0.6h-2.6c-0.7,0-1.3,0.2-1.6,0.6
		c-0.3,0.4-0.5,1.1-0.5,2.1c0,1,0.2,1.7,0.5,2.1c0.4,0.3,0.9,0.5,1.6,0.5H330.7z M299.4,187.7c0,0.2,0,0.5,0.1,0.8
		c0,1.8-0.4,3.1-1.1,3.8c-0.7,0.7-1.4,1-2.3,1h-2.1c-0.7,0-1.3,0.2-1.6,0.5c-0.3,0.4-0.5,1-0.5,2.1c0,1,0.2,1.6,0.5,2.1
		c0.4,0.4,0.9,0.6,1.6,0.6h1.9c0.5,0,1,0,1.6-0.1c0.6-0.1,1.1-0.2,1.6-0.4c0.5-0.2,1-0.5,1.5-0.8c0.5-0.4,0.9-0.8,1.3-1.4
		c0.9,1.1,2.1,1.9,3.5,2.4c1.4,0.5,3,0.7,4.8,0.7c1.8,0,3.4-0.2,4.8-0.7c1.4-0.5,2.6-1.3,3.6-2.5c0.5,0.7,1,1.2,1.6,1.6
		c0.6,0.4,1.2,0.7,1.9,0.9c0.6,0.2,1.3,0.3,2,0.3c0.6,0,1.3,0.1,1.9,0.1c0.7,0,1.3-0.2,1.6-0.6c0.3-0.4,0.5-1.1,0.5-2.1
		c0-0.9-0.2-1.6-0.5-2c-0.3-0.4-0.9-0.6-1.6-0.6h-1.5c-0.8,0-1.6-0.3-2.2-0.9c-0.7-0.6-1-1.7-1-3.1c0-0.3,0.1-0.6,0.1-0.9v-0.9
		c0-2.1-0.3-4-0.8-5.5c-0.5-1.5-1.3-2.7-2.3-3.6c-1-0.9-2.1-1.6-3.5-2c-1.3-0.4-2.8-0.6-4.3-0.6c-1.6,0-3,0.2-4.3,0.6
		c-1.3,0.4-2.4,1.1-3.4,1.9c-1,0.9-1.7,2.1-2.3,3.5c-0.5,1.4-0.8,3.2-0.9,5.2V187.7z M315.2,187.4c0,2.2-0.4,3.8-1.2,4.8
		c-0.8,1-2.1,1.5-3.8,1.5c-1.7,0-2.9-0.5-3.7-1.5c-0.8-1-1.2-2.6-1.2-4.8c0-2.1,0.4-3.6,1.2-4.7c0.8-1.1,2-1.6,3.7-1.6
		C313.6,181,315.2,183.1,315.2,187.4 M262.1,181.3c0-0.4-0.2-0.5-0.5-0.5h-4.9c-0.4,0-0.5,0.2-0.5,0.5v6.8c0,1,0,1.8,0,2.4
		c0,0.7-0.1,1.2-0.3,1.6c-0.2,0.4-0.4,0.7-0.7,0.9c-0.3,0.2-0.8,0.3-1.5,0.3h-4.2c-0.7,0-1.3,0.2-1.6,0.6c-0.3,0.4-0.5,1.2-0.5,2.2
		c0,0.6,0.1,1,0.2,1.3c0.1,0.3,0.3,0.6,0.5,0.7c0.2,0.2,0.5,0.3,0.8,0.3c0.3,0,0.7,0.1,1.1,0.1h5.7c1.6,0,2.8-0.2,3.8-0.6
		s1.6-1.2,2.1-2.2c0.9,1.9,2.6,2.8,5.1,2.8h2.3c1.6,0,2.8-0.2,3.8-0.6c0.9-0.4,1.6-1.1,2.1-2.2c0.5,0.9,1.1,1.6,2,2.1
		c0.9,0.5,1.9,0.7,3.1,0.7h2.3c1.6,0,2.8-0.2,3.8-0.6c0.9-0.4,1.6-1.1,2.1-2.1c0.6,1.1,1.4,1.9,2.4,2.2c1,0.3,2.2,0.5,3.6,0.5
		c0.7,0,1.2-0.2,1.6-0.6c0.4-0.4,0.5-1.1,0.5-2.1c0-0.9-0.2-1.6-0.5-2c-0.4-0.4-0.9-0.6-1.6-0.6h-0.9c-1.3,0-2.4-0.3-3.2-0.8
		c-0.8-0.6-1.2-1.4-1.2-2.4v-12.8c0-0.3-0.2-0.5-0.5-0.5h-4.9c-0.4,0-0.5,0.2-0.5,0.5v11c0,1.1,0,2-0.1,2.7
		c-0.1,0.7-0.2,1.2-0.5,1.6c-0.3,0.4-0.6,0.6-1.1,0.7c-0.5,0.1-1.2,0.2-2,0.2c-1.1,0-2-0.3-2.7-0.8c-0.7-0.5-1-1.3-1-2.4v-8.8
		c0-0.4-0.2-0.5-0.5-0.5H270c-0.4,0-0.5,0.2-0.5,0.5v6.8c0,1.1,0,2-0.1,2.7c0,0.7-0.2,1.2-0.5,1.6s-0.6,0.6-1.1,0.8
		c-0.5,0.1-1.2,0.2-2.1,0.2c-1.3,0-2.2-0.3-2.8-0.8c-0.6-0.5-0.9-1.4-0.9-2.5V181.3z M229.3,168.9c-0.2,0-0.3,0.1-0.3,0.4v2.1
		c0,0.2,0.1,0.4,0.3,0.4h11.6c0.2,0,0.3-0.1,0.3-0.4v-2.1c0-0.2-0.1-0.4-0.3-0.4h-5.8c-0.4-0.2-0.8-0.5-1.1-1
		c-0.4-0.4-0.5-1-0.5-1.7c0-0.7,0.2-1.2,0.7-1.7c0.4-0.5,1.1-0.7,1.9-0.7c0.6,0,1.1,0.1,1.6,0.3c0.5,0.2,0.9,0.5,1.2,0.8
		c0.2,0.2,0.3,0.2,0.4,0.1l1.6-1.5c0.1-0.1,0.2-0.3,0.1-0.5c-0.4-0.6-1.1-1.1-2-1.5c-0.9-0.4-1.9-0.6-2.9-0.6c-1.1,0-2,0.2-2.7,0.5
		c-0.8,0.3-1.4,0.7-1.8,1.2c-0.5,0.5-0.8,1.1-1,1.7c-0.2,0.6-0.3,1.2-0.3,1.7c0,0.6,0.1,1.1,0.2,1.6c0.2,0.5,0.4,0.9,0.6,1.2H229.3z
		 M238.8,182.6c0.8,1.1,1.2,2.6,1.2,4.7v6h-4.7c-1.7,0-3-0.4-3.9-1.2c-0.9-0.8-1.3-2.3-1.3-4.5c0-2,0.5-3.6,1.3-4.8
		c0.9-1.2,2.1-1.8,3.7-1.8C236.8,181,238,181.5,238.8,182.6 M236.1,209.3c3.2,0,5.6-0.8,7.3-2.3c1.7-1.5,2.5-3.9,2.5-7.2v-1.2h3.6
		c0.7,0,1.3-0.2,1.6-0.5c0.3-0.3,0.5-1.1,0.5-2.2c0-0.9-0.2-1.6-0.5-2c-0.3-0.4-0.9-0.6-1.6-0.6h-3.6v-6c0-2.1-0.3-3.9-0.8-5.4
		c-0.5-1.5-1.3-2.7-2.2-3.6c-1-0.9-2.1-1.6-3.4-2c-1.3-0.4-2.8-0.6-4.4-0.6c-1.4,0-2.8,0.2-4.1,0.7c-1.3,0.4-2.5,1.1-3.4,2.1
		c-1,1-1.8,2.2-2.4,3.7c-0.6,1.5-0.9,3.4-0.9,5.5c0,2,0.2,3.7,0.7,5.1c0.5,1.4,1.2,2.5,2,3.4c0.9,0.9,2,1.5,3.2,1.9
		c1.3,0.4,2.8,0.6,4.4,0.6h5.3c0,1.1-0.1,2-0.3,2.7c-0.2,0.7-0.5,1.2-0.9,1.6c-0.4,0.4-0.9,0.7-1.5,0.8c-0.6,0.2-1.3,0.2-2.1,0.2
		h-6.2c-0.4,0-0.5,0.2-0.5,0.5v4.2c0,0.4,0.2,0.5,0.5,0.5H236.1z M211.2,182.6c0.8,1.1,1.2,2.6,1.2,4.7v6h-4.7c-1.7,0-3-0.4-3.9-1.2
		c-0.9-0.8-1.3-2.3-1.3-4.5c0-2,0.4-3.6,1.3-4.8c0.9-1.2,2.1-1.8,3.8-1.8C209.2,181,210.5,181.5,211.2,182.6 M212.4,198.6
		c0,1.2-0.1,2.1-0.3,2.8c-0.2,0.7-0.6,1.3-1,1.6c-0.4,0.4-0.9,0.6-1.5,0.8c-0.6,0.1-1.3,0.2-2,0.2h-6.2c-0.4,0-0.5,0.2-0.5,0.5v4.2
		c0,0.4,0.2,0.5,0.5,0.5h7.1c3.2,0,5.6-0.8,7.3-2.3c1.7-1.5,2.5-3.9,2.5-7.2v-12.4c0-2.1-0.3-4-0.8-5.4c-0.5-1.5-1.3-2.7-2.2-3.6
		c-1-0.9-2.1-1.6-3.4-2c-1.3-0.4-2.8-0.6-4.4-0.6c-1.4,0-2.8,0.2-4.1,0.7c-1.3,0.4-2.5,1.1-3.5,2.1c-1,1-1.8,2.2-2.4,3.7
		c-0.6,1.5-0.9,3.4-0.9,5.5c0,2,0.2,3.7,0.7,5.1c0.5,1.4,1.2,2.5,2,3.4c0.9,0.9,2,1.5,3.2,1.9c1.3,0.4,2.8,0.6,4.4,0.6H212.4z
		 M176.5,170.6c0-0.4-0.2-0.5-0.5-0.5h-4.9c-0.3,0-0.5,0.2-0.5,0.5v22.7h-9.4c-0.4,0-0.5,0.2-0.5,0.5v4.2c0,0.4,0.2,0.5,0.5,0.5
		h23.2c2.2,0,3.8-0.5,4.7-1.6c0.9-1.1,1.4-2.8,1.4-5v-28.7c0-0.4-0.2-0.5-0.5-0.5h-4.9c-0.3,0-0.5,0.2-0.5,0.5v27.3
		c0,1.1-0.2,1.8-0.6,2.2c-0.4,0.4-1.1,0.6-1.9,0.6h-5.5V170.6z M130.6,191.7c-0.6,1.9-0.9,3.8-0.9,5.7c0,2,0.3,3.8,1,5.3
		c0.6,1.5,1.6,2.8,2.7,3.8c1.2,1,2.5,1.8,4.1,2.2c1.6,0.5,3.3,0.7,5.1,0.7c1.9,0,3.7-0.2,5.3-0.7c1.6-0.5,2.9-1.2,4.1-2.2
		c1.1-1,2-2.3,2.6-3.8c0.6-1.5,0.9-3.3,0.9-5.3v-15.8c0-0.4-0.2-0.5-0.5-0.5h-4.9c-0.3,0-0.5,0.2-0.5,0.5v15.7
		c0,2.4-0.6,4.1-1.8,5.2c-1.2,1.1-2.9,1.6-4.9,1.6c-0.8,0-1.6-0.1-2.5-0.3c-0.8-0.2-1.6-0.6-2.3-1.2c-0.7-0.6-1.3-1.3-1.7-2.2
		c-0.4-0.9-0.7-2.1-0.7-3.5c0-1.6,0.3-3,0.8-4.4c0.5-1.3,1-2.5,1.6-3.5c0.1-0.1,0.1-0.3,0.1-0.4c0-0.1-0.1-0.2-0.3-0.3l-4.3-1.7
		c-0.3-0.2-0.6-0.2-0.8,0.1C132,188.2,131.2,189.8,130.6,191.7 M146.7,178.5c0.4,0,0.5-0.2,0.5-0.5v-4.6c0-0.4-0.2-0.5-0.5-0.5h-5.1
		c-0.4,0-0.5,0.2-0.5,0.5v4.6c0,0.4,0.2,0.5,0.5,0.5H146.7z"/>
	<path class="st1" d="M342.9,120.5c0.8,1.1,1.2,2.6,1.2,4.7v6h-4.7c-1.7,0-3-0.4-3.9-1.2c-0.9-0.8-1.3-2.3-1.3-4.5
		c0-2,0.4-3.6,1.3-4.8c0.9-1.2,2.1-1.8,3.8-1.8C340.9,118.9,342.1,119.4,342.9,120.5 M344,136.5c0,1.2-0.1,2.1-0.3,2.8
		c-0.2,0.7-0.6,1.3-1,1.6c-0.4,0.4-0.9,0.6-1.5,0.8c-0.6,0.1-1.3,0.2-2,0.2h-6.2c-0.4,0-0.5,0.2-0.5,0.5v4.2c0,0.4,0.2,0.5,0.5,0.5
		h7.1c3.2,0,5.6-0.8,7.3-2.3c1.7-1.5,2.5-3.9,2.5-7.2v-12.4c0-2.1-0.3-4-0.8-5.4c-0.5-1.5-1.3-2.7-2.2-3.6c-1-0.9-2.1-1.6-3.4-2
		c-1.3-0.4-2.8-0.6-4.4-0.6c-1.4,0-2.8,0.2-4.1,0.7c-1.3,0.4-2.5,1.1-3.5,2.1c-1,1-1.8,2.2-2.4,3.8c-0.6,1.5-0.9,3.4-0.9,5.5
		c0,2,0.2,3.7,0.7,5.1c0.5,1.4,1.2,2.5,2,3.4c0.9,0.9,2,1.5,3.2,1.8c1.3,0.4,2.8,0.6,4.4,0.6H344z M322.2,101.1
		c0-0.4-0.2-0.5-0.5-0.5h-4.9c-0.3,0-0.5,0.2-0.5,0.5v34.9c0,0.4,0.2,0.5,0.5,0.5h4.9c0.3,0,0.5-0.2,0.5-0.5V101.1z M295.3,108.5
		c0-0.3-0.2-0.5-0.5-0.5h-4.9c-0.3,0-0.5,0.2-0.5,0.5v22.7H280c-0.4,0-0.5,0.2-0.5,0.5v4.2c0,0.4,0.2,0.5,0.5,0.5h23.2
		c2.2,0,3.8-0.5,4.7-1.6c0.9-1.1,1.4-2.8,1.4-5v-28.7c0-0.4-0.2-0.5-0.5-0.5h-4.9c-0.4,0-0.5,0.2-0.5,0.5v27.3
		c0,1.1-0.2,1.8-0.6,2.2c-0.4,0.4-1.1,0.6-1.9,0.6h-5.5V108.5z M286.7,148.5c-0.2,0-0.3,0.1-0.3,0.4v1.9c0,0.2,0.1,0.4,0.3,0.4h11.2
		c0.2,0,0.3-0.1,0.3-0.4v-1.9c0-0.2-0.1-0.4-0.3-0.4h-5.3c-0.4-0.3-0.8-0.7-1.1-1.2c-0.4-0.5-0.6-1.1-0.6-1.8c0-0.7,0.2-1.4,0.7-1.9
		c0.5-0.5,1.1-0.8,1.9-0.8c1,0,1.8,0.4,2.5,1.2c0.1,0.1,0.1,0.1,0.2,0.1c0.1,0,0.2-0.1,0.3-0.2l1.4-1.3c0.1-0.1,0.1-0.3,0-0.5
		c-0.5-0.6-1.1-1.1-1.8-1.4s-1.7-0.5-2.6-0.5c-1,0-1.9,0.2-2.6,0.5c-0.7,0.3-1.3,0.7-1.7,1.2c-0.5,0.5-0.8,1.1-1,1.7
		c-0.2,0.6-0.3,1.2-0.3,1.8c0,0.6,0.1,1.2,0.2,1.7c0.2,0.5,0.4,1,0.6,1.4H286.7z M268.8,136.5c2.2,0,3.8-0.5,4.7-1.6
		c0.9-1.1,1.4-2.8,1.4-5v-14.7c0-0.3-0.2-0.5-0.5-0.5h-4.9c-0.3,0-0.5,0.2-0.5,0.5v13.3c0,1.1-0.2,1.8-0.6,2.2
		c-0.4,0.4-1,0.6-1.9,0.6h-2.6c-0.7,0-1.3,0.3-1.6,1c-0.3,0.7-0.5,1.5-0.5,2.4c0,0.7,0.2,1.2,0.5,1.5c0.4,0.2,0.9,0.4,1.6,0.4H268.8
		z M274.6,109.3c0.4,0,0.5-0.2,0.5-0.5v-4.6c0-0.4-0.2-0.5-0.5-0.5h-5.1c-0.4,0-0.5,0.2-0.5,0.5v4.6c0,0.4,0.2,0.5,0.5,0.5H274.6z
		 M260,136c1,0.3,2.2,0.5,3.6,0.5c0.7,0,1.3-0.2,1.6-0.6c0.3-0.4,0.5-1.1,0.5-2.1c0-0.9-0.2-1.6-0.5-2c-0.4-0.4-0.9-0.6-1.6-0.6
		h-0.9c-1.3,0-2.4-0.3-3.2-0.8c-0.8-0.6-1.2-1.4-1.2-2.4v-12.8c0-0.3-0.2-0.5-0.5-0.5h-4.5c-0.2,0-0.4,0-0.6,0.1
		c-0.2,0.1-0.3,0.2-0.3,0.4V126c0,0.9,0,1.7-0.1,2.4c0,0.6-0.1,1.2-0.3,1.6c-0.2,0.4-0.4,0.7-0.7,0.9c-0.3,0.2-0.8,0.3-1.5,0.3h-3.4
		c-0.7,0-1.3,0.2-1.6,0.6c-0.3,0.4-0.5,1.1-0.5,2.2c0,1,0.2,1.7,0.5,2c0.4,0.3,0.9,0.5,1.6,0.5h4.9c1.7,0,3-0.2,4-0.6
		c1-0.4,1.7-1.1,2.2-2.1C258.2,134.9,259,135.6,260,136 M254.2,109.3c0.4,0,0.5-0.2,0.5-0.5v-4.6c0-0.4-0.2-0.5-0.5-0.5h-4.4
		c-0.4,0-0.5,0.2-0.5,0.5v4.6c0,0.4,0.2,0.5,0.5,0.5H254.2z M261.1,109.3c0.4,0,0.5-0.2,0.5-0.5v-4.6c0-0.4-0.2-0.5-0.5-0.5h-4.4
		c-0.4,0-0.5,0.2-0.5,0.5v4.6c0,0.4,0.2,0.5,0.5,0.5H261.1z M235.8,129.8c0,2.3,0.5,4,1.4,5c0.9,1.1,2.5,1.6,4.7,1.6h4.2
		c0.7,0,1.3-0.2,1.6-0.5c0.3-0.3,0.5-1,0.5-2.1c0-1-0.2-1.7-0.5-2.1c-0.4-0.4-0.9-0.6-1.6-0.6h-1.8c-0.9,0-1.5-0.2-1.9-0.6
		c-0.4-0.4-0.6-1.1-0.6-2.2v-27.3c0-0.4-0.2-0.5-0.5-0.5h-4.9c-0.3,0-0.5,0.2-0.5,0.5V129.8z M222.7,145.5c0.4,0,0.5-0.2,0.5-0.5
		v-4.6c0-0.4-0.2-0.5-0.5-0.5h-5.1c-0.4,0-0.5,0.2-0.5,0.5v4.6c0,0.4,0.2,0.5,0.5,0.5H222.7z M221.4,136.5c1.4,0,2.6-0.1,3.6-0.4
		c1-0.3,1.9-0.8,2.6-1.5c0.7-0.7,1.2-1.7,1.6-2.9c0.3-1.2,0.5-2.8,0.5-4.7c0-1.8-0.2-3.5-0.6-5.1c-0.4-1.6-1.1-3-2-4.2
		c-1-1.2-2.2-2.2-3.8-2.9c-1.6-0.7-3.6-1.1-5.9-1.1c-2.2,0-4,0.4-5.5,1.2c-1.5,0.8-2.8,1.8-3.9,3.1c-0.2,0.2-0.2,0.5,0.2,0.7
		l2.7,2.9c0.2,0.2,0.5,0.2,0.7,0c0.8-0.8,1.6-1.4,2.6-1.9c0.9-0.5,2-0.7,3.1-0.7c1.2,0,2.2,0.2,3,0.6c0.8,0.4,1.4,0.9,1.9,1.6
		c0.5,0.7,0.8,1.5,1.1,2.5c0.2,1,0.3,2,0.3,3.1c0,0.8-0.1,1.6-0.2,2.1c-0.1,0.6-0.3,1-0.6,1.4c-0.3,0.4-0.8,0.6-1.3,0.7
		c-0.6,0.1-1.3,0.2-2.2,0.2h-7.3c-1,0-2,0.1-3,0.4c-1,0.2-1.9,0.7-2.6,1.3c-0.8,0.6-1.4,1.4-1.9,2.4c-0.5,1-0.7,2.3-0.7,3.9
		c0,2.9,0.8,5,2.5,6.2c1.7,1.2,4,1.8,6.9,1.8h2.1c0.4,0,0.5-0.2,0.5-0.5v-4.2c0-0.4-0.2-0.5-0.5-0.5h-1.4c-1.6,0-2.6-0.2-3.2-0.6
		c-0.5-0.4-0.8-1.1-0.8-2.1c0-0.8,0.2-1.4,0.6-1.9c0.4-0.5,1.1-0.8,2.2-0.8H221.4z"/>
	<path class="st1" d="M349.7,38.9c0-0.4-0.2-0.5-0.5-0.5h-4.9c-0.4,0-0.5,0.2-0.5,0.5v34.9c0,0.4,0.2,0.5,0.5,0.5h4.9
		c0.3,0,0.5-0.2,0.5-0.5V38.9z M322.9,46.3c0-0.4-0.2-0.5-0.5-0.5h-4.9c-0.3,0-0.5,0.2-0.5,0.5V69h-9.4c-0.4,0-0.5,0.2-0.5,0.5v4.2
		c0,0.4,0.2,0.5,0.5,0.5h23.2c2.2,0,3.8-0.5,4.7-1.6c0.9-1.1,1.4-2.8,1.4-5V38.9c0-0.4-0.2-0.5-0.5-0.5h-4.9c-0.3,0-0.5,0.2-0.5,0.5
		v27.3c0,1.1-0.2,1.8-0.6,2.2c-0.4,0.4-1.1,0.6-1.9,0.6h-5.5V46.3z M275.2,57c0-0.3-0.2-0.5-0.5-0.5h-4.9c-0.3,0-0.5,0.2-0.5,0.5v8
		c0,1.5-0.1,2.6-0.4,3.1c-0.3,0.6-1,0.9-2.1,0.9h-4.2c-0.7,0-1.3,0.2-1.6,0.6c-0.3,0.4-0.5,1.2-0.5,2.2c0,0.9,0.2,1.6,0.5,1.9
		c0.4,0.3,0.9,0.5,1.6,0.5h6c1.6,0,2.9-0.2,3.8-0.6c0.9-0.4,1.6-1.2,2.1-2.2c0.9,1.9,2.6,2.8,5.1,2.8h2.3c1.6,0,2.8-0.2,3.8-0.6
		c0.9-0.4,1.6-1.1,2.1-2.2c0.5,0.9,1.1,1.6,2,2.1c0.9,0.5,1.9,0.7,3.1,0.7h2.3c2.4,0,4.1-0.5,5.1-1.5c1-1,1.5-2.7,1.5-5.1V52.9
		c0-0.4-0.2-0.5-0.5-0.5h-4.9c-0.3,0-0.5,0.2-0.5,0.5v10.9c0,1.1,0,2-0.1,2.7c-0.1,0.7-0.2,1.2-0.5,1.6c-0.2,0.4-0.6,0.6-1.1,0.7
		c-0.5,0.1-1.2,0.2-2,0.2c-1.1,0-2-0.3-2.7-0.8c-0.7-0.5-1-1.4-1-2.5V57c0-0.3-0.2-0.5-0.5-0.5h-4.9c-0.3,0-0.5,0.2-0.5,0.5v8
		c0,0.9,0,1.6-0.1,2.2c-0.1,0.5-0.3,0.9-0.5,1.2c-0.3,0.3-0.6,0.4-1.1,0.5c-0.5,0.1-1.1,0.1-1.9,0.1c-2.6,0-3.8-1.1-3.8-3.3V57z
		 M258.9,73.8c1,0.3,2.2,0.5,3.6,0.5c0.7,0,1.3-0.2,1.6-0.6c0.3-0.4,0.5-1.1,0.5-2.1c0-0.9-0.2-1.6-0.5-2c-0.4-0.4-0.9-0.6-1.6-0.6
		h-0.9c-1.3,0-2.4-0.3-3.2-0.8c-0.8-0.6-1.2-1.4-1.2-2.4V52.9c0-0.3-0.2-0.5-0.5-0.5h-4.5c-0.2,0-0.4,0-0.6,0.1
		c-0.2,0.1-0.3,0.2-0.3,0.4v10.9c0,0.9,0,1.7-0.1,2.4c0,0.6-0.1,1.2-0.3,1.6c-0.2,0.4-0.4,0.7-0.7,0.9c-0.3,0.2-0.8,0.3-1.5,0.3
		h-3.4c-0.7,0-1.3,0.2-1.6,0.6c-0.3,0.4-0.5,1.1-0.5,2.2c0,1,0.2,1.7,0.5,2c0.3,0.3,0.9,0.5,1.6,0.5h4.9c1.7,0,3-0.2,4-0.6
		c1-0.4,1.7-1.1,2.2-2.1C257.1,72.7,257.9,73.5,258.9,73.8 M253.1,47.1c0.4,0,0.5-0.2,0.5-0.5V42c0-0.4-0.2-0.5-0.5-0.5h-4.4
		c-0.4,0-0.5,0.2-0.5,0.5v4.6c0,0.4,0.2,0.5,0.5,0.5H253.1z M260,47.1c0.4,0,0.5-0.2,0.5-0.5V42c0-0.4-0.2-0.5-0.5-0.5h-4.4
		c-0.4,0-0.5,0.2-0.5,0.5v4.6c0,0.4,0.2,0.5,0.5,0.5H260z M226,76.9v-2.8h4.4c1,0,1.9,0.1,2.5,0.2c0.6,0.1,1.2,0.4,1.5,0.6
		c0.4,0.3,0.6,0.6,0.7,1c0.1,0.4,0.2,0.9,0.2,1.4c0,1-0.3,1.7-1,2.3c-0.7,0.5-1.9,0.8-3.5,0.8C227.6,80.4,226,79.3,226,76.9
		 M234.5,58.3c0.9,1,1.3,2.5,1.3,4.5c0,0.8-0.1,1.6-0.3,2.3c-0.2,0.8-0.4,1.4-0.8,2c-0.4,0.6-0.8,1.1-1.4,1.4
		c-0.6,0.4-1.3,0.6-2.1,0.6H226v-6.6c0-1.9,0.4-3.3,1.3-4.3c0.9-1,2-1.5,3.5-1.5C232.4,56.7,233.6,57.2,234.5,58.3 M214.9,74.3h5.2
		v3.1c0,1.5,0.3,2.7,0.8,3.8c0.5,1,1.2,1.9,2.2,2.5c1,0.7,2.1,1.1,3.4,1.4c1.3,0.3,2.8,0.5,4.4,0.5c3.2,0,5.7-0.7,7.5-2
		c1.8-1.3,2.8-3.2,2.8-5.6c0-1.4-0.4-2.7-1.1-3.7h5.1c0.7,0,1.2-0.2,1.6-0.6c0.4-0.4,0.5-1.1,0.5-2.1c0-1-0.2-1.7-0.5-2.1
		c-0.3-0.4-0.9-0.5-1.6-0.5h-5.4c0.5-0.7,0.9-1.7,1.3-3c0.4-1.3,0.6-2.6,0.6-3.9c0-1.9-0.3-3.5-0.8-4.9c-0.5-1.3-1.3-2.4-2.3-3.3
		c-1-0.8-2.1-1.5-3.5-1.9c-1.3-0.4-2.8-0.6-4.4-0.6c-1.4,0-2.7,0.2-4,0.6c-1.3,0.4-2.4,1.1-3.4,2c-1,0.9-1.8,2.1-2.3,3.6
		c-0.6,1.5-0.9,3.3-0.9,5.4v6h-5.2c-0.7,0-1.3,0.2-1.6,0.5c-0.3,0.4-0.5,1-0.5,2.1C212.8,73.4,213.5,74.3,214.9,74.3 M203.7,64.3
		c0,0.9,0,1.6-0.1,2.2c0,0.6-0.1,1.1-0.3,1.5c-0.2,0.4-0.4,0.6-0.8,0.8c-0.3,0.2-0.8,0.2-1.4,0.2h-5.5V46.3c0-0.4-0.2-0.5-0.5-0.5
		h-4.9c-0.3,0-0.5,0.2-0.5,0.5V69h-9.4c-0.4,0-0.5,0.2-0.5,0.5v4.2c0,0.4,0.2,0.5,0.5,0.5h22.5c1.6,0,2.9-0.2,3.9-0.6
		c1-0.4,1.7-1.1,2.2-2.1c0.6,1.1,1.4,1.9,2.5,2.2c1,0.3,2.2,0.5,3.5,0.5c0.7,0,1.3-0.2,1.6-0.6c0.3-0.4,0.5-1.1,0.5-2.1
		c0-0.9-0.2-1.6-0.5-2c-0.4-0.4-0.9-0.6-1.6-0.6h-0.9c-2.6,0-4-0.9-4.3-2.7V38.9c0-0.4-0.2-0.5-0.5-0.5h-4.9c-0.3,0-0.5,0.2-0.5,0.5
		V64.3z M174.5,38.9c0-0.4-0.2-0.5-0.5-0.5h-4.9c-0.3,0-0.5,0.2-0.5,0.5v24.9c0,0.9,0,1.7-0.1,2.3c0,0.6-0.1,1.2-0.3,1.6
		c-0.2,0.4-0.4,0.7-0.8,0.9c-0.4,0.2-0.8,0.3-1.5,0.3h-19.6c-1.8,0-3-0.2-3.7-0.5c-0.7-0.3-1.1-1.1-1.1-2.3v-10
		c0-0.4-0.2-0.5-0.5-0.5h-4.9c-0.4,0-0.5,0.2-0.5,0.5v11.4c0,2.3,0.5,4,1.4,5.1c1,1.1,2.5,1.6,4.7,1.6h26.3c2.3,0,3.9-0.5,4.9-1.6
		c1-1.1,1.4-2.8,1.4-5V38.9z M158.4,47.9c0.1-0.2,0.2-0.3,0.2-0.4c0-0.1,0-0.2-0.2-0.4l-1.3-1.2c-0.3-0.3-0.6-0.2-0.9,0.1l-4.1,4.8
		c-0.1,0.1-0.1,0.2-0.2,0.3c-0.1,0.1-0.1,0.3-0.1,0.5v1.2c0,0.5,0.2,0.7,0.7,0.7h2.5c0.9,0,1.4,0.1,1.7,0.3c0.2,0.2,0.4,0.8,0.4,1.8
		c0,0.4-0.1,0.7-0.2,0.8c-0.1,0.2-0.4,0.3-0.9,0.3h-5.3c-0.4,0-0.5,0.2-0.5,0.5v1.6c0,0.4,0.2,0.5,0.5,0.5h6.2
		c1.1,0,1.9-0.2,2.4-0.7c0.5-0.5,0.7-1.4,0.7-2.9v-1c0-1.3-0.3-2.3-0.8-3c-0.5-0.6-1.4-1-2.5-1h-0.9L158.4,47.9z"/>
</g>
</svg>
