<?xml version="1.0" encoding="utf-8"?>
<svg version="1.1" id="Layer_1" xmlns="http://www.w3.org/2000/svg" xmlns:xlink="http://www.w3.org/1999/xlink" x="0px" y="0px"
	 viewBox="0 0 500 500" style="enable-background:new 0 0 500 500;" xml:space="preserve">
<style type="text/css">
	.st1{fill:#FFFFFF;}
	.st7{fill:#F36E24;}
</style>
<g>
	<rect class="st7" width="500" height="500"/>
	<path class="st1" d="M340.6,421l-39.4,22.7v-45.5l39.4-22.8V421z M210.4,443.8v-42l36.4,21L210.4,443.8z M204.4,443.8L165,421
		v-45.5l39.4,22.8V443.8z M246.8,317.9l-36.4,21v-42L246.8,317.9z M295.2,339l-36.4-21l36.4-21V339z M258.8,370.4l39.4-22.7
		l39.4,22.7l-39.4,22.7L258.8,370.4z M249.8,365.2l-36.4-21l36.4-21V365.2z M292.2,344.2l-36.4,21v-42L292.2,344.2z M249.8,417.6
		l-36.4-21l36.4-21V417.6z M345.1,367.8l-43.9-25.3v-50.7c0-1.1-0.6-2.1-1.5-2.6L254.3,263c-0.9-0.5-2.1-0.5-3,0l-45.4,26.2
		c-0.9,0.5-1.5,1.5-1.5,2.6v50.7l-43.9,25.3c-0.9,0.5-1.5,1.5-1.5,2.6v52.4c0,1.1,0.6,2.1,1.5,2.6l45.4,26.2c0.5,0.3,1,0.4,1.5,0.4
		c0.5,0,1-0.1,1.5-0.4l43.9-25.3l43.9,25.3c0.5,0.3,1,0.4,1.5,0.4c0.5,0,1-0.1,1.5-0.4l45.4-26.2c0.9-0.5,1.5-1.5,1.5-2.6v-52.4
		C346.6,369.3,346,368.3,345.1,367.8"/>
	<path class="st1" d="M443.8,75c-2.9,0-5.3-0.8-7.3-2.4c-2-1.6-3.1-4.3-3.1-8.1c0-3.6,0.9-6.3,2.8-8.2c1.9-1.9,4.2-2.8,7.1-2.8
		c3,0,5.3,0.9,6.7,2.8c1.5,1.8,2.2,4.3,2.2,7.3V75H443.8z M452.2,88.4v31.3c0,0.9,0.4,1.3,1.3,1.3h12.3c0.9,0,1.3-0.4,1.3-1.3V61.3
		c0-6.9-2.1-12.2-6.3-15.8c-4.2-3.6-10-5.3-17.2-5.3c-3.2,0-6.3,0.5-9.3,1.5c-3,1-5.6,2.5-7.9,4.5c-2.3,2-4.2,4.6-5.5,7.7
		c-1.4,3.1-2.1,6.8-2.1,11c0,4.4,0.7,8.1,2.1,11.1c1.4,3,3.2,5.5,5.5,7.4c2.3,1.9,5,3.2,8.1,4c3.1,0.8,6.3,1.2,9.7,1.2H452.2z"/>
	<path class="st1" d="M351.7,163.2c0-0.4-0.2-0.5-0.5-0.5h-4.6c-0.3,0-0.5,0.2-0.5,0.5v34.9c0,0.4,0.2,0.5,0.5,0.5h4.6
		c0.3,0,0.5-0.2,0.5-0.5V163.2z M326.2,170.6c0-0.4-0.2-0.5-0.5-0.5H321c-0.3,0-0.5,0.2-0.5,0.5v22.7h-8.9c-0.3,0-0.5,0.2-0.5,0.5
		v4.2c0,0.4,0.2,0.5,0.5,0.5h22c2.1,0,3.6-0.5,4.5-1.6c0.9-1.1,1.3-2.8,1.3-5v-28.7c0-0.4-0.2-0.5-0.5-0.5h-4.6
		c-0.3,0-0.5,0.2-0.5,0.5v27.3c0,1.1-0.2,1.8-0.6,2.2c-0.4,0.4-1,0.6-1.8,0.6h-5.3V170.6z M317.9,164c-0.2,0-0.3,0.1-0.3,0.4v2
		c0,0.2,0.1,0.4,0.3,0.4h10.6c0.2,0,0.3-0.1,0.3-0.4v-2c0-0.2-0.1-0.4-0.3-0.4h-5.1c-0.4-0.2-0.7-0.6-1.1-1.1
		c-0.4-0.5-0.5-1.1-0.5-1.8c0-0.8,0.2-1.4,0.7-1.9c0.4-0.5,1-0.8,1.8-0.8c0.5,0,0.9,0.1,1.3,0.3c0.4,0.2,0.8,0.5,1.1,0.9
		c0.1,0.1,0.3,0.1,0.5-0.1l1.3-1.3c0.1-0.1,0.1-0.3,0-0.5c-0.4-0.6-1-1.1-1.8-1.4c-0.7-0.4-1.6-0.6-2.5-0.6c-1,0-1.8,0.2-2.5,0.5
		c-0.7,0.3-1.2,0.8-1.7,1.3c-0.4,0.5-0.7,1.1-0.9,1.7c-0.2,0.6-0.3,1.2-0.3,1.8s0.1,1.2,0.2,1.7c0.1,0.5,0.3,1,0.6,1.3H317.9z
		 M280.9,181.3c0-0.4-0.2-0.5-0.5-0.5h-4.6c-0.3,0-0.5,0.2-0.5,0.5v8c0,1.5-0.1,2.6-0.4,3.1c-0.3,0.6-0.9,0.9-2,0.9h-4
		c-0.7,0-1.2,0.2-1.5,0.6c-0.3,0.4-0.5,1.2-0.5,2.2c0,0.9,0.2,1.6,0.5,1.9c0.3,0.3,0.8,0.5,1.5,0.5h5.7c1.5,0,2.7-0.2,3.6-0.6
		c0.9-0.4,1.5-1.2,2-2.2c0.9,1.9,2.5,2.8,4.9,2.8h2.2c1.5,0,2.7-0.2,3.6-0.6c0.9-0.4,1.6-1.1,2-2.2c0.4,0.9,1.1,1.6,1.9,2.1
		c0.8,0.5,1.8,0.7,3,0.7h2.2c2.3,0,3.9-0.5,4.8-1.5c1-1,1.4-2.7,1.4-5.1v-14.7c0-0.3-0.2-0.5-0.5-0.5h-4.6c-0.3,0-0.5,0.2-0.5,0.5
		v10.9c0,1.1,0,2-0.1,2.7c-0.1,0.7-0.2,1.2-0.4,1.6c-0.2,0.4-0.6,0.6-1,0.7c-0.5,0.1-1.1,0.2-1.9,0.2c-1.1,0-1.9-0.3-2.6-0.8
		c-0.6-0.5-1-1.4-1-2.5v-8.7c0-0.4-0.2-0.5-0.5-0.5h-4.6c-0.3,0-0.5,0.2-0.5,0.5v8c0,0.9,0,1.6-0.1,2.2c-0.1,0.5-0.3,0.9-0.5,1.2
		c-0.3,0.3-0.6,0.4-1,0.5c-0.4,0.1-1,0.1-1.8,0.1c-2.4,0-3.6-1.1-3.6-3.3V181.3z M259.1,191.9c0,2.3,0.4,4,1.3,5
		c0.9,1.1,2.4,1.6,4.5,1.6h4c0.7,0,1.2-0.2,1.5-0.5c0.3-0.3,0.5-1,0.5-2.1c0-1-0.2-1.7-0.5-2.1c-0.3-0.4-0.8-0.6-1.5-0.6h-1.8
		c-0.8,0-1.4-0.2-1.8-0.6c-0.4-0.4-0.6-1.1-0.6-2.2v-27.3c0-0.4-0.2-0.5-0.5-0.5h-4.6c-0.3,0-0.5,0.2-0.5,0.5V191.9z M227.4,181.3
		c0-0.4-0.2-0.5-0.5-0.5h-4.6c-0.3,0-0.5,0.2-0.5,0.5v8c0,1.5-0.1,2.6-0.4,3.1c-0.3,0.6-0.9,0.9-2,0.9h-4c-0.7,0-1.2,0.2-1.5,0.6
		s-0.5,1.2-0.5,2.2c0,0.9,0.2,1.6,0.5,1.9c0.3,0.3,0.8,0.5,1.5,0.5h5.7c1.5,0,2.7-0.2,3.6-0.6c0.9-0.4,1.6-1.2,2-2.2
		c0.9,1.9,2.5,2.8,4.9,2.8h2.2c1.5,0,2.7-0.2,3.6-0.6c0.9-0.4,1.6-1.1,2-2.2c0.4,0.9,1.1,1.6,1.9,2.1c0.8,0.5,1.8,0.7,3,0.7h2.2
		c2.3,0,3.9-0.5,4.8-1.5c1-1,1.4-2.7,1.4-5.1v-14.7c0-0.3-0.2-0.5-0.5-0.5h-4.6c-0.3,0-0.5,0.2-0.5,0.5v10.9c0,1.1,0,2-0.1,2.7
		c-0.1,0.7-0.2,1.2-0.4,1.6c-0.2,0.4-0.6,0.6-1,0.7c-0.5,0.1-1.1,0.2-1.9,0.2c-1.1,0-1.9-0.3-2.6-0.8c-0.6-0.5-1-1.4-1-2.5v-8.7
		c0-0.4-0.2-0.5-0.5-0.5h-4.6c-0.3,0-0.5,0.2-0.5,0.5v8c0,0.9,0,1.6-0.1,2.2c-0.1,0.5-0.3,0.9-0.5,1.2c-0.3,0.3-0.6,0.4-1,0.5
		c-0.4,0.1-1,0.1-1.8,0.1c-2.4,0-3.6-1.1-3.6-3.3V181.3z M211.9,198.1c1,0.3,2.1,0.5,3.4,0.5c0.7,0,1.2-0.2,1.5-0.6
		c0.3-0.4,0.5-1.1,0.5-2.1c0-0.9-0.2-1.6-0.5-2s-0.8-0.6-1.5-0.6h-0.9c-1.3,0-2.3-0.3-3-0.8c-0.8-0.6-1.1-1.4-1.1-2.4v-12.8
		c0-0.3-0.2-0.5-0.5-0.5h-4.3c-0.2,0-0.4,0-0.6,0.1c-0.2,0.1-0.3,0.2-0.3,0.4v10.9c0,0.9,0,1.7-0.1,2.4c0,0.6-0.1,1.2-0.3,1.6
		c-0.2,0.4-0.4,0.7-0.7,0.9c-0.3,0.2-0.8,0.3-1.4,0.3H199c-0.7,0-1.2,0.2-1.5,0.6c-0.3,0.4-0.5,1.1-0.5,2.2c0,1,0.2,1.7,0.5,2
		c0.3,0.3,0.8,0.5,1.5,0.5h4.7c1.6,0,2.9-0.2,3.8-0.6c0.9-0.4,1.7-1.1,2.1-2.1C210.2,197,210.9,197.8,211.9,198.1 M206,208.7
		c0.3,0,0.5-0.2,0.5-0.5v-4.6c0-0.4-0.2-0.5-0.5-0.5h-4.2c-0.3,0-0.5,0.2-0.5,0.5v4.6c0,0.4,0.2,0.5,0.5,0.5H206z M212.6,208.7
		c0.3,0,0.5-0.2,0.5-0.5v-4.6c0-0.4-0.2-0.5-0.5-0.5h-4.2c-0.3,0-0.5,0.2-0.5,0.5v4.6c0,0.4,0.2,0.5,0.5,0.5H212.6z M180.2,190
		c-0.8-0.8-1.2-2-1.2-3.6c0-2.1,0.4-3.5,1.3-4.3c0.9-0.8,2-1.2,3.5-1.2h4.5v4.5c0,1.9-0.4,3.3-1.2,4.2c-0.8,1-2,1.4-3.6,1.4
		C182.1,191.2,181,190.8,180.2,190 M183.2,175.7c-1.3,0-2.5,0.2-3.7,0.5c-1.2,0.4-2.2,0.9-3.1,1.8c-0.9,0.8-1.7,1.9-2.2,3.3
		c-0.6,1.4-0.8,3.1-0.8,5.1c0,1.8,0.3,3.3,0.8,4.5c0.5,1.3,1.2,2.3,2,3.1c0.9,0.8,1.9,1.4,3,1.8c1.2,0.4,2.4,0.6,3.7,0.6
		c1.1,0,2.1-0.2,3.1-0.5c1-0.3,1.8-0.8,2.5-1.5c0.3,1.5,0.9,2.6,1.8,3.2c0.9,0.6,2.2,0.9,3.8,0.9h4.1c0.7,0,1.2-0.2,1.5-0.5
		c0.3-0.3,0.5-1,0.5-2.1c0-1.8-0.7-2.7-2-2.7h-1.9c-0.8,0-1.4-0.2-1.8-0.6c-0.4-0.4-0.6-1.1-0.6-2.2v-17.1c0-0.3-0.2-0.5-0.5-0.5
		h-4.6c-0.3,0-0.5,0.2-0.5,0.5v2.3H183.2z M182.9,169.3c0.3,0,0.5-0.2,0.5-0.5v-4.6c0-0.4-0.2-0.5-0.5-0.5h-4.2
		c-0.3,0-0.5,0.2-0.5,0.5v4.6c0,0.4,0.2,0.5,0.5,0.5H182.9z M189.4,169.3c0.3,0,0.5-0.2,0.5-0.5v-4.6c0-0.4-0.2-0.5-0.5-0.5h-4.2
		c-0.3,0-0.5,0.2-0.5,0.5v4.6c0,0.4,0.2,0.5,0.5,0.5H189.4z"/>
	<path class="st1" d="M345.2,120.5c0.7,1.1,1.1,2.6,1.1,4.7v6h-4.5c-1.6,0-2.8-0.4-3.7-1.2c-0.9-0.8-1.3-2.3-1.3-4.5
		c0-2,0.4-3.6,1.3-4.8c0.8-1.2,2-1.8,3.6-1.8C343.3,118.9,344.4,119.4,345.2,120.5 M346.3,136.5c0,1.2-0.1,2.1-0.3,2.8
		c-0.2,0.7-0.5,1.2-0.9,1.6c-0.4,0.4-0.9,0.6-1.5,0.8c-0.6,0.1-1.2,0.2-1.9,0.2h-5.9c-0.3,0-0.5,0.2-0.5,0.5v4.2
		c0,0.4,0.2,0.5,0.5,0.5h6.8c3,0,5.3-0.8,6.9-2.3c1.6-1.5,2.4-3.9,2.4-7.2v-12.4c0-2.1-0.3-4-0.8-5.4c-0.5-1.5-1.2-2.7-2.1-3.6
		c-0.9-0.9-2-1.6-3.2-2c-1.3-0.4-2.6-0.6-4.2-0.6c-1.4,0-2.7,0.2-3.9,0.7c-1.2,0.4-2.3,1.1-3.3,2.1c-1,1-1.7,2.2-2.3,3.8
		c-0.6,1.5-0.8,3.4-0.8,5.5c0,2,0.2,3.7,0.7,5.1c0.5,1.4,1.1,2.5,1.9,3.4c0.8,0.9,1.9,1.5,3.1,1.9c1.2,0.4,2.6,0.6,4.2,0.6H346.3z
		 M325.5,101.1c0-0.4-0.2-0.5-0.5-0.5h-4.6c-0.3,0-0.5,0.2-0.5,0.5v34.9c0,0.4,0.2,0.5,0.5,0.5h4.6c0.3,0,0.5-0.2,0.5-0.5V101.1z
		 M307.5,136.5c2.1,0,3.6-0.5,4.5-1.6c0.9-1.1,1.3-2.8,1.3-5v-28.7c0-0.4-0.2-0.5-0.5-0.5h-4.6c-0.3,0-0.5,0.2-0.5,0.5v27.3
		c0,1.1-0.2,1.8-0.6,2.2c-0.4,0.4-1,0.6-1.8,0.6h-2.5c-0.7,0-1.2,0.2-1.5,0.6c-0.3,0.4-0.5,1.1-0.5,2.1c0,1,0.2,1.7,0.5,2.1
		c0.3,0.3,0.8,0.5,1.5,0.5H307.5z M284.7,139v-2.8h4.2c1,0,1.8,0.1,2.4,0.2c0.6,0.1,1.1,0.4,1.5,0.6c0.3,0.3,0.6,0.6,0.7,1
		c0.1,0.4,0.2,0.9,0.2,1.4c0,1-0.3,1.7-1,2.3c-0.7,0.5-1.8,0.8-3.3,0.8C286.2,142.6,284.7,141.4,284.7,139 M292.7,120.4
		c0.8,1,1.2,2.5,1.2,4.5c0,0.8-0.1,1.6-0.2,2.3c-0.2,0.8-0.4,1.4-0.8,2c-0.4,0.6-0.8,1.1-1.3,1.4c-0.6,0.4-1.2,0.6-2,0.6h-4.9v-6.6
		c0-1.9,0.4-3.3,1.2-4.3c0.8-1,1.9-1.5,3.3-1.5C290.7,118.9,291.9,119.4,292.7,120.4 M274.1,136.5h4.9v3.1c0,1.5,0.2,2.7,0.7,3.8
		c0.5,1,1.2,1.9,2.1,2.5c0.9,0.7,2,1.1,3.2,1.4c1.3,0.3,2.7,0.4,4.2,0.4c3,0,5.4-0.6,7.1-2c1.8-1.3,2.6-3.2,2.6-5.6
		c0-1.4-0.4-2.7-1.1-3.7h4.9c0.7,0,1.2-0.2,1.5-0.6c0.3-0.4,0.5-1.1,0.5-2.1c0-1-0.2-1.7-0.5-2.1c-0.3-0.4-0.8-0.5-1.5-0.5h-5.1
		c0.4-0.7,0.8-1.7,1.2-3c0.4-1.3,0.6-2.6,0.6-3.9c0-1.9-0.3-3.5-0.8-4.9c-0.5-1.4-1.2-2.5-2.2-3.3c-0.9-0.8-2-1.5-3.3-1.9
		c-1.3-0.4-2.7-0.6-4.2-0.6c-1.3,0-2.6,0.2-3.8,0.6c-1.2,0.4-2.3,1.1-3.2,2c-0.9,0.9-1.7,2.1-2.2,3.6c-0.6,1.5-0.9,3.3-0.9,5.4v6
		h-4.9c-0.7,0-1.2,0.2-1.5,0.5c-0.3,0.4-0.5,1-0.5,2.1C272.1,135.6,272.8,136.5,274.1,136.5 M270.7,136c1,0.3,2.1,0.5,3.4,0.5
		c0.7,0,1.2-0.2,1.5-0.6c0.3-0.4,0.5-1.1,0.5-2.1c0-0.9-0.2-1.6-0.5-2c-0.3-0.4-0.8-0.6-1.5-0.6h-0.9c-1.3,0-2.3-0.3-3-0.8
		c-0.8-0.6-1.1-1.4-1.1-2.4v-12.8c0-0.3-0.2-0.5-0.5-0.5h-4.3c-0.2,0-0.4,0-0.6,0.1c-0.2,0.1-0.3,0.2-0.3,0.4v11c0,0.9,0,1.7,0,2.4
		c0,0.6-0.1,1.2-0.3,1.6c-0.2,0.4-0.4,0.7-0.7,0.9c-0.3,0.2-0.8,0.3-1.4,0.3h-3.3c-0.7,0-1.2,0.2-1.5,0.6c-0.3,0.4-0.5,1.1-0.5,2.2
		c0,1,0.2,1.7,0.5,2c0.3,0.3,0.8,0.5,1.5,0.5h4.7c1.6,0,2.9-0.2,3.8-0.6c0.9-0.4,1.7-1.1,2.1-2.1C268.9,134.9,269.7,135.6,270.7,136
		 M264.8,146.6c0.3,0,0.5-0.2,0.5-0.5v-4.6c0-0.4-0.2-0.5-0.5-0.5h-4.2c-0.3,0-0.5,0.2-0.5,0.5v4.6c0,0.4,0.2,0.5,0.5,0.5H264.8z
		 M271.3,146.6c0.3,0,0.5-0.2,0.5-0.5v-4.6c0-0.4-0.2-0.5-0.5-0.5h-4.2c-0.3,0-0.5,0.2-0.5,0.5v4.6c0,0.4,0.2,0.5,0.5,0.5H271.3z
		 M247.7,129.8c0,2.3,0.4,4,1.3,5c0.9,1.1,2.4,1.6,4.5,1.6h4c0.7,0,1.2-0.1,1.5-0.5c0.3-0.3,0.5-1,0.5-2.1c0-1-0.2-1.7-0.5-2.1
		c-0.3-0.4-0.8-0.6-1.5-0.6h-1.8c-0.8,0-1.4-0.2-1.8-0.6c-0.4-0.4-0.6-1.1-0.6-2.2v-27.3c0-0.4-0.2-0.5-0.5-0.5h-4.6
		c-0.3,0-0.5,0.2-0.5,0.5V129.8z M238.2,104.1c0.1-0.3,0.1-0.5-0.2-0.7l-3.2-2.9c-0.2-0.1-0.4-0.1-0.6,0.2l-10.8,13.4
		c-0.1,0.2-0.3,0.4-0.5,0.6c-0.2,0.2-0.3,0.4-0.3,0.7v3.7c0,0.4,0.2,0.5,0.5,0.5h8.1c1.8,0,3.1,0.4,3.9,1.1c0.8,0.8,1.2,1.9,1.2,3.5
		v2.8c0,0.8,0,1.5-0.1,2c-0.1,0.5-0.3,0.9-0.6,1.3c-0.3,0.3-0.7,0.5-1.2,0.7c-0.5,0.1-1.3,0.2-2.2,0.2h-12.4c-0.7,0-1.2,0.2-1.5,0.5
		c-0.3,0.3-0.5,1-0.5,2c0,1,0.2,1.8,0.5,2.2c0.3,0.4,0.8,0.6,1.5,0.6h14.8c1.3,0,2.4-0.1,3.3-0.4c0.9-0.3,1.7-0.8,2.3-1.5
		c0.6-0.7,1-1.6,1.3-2.8c0.3-1.1,0.4-2.6,0.4-4.4v-3.2c0-2.2-0.3-3.9-0.8-5.2c-0.6-1.3-1.4-2.3-2.4-3c-1-0.7-2.3-1.1-3.7-1.4
		c-1.5-0.2-3.1-0.4-4.9-0.4L238.2,104.1z M191,140.6c0.6,1.5,1.5,2.8,2.6,3.8c1.1,1,2.4,1.8,3.9,2.2c1.5,0.5,3.1,0.7,4.9,0.7
		c1.8,0,3.5-0.2,5-0.7c1.5-0.5,2.8-1.2,3.9-2.2c1.1-1,1.9-2.3,2.5-3.8c0.6-1.5,0.9-3.3,0.9-5.3v-0.6c0.6,0.7,1.3,1.2,2.1,1.4
		c0.8,0.2,1.8,0.3,2.8,0.3c0.7,0,1.2-0.2,1.5-0.6c0.3-0.4,0.5-1.1,0.5-2.1c0-0.9-0.2-1.6-0.5-2c-0.3-0.4-0.8-0.6-1.5-0.6h-0.8
		c-1.3,0-2.3-0.3-3-0.8c-0.8-0.6-1.1-1.4-1.1-2.4v-26.8c0-0.4-0.2-0.5-0.5-0.5h-4.6c-0.3,0-0.5,0.2-0.5,0.5v34.1
		c0,2.4-0.6,4.1-1.8,5.2c-1.2,1.1-2.7,1.6-4.7,1.6c-0.8,0-1.6-0.1-2.4-0.3c-0.8-0.2-1.5-0.6-2.2-1.2c-0.6-0.6-1.2-1.3-1.6-2.2
		c-0.4-0.9-0.6-2.1-0.6-3.5c0-1.6,0.2-3,0.7-4.4c0.5-1.3,1-2.5,1.5-3.5c0.1-0.1,0.1-0.3,0.1-0.4c0-0.1-0.1-0.2-0.3-0.3l-4.1-1.7
		c-0.4-0.2-0.6-0.1-0.7,0.1c-0.8,1.4-1.5,3-2.1,4.9c-0.6,1.9-0.9,3.8-0.9,5.7C190.1,137.3,190.4,139.1,191,140.6"/>
	<path class="st1" d="M351.7,38.9c0-0.4-0.2-0.5-0.5-0.5h-4.5c-0.3,0-0.5,0.2-0.5,0.5v34.9c0,0.4,0.2,0.5,0.5,0.5h4.5
		c0.3,0,0.5-0.2,0.5-0.5V38.9z M334.1,74.3c2,0,3.5-0.5,4.4-1.6s1.3-2.8,1.3-5V38.9c0-0.4-0.2-0.5-0.5-0.5h-4.5
		c-0.3,0-0.5,0.2-0.5,0.5v27.3c0,1.1-0.2,1.8-0.6,2.2c-0.4,0.4-1,0.6-1.8,0.6h-2.4c-0.7,0-1.2,0.2-1.5,0.6c-0.3,0.4-0.5,1.1-0.5,2.1
		c0,1,0.2,1.7,0.5,2.1c0.3,0.3,0.8,0.5,1.5,0.5H334.1z M301.7,52.7c0-0.4-0.2-0.5-0.5-0.5h-4.5c-0.3,0-0.5,0.2-0.5,0.5v10.8
		c0,0.7,0,1.4,0,2.1c0,0.7-0.1,1.3-0.3,1.8c-0.1,0.5-0.4,0.9-0.7,1.2c-0.3,0.3-0.8,0.4-1.4,0.4h-2.3c-0.7,0-1.2,0.2-1.5,0.5
		c-0.3,0.4-0.5,1.1-0.5,2.2c0,1,0.2,1.7,0.5,2c0.3,0.3,0.8,0.5,1.5,0.5h4.1c0.9,0,1.6-0.1,2.2-0.2c0.6-0.1,1.2-0.4,1.7-0.7
		c0.3,0.2,0.7,0.4,1.2,0.5c0.5,0.1,1,0.2,1.5,0.3c0.5,0.1,1.1,0.1,1.6,0.1c0.6,0,1.1,0,1.6,0h9.7c2.2,0,3.9-0.2,5.2-0.6
		c1.3-0.4,2.3-1.3,3-2.7c0.5,1.4,1.3,2.3,2.4,2.7c1.1,0.4,2.3,0.7,3.7,0.7c0.7,0,1.2-0.2,1.5-0.6s0.5-1.1,0.5-2.1
		c0-0.9-0.2-1.6-0.5-2c-0.3-0.4-0.8-0.6-1.5-0.6h-0.8c-1.2,0-2.2-0.3-2.9-0.8c-0.7-0.6-1.1-1.4-1.1-2.4c0-0.2,0-0.5,0-0.8
		c0-0.3,0-0.6,0-1c0-1.9-0.2-3.6-0.7-5.2c-0.4-1.6-1.2-2.9-2.1-4c-1-1.1-2.2-1.9-3.7-2.5c-1.5-0.6-3.4-0.9-5.5-0.9
		c-2,0-3.9,0.3-5.8,0.9c-1.9,0.6-3.6,1.3-5.1,2.1V52.7z M315.3,57.2c0.9,0.3,1.6,0.8,2.1,1.4c0.5,0.6,0.9,1.3,1.1,2.2
		c0.2,0.9,0.3,1.9,0.3,3c0,1.3-0.1,2.3-0.2,3c-0.2,0.7-0.5,1.2-1,1.6c-0.5,0.3-1.1,0.5-2,0.6c-0.9,0-2,0.1-3.4,0.1h-10.7
		c0.1-0.4,0.1-0.7,0.1-1.1c0-0.4,0-0.8,0-1.2v-7.2c1.4-0.7,3-1.3,4.7-1.9c1.8-0.6,3.6-0.9,5.4-0.9C313.2,56.7,314.4,56.9,315.3,57.2
		 M286.8,52.9c0-0.3-0.2-0.5-0.5-0.5h-4.5c-0.3,0-0.5,0.2-0.5,0.5v11.2c0,0.9,0,1.7,0,2.3c0,0.6-0.1,1.1-0.3,1.5
		c-0.1,0.4-0.4,0.7-0.7,0.8c-0.3,0.2-0.8,0.3-1.3,0.3h-2.4c-0.7,0-1.2,0.3-1.5,1c-0.3,0.7-0.5,1.5-0.5,2.4c0,0.8,0.2,1.3,0.5,1.5
		c0.3,0.2,0.8,0.3,1.5,0.3h3.9c1.6,0,2.8-0.2,3.7-0.6c0.9-0.4,1.6-1.1,2-2.1c0.6,1.1,1.3,1.9,2.3,2.2s2.1,0.5,3.3,0.5
		c0.7,0,1.2-0.2,1.5-0.6s0.5-1.1,0.5-2.1c0-0.9-0.2-1.6-0.5-2c-0.3-0.4-0.8-0.6-1.5-0.6h-0.8c-1.2,0-2.2-0.3-3-0.8
		c-0.7-0.6-1.1-1.4-1.1-2.4V52.9z M286.4,47.1c0.3,0,0.5-0.2,0.5-0.5V42c0-0.4-0.2-0.5-0.5-0.5h-4.7c-0.3,0-0.5,0.2-0.5,0.5v4.6
		c0,0.4,0.2,0.5,0.5,0.5H286.4z M266.7,67.7c0,2.3,0.4,4,1.3,5s2.3,1.6,4.4,1.6h3.9c0.7,0,1.2-0.2,1.5-0.5c0.3-0.3,0.5-1,0.5-2.1
		c0-1-0.2-1.7-0.5-2.1c-0.3-0.4-0.8-0.6-1.5-0.6h-1.7c-0.8,0-1.4-0.2-1.8-0.6c-0.4-0.4-0.6-1.1-0.6-2.2V38.9c0-0.4-0.2-0.5-0.5-0.5
		h-4.5c-0.3,0-0.5,0.2-0.5,0.5V67.7z M238,69c-0.7,0-1.2,0.2-1.5,0.5c-0.3,0.4-0.5,1-0.5,2.1c0,1,0.2,1.6,0.5,2.1
		c0.3,0.4,0.8,0.6,1.5,0.6h22.8c0.3,0,0.5-0.2,0.5-0.5v-4.2c0-0.4-0.2-0.5-0.5-0.5h-10.7c-0.3-0.1-0.6-0.3-1.1-0.6
		c-0.4-0.3-0.9-0.7-1.3-1.2c-0.4-0.5-0.8-1.2-1.1-1.9c-0.3-0.8-0.5-1.7-0.5-2.7c0-1.8,0.4-3.2,1.3-4.3c0.9-1.1,2.2-1.6,3.9-1.6
		c2,0,3.8,0.8,5.2,2.5c0.2,0.3,0.5,0.3,0.7,0l2.6-3c0.3-0.2,0.3-0.5,0.1-0.7c-0.9-1.2-2-2.2-3.5-3c-1.5-0.8-3.3-1.2-5.5-1.2
		c-2,0-3.7,0.3-5,1c-1.4,0.7-2.5,1.5-3.3,2.6c-0.8,1-1.4,2.2-1.8,3.5c-0.4,1.3-0.5,2.5-0.5,3.8c0,1.5,0.2,2.9,0.6,3.9
		c0.4,1.1,1,2,1.6,2.8H238z M219.8,65.7c-0.8-0.8-1.2-2-1.2-3.6c0-2.1,0.4-3.5,1.3-4.3c0.8-0.8,2-1.2,3.4-1.2h4.4v4.5
		c0,1.9-0.4,3.3-1.1,4.2c-0.8,1-1.9,1.4-3.5,1.4C221.7,66.9,220.6,66.5,219.8,65.7 M222.8,51.5c-1.2,0-2.4,0.2-3.6,0.5
		c-1.1,0.3-2.2,0.9-3.1,1.8c-0.9,0.8-1.6,1.9-2.2,3.3c-0.5,1.4-0.8,3.1-0.8,5.1c0,1.8,0.2,3.3,0.7,4.5c0.5,1.3,1.2,2.3,2,3.1
		c0.8,0.8,1.8,1.4,2.9,1.8c1.1,0.4,2.3,0.6,3.6,0.6c1,0,2-0.2,3-0.5c1-0.3,1.8-0.8,2.5-1.5c0.3,1.5,0.9,2.6,1.8,3.2
		c0.9,0.6,2.2,0.9,3.8,0.9h4c0.7,0,1.2-0.2,1.5-0.5c0.3-0.3,0.5-1,0.5-2.1c0-1.8-0.7-2.7-2-2.7h-1.9c-0.8,0-1.4-0.2-1.8-0.6
		c-0.4-0.4-0.6-1.1-0.6-2.2V49.2c0-0.3-0.2-0.5-0.5-0.5h-4.5c-0.3,0-0.5,0.2-0.5,0.5v2.3H222.8z M222.4,45c0.3,0,0.5-0.2,0.5-0.5
		v-4.6c0-0.4-0.2-0.5-0.5-0.5h-4.1c-0.3,0-0.5,0.2-0.5,0.5v4.6c0,0.4,0.2,0.5,0.5,0.5H222.4z M228.8,45c0.3,0,0.5-0.2,0.5-0.5v-4.6
		c0-0.4-0.2-0.5-0.5-0.5h-4.1c-0.3,0-0.5,0.2-0.5,0.5v4.6c0,0.4,0.2,0.5,0.5,0.5H228.8z M190,58.3c0.7,1.1,1.1,2.6,1.1,4.7v6h-4.4
		c-1.6,0-2.8-0.4-3.6-1.2c-0.8-0.8-1.3-2.3-1.3-4.5c0-2,0.4-3.6,1.2-4.8c0.8-1.2,2-1.8,3.5-1.8C188.2,56.7,189.3,57.3,190,58.3
		 M191.1,74.3c0,1.2-0.1,2.1-0.3,2.8c-0.2,0.7-0.5,1.3-0.9,1.6c-0.4,0.4-0.9,0.6-1.4,0.8c-0.6,0.1-1.2,0.2-1.8,0.2h-5.7
		c-0.3,0-0.5,0.2-0.5,0.5v4.2c0,0.4,0.2,0.5,0.5,0.5h6.6c3,0,5.2-0.8,6.8-2.3c1.6-1.5,2.3-3.9,2.3-7.2V63.1c0-2.1-0.2-4-0.7-5.4
		c-0.5-1.5-1.2-2.7-2.1-3.6c-0.9-0.9-1.9-1.6-3.2-2c-1.2-0.4-2.6-0.6-4.1-0.6c-1.3,0-2.6,0.2-3.8,0.7c-1.2,0.4-2.3,1.1-3.2,2.1
		c-0.9,1-1.7,2.2-2.2,3.8c-0.5,1.5-0.8,3.4-0.8,5.5c0,2,0.2,3.7,0.7,5.1c0.4,1.4,1.1,2.5,1.9,3.4c0.8,0.9,1.8,1.5,3,1.8
		c1.2,0.4,2.6,0.6,4.1,0.6H191.1z M170.8,38.9c0-0.4-0.2-0.5-0.5-0.5h-4.5c-0.3,0-0.5,0.2-0.5,0.5v34.9c0,0.4,0.2,0.5,0.5,0.5h4.5
		c0.3,0,0.5-0.2,0.5-0.5V38.9z M145.8,46.3c0-0.3-0.2-0.5-0.5-0.5h-4.5c-0.3,0-0.5,0.2-0.5,0.5V69h-8.7c-0.3,0-0.5,0.2-0.5,0.5v4.2
		c0,0.4,0.2,0.5,0.5,0.5h21.6c2,0,3.5-0.5,4.4-1.6s1.3-2.8,1.3-5V38.9c0-0.4-0.2-0.5-0.5-0.5h-4.5c-0.3,0-0.5,0.2-0.5,0.5v27.3
		c0,1.1-0.2,1.8-0.6,2.2c-0.4,0.4-1,0.6-1.8,0.6h-5.1V46.3z M120.4,74.3c2,0,3.5-0.5,4.4-1.6c0.9-1.1,1.3-2.8,1.3-5V52.9
		c0-0.3-0.2-0.5-0.5-0.5h-4.5c-0.3,0-0.5,0.2-0.5,0.5v13.3c0,1.1-0.2,1.8-0.6,2.2c-0.4,0.4-1,0.6-1.8,0.6h-2.4c-0.7,0-1.2,0.3-1.5,1
		c-0.3,0.7-0.5,1.5-0.5,2.4c0,0.7,0.2,1.2,0.5,1.5c0.3,0.2,0.8,0.4,1.5,0.4H120.4z M124.9,84.4c0.3,0,0.5-0.2,0.5-0.5v-4.6
		c0-0.4-0.2-0.5-0.5-0.5h-4.7c-0.3,0-0.5,0.2-0.5,0.5v4.6c0,0.4,0.2,0.5,0.5,0.5H124.9z M112.5,73.8c1,0.3,2.1,0.5,3.3,0.5
		c0.7,0,1.2-0.2,1.5-0.6c0.3-0.4,0.5-1.1,0.5-2.1c0-0.9-0.2-1.6-0.5-2c-0.3-0.4-0.8-0.6-1.5-0.6H115c-1.2,0-2.2-0.3-3-0.8
		c-0.7-0.6-1.1-1.4-1.1-2.4V52.9c0-0.3-0.2-0.5-0.5-0.5h-4.2c-0.2,0-0.4,0-0.6,0.1c-0.2,0.1-0.3,0.2-0.3,0.4v10.9c0,0.9,0,1.7,0,2.4
		c0,0.6-0.1,1.2-0.3,1.6c-0.1,0.4-0.4,0.7-0.7,0.9c-0.3,0.2-0.8,0.3-1.3,0.3h-3.2c-0.7,0-1.2,0.2-1.5,0.6c-0.3,0.4-0.5,1.1-0.5,2.2
		c0,1,0.2,1.7,0.5,2c0.3,0.3,0.8,0.5,1.5,0.5h4.6c1.6,0,2.8-0.2,3.7-0.6c0.9-0.4,1.6-1.1,2.1-2.1C110.8,72.7,111.5,73.5,112.5,73.8
		 M107.1,47.1c0.3,0,0.5-0.2,0.5-0.5V42c0-0.4-0.2-0.5-0.5-0.5h-4.1c-0.3,0-0.5,0.2-0.5,0.5v4.6c0,0.4,0.2,0.5,0.5,0.5H107.1z
		 M113.4,47.1c0.3,0,0.5-0.2,0.5-0.5V42c0-0.4-0.2-0.5-0.5-0.5h-4.1c-0.3,0-0.5,0.2-0.5,0.5v4.6c0,0.4,0.2,0.5,0.5,0.5H113.4z
		 M75.8,56.9c0,0.4,0.2,0.5,0.5,0.5h7.9c3.3,0,5,1.5,5,4.6v2.8c0,0.8,0,1.5-0.1,2c-0.1,0.5-0.3,0.9-0.5,1.3
		c-0.3,0.3-0.7,0.5-1.2,0.7C86.8,69,86.1,69,85.2,69H73c-0.7,0-1.2,0.2-1.5,0.5c-0.3,0.3-0.5,1-0.5,2c0,1,0.2,1.8,0.5,2.2
		c0.3,0.4,0.8,0.6,1.5,0.6h14.4c1.5,0,2.8-0.2,3.8-0.7c1-0.4,1.8-1.2,2.3-2.4c0.6,1.2,1.3,2.1,2.3,2.5c1,0.4,2.2,0.6,3.6,0.6
		c0.7,0,1.2-0.2,1.5-0.6c0.3-0.4,0.5-1.1,0.5-2.1c0-0.9-0.2-1.6-0.5-2c-0.3-0.4-0.8-0.6-1.5-0.6h-0.8c-1.2,0-2.2-0.3-2.9-0.8
		c-0.7-0.5-1.1-1.2-1.1-2.2v-4.4c0-2.1-0.3-3.8-0.9-5c-0.6-1.3-1.4-2.2-2.4-2.9c-1-0.7-2.2-1.1-3.7-1.3c-1.4-0.2-3-0.3-4.6-0.4
		l8.1-10.2c0.1-0.3,0.1-0.5-0.2-0.7l-3.2-2.9c-0.2-0.1-0.4-0.1-0.6,0.2L76.5,51.9c-0.1,0.2-0.3,0.4-0.5,0.6
		c-0.2,0.2-0.3,0.4-0.3,0.7V56.9z M63.4,67.7c0,2.3,0.4,4,1.3,5s2.3,1.6,4.4,1.6H73c0.7,0,1.2-0.2,1.5-0.5c0.3-0.3,0.5-1,0.5-2.1
		c0-1-0.2-1.7-0.5-2.1C74.1,69.2,73.6,69,73,69h-1.7c-0.8,0-1.4-0.2-1.8-0.6c-0.4-0.4-0.6-1.1-0.6-2.2V38.9c0-0.4-0.2-0.5-0.5-0.5
		h-4.5c-0.3,0-0.5,0.2-0.5,0.5V67.7z M48.5,85c5.8,0,8.6-3.2,8.6-9.7V52.9c0-0.3-0.2-0.5-0.5-0.5h-4.5c-0.3,0-0.5,0.2-0.5,0.5v22.3
		c0,1.5-0.3,2.6-0.9,3.4c-0.6,0.7-1.6,1.1-3,1.1h-1.1c-0.3,0-0.5,0.2-0.5,0.5v4.2c0,0.4,0.2,0.5,0.5,0.5H48.5z"/>
</g>
</svg>
