<?xml version="1.0" encoding="utf-8"?>
<svg version="1.1" id="Layer_1" xmlns="http://www.w3.org/2000/svg" xmlns:xlink="http://www.w3.org/1999/xlink" x="0px" y="0px"
	 viewBox="0 0 500 500" style="enable-background:new 0 0 500 500;" xml:space="preserve">
<style type="text/css">
	.st1{fill:#FFFFFF;}
	.st9{fill:#FDB714;}
</style>
<g>
	<rect class="st9" width="500" height="500"/>
	<path class="st1" d="M250.2,353c-21,0-38.1-17.1-38.1-38.1c0-17.1,11.3-31.6,26.8-36.4v14.2c-8,4.2-13.6,12.5-13.6,22.2
		c0,13.8,11.1,24.9,24.9,24.9s24.9-11.2,24.9-24.9c0-9.7-5.6-18.2-13.7-22.2v-14.2c15.6,4.8,26.9,19.3,26.9,36.4
		C288.3,335.9,271.2,353,250.2,353 M244.7,271.1c0-2.5,2.5-5.2,5.5-5.2s5.5,2.7,5.5,5.2v25.2c0,2.4-2.4,5.1-5.5,5.1
		c-3,0-5.5-2.7-5.5-5.1L244.7,271.1L244.7,271.1z M250.1,242.2c-40.5,0-73.2,32.9-73.2,73.2c0,40.5,32.9,73.2,73.2,73.2
		c40.5,0,73.2-32.8,73.2-73.2C323.4,275,290.6,242.2,250.1,242.2"/>
	<path class="st1" d="M166,314.8c0-3.3-3-6.1-5.7-6.1h-32.1c-2.7,0-5.7,2.7-5.7,6.1s3,6.1,5.7,6.1h32.1
		C163.1,320.9,166,318.2,166,314.8"/>
	<path class="st1" d="M377.7,314.8c0-3.3-3-6.1-5.7-6.1H340c-2.7,0-5.7,2.7-5.7,6.1s3,6.1,5.7,6.1h32.1
		C374.8,320.9,377.7,318.2,377.7,314.8"/>
	<path class="st1" d="M250.2,230.7c3.3,0,6.1-3,6.1-5.7V193c0-2.7-2.7-5.7-6.1-5.7c-3.4,0-6.1,3-6.1,5.7v32.1
		C244.1,227.8,246.8,230.7,250.2,230.7"/>
	<path class="st1" d="M250.2,442.3c3.3,0,6.1-3,6.1-5.7v-32.1c0-2.7-2.7-5.7-6.1-5.7c-3.4,0-6.1,3-6.1,5.7v32.2
		C244.1,439.5,246.8,442.3,250.2,442.3"/>
	<path class="st1" d="M177.2,273c1.7-2.9,0.4-6.6-1.9-8l-27.9-16c-2.4-1.4-6.3-0.5-7.9,2.4c-1.7,2.9-0.4,6.7,1.9,8l27.9,16
		C171.6,276.8,175.5,275.9,177.2,273"/>
	<path class="st1" d="M360.9,378.2c1.7-2.9,0.4-6.6-1.9-8l-27.9-16c-2.4-1.4-6.3-0.5-7.9,2.4c-1.7,2.9-0.4,6.7,1.9,8l27.9,16
		C355.3,382,359.2,381.1,360.9,378.2"/>
	<path class="st1" d="M292,241.9c2.9,1.7,6.6,0.4,8-1.9l16-27.9c1.4-2.4,0.5-6.3-2.4-7.9c-2.9-1.7-6.7-0.4-8,1.9l-16,27.9
		C288.2,236.3,289.1,240.2,292,241.9"/>
	<path class="st1" d="M186.8,425.6c2.9,1.7,6.6,0.4,8-1.9l16-27.9c1.4-2.4,0.5-6.3-2.4-7.9c-2.9-1.7-6.7-0.4-8,1.9l-16,27.9
		C183,420,183.9,423.9,186.8,425.6"/>
	<path class="st1" d="M208.2,242c2.9-1.7,3.8-5.6,2.4-7.8l-16-27.8c-1.4-2.4-5.2-3.6-8-1.9s-3.8,5.6-2.4,7.9l16,27.8
		C201.6,242.4,205.3,243.5,208.2,242"/>
	<path class="st1" d="M313.7,425.4c2.9-1.7,3.8-5.6,2.4-7.8l-16-27.8c-1.4-2.4-5.2-3.6-8-1.9c-2.9,1.7-3.8,5.6-2.4,7.9l16,27.8
		C307.1,425.9,310.8,427.1,313.7,425.4"/>
	<path class="st1" d="M323.1,272.9c1.7,2.9,5.6,3.8,7.8,2.4l27.8-16c2.4-1.4,3.6-5.2,1.9-8s-5.6-3.8-7.9-2.4l-27.8,16
		C322.6,266.2,321.5,270,323.1,272.9"/>
	<path class="st1" d="M139.6,378.4c1.7,2.9,5.6,3.8,7.8,2.4l27.8-16c2.4-1.4,3.6-5.2,1.9-8c-1.7-2.9-5.6-3.8-7.9-2.4l-27.8,16
		C139.1,371.8,138,375.5,139.6,378.4"/>
	<path class="st1" d="M428.3,99.4l-15.5-59.2c-0.3-0.9-0.8-1.2-1.6-0.9l-12,3c-1,0.3-1.4,0.8-1.2,1.5l22.6,75.6
		c0.4,1.1,1.4,1.7,3.1,2c1.7,0.2,3.3,0.3,4.7,0.3c0.8,0,1.6,0,2.5-0.1c0.9,0,1.7-0.1,2.4-0.3c0.8-0.1,1.4-0.4,2-0.7
		c0.6-0.3,1-0.7,1.1-1.3L459,43.9c0.2-0.7-0.2-1.2-1.2-1.5l-12-3.1c-0.8-0.3-1.3,0-1.6,0.9L428.3,99.4z"/>
	<path class="st1" d="M342.9,120.5c0.7,1.1,1.1,2.7,1.1,4.7v6h-4.5c-1.6,0-2.8-0.4-3.7-1.2c-0.9-0.8-1.3-2.3-1.3-4.6
		c0-2,0.4-3.6,1.3-4.8c0.8-1.2,2-1.8,3.6-1.8S342.2,119.4,342.9,120.5 M344,136.5c0,1.2-0.1,2.1-0.3,2.8s-0.5,1.3-0.9,1.7
		c-0.4,0.4-0.9,0.7-1.5,0.8c-0.6,0.1-1.2,0.2-1.9,0.2h-5.9c-0.3,0-0.5,0.2-0.5,0.5v4.3c0,0.4,0.2,0.5,0.5,0.5h6.7
		c3,0,5.3-0.8,6.8-2.3c1.6-1.5,2.4-4,2.4-7.2v-12.4c0-2.2-0.3-4-0.8-5.5c-0.5-1.5-1.2-2.7-2.1-3.6c-0.9-0.9-2-1.6-3.2-2
		c-1.3-0.4-2.6-0.6-4.1-0.6c-1.4,0-2.7,0.2-3.9,0.7c-1.2,0.4-2.3,1.2-3.3,2.1c-1,1-1.7,2.2-2.3,3.8c-0.6,1.5-0.8,3.4-0.8,5.6
		c0,2,0.2,3.7,0.7,5.1c0.4,1.4,1.1,2.5,1.9,3.4c0.8,0.9,1.9,1.5,3.1,1.9c1.2,0.4,2.6,0.6,4.2,0.6h5V136.5z M317.7,136.5
		c2.1,0,3.6-0.5,4.5-1.6c0.9-1.1,1.3-2.8,1.3-5.1V115c0-0.4-0.2-0.5-0.5-0.5h-4.6c-0.3,0-0.5,0.2-0.5,0.5v13.3
		c0,1.1-0.2,1.8-0.6,2.2c-0.4,0.4-1,0.6-1.8,0.6H313c-0.7,0-1.2,0.4-1.5,1c-0.3,0.7-0.5,1.5-0.5,2.4c0,0.8,0.2,1.3,0.5,1.5
		c0.3,0.3,0.8,0.4,1.5,0.4L317.7,136.5L317.7,136.5z M322.3,146.5c0.3,0,0.5-0.2,0.5-0.5v-4.6c0-0.4-0.2-0.5-0.5-0.5h-4.8
		c-0.3,0-0.5,0.2-0.5,0.5v4.6c0,0.4,0.2,0.5,0.5,0.5H322.3z M300.9,95.2c-0.2,0-0.3,0.1-0.3,0.4v2c0,0.2,0.1,0.4,0.3,0.4h10.5
		c0.2,0,0.3-0.1,0.3-0.4v-2c0-0.2-0.1-0.4-0.3-0.4h-5.1c-0.4-0.2-0.7-0.6-1.1-1.1c-0.4-0.5-0.5-1.1-0.5-1.8c0-0.8,0.2-1.4,0.7-1.9
		c0.4-0.5,1-0.8,1.8-0.8c0.5,0,0.9,0.1,1.3,0.3c0.4,0.2,0.8,0.5,1.1,0.9c0.1,0.1,0.3,0.1,0.5-0.1l1.3-1.3c0.1-0.1,0.1-0.3,0-0.5
		c-0.4-0.6-1-1.1-1.8-1.5c-0.7-0.4-1.6-0.6-2.5-0.6c-1,0-1.8,0.2-2.5,0.5c-0.7,0.3-1.2,0.8-1.7,1.3c-0.4,0.5-0.7,1.1-0.9,1.7
		c-0.2,0.6-0.3,1.2-0.3,1.8c0,0.6,0.1,1.2,0.2,1.7c0.1,0.5,0.3,1,0.6,1.4H300.9z M303.4,129.8c0,2.3,0.4,4,1.3,5.1
		c0.9,1.1,2.4,1.6,4.5,1.6h4c0.7,0,1.2-0.2,1.5-0.5s0.5-1,0.5-2.1c0-1-0.2-1.7-0.5-2.1c-0.3-0.4-0.8-0.6-1.5-0.6h-1.8
		c-0.8,0-1.4-0.2-1.8-0.6c-0.4-0.4-0.6-1.1-0.6-2.2V101c0-0.4-0.2-0.5-0.5-0.5h-4.6c-0.3,0-0.5,0.2-0.5,0.5V129.8z M271.9,119.2
		c0-0.4-0.2-0.5-0.5-0.5h-4.6c-0.3,0-0.5,0.2-0.5,0.5v7.9c0,1.5-0.1,2.6-0.4,3.2s-0.9,0.9-2,0.9h-4c-0.7,0-1.2,0.2-1.5,0.6
		c-0.3,0.4-0.5,1.2-0.5,2.3c0,0.9,0.2,1.6,0.5,1.9c0.3,0.3,0.8,0.5,1.5,0.5h5.7c1.5,0,2.7-0.2,3.6-0.6c0.9-0.4,1.5-1.2,2-2.2
		c0.9,1.9,2.5,2.8,4.9,2.8h2.2c1.5,0,2.7-0.2,3.6-0.6c0.9-0.4,1.6-1.1,2-2.2c0.4,0.9,1.1,1.6,1.9,2.1c0.8,0.5,1.8,0.7,3,0.7h2.1
		c2.3,0,3.9-0.5,4.8-1.5c1-1,1.4-2.7,1.4-5.2V115c0-0.4-0.2-0.5-0.5-0.5h-4.6c-0.3,0-0.5,0.2-0.5,0.5v10.9c0,1.1,0,2-0.1,2.7
		c-0.1,0.7-0.2,1.2-0.4,1.6s-0.6,0.6-1,0.7c-0.5,0.1-1.1,0.2-1.9,0.2c-1.1,0-1.9-0.3-2.6-0.8c-0.6-0.5-1-1.4-1-2.5v-8.6
		c0-0.4-0.2-0.5-0.5-0.5h-4.6c-0.3,0-0.5,0.2-0.5,0.5v7.9c0,0.9,0,1.7-0.1,2.2c-0.1,0.5-0.3,0.9-0.5,1.2c-0.3,0.3-0.6,0.4-1,0.5
		s-1,0.1-1.8,0.1c-2.4,0-3.6-1.1-3.6-3.3V119.2z M244.6,124c-1.1-1.6-2.4-3-3.9-4c0.4-0.2,1-0.5,2-0.7c1-0.3,2.1-0.4,3.5-0.4
		c1.5,0,2.8,0.3,3.8,0.9s1.5,1.6,1.5,3c0,0.7-0.1,1.4-0.4,2.1s-0.6,1.3-1,1.9c-0.4,0.6-0.9,1.1-1.5,1.6s-1.1,0.9-1.6,1.3
		C246.5,127.4,245.7,125.6,244.6,124 M242.2,113.9c-1.3,0.2-2.5,0.6-3.6,0.9c-1,0.4-1.9,0.8-2.5,1.3c-0.6,0.5-1,0.9-1,1.3v3.3
		c0,0.3,0,0.5,0.1,0.8c0,0.2,0.3,0.5,0.6,0.8c0.7,0.5,1.3,1,2,1.5c0.7,0.5,1.3,1.1,1.8,1.8c0.6,0.7,1.1,1.4,1.5,2.3
		c0.5,0.9,0.8,1.9,1.1,3c-0.9,0.2-1.7,0.3-2.4,0.4c-0.7,0-1.3,0.1-1.8,0.1h-5.9c-0.9,0-1.4,0.2-1.6,0.7c-0.2,0.5-0.3,1.2-0.3,2.1
		c0,1,0.2,1.6,0.5,2c0.3,0.4,0.8,0.5,1.5,0.5h7.1c1,0,2.1-0.1,3.3-0.3s2.4-0.7,3.5-1.3c1,0.6,2,1.1,3.1,1.3c1.1,0.2,2.2,0.3,3.4,0.3
		h7.4c0.7,0,1.2-0.2,1.5-0.5c0.3-0.3,0.5-1,0.5-2c0-1-0.1-1.7-0.4-2.2c-0.3-0.4-0.8-0.6-1.6-0.6h-6.3h-1c-0.3,0-0.6,0-0.9-0.1
		c0.6-0.4,1.2-1,1.9-1.6c0.6-0.6,1.2-1.4,1.7-2.2c0.5-0.8,0.9-1.7,1.2-2.6s0.5-1.9,0.5-3c0-2.5-0.9-4.5-2.7-6s-4.6-2.3-8.3-2.3
		C244.8,113.5,243.5,113.6,242.2,113.9 M222.6,129.8c0,2.3,0.4,4,1.3,5.1c0.9,1.1,2.4,1.6,4.5,1.6h4c0.7,0,1.2-0.2,1.5-0.5
		c0.3-0.3,0.5-1,0.5-2.1c0-1-0.2-1.7-0.5-2.1c-0.3-0.4-0.8-0.6-1.5-0.6h-1.8c-0.8,0-1.4-0.2-1.8-0.6c-0.4-0.4-0.6-1.1-0.6-2.2V101
		c0-0.4-0.2-0.5-0.5-0.5h-4.6c-0.3,0-0.5,0.2-0.5,0.5L222.6,129.8L222.6,129.8z M207.6,147.1c5.9,0,8.7-3.2,8.7-9.6V115
		c0-0.4-0.2-0.5-0.5-0.5h-4.6c-0.3,0-0.5,0.2-0.5,0.5v22.3c0,1.5-0.3,2.7-0.9,3.4c-0.6,0.7-1.6,1.1-3,1.1h-1.1
		c-0.3,0-0.5,0.2-0.5,0.5v4.3c0,0.4,0.2,0.5,0.5,0.5L207.6,147.1L207.6,147.1z M185.4,125.2c0,2.2-0.4,3.8-1.1,4.8
		c-0.8,1-2,1.5-3.6,1.5s-2.8-0.5-3.5-1.5c-0.8-1-1.1-2.6-1.1-4.9c0-2.1,0.4-3.7,1.1-4.8c0.8-1.1,1.9-1.6,3.5-1.6
		C183.8,118.8,185.4,121,185.4,125.2 M184.9,136.2c1.3-0.4,2.4-1.1,3.3-2c0.9-0.9,1.6-2.1,2.1-3.6s0.8-3.2,0.8-5.3
		c0-2.2-0.3-4-0.8-5.5s-1.2-2.7-2.2-3.7c-0.9-0.9-2-1.6-3.3-2c-1.3-0.4-2.6-0.6-4.1-0.6c-1.5,0-2.8,0.2-4.1,0.6
		c-1.2,0.4-2.3,1.1-3.2,2s-1.6,2.1-2.2,3.5c-0.5,1.4-0.8,3.2-0.8,5.2v0.8c0,0.3,0,0.5,0,0.8c0,0.9-0.1,1.7-0.3,2.3s-0.5,1.1-0.8,1.5
		c-0.3,0.4-0.6,0.6-1,0.8c-0.4,0.2-0.7,0.2-1.1,0.2h-2c-0.7,0-1.2,0.2-1.5,0.5c-0.3,0.4-0.5,1.1-0.5,2.1c0,1,0.2,1.7,0.5,2.1
		c0.3,0.4,0.8,0.6,1.5,0.6h1.8c0.5,0,1,0,1.5-0.1c0.5-0.1,1.1-0.2,1.6-0.4s1-0.5,1.5-0.8c0.5-0.4,0.9-0.8,1.2-1.4
		c0.9,1.1,2,1.9,3.4,2.4c1.3,0.5,2.8,0.7,4.5,0.7C182.2,136.8,183.6,136.6,184.9,136.2 M150.1,124c-1.1-1.6-2.4-3-3.9-4
		c0.4-0.2,1-0.5,2-0.7c1-0.3,2.1-0.4,3.5-0.4c1.5,0,2.8,0.3,3.8,0.9c1,0.6,1.5,1.6,1.5,3c0,0.7-0.1,1.4-0.4,2.1
		c-0.3,0.7-0.6,1.3-1,1.9c-0.4,0.6-0.9,1.1-1.5,1.6c-0.6,0.5-1.1,0.9-1.6,1.3C151.9,127.4,151.2,125.6,150.1,124 M147.6,113.9
		c-1.3,0.2-2.5,0.6-3.6,0.9c-1,0.4-1.9,0.8-2.5,1.3c-0.6,0.5-1,0.9-1,1.3v3.3c0,0.3,0,0.5,0.1,0.8c0,0.2,0.3,0.5,0.6,0.8
		c0.7,0.5,1.3,1,2,1.5c0.7,0.5,1.3,1.1,1.8,1.8c0.6,0.7,1.1,1.4,1.5,2.3c0.4,0.9,0.8,1.9,1.1,3c-0.9,0.2-1.7,0.3-2.4,0.4
		c-0.7,0-1.3,0.1-1.8,0.1h-5.9c-0.9,0-1.4,0.2-1.6,0.7c-0.2,0.5-0.3,1.2-0.3,2.1c0,1,0.2,1.6,0.5,2c0.3,0.4,0.8,0.5,1.5,0.5h7.1
		c1,0,2.1-0.1,3.3-0.3c1.2-0.2,2.4-0.7,3.5-1.3c1,0.6,2,1.1,3.1,1.3s2.2,0.3,3.4,0.3h7.4c0.7,0,1.2-0.2,1.5-0.5c0.3-0.3,0.5-1,0.5-2
		c0-1-0.1-1.7-0.4-2.2c-0.3-0.4-0.8-0.6-1.6-0.6h-6.3h-1c-0.3,0-0.6,0-0.9-0.1c0.6-0.4,1.2-1,1.9-1.6c0.6-0.6,1.2-1.4,1.7-2.2
		c0.5-0.8,0.9-1.7,1.2-2.6c0.3-0.9,0.5-1.9,0.5-3c0-2.5-0.9-4.5-2.7-6s-4.6-2.3-8.3-2.3C150.3,113.5,148.9,113.6,147.6,113.9
		 M123.5,109.3c0.3,0,0.5-0.2,0.5-0.5v-4.6c0-0.4-0.2-0.5-0.5-0.5h-4.2c-0.3,0-0.5,0.2-0.5,0.5v4.6c0,0.4,0.2,0.5,0.5,0.5H123.5z
		 M129.9,109.3c0.3,0,0.5-0.2,0.5-0.5v-4.6c0-0.4-0.2-0.5-0.5-0.5h-4.2c-0.3,0-0.5,0.2-0.5,0.5v4.6c0,0.4,0.2,0.5,0.5,0.5H129.9z
		 M127.7,119.6c0.9,0.9,1.4,2.2,1.4,3.9c0,1.8-0.5,3.3-1.4,4.4c-0.9,1.1-2.1,2-3.4,2.6c-1.3-0.6-2.5-1.5-3.4-2.6
		c-0.9-1.1-1.4-2.6-1.4-4.4c0-1.7,0.5-3,1.4-3.9c1-0.9,2.1-1.3,3.4-1.3S126.7,118.7,127.7,119.6 M116.6,116.1
		c-1.8,1.7-2.7,4-2.7,6.8c0,1.7,0.4,3.3,1.1,4.7c0.8,1.4,1.7,2.6,3,3.5h-6.9c-0.7,0-1.2,0.2-1.5,0.5c-0.3,0.3-0.5,1-0.5,2.1
		c0,1,0.2,1.7,0.5,2.1c0.3,0.4,0.8,0.6,1.5,0.6h6.6c1,0,2.1-0.1,3.3-0.2c1.3-0.1,2.4-0.5,3.5-1.1c1,0.6,2,1,3.1,1.1
		c1.1,0.1,2.2,0.2,3.4,0.2h6.9c0.7,0,1.2-0.2,1.5-0.6c0.3-0.4,0.5-1.1,0.5-2.2c0-1-0.2-1.7-0.5-2c-0.3-0.3-0.8-0.5-1.5-0.5h-7
		c1.3-0.9,2.3-2.1,3-3.5c0.8-1.4,1.1-3,1.1-4.7c0-2.9-0.9-5.2-2.7-6.8c-1.8-1.7-4.4-2.6-7.7-2.6S118.4,114.4,116.6,116.1
		 M100.9,120.5c0.7,1.1,1.1,2.7,1.1,4.7v6h-4.5c-1.6,0-2.8-0.4-3.7-1.2c-0.9-0.8-1.3-2.3-1.3-4.6c0-2,0.4-3.6,1.3-4.8
		c0.9-1.2,2-1.8,3.5-1.8C99,118.8,100.2,119.4,100.9,120.5 M98.5,147.1c3,0,5.3-0.8,6.8-2.3c1.6-1.5,2.4-4,2.4-7.2v-1.2h3.5
		c0.7,0,1.2-0.2,1.5-0.5c0.3-0.3,0.5-1.1,0.5-2.2c0-0.9-0.2-1.6-0.5-2c-0.3-0.4-0.8-0.6-1.5-0.6h-3.5v-6c0-2.2-0.3-4-0.8-5.5
		s-1.2-2.7-2.1-3.6s-2-1.6-3.2-2c-1.3-0.4-2.6-0.6-4.1-0.6c-1.4,0-2.7,0.2-3.9,0.7c-1.2,0.4-2.3,1.2-3.3,2.1c-0.9,1-1.7,2.2-2.3,3.8
		c-0.6,1.5-0.9,3.4-0.9,5.6c0,2,0.2,3.7,0.7,5.1c0.5,1.4,1.1,2.5,1.9,3.4c0.8,0.9,1.9,1.5,3.1,1.9c1.2,0.4,2.6,0.6,4.2,0.6h5.1
		c0,1.1-0.1,2-0.3,2.7c-0.2,0.7-0.5,1.3-0.9,1.7c-0.4,0.4-0.8,0.7-1.4,0.8c-0.6,0.2-1.2,0.2-2,0.2h-5.9c-0.3,0-0.5,0.2-0.5,0.5v4.3
		c0,0.4,0.2,0.5,0.5,0.5L98.5,147.1L98.5,147.1z M75.7,136.5c2.1,0,3.6-0.5,4.5-1.6s1.3-2.8,1.3-5.1V101c0-0.4-0.2-0.5-0.5-0.5h-4.6
		c-0.3,0-0.5,0.2-0.5,0.5v27.3c0,1.1-0.2,1.8-0.6,2.2c-0.4,0.4-1,0.6-1.8,0.6h-2.5c-0.7,0-1.2,0.2-1.5,0.6c-0.3,0.4-0.5,1.1-0.5,2.1
		c0,1,0.2,1.7,0.5,2.1c0.3,0.3,0.8,0.5,1.5,0.5L75.7,136.5L75.7,136.5z M52.8,127.8c-0.8-0.8-1.2-2-1.2-3.6c0-2.1,0.4-3.5,1.3-4.3
		c0.9-0.8,2-1.2,3.5-1.2h4.5v4.5c0,1.9-0.4,3.3-1.2,4.3c-0.8,1-2,1.5-3.6,1.5C54.7,129,53.6,128.6,52.8,127.8 M55.8,113.5
		c-1.3,0-2.5,0.2-3.7,0.5c-1.2,0.4-2.2,0.9-3.1,1.8c-0.9,0.8-1.7,1.9-2.2,3.3c-0.6,1.4-0.8,3.1-0.8,5.2c0,1.8,0.3,3.3,0.8,4.6
		c0.5,1.3,1.2,2.3,2,3.1c0.9,0.8,1.9,1.4,3,1.8c1.2,0.4,2.4,0.6,3.7,0.6c1.1,0,2.1-0.2,3.1-0.5c1-0.3,1.8-0.8,2.5-1.5
		c0.3,1.5,0.9,2.6,1.8,3.2c0.9,0.6,2.2,0.9,3.8,0.9h4.1c0.7,0,1.2-0.2,1.5-0.5c0.3-0.3,0.5-1.1,0.5-2.1c0-1.8-0.7-2.7-2-2.7h-1.9
		c-0.8,0-1.4-0.2-1.8-0.6c-0.4-0.4-0.6-1.1-0.6-2.2v-17.1c0-0.4-0.2-0.5-0.5-0.5h-4.6c-0.3,0-0.5,0.2-0.5,0.5v2.3H55.8z M55.4,107.1
		c0.3,0,0.5-0.2,0.5-0.5V102c0-0.4-0.2-0.5-0.5-0.5h-4.2c-0.3,0-0.5,0.2-0.5,0.5v4.6c0,0.4,0.2,0.5,0.5,0.5H55.4z M61.8,107.1
		c0.3,0,0.5-0.2,0.5-0.5V102c0-0.4-0.2-0.5-0.5-0.5h-4.2c-0.3,0-0.5,0.2-0.5,0.5v4.6c0,0.4,0.2,0.5,0.5,0.5H61.8z"/>
	<path class="st1" d="M326.6,38.9c0-0.4-0.2-0.5-0.5-0.5h-4.7c-0.3,0-0.5,0.2-0.5,0.5v23.4c0,1.4,0,2.5-0.1,3.4
		c0,0.9-0.2,1.6-0.3,2.1c-0.2,0.5-0.4,0.9-0.8,1c-0.3,0.2-0.8,0.3-1.4,0.3h-2.6c-0.7,0-1.2,0.2-1.5,0.5c-0.3,0.4-0.5,1.1-0.5,2.3
		c0,1,0.2,1.7,0.5,2c0.3,0.3,0.8,0.5,1.5,0.5h4.3c0.9,0,1.8-0.1,2.4-0.2c0.7-0.1,1.3-0.4,1.8-0.7c0.4,0.6,1.2,0.9,2.3,0.9h13.2
		c1.9,0,3.4-0.1,4.7-0.4c1.3-0.2,2.4-0.7,3.2-1.5c0.8-0.7,1.4-1.8,1.8-3.1c0.4-1.4,0.6-3.1,0.6-5.3c0-1.9-0.2-3.7-0.7-5.2
		c-0.5-1.6-1.2-2.9-2.2-4s-2.3-1.9-3.8-2.6c-1.6-0.6-3.4-0.9-5.7-0.9c-2.1,0-4,0.3-6,0.9c-1.9,0.6-3.7,1.3-5.3,2.1V38.9H326.6z
		 M340.4,57.2c0.9,0.3,1.6,0.8,2.2,1.4c0.6,0.6,0.9,1.3,1.2,2.2c0.2,0.9,0.3,1.9,0.3,3c0,1.3-0.1,2.3-0.3,3.1
		c-0.2,0.7-0.5,1.3-1,1.6c-0.5,0.3-1.2,0.5-2.1,0.6c-0.9,0-2.1,0.1-3.5,0.1h-10.8c0.1-0.4,0.1-0.7,0.2-1.1c0-0.4,0-0.8,0-1.2v-7.1
		c1.4-0.7,3-1.4,4.9-2c1.8-0.6,3.7-0.9,5.6-0.9C338.4,56.7,339.5,56.9,340.4,57.2 M306.1,67.6c0,2.3,0.5,4,1.4,5.1
		c0.9,1.1,2.4,1.6,4.5,1.6h4c0.7,0,1.2-0.2,1.5-0.5c0.3-0.3,0.5-1,0.5-2.1c0-1-0.2-1.7-0.5-2.1s-0.8-0.6-1.5-0.6h-1.8
		c-0.8,0-1.5-0.2-1.8-0.6c-0.4-0.4-0.6-1.1-0.6-2.2V38.9c0-0.4-0.2-0.5-0.5-0.5h-4.7c-0.3,0-0.5,0.2-0.5,0.5V67.6z M294.4,63.1
		c0,2.2-0.4,3.8-1.2,4.7s-2,1.4-3.6,1.4c-1.6,0-2.8-0.5-3.6-1.4c-0.8-0.9-1.2-2.6-1.2-4.9c0-2,0.4-3.5,1.2-4.6
		c0.8-1.1,2-1.6,3.5-1.6C292.8,56.7,294.4,58.9,294.4,63.1 M289.7,74.3c1.6,0,3-0.2,4.3-0.6c1.3-0.4,2.4-1,3.3-1.9
		c0.9-0.9,1.6-2,2.1-3.5c0.5-1.4,0.8-3.2,0.8-5.3c0-2.2-0.3-4-0.8-5.5c-0.5-1.5-1.3-2.7-2.2-3.7c-0.9-0.9-2-1.6-3.3-2
		c-1.3-0.4-2.7-0.6-4.2-0.6c-1.4,0-2.7,0.2-4,0.6c-1.3,0.4-2.4,1.1-3.3,2c-1,0.9-1.7,2.1-2.3,3.7c-0.6,1.5-0.8,3.4-0.8,5.5
		c0,2.4,0.4,4.4,1.2,5.9h-4.8c-0.7,0-1.2,0.2-1.5,0.6c-0.3,0.4-0.5,1-0.5,2c0,1.1,0.2,1.8,0.5,2.2c0.3,0.4,0.8,0.5,1.5,0.5
		L289.7,74.3L289.7,74.3z M288.6,47c0.3,0,0.5-0.2,0.5-0.5V42c0-0.4-0.2-0.5-0.5-0.5h-4.3c-0.3,0-0.5,0.2-0.5,0.5v4.6
		c0,0.4,0.2,0.5,0.5,0.5H288.6z M295.1,47c0.3,0,0.5-0.2,0.5-0.5V42c0-0.4-0.2-0.5-0.5-0.5h-4.2c-0.3,0-0.5,0.2-0.5,0.5v4.6
		c0,0.4,0.2,0.5,0.5,0.5H295.1z M256.6,65.7c-0.8-0.8-1.2-2-1.2-3.6c0-2.1,0.4-3.5,1.3-4.3c0.9-0.8,2-1.2,3.5-1.2h4.5v4.5
		c0,1.9-0.4,3.3-1.2,4.3c-0.8,1-2,1.5-3.6,1.5C258.5,66.8,257.4,66.5,256.6,65.7 M259.6,51.4c-1.3,0-2.5,0.2-3.7,0.5
		c-1.2,0.4-2.2,0.9-3.2,1.8c-0.9,0.8-1.7,1.9-2.2,3.3c-0.6,1.4-0.8,3.1-0.8,5.2c0,1.8,0.3,3.3,0.8,4.6c0.5,1.3,1.2,2.3,2,3.1
		c0.9,0.8,1.9,1.4,3,1.8c1.2,0.4,2.4,0.6,3.7,0.6c1.1,0,2.1-0.2,3.1-0.5c1-0.3,1.8-0.8,2.5-1.5c0.3,1.5,0.9,2.6,1.8,3.2
		c0.9,0.6,2.2,0.9,3.9,0.9h4.1c0.7,0,1.2-0.2,1.5-0.5c0.3-0.3,0.5-1.1,0.5-2.1c0-1.8-0.7-2.7-2-2.7h-1.9c-0.8,0-1.5-0.2-1.8-0.6
		c-0.4-0.4-0.6-1.1-0.6-2.2V49.1c0-0.4-0.2-0.5-0.5-0.5h-4.7c-0.3,0-0.5,0.2-0.5,0.5v2.3H259.6z M259.2,45c0.3,0,0.5-0.2,0.5-0.5
		v-4.6c0-0.4-0.2-0.5-0.5-0.5h-4.2c-0.3,0-0.5,0.2-0.5,0.5v4.6c0,0.4,0.2,0.5,0.5,0.5H259.2z M265.8,45c0.3,0,0.5-0.2,0.5-0.5v-4.6
		c0-0.4-0.2-0.5-0.5-0.5h-4.2c-0.3,0-0.5,0.2-0.5,0.5v4.6c0,0.4,0.2,0.5,0.5,0.5H265.8z M227.6,74.3c2.1,0,3.6-0.5,4.5-1.6
		c0.9-1.1,1.4-2.8,1.4-5.1V52.9c0-0.4-0.2-0.5-0.5-0.5h-4.7c-0.3,0-0.5,0.2-0.5,0.5v13.3c0,1.1-0.2,1.8-0.6,2.2
		c-0.4,0.4-1,0.6-1.8,0.6h-2.5c-0.7,0-1.2,0.4-1.5,1c-0.3,0.7-0.5,1.5-0.5,2.4c0,0.8,0.2,1.3,0.5,1.5c0.3,0.3,0.8,0.4,1.5,0.4
		L227.6,74.3L227.6,74.3z M233,47c0.3,0,0.5-0.2,0.5-0.5V42c0-0.4-0.2-0.5-0.5-0.5h-4.9c-0.3,0-0.5,0.2-0.5,0.5v4.6
		c0,0.4,0.2,0.5,0.5,0.5H233z M194.5,38.9c0-0.4-0.2-0.5-0.5-0.5h-4.7c-0.3,0-0.5,0.2-0.5,0.5v23.7c0,1.3,0,2.3-0.1,3.2
		c0,0.8-0.2,1.5-0.3,2c-0.2,0.5-0.4,0.8-0.8,1c-0.4,0.2-0.8,0.3-1.4,0.3h-2.5c-0.7,0-1.2,0.2-1.5,0.5c-0.3,0.4-0.5,1.1-0.5,2.3
		c0,1,0.2,1.7,0.5,2c0.3,0.3,0.8,0.5,1.5,0.5h3.9c1,0,1.8,0,2.6-0.1c0.8-0.1,1.4-0.3,2-0.8c0.4,0.6,1.2,0.9,2.3,0.9h13.4
		c1.2,0,2.2,0,3.1-0.1c0.9-0.1,1.8-0.2,2.5-0.5c0.7-0.2,1.4-0.6,1.9-1c0.5-0.4,1-1,1.3-1.8c0.5,1.4,1.3,2.3,2.4,2.7
		c1.1,0.5,2.4,0.7,3.8,0.7c0.7,0,1.2-0.2,1.5-0.6c0.3-0.4,0.5-1.1,0.5-2.2c0-0.9-0.2-1.6-0.5-2s-0.8-0.6-1.5-0.6h-0.9
		c-1.3,0-2.3-0.3-3-0.9s-1.1-1.4-1.2-2.4c0-0.2,0-0.5,0-0.8s0-0.6,0-1c0-1.9-0.2-3.7-0.7-5.2c-0.5-1.6-1.2-2.9-2.2-4
		c-1-1.1-2.3-1.9-3.8-2.5c-1.6-0.6-3.4-0.9-5.7-0.9c-2.1,0-4,0.3-6,0.9c-1.9,0.6-3.7,1.3-5.3,2.1V38.9H194.5z M208.3,57.2
		c0.9,0.3,1.6,0.8,2.2,1.4c0.6,0.6,0.9,1.3,1.2,2.2c0.2,0.9,0.3,1.9,0.3,3c0,1.3-0.1,2.3-0.3,3.1c-0.2,0.7-0.5,1.3-1,1.6
		c-0.5,0.3-1.2,0.5-2.1,0.6c-0.9,0-2.1,0.1-3.5,0.1h-11c0.1-0.4,0.1-0.7,0.2-1.1c0-0.4,0.1-0.8,0.1-1.2v-7.1c1.4-0.7,3-1.4,4.9-2
		c1.8-0.6,3.7-0.9,5.6-0.9C206.2,56.7,207.4,56.9,208.3,57.2 M208.2,47c0.3,0,0.5-0.2,0.5-0.5V42c0-0.4-0.2-0.5-0.5-0.5h-4.9
		c-0.3,0-0.5,0.2-0.5,0.5v4.6c0,0.4,0.2,0.5,0.5,0.5H208.2z M180,73.7c1,0.3,2.1,0.5,3.4,0.5c0.7,0,1.2-0.2,1.5-0.6
		c0.3-0.4,0.5-1.1,0.5-2.2c0-0.9-0.2-1.6-0.5-2c-0.3-0.4-0.8-0.6-1.5-0.6h-0.9c-1.3,0-2.3-0.3-3.1-0.9c-0.8-0.6-1.1-1.4-1.1-2.4
		V52.9c0-0.4-0.2-0.5-0.5-0.5h-4.3c-0.2,0-0.4,0-0.6,0.1c-0.2,0.1-0.3,0.2-0.3,0.4v10.9c0,1,0,1.8,0,2.4c0,0.7-0.1,1.2-0.3,1.6
		c-0.2,0.4-0.4,0.7-0.7,0.9c-0.3,0.2-0.8,0.3-1.4,0.3H167c-0.7,0-1.2,0.2-1.5,0.6c-0.3,0.4-0.5,1.1-0.5,2.2c0,1,0.2,1.7,0.5,2
		c0.3,0.3,0.8,0.5,1.5,0.5h4.7c1.6,0,2.9-0.2,3.8-0.6c1-0.4,1.7-1.1,2.1-2.2C178.3,72.7,179,73.4,180,73.7 M174.2,84.5
		c0.3,0,0.5-0.2,0.5-0.5v-4.6c0-0.4-0.2-0.5-0.5-0.5H170c-0.3,0-0.5,0.2-0.5,0.5V84c0,0.4,0.2,0.5,0.5,0.5H174.2z M180.7,84.5
		c0.3,0,0.5-0.2,0.5-0.5v-4.6c0-0.4-0.2-0.5-0.5-0.5h-4.2c-0.3,0-0.5,0.2-0.5,0.5V84c0,0.4,0.2,0.5,0.5,0.5H180.7z M155.8,47
		c0.3,0,0.5-0.2,0.5-0.5V42c0-0.4-0.2-0.5-0.5-0.5H151c-0.3,0-0.5,0.2-0.5,0.5v4.6c0,0.4,0.2,0.5,0.5,0.5H155.8z M156.7,57.4
		c0.9,0.9,1.4,2.2,1.4,3.9c0,1.8-0.5,3.3-1.4,4.4s-2.1,2-3.4,2.6c-1.3-0.6-2.5-1.5-3.4-2.6c-0.9-1.1-1.4-2.6-1.4-4.4
		c0-1.7,0.5-3,1.4-3.9c1-0.9,2.1-1.3,3.4-1.3C154.7,56.1,155.8,56.6,156.7,57.4 M145.6,54c-1.8,1.7-2.7,4-2.7,6.8
		c0,1.7,0.4,3.3,1.1,4.7c0.8,1.4,1.8,2.6,3,3.5h-7c-0.7,0-1.2,0.2-1.5,0.5c-0.3,0.3-0.5,1-0.5,2.1c0,1,0.2,1.7,0.5,2.1
		c0.3,0.4,0.8,0.6,1.5,0.6h6.6c1,0,2.1-0.1,3.4-0.2c1.3-0.1,2.5-0.5,3.6-1.1c1,0.6,2,1,3.1,1.1s2.2,0.2,3.4,0.2h6.9
		c0.7,0,1.2-0.2,1.5-0.6c0.3-0.4,0.5-1.1,0.5-2.2c0-1-0.2-1.7-0.5-2c-0.3-0.3-0.8-0.5-1.5-0.5h-7.1c1.3-0.9,2.3-2.1,3.1-3.5
		s1.1-3,1.1-4.7c0-2.9-0.9-5.2-2.7-6.8s-4.5-2.6-7.8-2.6C150,51.4,147.4,52.3,145.6,54 M121.4,65.7c-0.8-0.8-1.2-2-1.2-3.6
		c0-2.1,0.4-3.5,1.3-4.3s2-1.2,3.5-1.2h4.5v4.5c0,1.9-0.4,3.3-1.2,4.3c-0.8,1-2,1.5-3.6,1.5C123.3,66.8,122.2,66.5,121.4,65.7
		 M124.4,51.4c-1.3,0-2.5,0.2-3.7,0.5c-1.2,0.4-2.2,0.9-3.2,1.8c-0.9,0.8-1.7,1.9-2.2,3.3c-0.6,1.4-0.8,3.1-0.8,5.2
		c0,1.8,0.3,3.3,0.8,4.6c0.5,1.3,1.2,2.3,2.1,3.1c0.9,0.8,1.9,1.4,3,1.8c1.2,0.4,2.4,0.6,3.7,0.6c1.1,0,2.1-0.2,3.1-0.5
		c1-0.3,1.8-0.8,2.5-1.5c0.3,1.5,0.9,2.6,1.8,3.2c0.9,0.6,2.2,0.9,3.9,0.9h4.1c0.7,0,1.2-0.2,1.5-0.5c0.3-0.3,0.5-1.1,0.5-2.1
		c0-1.8-0.7-2.7-2-2.7h-1.9c-0.8,0-1.5-0.2-1.8-0.6c-0.4-0.4-0.6-1.1-0.6-2.2V49.1c0-0.4-0.2-0.5-0.5-0.5h-4.7
		c-0.3,0-0.5,0.2-0.5,0.5v2.3H124.4z M124,45c0.3,0,0.5-0.2,0.5-0.5v-4.6c0-0.4-0.2-0.5-0.5-0.5h-4.2c-0.3,0-0.5,0.2-0.5,0.5v4.6
		c0,0.4,0.2,0.5,0.5,0.5H124z M130.5,45c0.3,0,0.5-0.2,0.5-0.5v-4.6c0-0.4-0.2-0.5-0.5-0.5h-4.2c-0.3,0-0.5,0.2-0.5,0.5v4.6
		c0,0.4,0.2,0.5,0.5,0.5H130.5z"/>
</g>
</svg>
