<?xml version="1.0" encoding="utf-8"?>
<svg version="1.1" id="Layer_1" xmlns="http://www.w3.org/2000/svg" xmlns:xlink="http://www.w3.org/1999/xlink" x="0px" y="0px"
	 viewBox="0 0 500 500" style="enable-background:new 0 0 500 500;" xml:space="preserve">
<style type="text/css">
	.st1{fill:#FFFFFF;}
	.st5{fill:#C22033;}
</style>
<g>
	<rect class="st5" width="500" height="500"/>
	<polygon class="st1" points="221.7,268.1 132,216.3 132,383.8 221.7,410.9 	"/>
	<polygon class="st1" points="231.6,268.4 231.6,410.9 321.8,383.8 321.8,216.3 	"/>
	<path class="st1" d="M392.2,212.1c0-5.9-4.8-10.6-10.6-10.6c-5.9,0-10.6,4.7-10.6,10.6v11.4h21.2V212.1z"/>
	<polygon class="st1" points="373.6,380.8 371,380.8 381.6,417.9 392.2,380.8 389.6,380.8 392.2,380.8 392.2,231.8 389.6,231.8 
		387,231.8 384.2,231.8 378.9,231.8 376.3,231.8 373.6,231.8 371,231.8 371,380.8 	"/>
	<polygon class="st1" points="341.1,223.5 331.5,215.9 331.5,388.4 231.8,420.6 227.2,420.6 226.3,420.6 221.7,420.6 122.5,392.8 
		122.5,215.9 112.9,223.5 112.9,399.6 221.3,429.6 226.3,429.6 227.2,429.6 232.3,429.6 332.3,397.8 341.1,395.2 	"/>
	<path class="st1" d="M446.9,112c-1.7,0-3.3-0.2-4.9-0.5c-1.6-0.3-2.9-0.9-4.1-1.7c-1.2-0.8-2.2-1.8-2.9-3.1
		c-0.7-1.3-1.1-2.9-1.1-4.7c0-3.7,1.2-6.6,3.5-8.5c2.4-1.9,5.2-2.9,8.6-2.9h14.4c0.9,0,1.3-0.4,1.3-1.3V78.8c0-0.9-0.4-1.3-1.3-1.3
		h-11c-1.5,0-3-0.2-4.4-0.5c-1.4-0.4-2.7-0.9-3.7-1.7c-1.1-0.8-1.9-1.9-2.5-3.1c-0.6-1.3-0.9-2.8-0.9-4.6c0-3.7,1-6.4,3-7.9
		c2-1.5,4.9-2.3,8.6-2.3h11.1c0.9,0,1.3-0.4,1.3-1.3V45.6c0-0.9-0.4-1.3-1.3-1.3h-13.2c-7.5,0-13.5,1.9-18.2,5.6
		c-4.6,3.7-7,9.3-7,16.6c0,2.9,0.6,5.8,1.9,8.9c1.3,3.1,3.4,5.7,6.3,7.7c-2.6,1.3-4.7,2.9-6.3,4.6c-1.6,1.7-2.9,3.5-3.7,5.4
		c-0.9,1.9-1.5,3.7-1.8,5.5c-0.3,1.8-0.5,3.4-0.5,4.9c0,3.8,0.7,7.1,2.1,9.8c1.4,2.7,3.3,4.9,5.7,6.7c2.4,1.7,5.2,3,8.3,3.8
		c3.2,0.8,6.5,1.2,10,1.2H466c0.9,0,1.3-0.4,1.3-1.3v-10.4c0-0.9-0.4-1.3-1.3-1.3H446.9z"/>
	<path class="st1" d="M351.5,105.5c0-0.4-0.2-0.5-0.5-0.5h-4.9c-0.4,0-0.5,0.2-0.5,0.5v34.9c0,0.4,0.2,0.5,0.5,0.5h4.9
		c0.3,0,0.5-0.2,0.5-0.5V105.5z M332.5,140.8c2.2,0,3.8-0.5,4.7-1.6c0.9-1.1,1.4-2.8,1.4-5v-28.7c0-0.4-0.2-0.5-0.5-0.5h-4.9
		c-0.3,0-0.5,0.2-0.5,0.5v27.3c0,1.1-0.2,1.8-0.6,2.2c-0.4,0.4-1,0.6-1.9,0.6h-2.6c-0.7,0-1.3,0.2-1.6,0.6c-0.3,0.4-0.5,1.1-0.5,2.1
		c0,1,0.2,1.7,0.5,2.1c0.4,0.3,0.9,0.5,1.6,0.5H332.5z M313.3,150.9c0.4,0,0.5-0.2,0.5-0.5v-4.6c0-0.4-0.2-0.5-0.5-0.5h-5.1
		c-0.4,0-0.5,0.2-0.5,0.5v4.6c0,0.4,0.2,0.5,0.5,0.5H313.3z M300.7,123l2.7,2.8c0.2,0.2,0.5,0.2,0.7,0c0.7-0.8,1.6-1.4,2.5-1.9
		c1-0.5,2-0.7,3.2-0.7c1.2,0,2.2,0.2,3,0.6c0.8,0.4,1.4,1,1.9,1.7c0.5,0.7,0.8,1.5,1.1,2.5c0.2,0.9,0.3,2,0.3,3.1
		c0,0.8-0.1,1.6-0.2,2.1c-0.1,0.6-0.3,1-0.6,1.4c-0.3,0.4-0.8,0.6-1.3,0.7c-0.6,0.1-1.3,0.2-2.2,0.2h-14.1c-0.7,0-1.3,0.2-1.6,0.5
		c-0.3,0.4-0.5,1-0.5,2.1c0,1,0.2,1.6,0.5,2.1c0.4,0.4,0.9,0.6,1.6,0.6h16.3c1.7,0,3.1-0.2,4.3-0.7c1.2-0.4,2.1-1.3,2.8-2.5
		c0.6,1.3,1.4,2.2,2.6,2.6c1.1,0.4,2.4,0.6,3.9,0.6c0.7,0,1.3-0.2,1.6-0.6c0.3-0.4,0.5-1.1,0.5-2.1c0-0.9-0.2-1.6-0.5-2
		c-0.4-0.4-0.9-0.6-1.6-0.6h-0.9c-1.3,0-2.3-0.3-3.1-0.8c-0.8-0.5-1.2-1.3-1.3-2.2c0-0.2,0-0.4,0-0.6c0-0.2,0-0.4,0-0.7
		c0-1.8-0.2-3.5-0.6-5.1c-0.4-1.6-1.1-3-2-4.2c-1-1.2-2.2-2.2-3.8-2.9c-1.6-0.7-3.6-1.1-5.9-1.1c-2.2,0-4,0.4-5.5,1.2
		c-1.5,0.8-2.8,1.8-3.9,3.1C300.4,122.5,300.4,122.7,300.7,123 M294.1,140.3c1,0.3,2.2,0.5,3.6,0.5c0.7,0,1.3-0.2,1.6-0.6
		c0.3-0.4,0.5-1.1,0.5-2.1c0-0.9-0.2-1.6-0.5-2c-0.4-0.4-0.9-0.6-1.6-0.6h-0.9c-1.3,0-2.4-0.3-3.2-0.8c-0.8-0.6-1.2-1.4-1.2-2.4
		v-12.8c0-0.3-0.2-0.5-0.5-0.5h-4.5c-0.2,0-0.4,0-0.6,0.1c-0.2,0.1-0.3,0.2-0.3,0.4v10.9c0,0.9,0,1.7-0.1,2.4c0,0.6-0.1,1.2-0.3,1.6
		c-0.2,0.4-0.4,0.7-0.7,0.9c-0.3,0.2-0.8,0.3-1.4,0.3h-3.4c-0.7,0-1.3,0.2-1.6,0.6c-0.3,0.4-0.5,1.1-0.5,2.2c0,1,0.2,1.7,0.5,2
		c0.4,0.3,0.9,0.5,1.6,0.5h4.9c1.7,0,3-0.2,4-0.6c1-0.4,1.7-1.1,2.2-2.1C292.3,139.3,293.1,140,294.1,140.3 M287.9,151
		c0.3,0,0.5-0.2,0.5-0.5v-4.6c0-0.4-0.2-0.5-0.5-0.5h-4.4c-0.4,0-0.5,0.2-0.5,0.5v4.6c0,0.4,0.2,0.5,0.5,0.5H287.9z M294.8,151
		c0.4,0,0.5-0.2,0.5-0.5v-4.6c0-0.4-0.2-0.5-0.5-0.5h-4.4c-0.4,0-0.5,0.2-0.5,0.5v4.6c0,0.4,0.2,0.5,0.5,0.5H294.8z M263.7,123.3
		c1.8,0,3.1,0.4,4,1.1c0.9,0.7,1.3,1.9,1.3,3.5v3.5c0,0.8,0,1.4-0.1,1.9c-0.1,0.5-0.3,1-0.6,1.3c-0.3,0.3-0.7,0.6-1.3,0.7
		s-1.3,0.2-2.3,0.2H255c-0.4,0-0.5,0.2-0.5,0.5v4.2c0,0.4,0.2,0.5,0.5,0.5h11.8c1.8,0,3.3-0.2,4.4-0.6c1.1-0.4,2-1.2,2.7-2.4
		c0.6,1.2,1.4,2.1,2.5,2.5c1.1,0.4,2.3,0.6,3.8,0.6c0.7,0,1.3-0.2,1.6-0.6c0.3-0.4,0.5-1.1,0.5-2.1c0-0.9-0.2-1.6-0.5-2
		c-0.4-0.4-0.9-0.6-1.6-0.6h-0.9c-1.3,0-2.4-0.3-3.2-0.8c-0.8-0.6-1.2-1.3-1.2-2.4v-5c0-3.3-0.9-5.7-2.6-7.2c-1.7-1.5-4.1-2.2-7-2.2
		h-8c-0.4,0-0.5,0.2-0.5,0.5v4.2c0,0.4,0.2,0.5,0.5,0.5H263.7z"/>
	<path class="st1" d="M351.5,43.3c0-0.4-0.2-0.5-0.5-0.5h-4.9c-0.3,0-0.5,0.2-0.5,0.5v34.9c0,0.4,0.2,0.5,0.5,0.5h4.9
		c0.3,0,0.5-0.2,0.5-0.5V43.3z M332.5,78.7c2.2,0,3.8-0.5,4.7-1.6c0.9-1.1,1.4-2.8,1.4-5V43.3c0-0.4-0.2-0.5-0.5-0.5h-4.9
		c-0.3,0-0.5,0.2-0.5,0.5v27.3c0,1.1-0.2,1.8-0.6,2.2c-0.4,0.4-1,0.6-1.9,0.6h-2.6c-0.7,0-1.3,0.2-1.6,0.6c-0.3,0.4-0.5,1.1-0.5,2.1
		c0,1,0.2,1.7,0.5,2.1c0.4,0.3,0.9,0.5,1.6,0.5H332.5z M324,78.2c1,0.3,2.2,0.5,3.6,0.5c0.7,0,1.3-0.2,1.6-0.6
		c0.3-0.4,0.5-1.1,0.5-2.1c0-0.9-0.2-1.6-0.5-2c-0.4-0.4-0.9-0.6-1.6-0.6h-0.9c-1.3,0-2.4-0.3-3.2-0.8c-0.8-0.6-1.2-1.4-1.2-2.4
		V57.3c0-0.4-0.2-0.5-0.5-0.5h-4.5c-0.2,0-0.4,0-0.6,0.1c-0.2,0.1-0.3,0.2-0.3,0.4v10.9c0,0.9,0,1.7-0.1,2.4c0,0.6-0.1,1.2-0.3,1.6
		c-0.2,0.4-0.4,0.7-0.7,0.9c-0.3,0.2-0.8,0.3-1.5,0.3h-3.4c-0.7,0-1.3,0.2-1.6,0.6c-0.3,0.4-0.5,1.1-0.5,2.2c0,1,0.2,1.7,0.5,2
		c0.4,0.3,0.9,0.5,1.6,0.5h4.9c1.7,0,3-0.2,4-0.6c1-0.4,1.7-1.1,2.2-2.1C322.1,77.1,322.9,77.9,324,78.2 M318.2,51.5
		c0.3,0,0.5-0.2,0.5-0.5v-4.6c0-0.4-0.2-0.5-0.5-0.5h-4.4c-0.4,0-0.5,0.2-0.5,0.5V51c0,0.4,0.2,0.5,0.5,0.5H318.2z M325,51.5
		c0.4,0,0.5-0.2,0.5-0.5v-4.6c0-0.4-0.2-0.5-0.5-0.5h-4.4c-0.4,0-0.5,0.2-0.5,0.5V51c0,0.4,0.2,0.5,0.5,0.5H325z M293.7,66.3
		c-1.1-1.6-2.5-3-4.1-4c0.4-0.2,1.1-0.5,2.1-0.7c1-0.3,2.3-0.4,3.7-0.4c1.6,0,2.9,0.3,4,0.8c1,0.6,1.6,1.6,1.6,3
		c0,0.7-0.1,1.4-0.4,2.1c-0.3,0.7-0.6,1.3-1.1,1.9c-0.4,0.6-1,1.1-1.5,1.6c-0.6,0.5-1.2,0.9-1.7,1.3
		C295.7,69.7,294.9,67.9,293.7,66.3 M291.1,56.2c-1.4,0.2-2.7,0.6-3.8,0.9c-1.1,0.4-2,0.8-2.6,1.2c-0.7,0.5-1,0.9-1,1.3v3.3
		c0,0.3,0,0.5,0.1,0.8c0.1,0.2,0.3,0.5,0.7,0.8c0.7,0.5,1.4,1,2.1,1.5c0.7,0.5,1.3,1.1,1.9,1.7c0.6,0.6,1.1,1.4,1.6,2.2
		c0.5,0.8,0.9,1.8,1.1,3c-0.9,0.2-1.8,0.3-2.5,0.4c-0.7,0.1-1.3,0.1-1.9,0.1h-6.2c-0.9,0-1.5,0.2-1.7,0.7c-0.2,0.5-0.3,1.2-0.3,2.1
		c0,1,0.2,1.6,0.5,2c0.4,0.4,0.9,0.5,1.5,0.5h7.6c1,0,2.2-0.1,3.5-0.3c1.3-0.2,2.5-0.7,3.7-1.3c1,0.6,2.1,1.1,3.2,1.3
		c1.1,0.2,2.4,0.3,3.6,0.3h7.9c0.7,0,1.2-0.2,1.6-0.5c0.3-0.3,0.5-1,0.5-2c0-1-0.1-1.7-0.4-2.1c-0.3-0.4-0.8-0.6-1.6-0.6h-6.6h-1.1
		c-0.3,0-0.6,0-0.9-0.1c0.6-0.4,1.3-0.9,2-1.6c0.7-0.6,1.3-1.3,1.8-2.1c0.5-0.8,1-1.7,1.3-2.6s0.5-1.9,0.5-3c0-2.5-0.9-4.4-2.8-6
		c-1.9-1.5-4.8-2.3-8.9-2.3C293.9,55.8,292.5,56,291.1,56.2 M264.2,73.4c-0.7,0-1.3,0.2-1.6,0.6c-0.3,0.4-0.5,1-0.5,2
		c0,1.1,0.2,1.9,0.5,2.2c0.4,0.3,0.9,0.5,1.6,0.5h4.4c1.6,0,2.8-0.2,3.8-0.6c0.9-0.4,1.6-1.1,2.1-2.1c0.6,1.1,1.4,1.9,2.4,2.2
		c1,0.3,2.2,0.5,3.6,0.5c0.7,0,1.3-0.2,1.6-0.6c0.3-0.4,0.5-1.1,0.5-2.1c0-0.9-0.2-1.6-0.5-2c-0.4-0.4-0.9-0.6-1.6-0.6h-0.9
		c-1.3,0-2.4-0.3-3.2-0.8c-0.8-0.6-1.2-1.4-1.2-2.4V43.3c0-0.4-0.2-0.5-0.5-0.5h-4.9c-0.3,0-0.5,0.2-0.5,0.5v27.3
		c0,1.1-0.2,1.8-0.6,2.2c-0.4,0.4-1,0.6-1.9,0.6H264.2z M260.6,78.2c1,0.3,2.2,0.5,3.6,0.5c0.7,0,1.3-0.2,1.6-0.6
		c0.3-0.4,0.5-1.1,0.5-2.1c0-0.9-0.2-1.6-0.5-2c-0.3-0.4-0.9-0.6-1.6-0.6h-0.9c-1.3,0-2.4-0.3-3.2-0.8c-0.8-0.6-1.2-1.4-1.2-2.4
		V57.3c0-0.4-0.2-0.5-0.5-0.5h-4.5c-0.2,0-0.4,0-0.6,0.1c-0.2,0.1-0.3,0.2-0.3,0.4v10.9c0,0.9,0,1.7,0,2.4c0,0.6-0.1,1.2-0.3,1.6
		c-0.2,0.4-0.4,0.7-0.7,0.9c-0.3,0.2-0.8,0.3-1.5,0.3H247c-0.7,0-1.3,0.2-1.6,0.6c-0.3,0.4-0.5,1.1-0.5,2.2c0,1,0.2,1.7,0.5,2
		c0.4,0.3,0.9,0.5,1.6,0.5h4.9c1.7,0,3-0.2,4-0.6c1-0.4,1.7-1.1,2.2-2.1C258.8,77.1,259.6,77.9,260.6,78.2 M254.4,88.8
		c0.4,0,0.5-0.2,0.5-0.5v-4.6c0-0.4-0.2-0.5-0.5-0.5H250c-0.4,0-0.5,0.2-0.5,0.5v4.6c0,0.4,0.2,0.5,0.5,0.5H254.4z M261.3,88.8
		c0.3,0,0.5-0.2,0.5-0.5v-4.6c0-0.4-0.2-0.5-0.5-0.5h-4.4c-0.4,0-0.5,0.2-0.5,0.5v4.6c0,0.4,0.2,0.5,0.5,0.5H261.3z M236.2,67.5
		c0,2.2-0.4,3.8-1.2,4.8c-0.8,1-2,1.5-3.7,1.5c-1.7,0-2.9-0.5-3.8-1.5c-0.8-1-1.2-2.6-1.2-4.9c0-2.1,0.4-3.7,1.2-4.8
		c0.8-1.1,2.1-1.6,3.8-1.6C234.5,61.1,236.2,63.2,236.2,67.5 M236,78.3c1.4-0.5,2.6-1.3,3.6-2.4c0.5,0.7,1,1.2,1.6,1.6
		c0.6,0.4,1.2,0.6,1.8,0.8c0.6,0.2,1.3,0.3,1.9,0.3c0.6,0,1.3,0.1,1.9,0.1c0.7,0,1.3-0.2,1.6-0.6c0.3-0.4,0.5-1.1,0.5-2.1
		c0-0.9-0.2-1.6-0.5-2c-0.4-0.4-0.9-0.6-1.6-0.6h-1.5c-0.8,0-1.5-0.3-2.2-0.9c-0.6-0.6-1-1.7-1.1-3.1c0-0.3,0.1-0.6,0.1-0.9
		c0-0.3,0-0.6,0-0.9c0-2.1-0.3-4-0.8-5.5c-0.5-1.5-1.3-2.7-2.3-3.6c-1-0.9-2.1-1.6-3.5-2c-1.3-0.4-2.8-0.6-4.3-0.6
		c-1.6,0-3,0.2-4.3,0.6c-1.3,0.4-2.5,1.1-3.5,2c-1,0.9-1.7,2.1-2.3,3.6c-0.6,1.5-0.8,3.3-0.8,5.5c0,0.4,0,0.8,0,1.2
		c0,0.4,0,0.7,0.1,1.1c-0.1,0.7-0.3,1.2-0.7,1.6c-0.4,0.4-0.8,0.8-1.3,1.1c-0.5,0.3-1,0.7-1.5,1c-0.5,0.3-1.1,0.7-1.5,1.2
		c-0.5,0.5-0.9,1.1-1.2,1.8c-0.3,0.7-0.5,1.7-0.5,2.8v9.9h5.9v-8.8c0-0.8,0.1-1.4,0.4-1.8c0.3-0.4,0.6-0.8,0.9-1
		c0.4-0.3,0.7-0.5,1.1-0.7c0.4-0.2,0.7-0.6,1-1c0.9,1.1,2,1.9,3.4,2.4c1.4,0.5,2.9,0.7,4.6,0.7C233,79.1,234.6,78.8,236,78.3"/>
</g>
</svg>
