<?xml version="1.0" encoding="utf-8"?>
<!-- Generator: Adobe Illustrator 24.2.1, SVG Export Plug-In . SVG Version: 6.00 Build 0)  -->
<svg version="1.1" id="Layer_1" xmlns="http://www.w3.org/2000/svg" xmlns:xlink="http://www.w3.org/1999/xlink" x="0px" y="0px"
	 viewBox="0 0 500 500" style="enable-background:new 0 0 500 500;" xml:space="preserve">
<style type="text/css">
	.st1{fill:#FFFFFF;}
	.st15{fill:#007DBB;}
</style>
<g>
	<rect class="st15" width="500" height="500"/>
	<path class="st1" d="M311.7,372.6c-9.2,0-16.6-7.5-16.6-16.6c0-9.2,7.4-16.6,16.6-16.6c9.2,0,16.6,7.4,16.6,16.6
		C328.3,365.1,320.9,372.6,311.7,372.6 M383.9,364.8c-6.3-8.5-46.9-60.3-103.9-60.3c-49.5,0-102.4,44.9-102.4,44.9
		s-19.9-40.7-60.6-44.6c-0.2,0-0.5,0-0.8,0H116c-0.8,0-1.6,0.9-1.6,1.6c0.1,0.7,0.6,1.5,0.6,1.5c5.2,8.7,18.6,33.5,18.6,58.2
		c0,24.8-13.5,49.7-18.7,58.3l-0.4,0.6c-0.1,0.3-0.3,0.5-0.3,0.9c0,0.9,0.7,1.5,1.5,1.6l0.4,0c0.1,0,0.3,0,0.4,0
		c40.8-3.8,60.8-44.6,60.8-44.6s52.9,44.9,102.4,44.9c57,0,97.6-51.8,103.9-60.3c0.2-0.2,0.3-0.4,0.4-0.6c0.1-0.2,0.1-0.4,0.1-0.6
		c0-0.2-0.1-0.4-0.1-0.6C384.2,365.2,384.1,365,383.9,364.8"/>
	<path class="st1" d="M115.7,207.1c-0.1,0-0.2-0.1-0.3-0.1c-0.9,0-1.6,0.7-1.6,1.6V220c0,0.5,0.2,0.9,0.5,1.2
		c27.5,23.9,53.6,1.5,59.6-4.4c0.1-0.2,0.3-0.4,0.4-0.5c0.3-0.2,0.6-0.3,0.9-0.3c0.4,0,0.8,0.2,1.1,0.4c0,0,0.1,0.1,0.1,0.1
		c31.1,29.7,63.7,5.6,70.4,0l0.7-0.6c0.2-0.1,0.4-0.1,0.6-0.1c0.2,0,0.5,0,0.6,0.1l0.7,0.6c6.8,5.6,39.4,29.7,70.4,0
		c0,0,0,0,0.1-0.1c0.3-0.3,0.7-0.4,1.1-0.4c0.3,0,0.6,0.1,0.9,0.3c0.2,0.1,0.3,0.3,0.5,0.5c6,5.9,32,28.3,59.6,4.4
		c0.3-0.3,0.5-0.7,0.5-1.2v-11.3c0-0.9-0.7-1.6-1.6-1.6c-0.1,0-0.2,0-0.4,0.1c-0.3,0.1-0.5,0.3-0.8,0.4c-8.5,4.2-34.7,14.3-58.5-8.2
		c-0.2-0.2-0.5-0.4-0.7-0.7c-0.2-0.1-0.4-0.2-0.7-0.2c-0.2,0-0.3,0.1-0.5,0.1c-0.4,0.1-0.6,0.4-0.8,0.6c-7.1,5.4-39.7,27.5-68.7,0.4
		l-0.4-0.4c-0.3-0.3-0.7-0.5-1.2-0.5c-0.4,0-0.9,0.2-1.1,0.5l-0.5,0.4c-29,27.1-61.6,5-68.7-0.4c-0.2-0.3-0.5-0.5-0.8-0.6
		c-0.2,0-0.3-0.1-0.5-0.1c-0.2,0-0.5,0.1-0.7,0.2c-0.2,0.2-0.5,0.5-0.7,0.7c-23.8,22.5-50,12.5-58.5,8.2
		C116.2,207.4,116,207.2,115.7,207.1"/>
	<path class="st1" d="M173.8,258c0.1-0.2,0.3-0.3,0.4-0.5c0.3-0.2,0.6-0.3,0.9-0.3c0.4,0,0.8,0.2,1.1,0.5c0,0,0,0,0.1,0.1
		c31.1,29.6,63.7,5.6,70.4,0l0.7-0.6c0.2-0.1,0.4-0.1,0.6-0.1c0.2,0,0.5,0,0.7,0.1l0.7,0.6c6.8,5.6,39.4,29.6,70.4,0
		c0,0,0,0,0.1-0.1c0.3-0.3,0.7-0.5,1.1-0.5c0.3,0,0.6,0.1,0.9,0.3c0.2,0.1,0.3,0.3,0.5,0.5c6,5.9,32,28.3,59.6,4.4
		c0.3-0.3,0.5-0.7,0.5-1.1v-11.4c0-0.9-0.7-1.6-1.6-1.6c-0.1,0-0.2,0-0.4,0.1c-0.3,0.1-0.5,0.3-0.8,0.4c-8.5,4.2-34.7,14.3-58.5-8.2
		c-0.2-0.2-0.5-0.4-0.7-0.6c-0.2-0.1-0.4-0.2-0.7-0.2c-0.2,0-0.3,0-0.5,0.1c-0.4,0.1-0.6,0.3-0.8,0.6c-7.1,5.4-39.7,27.5-68.7,0.4
		l-0.4-0.4c-0.3-0.3-0.7-0.5-1.2-0.5c-0.4,0-0.9,0.2-1.1,0.5l-0.4,0.4c-29,27.1-61.6,5-68.7-0.4c-0.2-0.3-0.5-0.5-0.8-0.6
		c-0.2-0.1-0.3-0.1-0.5-0.1c-0.2,0-0.5,0-0.7,0.2c-0.2,0.2-0.5,0.4-0.7,0.6c-23.8,22.5-50,12.5-58.5,8.2c-0.3-0.1-0.6-0.3-0.8-0.4
		c-0.1,0-0.2-0.1-0.3-0.1c-0.9,0-1.6,0.7-1.6,1.6v11.4c0,0.5,0.2,0.9,0.5,1.1C141.7,286.4,167.8,264,173.8,258"/>
	<path class="st1" d="M454.6,119.7c-1.7,0-3.3-0.2-4.9-0.5c-1.6-0.3-2.9-0.9-4.1-1.7c-1.2-0.8-2.2-1.8-2.9-3.1
		c-0.7-1.3-1.1-2.9-1.1-4.7c0-3.7,1.2-6.6,3.5-8.5c2.4-1.9,5.2-2.9,8.6-2.9h14.4c0.9,0,1.3-0.4,1.3-1.3V86.6c0-0.9-0.4-1.3-1.3-1.3
		h-11c-1.5,0-3-0.2-4.4-0.5c-1.4-0.4-2.7-0.9-3.7-1.7c-1.1-0.8-1.9-1.9-2.5-3.1c-0.6-1.3-0.9-2.8-0.9-4.6c0-3.7,1-6.4,3-7.9
		c2-1.5,4.9-2.3,8.6-2.3h11.1c0.9,0,1.3-0.4,1.3-1.3V53.3c0-0.9-0.4-1.3-1.3-1.3h-13.2c-7.5,0-13.5,1.9-18.2,5.6
		c-4.6,3.7-6.9,9.3-6.9,16.6c0,2.9,0.6,5.8,1.9,8.9c1.3,3.1,3.4,5.7,6.3,7.7c-2.6,1.3-4.7,2.9-6.3,4.6c-1.6,1.7-2.9,3.5-3.7,5.4
		c-0.9,1.9-1.5,3.7-1.8,5.5c-0.3,1.8-0.5,3.4-0.5,4.9c0,3.8,0.7,7.1,2.1,9.8c1.4,2.7,3.3,4.9,5.7,6.7c2.4,1.7,5.2,3,8.3,3.8
		c3.2,0.8,6.5,1.2,10,1.2h21.5c0.9,0,1.3-0.4,1.3-1.3V121c0-0.9-0.4-1.3-1.3-1.3H454.6z M408.2,53.3c0-0.9-0.4-1.3-1.3-1.3h-12.3
		c-0.9,0-1.3,0.4-1.3,1.3v78.2c0,0.9,0.4,1.3,1.3,1.3h12.3c0.9,0,1.3-0.4,1.3-1.3V53.3z"/>
	<path class="st1" d="M344.4,106.6c0-0.3-0.2-0.5-0.5-0.5H339c-0.3,0-0.5,0.2-0.5,0.5v34.9c0,0.4,0.2,0.5,0.5,0.5h4.9
		c0.3,0,0.5-0.2,0.5-0.5V106.6z M325.4,142c2.2,0,3.8-0.5,4.7-1.6c0.9-1.1,1.4-2.8,1.4-5v-28.7c0-0.3-0.2-0.5-0.5-0.5h-4.9
		c-0.3,0-0.5,0.2-0.5,0.5v27.3c0,1.1-0.2,1.8-0.6,2.2c-0.4,0.4-1,0.6-1.9,0.6h-2.6c-0.7,0-1.3,0.2-1.6,0.6c-0.3,0.4-0.5,1.1-0.5,2.1
		c0,1,0.2,1.7,0.5,2.1c0.4,0.3,0.9,0.5,1.6,0.5H325.4z M294.1,131.1c0,0.2,0,0.5,0,0.8c0,1.8-0.4,3.1-1.1,3.8c-0.7,0.7-1.4,1-2.3,1
		h-2.1c-0.7,0-1.3,0.2-1.6,0.5c-0.3,0.4-0.5,1-0.5,2.1c0,1,0.2,1.6,0.5,2.1c0.3,0.4,0.9,0.6,1.6,0.6h1.8c0.5,0,1,0,1.6-0.1
		c0.6-0.1,1.1-0.2,1.6-0.4c0.5-0.2,1-0.5,1.5-0.8c0.5-0.4,0.9-0.8,1.3-1.4c1,1.1,2.1,1.9,3.5,2.4c1.4,0.5,3,0.7,4.8,0.7
		c1.8,0,3.4-0.2,4.8-0.7c1.4-0.5,2.6-1.3,3.6-2.5c0.5,0.7,1,1.2,1.6,1.6c0.6,0.4,1.2,0.7,1.9,0.9c0.6,0.2,1.3,0.3,2,0.3
		c0.7,0,1.3,0,1.9,0c0.7,0,1.3-0.2,1.6-0.6c0.3-0.4,0.5-1.1,0.5-2.1c0-0.9-0.2-1.6-0.5-2c-0.4-0.4-0.9-0.6-1.6-0.6h-1.5
		c-0.8,0-1.6-0.3-2.2-0.9c-0.6-0.6-1-1.7-1-3.1c0-0.3,0-0.6,0-0.9v-0.9c0-2.1-0.3-4-0.8-5.5c-0.5-1.5-1.3-2.7-2.3-3.6
		c-1-0.9-2.1-1.6-3.5-2c-1.3-0.4-2.8-0.6-4.3-0.6c-1.6,0-3,0.2-4.3,0.6c-1.3,0.4-2.4,1.1-3.4,1.9c-1,0.9-1.7,2.1-2.3,3.5
		c-0.5,1.4-0.8,3.2-0.9,5.2V131.1z M309.9,130.8c0,2.2-0.4,3.8-1.2,4.8c-0.8,1-2.1,1.5-3.8,1.5c-1.7,0-2.9-0.5-3.7-1.5
		c-0.8-1-1.2-2.6-1.2-4.8c0-2.1,0.4-3.6,1.2-4.7c0.8-1.1,2-1.6,3.7-1.6C308.3,124.4,309.9,126.5,309.9,130.8 M278.4,135.3
		c0,2.3,0.5,4,1.4,5c0.9,1.1,2.5,1.6,4.7,1.6h4.2c0.7,0,1.3-0.1,1.6-0.5c0.3-0.3,0.5-1,0.5-2.1c0-1-0.2-1.7-0.5-2.1
		c-0.4-0.4-0.9-0.6-1.6-0.6h-1.9c-0.9,0-1.5-0.2-1.9-0.6c-0.4-0.4-0.6-1.1-0.6-2.2v-27.3c0-0.3-0.2-0.5-0.5-0.5h-4.9
		c-0.3,0-0.5,0.2-0.5,0.5V135.3z M255.1,137.6c-0.4,0-0.5,0.2-0.5,0.6v3.2c0,0.4,0.2,0.6,0.5,0.6h18c0.3,0,0.5-0.2,0.5-0.6v-3.2
		c0-0.4-0.2-0.6-0.5-0.6h-8.9c-0.5-0.4-1-1-1.6-1.8c-0.5-0.8-0.8-1.8-0.8-2.8c0-1.2,0.3-2.3,1.1-3c0.7-0.8,1.7-1.2,3-1.2
		c0.8,0,1.5,0.2,2.2,0.5c0.7,0.3,1.3,0.8,1.8,1.3c0.2,0.2,0.5,0.2,0.8,0l2.2-2.2c0.1-0.1,0.1-0.2,0.2-0.3c0-0.1,0-0.3-0.2-0.5
		c-0.7-1-1.7-1.8-2.9-2.4c-1.3-0.6-2.6-0.9-4.2-0.9c-1.6,0-3,0.3-4.1,0.8c-1.1,0.5-2.1,1.2-2.8,2c-0.7,0.8-1.3,1.7-1.6,2.8
		c-0.3,1-0.5,2-0.5,3c0,1,0.1,1.8,0.3,2.6c0.2,0.8,0.5,1.5,0.9,2.1H255.1z"/>
	<path class="st1" d="M344.4,44.5c0-0.4-0.2-0.5-0.5-0.5H339c-0.3,0-0.5,0.2-0.5,0.5v34.9c0,0.3,0.2,0.5,0.5,0.5h4.9
		c0.3,0,0.5-0.2,0.5-0.5V44.5z M325.4,79.8c2.2,0,3.8-0.5,4.7-1.6c0.9-1.1,1.4-2.8,1.4-5V44.5c0-0.4-0.2-0.5-0.5-0.5h-4.9
		c-0.3,0-0.5,0.2-0.5,0.5v27.3c0,1.1-0.2,1.8-0.6,2.2c-0.4,0.4-1,0.6-1.9,0.6h-2.6c-0.7,0-1.3,0.2-1.6,0.6c-0.3,0.4-0.5,1.1-0.5,2.1
		c0,1,0.2,1.7,0.5,2.1c0.4,0.3,0.9,0.5,1.6,0.5H325.4z M293.6,62l2.7,2.9c0.2,0.2,0.5,0.2,0.7-0.1c0.7-0.8,1.6-1.4,2.5-1.8
		c0.9-0.5,2-0.7,3.2-0.7c1.2,0,2.2,0.2,3,0.6c0.8,0.4,1.4,1,1.9,1.7c0.5,0.7,0.8,1.5,1.1,2.5c0.2,0.9,0.3,2,0.3,3.1
		c0,0.8-0.1,1.6-0.2,2.1c-0.1,0.6-0.3,1-0.6,1.4c-0.3,0.4-0.8,0.6-1.3,0.7c-0.6,0.1-1.3,0.2-2.2,0.2h-14.1c-0.7,0-1.3,0.2-1.6,0.5
		c-0.3,0.4-0.5,1-0.5,2.1c0,1,0.2,1.6,0.5,2.1c0.4,0.4,0.9,0.6,1.6,0.6H307c1.7,0,3.1-0.2,4.3-0.7s2.1-1.3,2.8-2.5
		c0.6,1.3,1.5,2.2,2.6,2.6c1.1,0.4,2.4,0.6,3.9,0.6c0.7,0,1.3-0.2,1.6-0.6c0.3-0.4,0.5-1.1,0.5-2.1c0-0.9-0.2-1.6-0.5-2
		c-0.3-0.4-0.9-0.6-1.6-0.6h-0.9c-1.3,0-2.3-0.3-3.1-0.8c-0.8-0.5-1.2-1.3-1.3-2.2c0-0.2,0-0.4,0-0.6c0-0.2,0-0.4,0-0.7
		c0-1.8-0.2-3.5-0.6-5.1c-0.4-1.6-1.1-3-2-4.2c-0.9-1.2-2.2-2.2-3.8-2.9c-1.6-0.7-3.6-1.1-5.9-1.1c-2.2,0-4,0.4-5.5,1.2
		c-1.5,0.8-2.8,1.8-3.9,3.1C293.3,61.5,293.3,61.7,293.6,62 M287,79.3c1,0.3,2.2,0.5,3.6,0.5c0.7,0,1.3-0.2,1.6-0.6
		c0.3-0.4,0.5-1.1,0.5-2.1c0-0.9-0.2-1.6-0.5-2c-0.3-0.4-0.9-0.6-1.6-0.6h-0.9c-1.3,0-2.4-0.3-3.2-0.8c-0.8-0.6-1.2-1.4-1.2-2.4
		V58.4c0-0.3-0.2-0.5-0.5-0.5h-4.5c-0.2,0-0.4,0-0.6,0.1c-0.2,0.1-0.3,0.2-0.3,0.4v11c0,0.9,0,1.7,0,2.4c0,0.6-0.1,1.2-0.3,1.6
		c-0.2,0.4-0.4,0.7-0.7,0.9c-0.3,0.2-0.8,0.3-1.5,0.3h-3.4c-0.7,0-1.3,0.2-1.6,0.6c-0.3,0.4-0.5,1.1-0.5,2.2c0,1,0.2,1.7,0.5,2
		c0.4,0.3,0.9,0.5,1.6,0.5h4.9c1.7,0,3-0.2,4-0.6c1-0.4,1.7-1.1,2.2-2.1C285.2,78.3,286,79,287,79.3 M280.8,90
		c0.4,0,0.5-0.2,0.5-0.5v-4.6c0-0.4-0.2-0.5-0.5-0.5h-4.4c-0.4,0-0.5,0.2-0.5,0.5v4.6c0,0.4,0.2,0.5,0.5,0.5H280.8z M287.7,90
		c0.4,0,0.5-0.2,0.5-0.5v-4.6c0-0.4-0.2-0.5-0.5-0.5h-4.4c-0.4,0-0.5,0.2-0.5,0.5v4.6c0,0.4,0.2,0.5,0.5,0.5H287.7z M262.8,73.2
		c0,2.3,0.5,4,1.4,5c0.9,1.1,2.5,1.6,4.7,1.6h4.2c0.7,0,1.3-0.2,1.6-0.5c0.3-0.3,0.5-1,0.5-2.1c0-1-0.2-1.7-0.5-2.1
		c-0.4-0.4-0.9-0.6-1.6-0.6h-1.9c-0.9,0-1.5-0.2-1.9-0.6c-0.4-0.4-0.6-1.1-0.6-2.2V44.5c0-0.4-0.2-0.5-0.5-0.5h-4.9
		c-0.4,0-0.5,0.2-0.5,0.5V73.2z M244.7,52.6c0.4,0,0.5-0.2,0.5-0.5v-4.6c0-0.4-0.2-0.5-0.5-0.5h-4.4c-0.4,0-0.5,0.2-0.5,0.5v4.6
		c0,0.4,0.2,0.5,0.5,0.5H244.7z M251.6,52.6c0.3,0,0.5-0.2,0.5-0.5v-4.6c0-0.4-0.2-0.5-0.5-0.5h-4.4c-0.4,0-0.5,0.2-0.5,0.5v4.6
		c0,0.4,0.2,0.5,0.5,0.5H251.6z M250.8,68.6c0,2.2-0.4,3.8-1.2,4.8c-0.8,1-2,1.5-3.7,1.5c-1.7,0-2.9-0.5-3.8-1.5
		c-0.8-1-1.2-2.6-1.2-4.8c0-2.1,0.4-3.6,1.2-4.7c0.8-1.1,2.1-1.6,3.8-1.6C249.1,62.2,250.8,64.4,250.8,68.6 M250.2,79.6
		c1.3-0.4,2.5-1.1,3.5-2c1-0.9,1.7-2.1,2.2-3.5c0.5-1.4,0.8-3.2,0.8-5.3c0-2.1-0.3-4-0.8-5.5c-0.5-1.5-1.3-2.7-2.3-3.6
		c-1-0.9-2.1-1.6-3.5-2c-1.3-0.4-2.8-0.6-4.3-0.6c-1.6,0-3,0.2-4.3,0.6c-1.3,0.4-2.5,1.1-3.5,2c-1,0.9-1.7,2.1-2.3,3.6
		c-0.5,1.5-0.8,3.3-0.8,5.5c0,2.1,0.3,3.8,0.8,5.3c0.5,1.4,1.3,2.6,2.2,3.5c1,0.9,2.1,1.6,3.4,2c1.3,0.4,2.8,0.6,4.4,0.6
		C247.4,80.2,248.9,80,250.2,79.6 M210.2,79.8c2.2,0,3.8-0.5,4.7-1.6c0.9-1.1,1.4-2.8,1.4-5V58.4c0-0.4-0.2-0.5-0.5-0.5H211
		c-0.3,0-0.5,0.2-0.5,0.5v13.3c0,1.1-0.2,1.8-0.6,2.2c-0.4,0.4-1,0.6-1.9,0.6h-3.4c-0.7,0-1.3,0.2-1.6,0.6c-0.3,0.4-0.5,1.2-0.5,2.2
		c0,1,0.2,1.6,0.5,1.9c0.4,0.3,0.9,0.5,1.6,0.5H210.2z M212.2,52.6c0.4,0,0.5-0.2,0.5-0.5v-4.6c0-0.4-0.2-0.5-0.5-0.5h-4.4
		c-0.4,0-0.5,0.2-0.5,0.5v4.6c0,0.4,0.2,0.5,0.5,0.5H212.2z M219,52.6c0.3,0,0.5-0.2,0.5-0.5v-4.6c0-0.4-0.2-0.5-0.5-0.5h-4.4
		c-0.4,0-0.5,0.2-0.5,0.5v4.6c0,0.4,0.2,0.5,0.5,0.5H219z M177.5,62l2.7,2.9c0.2,0.2,0.5,0.2,0.7-0.1c0.7-0.8,1.6-1.4,2.5-1.8
		c1-0.5,2-0.7,3.2-0.7c1.2,0,2.2,0.2,3,0.6c0.8,0.4,1.4,1,1.9,1.7c0.5,0.7,0.8,1.5,1.1,2.5c0.2,0.9,0.3,2,0.3,3.1
		c0,0.8-0.1,1.6-0.2,2.1c-0.1,0.6-0.3,1-0.6,1.4c-0.3,0.4-0.8,0.6-1.3,0.7c-0.6,0.1-1.3,0.2-2.2,0.2h-14.1c-0.7,0-1.3,0.2-1.6,0.5
		c-0.3,0.4-0.5,1-0.5,2.1c0,1,0.2,1.6,0.5,2.1c0.4,0.4,0.9,0.6,1.6,0.6h16.3c1.7,0,3.1-0.2,4.3-0.7c1.2-0.4,2.1-1.3,2.8-2.5
		c0.6,1.3,1.4,2.2,2.6,2.6c1.1,0.4,2.4,0.6,3.9,0.6c0.7,0,1.3-0.2,1.6-0.6c0.3-0.4,0.5-1.1,0.5-2.1c0-0.9-0.2-1.6-0.5-2
		c-0.4-0.4-0.9-0.6-1.6-0.6h-0.9c-1.3,0-2.3-0.3-3.1-0.8c-0.8-0.5-1.2-1.3-1.3-2.2c0-0.2,0-0.4,0-0.6c0-0.2,0-0.4,0-0.7
		c0-1.8-0.2-3.5-0.6-5.1c-0.4-1.6-1.1-3-2-4.2c-1-1.2-2.2-2.2-3.8-2.9c-1.6-0.7-3.6-1.1-5.9-1.1c-2.2,0-4,0.4-5.5,1.2
		c-1.5,0.8-2.8,1.8-3.9,3.1C177.2,61.5,177.2,61.7,177.5,62 M169.6,58.4c0-0.3-0.2-0.5-0.5-0.5h-4.9c-0.4,0-0.5,0.2-0.5,0.5V70
		c0,0.8,0,1.6-0.1,2.2c-0.1,0.6-0.2,1.1-0.3,1.4c-0.2,0.3-0.4,0.6-0.8,0.8c-0.3,0.2-0.8,0.2-1.4,0.2h-21.9c-0.9,0-1.5-0.2-1.9-0.6
		c-0.4-0.4-0.6-1.1-0.6-2.2v-10c0-0.4-0.2-0.5-0.5-0.5h-4.9c-0.4,0-0.5,0.2-0.5,0.5v11.4c0,2.3,0.5,4,1.4,5.1c1,1.1,2.5,1.6,4.8,1.6
		h25.8c1.7,0,3-0.2,3.9-0.6c1-0.4,1.7-1.1,2.2-2.1c0.6,1.1,1.4,1.9,2.4,2.2c1,0.3,2.2,0.5,3.5,0.5c0.7,0,1.3-0.2,1.6-0.6
		c0.3-0.4,0.5-1.1,0.5-2.1c0-0.9-0.2-1.6-0.5-2c-0.4-0.4-0.9-0.6-1.6-0.6H174c-1.3,0-2.3-0.3-3.1-0.8c-0.8-0.5-1.2-1.3-1.3-2.3V58.4
		z M149.2,55.8c0.3,0,0.5-0.2,0.5-0.5v-4.6c0-0.4-0.2-0.5-0.5-0.5h-4.4c-0.4,0-0.5,0.2-0.5,0.5v4.6c0,0.4,0.2,0.5,0.5,0.5H149.2z
		 M156,55.8c0.4,0,0.5-0.2,0.5-0.5v-4.6c0-0.4-0.2-0.5-0.5-0.5h-4.4c-0.4,0-0.5,0.2-0.5,0.5v4.6c0,0.4,0.2,0.5,0.5,0.5H156z"/>
</g>
</svg>
