<?xml version="1.0" encoding="utf-8"?>
<!-- Generator: Adobe Illustrator 24.2.1, SVG Export Plug-In . SVG Version: 6.00 Build 0)  -->
<svg version="1.1" id="Layer_1" xmlns="http://www.w3.org/2000/svg" xmlns:xlink="http://www.w3.org/1999/xlink" x="0px" y="0px"
	 viewBox="0 0 500 500" style="enable-background:new 0 0 500 500;" xml:space="preserve">
<style type="text/css">
	.st0{fill:#EA1D2D;}
	.st1{fill:#FFFFFF;}
</style>
<rect class="st0" width="500" height="500"/>
<g>
	<path class="st1" d="M386.4,239.1c0-7.7,6.3-14,14-14s14,6.3,14,14s-6.3,14-14,14C392.7,253.1,386.4,246.8,386.4,239.1"/>
	<path class="st1" d="M416.7,258.5c9.5,0.9,16.9,8.8,16.9,18.6v4.6v2v32.1c0,3-2.4,5.4-5.4,5.4s-5.4-2.4-5.4-5.4v-33.3
		c0-1.2-0.4-2.9-2.6-2.9c-1.6,0-1.9,1.7-2,2.7v99.8c0,4.3-3.5,7.8-7.8,7.8s-7.8-3.5-7.8-7.8v-57.5c0-0.6-0.2-2.3-2.2-2.3l0,0
		c-2,0-2.2,1.6-2.2,2.3v57.5c0,4.3-3.5,7.8-7.8,7.8s-7.8-3.5-7.8-7.8v-99.8c-0.1-1.1-0.4-2.7-2-2.7c-2.3,0-2.6,1.7-2.6,2.9v33.3
		c0,3-2.4,5.4-5.4,5.4s-5.4-2.4-5.4-5.4v-32.1v-2v-4.6c0-9.7,7.4-17.7,16.9-18.6c0.3,0,0.7-0.1,1-0.1h15.3h15.3
		C416.1,258.4,416.4,258.4,416.7,258.5"/>
	<path class="st1" d="M303.3,246.4c0-7.3-5.9-13.2-13.2-13.2s-13.2,5.9-13.2,13.2s5.9,13.2,13.2,13.2S303.3,253.8,303.3,246.4"/>
	<path class="st1" d="M263.4,276.4l-11,35.8c0,0-2,6.6,3.6,8.2c5.5,1.6,7.2-4.8,7.2-4.8l8.9-29.9c0,0,0.5-2.3,2.2-1.8s1.1,3,1.1,3
		l-15.4,56h14.4V383c0,3.8,3.1,6.9,6.9,6.9s6.9-3.1,6.9-6.9v-40h2h1.9v40.1c0,3.8,3.1,6.9,6.9,6.9s6.9-3.1,6.9-6.9V343h14.4
		l-15.4-56c0,0-0.7-2.5,1.1-3c1.7-0.5,2.2,1.8,2.2,1.8l8.9,29.9c0,0,1.7,6.4,7.2,4.8c5.6-1.6,3.6-8.2,3.6-8.2l-11-35.8
		c0,0-3.9-10.4-12.6-10.4h-14h-14C267.3,266.1,263.4,276.4,263.4,276.4"/>
	<path class="st1" d="M224,246.4c0-7.3-5.9-13.2-13.2-13.2s-13.2,5.9-13.2,13.2s5.9,13.2,13.2,13.2C218.1,259.7,224,253.8,224,246.4
		"/>
	<path class="st1" d="M184.1,276.4l-11,35.8c0,0-2,6.6,3.6,8.2c5.5,1.6,7.2-4.8,7.2-4.8l8.9-29.9c0,0,0.5-2.3,2.2-1.8s1.1,3,1.1,3
		l-15.4,56H195V383c0,3.8,3.1,6.9,6.9,6.9c3.8,0,6.9-3.1,6.9-6.9v-40h2h1.9v40.1c0,3.8,3.1,6.9,6.9,6.9c3.8,0,6.9-3.1,6.9-6.9V343
		h14.4l-15.4-56c0,0-0.7-2.5,1.1-3c1.7-0.5,2.2,1.8,2.2,1.8l8.9,29.9c0,0,1.7,6.4,7.2,4.8c5.6-1.6,3.6-8.2,3.6-8.2l-11-35.8
		c0,0-3.9-10.4-12.6-10.4h-14h-14C188,266.1,184.1,276.4,184.1,276.4"/>
	<path class="st1" d="M347.7,320.5c6.1,0,11-4.9,11-11s-4.9-11-11-11s-11,4.9-11,11S341.7,320.5,347.7,320.5"/>
	<path class="st1" d="M321.3,354.8c-0.5,1.3-1,4,1.6,5.2c3,1.4,4.7-1.5,4.7-1.5l6-19.1c0,0,1-1.3,1,0v45l0,0c0,3.1,2.5,5.7,5.6,5.7
		s5.7-2.5,5.7-5.7v-17.7c0,0-0.3-2.5,1.7-2.5s1.7,2.5,1.7,2.5v17.7c0,3.1,2.5,5.7,5.7,5.7c3.1,0,5.7-2.5,5.7-5.7v-45
		c0-1.3,0.7-0.4,0.7-0.4l4.7,13.1c0,0,2,5.8,2.7,6.1c2.1,0.9,4.6-0.1,5.5-2.3c0.6-1.4,0.4-2.9-0.4-4l0,0c-0.1-0.4-7-17.3-7.8-19.7
		c-2.5-7.3-7-7.2-11.4-7.3c-4.4-0.1-7,0-7,0s-2.8-0.1-8.5,0.1s-7.6,3.1-13.9,19.4C324.4,346.7,321.3,354.3,321.3,354.8L321.3,354.8z
		"/>
	<path class="st1" d="M105.8,239.1c0-7.7-6.3-14-14-14s-14,6.3-14,14s6.2,14,14,14C99.5,253.1,105.8,246.8,105.8,239.1"/>
	<path class="st1" d="M75.4,258.5c-9.5,0.9-16.9,8.8-16.9,18.6v4.6v2v32.1c0,3,2.4,5.4,5.4,5.4s5.4-2.4,5.4-5.4v-33.3
		c0-1.2,0.4-2.9,2.6-2.9c1.6,0,1.9,1.7,2,2.7v99.8c0,4.3,3.5,7.8,7.8,7.8s7.8-3.5,7.8-7.8v-57.5c0-0.6,0.2-2.3,2.2-2.3l0,0
		c2,0,2.2,1.6,2.2,2.3v57.5c0,4.3,3.5,7.8,7.8,7.8s7.8-3.5,7.8-7.8v-99.8c0-1.1,0.4-2.7,2-2.7c2.3,0,2.6,1.7,2.6,2.9v33.3
		c0,3,2.4,5.4,5.4,5.4s5.4-2.4,5.4-5.4v-32.1v-2v-4.6c0-9.7-7.4-17.7-16.9-18.6c-0.3,0-0.6-0.1-1-0.1H91.8H76.5
		C76.1,258.4,75.8,258.4,75.4,258.5"/>
	<path class="st1" d="M50.8,390.2c-0.2,0-0.4,0-0.6-0.1c-1.6-0.3-2.7-1.9-2.4-3.5l12.4-65.8c0.3-1.6,1.9-2.7,3.5-2.4
		c1.6,0.3,2.7,1.9,2.4,3.5l-12.4,65.8C53.5,389.2,52.2,390.2,50.8,390.2"/>
	<path class="st1" d="M131.7,314.8c-0.7-1.1-2-1.9-3.4-1.9c-2.2,0-4,1.8-4,4c0,0.6,0.4,1.8,0.4,1.8l11.1,20.1c0,0,0.7,1.4,0.7,2.6
		v43.2l0,0c0,3,2.4,5.4,5.4,5.4s5.4-2.4,5.4-5.4v-17c0,0-0.3-2.4,1.6-2.4c1.9,0,1.6,2.4,1.6,2.4v17c0,3,2.4,5.4,5.4,5.4
		s5.4-2.4,5.4-5.4v-43.2c0-1.3,0.7-2.6,0.7-2.6l10.3-18.6c0,0,1.2-2.7,1.2-3.3c0-2.2-1.8-4-4-4c-1.4,0-2.7,0.7-3.4,1.9l0,0
		c-0.3,0.3-5.5,9.4-7.2,11.1c-1.8,1.8-3.4,1.6-3.4,1.6h-6.7h-6.7c0,0-1.6,0.2-3.4-1.6C137.1,324.2,132,315,131.7,314.8L131.7,314.8z
		"/>
	<path class="st1" d="M148.9,320.5c6.1,0,11-4.9,11-11s-4.9-11-11-11s-11,4.9-11,11S142.8,320.5,148.9,320.5"/>
</g>
<polygon class="st1" points="149,336 161.4,345.1 167.3,366.9 149,366.9 130.6,366.9 136.5,345.1 "/>
<g>
	<path class="st1" d="M465.3,45.6c0-0.9-0.4-1.3-1.3-1.3h-12.3c-0.9,0-1.3,0.4-1.3,1.3v78.2c0,0.9,0.4,1.3,1.3,1.3H464
		c0.9,0,1.3-0.4,1.3-1.3V45.6z"/>
	<path class="st1" d="M377.8,102c0-0.4-0.2-0.5-0.5-0.5h-4.9c-0.3,0-0.5,0.2-0.5,0.5v34.9c0,0.4,0.2,0.5,0.5,0.5h4.9
		c0.4,0,0.5-0.2,0.5-0.5V102z M358.8,137.4c2.2,0,3.8-0.5,4.7-1.6c0.9-1.1,1.4-2.7,1.4-5V102c0-0.4-0.2-0.5-0.5-0.5h-4.9
		c-0.3,0-0.5,0.2-0.5,0.5v27.3c0,1.1-0.2,1.8-0.6,2.2s-1,0.6-1.9,0.6h-2.6c-0.7,0-1.3,0.2-1.6,0.6c-0.3,0.4-0.5,1.1-0.5,2.1
		s0.2,1.7,0.5,2.1c0.4,0.3,0.9,0.5,1.6,0.5L358.8,137.4L358.8,137.4z M342.3,110.2c0.4,0,0.5-0.2,0.5-0.5v-4.6
		c0-0.4-0.2-0.5-0.5-0.5h-5.1c-0.4,0-0.5,0.2-0.5,0.5v4.6c0,0.4,0.2,0.5,0.5,0.5H342.3z M343.2,120.6c1,0.9,1.5,2.1,1.5,3.8
		c0,1.8-0.5,3.2-1.5,4.4c-1,1.1-2.2,2-3.5,2.6c-1.4-0.6-2.6-1.5-3.6-2.6c-1-1.1-1.5-2.6-1.5-4.4c0-1.7,0.5-3,1.5-3.8
		c1-0.9,2.2-1.3,3.6-1.3C341.1,119.3,342.2,119.7,343.2,120.6 M331.5,117.1c-1.9,1.7-2.9,4-2.9,6.8c0,1.7,0.4,3.3,1.2,4.7
		c0.8,1.4,1.8,2.6,3.1,3.5h-7.4c-0.7,0-1.3,0.2-1.6,0.5c-0.3,0.3-0.5,1-0.5,2.1c0,1,0.2,1.7,0.5,2.1s0.9,0.6,1.6,0.6h7
		c1,0,2.2-0.1,3.5-0.2c1.3-0.1,2.6-0.5,3.7-1.1c1,0.6,2.1,1,3.2,1.1s2.3,0.2,3.6,0.2h7.3c0.7,0,1.3-0.2,1.6-0.6
		c0.3-0.4,0.5-1.1,0.5-2.2c0-1-0.2-1.7-0.5-2c-0.4-0.3-0.9-0.5-1.6-0.5h-7.5c1.3-0.9,2.4-2.1,3.2-3.5c0.8-1.4,1.2-3,1.2-4.7
		c0-2.8-1-5.1-2.9-6.8c-1.9-1.7-4.6-2.6-8.2-2.6C336.1,114.6,333.4,115.4,331.5,117.1 M310.3,110.2c0.4,0,0.5-0.2,0.5-0.5v-4.6
		c0-0.4-0.2-0.5-0.5-0.5h-4.4c-0.3,0-0.5,0.2-0.5,0.5v4.6c0,0.4,0.2,0.5,0.5,0.5H310.3z M317.1,110.2c0.4,0,0.5-0.2,0.5-0.5v-4.6
		c0-0.4-0.2-0.5-0.5-0.5h-4.4c-0.4,0-0.5,0.2-0.5,0.5v4.6c0,0.4,0.2,0.5,0.5,0.5H317.1z M314.8,120.6c1,0.9,1.5,2.1,1.5,3.8
		c0,1.8-0.5,3.2-1.5,4.4c-1,1.1-2.2,2-3.5,2.6c-1.4-0.6-2.6-1.5-3.6-2.6c-1-1.1-1.5-2.6-1.5-4.4c0-1.7,0.5-3,1.5-3.8
		c1-0.9,2.2-1.3,3.6-1.3C312.7,119.3,313.8,119.7,314.8,120.6 M303,117.1c-1.9,1.7-2.9,4-2.9,6.8c0,1.7,0.4,3.3,1.2,4.7
		c0.8,1.4,1.8,2.6,3.1,3.5H297c-0.7,0-1.3,0.2-1.6,0.5c-0.3,0.3-0.5,1-0.5,2.1c0,1,0.2,1.7,0.5,2.1c0.3,0.4,0.9,0.6,1.6,0.6h7
		c1,0,2.2-0.1,3.5-0.2c1.3-0.1,2.6-0.5,3.7-1.1c1,0.6,2.1,1,3.2,1.1s2.3,0.2,3.6,0.2h7.3c0.7,0,1.3-0.2,1.6-0.6
		c0.3-0.4,0.5-1.1,0.5-2.2c0-1-0.2-1.7-0.5-2c-0.4-0.3-0.9-0.5-1.6-0.5H318c1.3-0.9,2.4-2.1,3.2-3.5c0.8-1.4,1.2-3,1.2-4.7
		c0-2.8-0.9-5.1-2.9-6.8c-1.9-1.7-4.6-2.6-8.2-2.6C307.7,114.6,304.9,115.4,303,117.1 M285.8,134.9c0,1.3,0,2.4-0.1,3.4
		c0,1-0.2,1.8-0.5,2.5s-0.7,1.2-1.2,1.6c-0.6,0.4-1.4,0.5-2.4,0.5h-1.2c-0.4,0-0.5,0.2-0.5,0.5v4.2c0,0.4,0.2,0.5,0.5,0.5h2
		c1.8,0,3.2-0.2,4.4-0.7c1.2-0.5,2.1-1.2,2.9-2.1c0.7-1,1.2-2.1,1.5-3.6c0.3-1.4,0.5-3.1,0.5-5v-1c0.6,0.7,1.3,1.2,2.2,1.4
		c0.9,0.2,1.9,0.3,3.1,0.3c0.7,0,1.3-0.2,1.6-0.6c0.3-0.4,0.5-1.1,0.5-2.1c0-0.9-0.2-1.6-0.5-2c-0.4-0.4-0.9-0.6-1.6-0.6h-0.9
		c-1.3,0-2.4-0.3-3.2-0.8c-0.8-0.6-1.2-1.4-1.2-2.4V116c0-0.3-0.2-0.5-0.5-0.5h-4.9c-0.3,0-0.5,0.2-0.5,0.5L285.8,134.9L285.8,134.9
		z"/>
	<path class="st1" d="M377.8,39.9c0-0.4-0.2-0.5-0.5-0.5h-4.9c-0.3,0-0.5,0.2-0.5,0.5v34.9c0,0.3,0.2,0.5,0.5,0.5h4.9
		c0.4,0,0.5-0.2,0.5-0.5V39.9z M358.8,75.3c2.2,0,3.8-0.5,4.7-1.6c0.9-1.1,1.4-2.7,1.4-5V39.9c0-0.4-0.2-0.5-0.5-0.5h-4.9
		c-0.3,0-0.5,0.2-0.5,0.5v27.3c0,1.1-0.2,1.8-0.6,2.2c-0.4,0.4-1,0.6-1.9,0.6h-2.6c-0.7,0-1.3,0.2-1.6,0.6c-0.3,0.4-0.5,1.1-0.5,2.1
		s0.2,1.7,0.5,2.1c0.4,0.3,0.9,0.5,1.6,0.5L358.8,75.3L358.8,75.3z M338.7,48.1c0.4,0,0.5-0.2,0.5-0.5V43c0-0.4-0.2-0.5-0.5-0.5
		h-4.4c-0.4,0-0.5,0.2-0.5,0.5v4.6c0,0.4,0.2,0.5,0.5,0.5H338.7z M345.6,48.1c0.4,0,0.5-0.2,0.5-0.5V43c0-0.4-0.2-0.5-0.5-0.5h-4.4
		c-0.4,0-0.5,0.2-0.5,0.5v4.6c0,0.4,0.2,0.5,0.5,0.5H345.6z M343.2,58.4c1,0.9,1.5,2.1,1.5,3.8c0,1.8-0.5,3.2-1.5,4.4
		c-1,1.1-2.2,2-3.5,2.6c-1.4-0.6-2.6-1.5-3.6-2.6s-1.5-2.6-1.5-4.4c0-1.7,0.5-3,1.5-3.8c1-0.9,2.2-1.3,3.6-1.3
		S342.3,57.6,343.2,58.4 M331.5,55c-1.9,1.7-2.9,4-2.9,6.8c0,1.7,0.4,3.3,1.2,4.7c0.8,1.4,1.8,2.6,3.1,3.5h-7.4
		c-0.7,0-1.3,0.2-1.6,0.5c-0.3,0.3-0.5,1-0.5,2.1c0,1,0.2,1.7,0.5,2.1c0.4,0.4,0.9,0.6,1.6,0.6h7c1,0,2.2-0.1,3.5-0.2
		s2.6-0.5,3.7-1.1c1,0.6,2.1,1,3.2,1.1s2.3,0.2,3.6,0.2h7.3c0.7,0,1.3-0.2,1.6-0.6c0.3-0.4,0.5-1.1,0.5-2.2c0-1-0.2-1.7-0.5-2
		s-0.9-0.5-1.6-0.5h-7.5c1.3-0.9,2.4-2.1,3.2-3.5c0.8-1.4,1.2-3,1.2-4.7c0-2.8-1-5.1-2.9-6.8s-4.6-2.6-8.2-2.6
		C336.1,52.4,333.4,53.3,331.5,55 M295.9,53.7c0-0.4-0.2-0.5-0.5-0.5h-4.9c-0.4,0-0.5,0.2-0.5,0.5v10.8c0,0.7,0,1.4-0.1,2.1
		c0,0.7-0.1,1.3-0.3,1.8c-0.2,0.5-0.4,0.9-0.8,1.2c-0.3,0.3-0.9,0.4-1.5,0.4h-2.4c-0.7,0-1.3,0.2-1.6,0.5c-0.3,0.4-0.5,1.1-0.5,2.2
		c0,1,0.2,1.7,0.5,2c0.4,0.3,0.9,0.5,1.6,0.5h4.4c0.9,0,1.7-0.1,2.4-0.2c0.7-0.1,1.3-0.4,1.9-0.7c0.4,0.2,0.8,0.4,1.3,0.5
		s1,0.2,1.6,0.3c0.6,0.1,1.1,0.1,1.7,0.1s1.2,0,1.7,0h10.4c2.3,0,4.2-0.2,5.6-0.6s2.5-1.3,3.2-2.7c0.6,1.3,1.4,2.2,2.6,2.7
		c1.1,0.4,2.5,0.7,4,0.7c0.7,0,1.3-0.2,1.6-0.6c0.3-0.4,0.5-1.1,0.5-2.1c0-0.9-0.2-1.6-0.5-2c-0.4-0.4-0.9-0.6-1.6-0.6h-0.9
		c-1.3,0-2.4-0.3-3.2-0.8c-0.8-0.6-1.2-1.4-1.2-2.4c0-0.2,0-0.5,0-0.8s0-0.6,0-1c0-1.9-0.2-3.6-0.7-5.2c-0.5-1.6-1.2-2.9-2.3-4
		c-1-1.1-2.4-1.9-4-2.5s-3.6-0.9-5.9-0.9c-2.1,0-4.2,0.3-6.2,0.9c-2,0.6-3.9,1.3-5.5,2.1L295.9,53.7L295.9,53.7z M310.4,58.2
		c1,0.3,1.7,0.8,2.3,1.4c0.6,0.6,1,1.3,1.2,2.2s0.3,1.9,0.3,3c0,1.3-0.1,2.3-0.3,3c-0.2,0.7-0.5,1.2-1,1.6c-0.5,0.3-1.2,0.5-2.2,0.6
		c-0.9,0.1-2.2,0.1-3.7,0.1h-11.5c0.1-0.3,0.1-0.7,0.2-1.1c0-0.4,0.1-0.8,0.1-1.2v-7.2c1.5-0.7,3.2-1.3,5.1-1.9
		c1.9-0.6,3.9-0.9,5.8-0.9C308.3,57.7,309.5,57.9,310.4,58.2 M309.7,48.1c0.4,0,0.5-0.2,0.5-0.5V43c0-0.4-0.2-0.5-0.5-0.5h-5.1
		c-0.4,0-0.5,0.2-0.5,0.5v4.6c0,0.4,0.2,0.5,0.5,0.5H309.7z M274.3,68.6c0,2.3,0.5,4,1.4,5c0.9,1.1,2.5,1.6,4.7,1.6h4.2
		c0.7,0,1.3-0.2,1.6-0.5c0.3-0.3,0.5-1,0.5-2.1c0-1-0.2-1.7-0.5-2.1c-0.4-0.4-0.9-0.6-1.6-0.6h-1.8c-0.9,0-1.5-0.2-1.9-0.6
		s-0.6-1.1-0.6-2.2V39.9c0-0.4-0.2-0.5-0.5-0.5h-4.9c-0.3,0-0.5,0.2-0.5,0.5v28.7H274.3z M251,70.9c-0.4,0-0.5,0.2-0.5,0.6v3.2
		c0,0.4,0.2,0.6,0.5,0.6h18c0.4,0,0.5-0.2,0.5-0.6v-3.2c0-0.4-0.2-0.6-0.5-0.6h-8.9c-0.5-0.4-1.1-1-1.6-1.8s-0.8-1.8-0.8-2.8
		c0-1.2,0.4-2.2,1.1-3c0.7-0.8,1.7-1.2,3-1.2c0.8,0,1.5,0.2,2.2,0.5s1.3,0.8,1.8,1.3c0.2,0.2,0.5,0.2,0.8,0l2.2-2.2
		c0.1-0.1,0.1-0.2,0.2-0.3c0-0.1,0-0.3-0.2-0.5c-0.7-1-1.7-1.8-2.9-2.4c-1.3-0.6-2.7-0.9-4.2-0.9c-1.6,0-3,0.3-4.1,0.8
		s-2.1,1.2-2.8,2s-1.3,1.7-1.6,2.8c-0.3,1-0.5,2-0.5,3s0.1,1.8,0.3,2.6c0.2,0.8,0.5,1.5,0.9,2.1L251,70.9L251,70.9z M209.6,70
		c-0.7,0-1.3,0.2-1.6,0.5c-0.3,0.4-0.5,1-0.5,2.1c0,1,0.2,1.6,0.5,2.1c0.3,0.4,0.9,0.6,1.6,0.6h24.6c0.3,0,0.5-0.2,0.5-0.5v-4.2
		c0-0.4-0.2-0.5-0.5-0.5h-11.5c-0.3-0.1-0.7-0.3-1.1-0.6c-0.5-0.3-0.9-0.7-1.4-1.2c-0.4-0.5-0.8-1.2-1.2-1.9
		c-0.3-0.8-0.5-1.7-0.5-2.7c0-1.8,0.5-3.2,1.5-4.3s2.4-1.6,4.1-1.6c2.2,0,4,0.8,5.6,2.5c0.2,0.3,0.5,0.3,0.7,0.1l2.9-3
		c0.3-0.2,0.3-0.5,0.2-0.7c-0.9-1.2-2.2-2.2-3.8-3s-3.6-1.2-5.9-1.2c-2.1,0-4,0.3-5.4,1c-1.5,0.7-2.6,1.5-3.5,2.6
		c-0.9,1-1.5,2.2-1.9,3.5s-0.6,2.5-0.6,3.8c0,1.5,0.2,2.9,0.7,3.9c0.5,1.1,1,2,1.7,2.8L209.6,70L209.6,70z M193.2,70
		c-0.7,0-1.3,0.2-1.6,0.6s-0.5,1-0.5,2c0,1.1,0.2,1.9,0.5,2.2c0.3,0.3,0.9,0.5,1.6,0.5h4.4c1.6,0,2.8-0.2,3.8-0.6
		c0.9-0.4,1.6-1.1,2.1-2.1c0.6,1.1,1.4,1.9,2.4,2.2c1,0.3,2.2,0.5,3.6,0.5c0.7,0,1.3-0.2,1.6-0.6s0.5-1.1,0.5-2.1
		c0-0.9-0.2-1.6-0.5-2c-0.4-0.4-0.9-0.6-1.6-0.6h-0.9c-1.3,0-2.4-0.3-3.2-0.8c-0.8-0.6-1.2-1.4-1.2-2.4V39.9c0-0.4-0.2-0.5-0.5-0.5
		h-4.9c-0.3,0-0.5,0.2-0.5,0.5v27.3c0,1.1-0.2,1.8-0.6,2.2c-0.4,0.4-1,0.6-1.9,0.6C195.8,70,193.2,70,193.2,70z M168.8,80.6
		c-1,0-2-0.1-3-0.3c-1-0.2-1.9-0.6-2.6-1.1c-0.8-0.5-1.4-1.2-1.9-2.1s-0.7-2-0.7-3.3c0-1.4,0.3-2.7,0.8-4s1.1-2.5,1.7-3.4
		c0.2-0.3,0.1-0.5-0.2-0.7l-4.2-2.2c-0.3-0.2-0.6-0.2-0.7,0.1c-0.5,0.6-0.9,1.4-1.3,2.2c-0.4,0.8-0.8,1.7-1.1,2.6s-0.6,1.9-0.8,2.9
		s-0.3,2-0.3,3c0,3.6,1.1,6.5,3.4,8.6c2.2,2.1,5.6,3.2,10.2,3.2h12c1.9,0,3.5-0.2,4.8-0.6s2.4-0.9,3.2-1.6s1.4-1.4,1.8-2.3
		c0.4-0.9,0.6-1.8,0.6-2.8c0-0.7-0.1-1.4-0.3-2s-0.4-1.1-0.6-1.3h3.6c0.7,0,1.3-0.2,1.6-0.6s0.5-1.2,0.5-2.2c0-0.9-0.2-1.6-0.5-1.9
		c-0.4-0.4-0.9-0.5-1.6-0.5H188c-1,0-2-0.1-2.9-0.3c-0.9-0.2-1.9-0.5-2.9-0.8s-2-0.7-3-1.2c-1-0.4-2.1-0.9-3.2-1.3
		c-0.3-0.1-0.5,0-0.6,0.4l-1.4,4.2c-0.1,0.3,0,0.5,0.3,0.6c1.8,0.7,3.4,1.3,4.7,1.7c1.3,0.5,2.4,0.9,3.3,1.4
		c0.9,0.4,1.5,0.9,1.9,1.4s0.6,1.1,0.6,1.7c0,0.8-0.4,1.5-1.2,2s-2.2,0.8-4.3,0.8h-10.5V80.6z"/>
</g>
</svg>
