<?xml version="1.0" encoding="utf-8"?>
<svg version="1.1" id="Layer_1" xmlns="http://www.w3.org/2000/svg" xmlns:xlink="http://www.w3.org/1999/xlink" x="0px" y="0px"
	 viewBox="0 0 500 500" style="enable-background:new 0 0 500 500;" xml:space="preserve">
<style type="text/css">
	.st1{fill:#FFFFFF;}
	.st13{fill:#E01A83;}
</style>
<g>
	<rect class="st13" width="500" height="500"/>
	<path class="st1" d="M301.6,330.3h-99.9c-0.6,0-1.1,0.5-1.1,1.1V354c0,0.6,0.5,1.1,1.1,1.1h99.9c0.6,0,1.1-0.5,1.1-1.1v-22.6
		C302.7,330.8,302.2,330.3,301.6,330.3"/>
	<path class="st1" d="M302.7,288.8c0-0.6-0.5-1.1-1.1-1.1h-82.9h-17.1c-0.6,0-1.1,0.5-1.1,1.1v8.9v13.7c0,0.6,0.5,1.1,1.1,1.1h99.9
		c0.6,0,1.1-0.5,1.1-1.1V288.8z"/>
	<path class="st1" d="M360.5,297.7c-4.1-16.5-11.6-31.2-21.4-43.7l-0.2,0.2c3.2,4.8,6.1,9.8,8.5,15.2c13,23.8,16.9,52.5,8.8,80.5
		c-16.4,56.3-75.3,88.6-131.6,72.2c-23.7-6.9-43.1-21.3-56.4-39.9c-8.3-10.7-14.7-23.3-18.1-37.3c-13.4-53.7,19.3-108.1,73.1-121.4
		c33.2-8.3,66.6,1.2,90.5,22.2c0.2,0.2,0.4,0.4,0.6,0.6c0.6,0.5,1.4,0.8,2.3,0.8c1,0,1.8-0.4,2.5-1l0.4-0.4l12.7-12.6l0.8-0.8
		c0.5-0.6,0.8-1.4,0.8-2.3c0-1-0.4-1.9-1-2.6c-0.1-0.1-0.3-0.2-0.4-0.4c-29.4-26.2-70.7-38-111.8-27.8
		c-66,16.4-106.2,83.2-89.7,149.2c6.9,27.7,22.6,50.7,43.4,67.1c20.7,17,47.1,26.6,74.8,26.3c8.9-0.1,17.9-1.2,26.9-3.4
		C338.1,422.9,376,359.9,360.5,297.7"/>
	<path class="st1" d="M455.8,97.5c1.5-1.5,2.2-2.9,2.2-4.3c0-1.3-0.8-2.7-2.2-4.1l-7.6-7.5c-1.5-1.5-2.9-2.1-4.1-1.8
		c-1.3,0.3-2.5,1.1-3.7,2.3l-6.8,6.9c-1.6,1.7-2.4,3.1-2.4,4.2c0,1.1,0.8,2.5,2.4,4.1l6.8,7.1c1.6,1.7,3,2.5,4.3,2.4
		c1.3-0.1,2.7-0.9,4.2-2.4L455.8,97.5z M406.4,41.5c0-0.9-0.4-1.3-1.3-1.3h-12.3c-0.9,0-1.3,0.4-1.3,1.3v78.2c0,0.9,0.4,1.3,1.3,1.3
		h12.3c0.9,0,1.3-0.4,1.3-1.3V41.5z"/>
	<path class="st1" d="M313.2,131.2c-0.7,0-1.2,0.2-1.5,0.5c-0.3,0.4-0.5,1-0.5,2.1c0,1,0.2,1.6,0.5,2.1c0.3,0.4,0.8,0.6,1.5,0.6
		h23.6c0.3,0,0.5-0.2,0.5-0.5v-4.2c0-0.4-0.2-0.5-0.5-0.5h-11c-0.3-0.1-0.6-0.3-1.1-0.6c-0.5-0.3-0.9-0.7-1.3-1.2
		c-0.4-0.5-0.8-1.2-1.1-1.9c-0.3-0.8-0.5-1.7-0.5-2.7c0-1.8,0.5-3.2,1.4-4.3c0.9-1.1,2.3-1.6,4-1.6c2.1,0,3.9,0.8,5.4,2.5
		c0.2,0.3,0.5,0.3,0.7,0.1l2.7-3c0.3-0.2,0.3-0.5,0.1-0.7c-0.9-1.2-2.1-2.2-3.7-3c-1.6-0.8-3.4-1.2-5.7-1.2c-2.1,0-3.8,0.3-5.2,1
		c-1.4,0.7-2.5,1.5-3.4,2.6c-0.9,1-1.5,2.2-1.9,3.5c-0.4,1.3-0.6,2.5-0.6,3.8c0,1.5,0.2,2.9,0.7,3.9c0.4,1.1,1,2,1.7,2.8H313.2z
		 M297.2,118.9c1.7,0,3,0.4,3.9,1.1c0.9,0.7,1.3,1.9,1.3,3.5v3.5c0,0.8,0,1.4-0.1,1.9c-0.1,0.5-0.3,1-0.6,1.3
		c-0.3,0.3-0.7,0.6-1.2,0.7c-0.5,0.1-1.3,0.2-2.2,0.2h-9.4c-0.3,0-0.5,0.2-0.5,0.5v4.2c0,0.4,0.2,0.5,0.5,0.5h11.4
		c1.7,0,3.1-0.2,4.2-0.6c1.1-0.4,1.9-1.2,2.6-2.4c0.6,1.2,1.4,2.1,2.4,2.5c1,0.4,2.3,0.6,3.7,0.6c0.7,0,1.2-0.2,1.5-0.6
		c0.3-0.4,0.5-1.1,0.5-2.1c0-0.9-0.2-1.6-0.5-2c-0.3-0.4-0.8-0.6-1.5-0.6h-0.9c-1.3,0-2.3-0.3-3-0.8c-0.7-0.6-1.1-1.4-1.1-2.4V123
		c0-3.3-0.8-5.7-2.5-7.2c-1.7-1.5-3.9-2.2-6.7-2.2h-7.7c-0.3,0-0.5,0.2-0.5,0.5v4.2c0,0.4,0.2,0.5,0.5,0.5H297.2z M277.6,125.2
		c0,2.2-0.4,3.8-1.2,4.8c-0.8,1-2,1.5-3.6,1.5c-1.6,0-2.8-0.5-3.6-1.5c-0.8-1-1.2-2.6-1.2-4.8c0-2.1,0.4-3.6,1.2-4.7
		c0.8-1.1,2-1.6,3.6-1.6C276,118.9,277.6,121,277.6,125.2 M277,136.2c1.3-0.4,2.4-1.1,3.3-2c0.9-0.9,1.6-2.1,2.1-3.5
		c0.5-1.4,0.8-3.2,0.8-5.3c0-2.1-0.3-4-0.8-5.5c-0.5-1.5-1.3-2.7-2.2-3.6c-0.9-0.9-2-1.6-3.3-2c-1.3-0.4-2.7-0.6-4.2-0.6
		c-1.5,0-2.9,0.2-4.2,0.6c-1.3,0.4-2.4,1.1-3.3,2c-0.9,0.9-1.7,2.1-2.2,3.6c-0.5,1.5-0.8,3.3-0.8,5.5c0,0.4,0,0.8,0,1.2
		c0,0.4,0,0.7,0.1,1.1c-0.1,0.7-0.3,1.2-0.6,1.6c-0.4,0.4-0.8,0.8-1.2,1.1c-0.5,0.3-0.9,0.7-1.5,1c-0.5,0.3-1,0.7-1.5,1.2
		c-0.5,0.5-0.8,1.1-1.1,1.9c-0.3,0.7-0.4,1.7-0.4,2.8v9.9h5.7v-8.8c0-0.8,0.1-1.4,0.4-1.9c0.2-0.4,0.5-0.8,0.9-1
		c0.3-0.3,0.7-0.5,1.1-0.7c0.4-0.2,0.7-0.6,1-1c0.9,1.1,2,1.9,3.3,2.4c1.3,0.5,2.8,0.7,4.4,0.7C274.3,136.8,275.7,136.6,277,136.2
		 M239.5,101.1c0-0.4-0.2-0.5-0.5-0.5h-4.7c-0.3,0-0.5,0.2-0.5,0.5v34.9c0,0.4,0.2,0.5,0.5,0.5h4.7c0.3,0,0.5-0.2,0.5-0.5V101.1z
		 M221.3,136.5c2.1,0,3.6-0.5,4.5-1.6c0.9-1.1,1.4-2.8,1.4-5v-28.7c0-0.4-0.2-0.5-0.5-0.5H222c-0.3,0-0.5,0.2-0.5,0.5v27.3
		c0,1.1-0.2,1.8-0.6,2.2c-0.4,0.4-1,0.6-1.9,0.6h-2.5c-0.7,0-1.2,0.2-1.5,0.6c-0.3,0.4-0.5,1.1-0.5,2.1c0,1,0.2,1.7,0.5,2.1
		c0.3,0.3,0.8,0.5,1.5,0.5H221.3z M191.3,125.6c0,0.2,0,0.5,0,0.8c0,1.8-0.4,3.1-1,3.8c-0.6,0.7-1.4,1-2.2,1h-2
		c-0.7,0-1.2,0.2-1.5,0.5c-0.3,0.4-0.5,1-0.5,2.1c0,1,0.2,1.6,0.5,2.1c0.3,0.4,0.8,0.6,1.5,0.6h1.8c0.5,0,1,0,1.5-0.1
		c0.5-0.1,1.1-0.2,1.6-0.4c0.5-0.2,1-0.5,1.5-0.8c0.5-0.4,0.9-0.8,1.2-1.4c0.9,1.1,2,1.9,3.4,2.4c1.4,0.5,2.9,0.7,4.6,0.7
		c1.7,0,3.3-0.2,4.6-0.7c1.4-0.5,2.5-1.3,3.4-2.5c0.4,0.7,0.9,1.2,1.5,1.6c0.6,0.4,1.2,0.7,1.8,0.9c0.6,0.2,1.3,0.3,1.9,0.3
		c0.6,0,1.2,0.1,1.8,0.1c0.7,0,1.2-0.2,1.5-0.6c0.3-0.4,0.5-1.1,0.5-2.1c0-0.9-0.2-1.6-0.5-2c-0.3-0.4-0.8-0.6-1.5-0.6h-1.5
		c-0.8,0-1.5-0.3-2.2-0.9c-0.6-0.6-1-1.7-1-3.1c0-0.3,0-0.6,0-0.9v-0.9c0-2.1-0.3-4-0.8-5.5c-0.5-1.5-1.3-2.7-2.2-3.6
		c-0.9-0.9-2-1.6-3.3-2c-1.3-0.4-2.7-0.6-4.2-0.6c-1.5,0-2.9,0.2-4.1,0.6c-1.3,0.4-2.3,1.1-3.3,1.9c-0.9,0.9-1.7,2.1-2.2,3.5
		c-0.5,1.4-0.8,3.2-0.8,5.2V125.6z M206.5,125.2c0,2.2-0.4,3.8-1.2,4.8c-0.8,1-2,1.5-3.6,1.5c-1.6,0-2.8-0.5-3.6-1.5
		c-0.8-1-1.2-2.6-1.2-4.8c0-2.1,0.4-3.6,1.2-4.7c0.8-1.1,2-1.6,3.6-1.6C204.9,118.9,206.5,121,206.5,125.2 M155.4,119.2
		c0-0.4-0.2-0.5-0.5-0.5h-4.7c-0.3,0-0.5,0.2-0.5,0.5v6.8c0,0.9,0,1.8,0,2.4c0,0.6-0.1,1.2-0.3,1.6s-0.4,0.7-0.7,0.9
		c-0.3,0.2-0.8,0.3-1.4,0.3h-4.1c-0.7,0-1.2,0.2-1.5,0.6c-0.3,0.4-0.5,1.2-0.5,2.2c0,0.6,0,1,0.1,1.3c0.1,0.3,0.3,0.6,0.5,0.7
		c0.2,0.2,0.5,0.3,0.8,0.3c0.3,0,0.6,0.1,1,0.1h5.5c1.5,0,2.7-0.2,3.6-0.6c0.9-0.4,1.6-1.2,2-2.2c0.9,1.9,2.5,2.8,4.9,2.8h2.2
		c1.5,0,2.7-0.2,3.6-0.6c0.9-0.4,1.6-1.1,2.1-2.2c0.4,0.9,1.1,1.6,1.9,2.1c0.8,0.5,1.8,0.7,3,0.7h2.2c1.5,0,2.7-0.2,3.6-0.6
		c0.9-0.4,1.6-1.1,2.1-2.1c0.6,1.1,1.3,1.9,2.3,2.2c1,0.3,2.1,0.5,3.4,0.5c0.7,0,1.2-0.2,1.5-0.6c0.3-0.4,0.5-1.1,0.5-2.1
		c0-0.9-0.2-1.6-0.5-2c-0.3-0.4-0.8-0.6-1.5-0.6h-0.9c-1.3,0-2.3-0.3-3.1-0.8c-0.8-0.6-1.1-1.4-1.1-2.4v-12.8c0-0.3-0.2-0.5-0.5-0.5
		h-4.7c-0.3,0-0.5,0.2-0.5,0.5v11c0,1.1,0,2-0.1,2.7c-0.1,0.7-0.2,1.2-0.5,1.6c-0.3,0.4-0.6,0.6-1.1,0.7c-0.5,0.1-1.1,0.2-1.9,0.2
		c-1.1,0-1.9-0.3-2.6-0.8c-0.6-0.5-1-1.3-1-2.4v-8.8c0-0.4-0.2-0.5-0.5-0.5h-4.7c-0.3,0-0.5,0.2-0.5,0.5v6.8c0,1.1,0,2-0.1,2.7
		c0,0.7-0.2,1.2-0.4,1.6c-0.2,0.4-0.6,0.6-1.1,0.8c-0.5,0.1-1.2,0.2-2,0.2c-1.2,0-2.1-0.3-2.7-0.8c-0.6-0.5-0.8-1.4-0.8-2.5V119.2z
		 M133.4,129.8c0,2.3,0.4,4,1.4,5c0.9,1.1,2.4,1.6,4.5,1.6h4c0.7,0,1.2-0.2,1.5-0.5c0.3-0.3,0.5-1,0.5-2.1c0-1-0.2-1.7-0.5-2.1
		c-0.3-0.4-0.8-0.6-1.5-0.6h-1.8c-0.8,0-1.5-0.2-1.9-0.6c-0.4-0.4-0.6-1.1-0.6-2.2v-27.3c0-0.4-0.2-0.5-0.5-0.5h-4.7
		c-0.3,0-0.5,0.2-0.5,0.5V129.8z M120.2,120.5c0.7,1.1,1.1,2.6,1.1,4.7v6h-4.5c-1.6,0-2.9-0.4-3.7-1.2c-0.9-0.8-1.3-2.3-1.3-4.5
		c0-2,0.4-3.6,1.3-4.8c0.8-1.2,2-1.8,3.6-1.8C118.2,118.9,119.4,119.4,120.2,120.5 M121.3,136.5c0,1.2-0.1,2.1-0.3,2.8
		c-0.2,0.7-0.5,1.3-0.9,1.6c-0.4,0.4-0.9,0.6-1.5,0.8c-0.6,0.1-1.2,0.2-1.9,0.2h-5.9c-0.3,0-0.5,0.2-0.5,0.5v4.2
		c0,0.4,0.2,0.5,0.5,0.5h6.8c3,0,5.4-0.8,7-2.3c1.6-1.5,2.4-3.9,2.4-7.2v-12.4c0-2.1-0.2-4-0.8-5.4c-0.5-1.5-1.2-2.7-2.1-3.6
		c-0.9-0.9-2-1.6-3.3-2c-1.3-0.4-2.7-0.6-4.2-0.6c-1.4,0-2.7,0.2-4,0.7c-1.3,0.4-2.4,1.1-3.3,2.1c-1,1-1.7,2.2-2.3,3.8
		c-0.6,1.5-0.8,3.4-0.8,5.5c0,2,0.2,3.7,0.7,5.1c0.5,1.4,1.1,2.5,2,3.4c0.8,0.9,1.9,1.5,3.1,1.8c1.2,0.4,2.6,0.6,4.2,0.6H121.3z
		 M100.3,101.1c0-0.4-0.2-0.5-0.5-0.5h-4.7c-0.3,0-0.5,0.2-0.5,0.5v34.9c0,0.4,0.2,0.5,0.5,0.5h4.7c0.3,0,0.5-0.2,0.5-0.5V101.1z
		 M77.2,109.3c0.3,0,0.5-0.2,0.5-0.5v-4.6c0-0.4-0.2-0.5-0.5-0.5H73c-0.3,0-0.5,0.2-0.5,0.5v4.6c0,0.4,0.2,0.5,0.5,0.5H77.2z
		 M83.8,109.3c0.3,0,0.5-0.2,0.5-0.5v-4.6c0-0.4-0.2-0.5-0.5-0.5h-4.3c-0.3,0-0.5,0.2-0.5,0.5v4.6c0,0.4,0.2,0.5,0.5,0.5H83.8z
		 M83.1,125.2c0,2.2-0.4,3.8-1.2,4.8c-0.8,1-2,1.5-3.6,1.5s-2.8-0.5-3.6-1.5c-0.8-1-1.2-2.6-1.2-4.8c0-2.1,0.4-3.6,1.2-4.7
		c0.8-1.1,2-1.6,3.6-1.6C81.5,118.9,83.1,121,83.1,125.2 M82.5,136.2c1.3-0.4,2.4-1.1,3.3-2s1.6-2.1,2.2-3.5
		c0.5-1.4,0.8-3.2,0.8-5.3c0-2.1-0.3-4-0.8-5.5c-0.5-1.5-1.2-2.7-2.2-3.6c-0.9-0.9-2-1.6-3.3-2c-1.3-0.4-2.7-0.6-4.2-0.6
		c-1.5,0-2.9,0.2-4.2,0.6c-1.3,0.4-2.4,1.1-3.3,2c-0.9,0.9-1.7,2.1-2.2,3.6c-0.5,1.5-0.8,3.3-0.8,5.5c0,2.1,0.3,3.8,0.8,5.3
		c0.5,1.4,1.2,2.6,2.1,3.5c0.9,0.9,2,1.6,3.3,2c1.3,0.4,2.7,0.6,4.3,0.6C79.8,136.8,81.2,136.6,82.5,136.2"/>
	<path class="st1" d="M336.1,38.9c0-0.3-0.2-0.5-0.5-0.5h-4.7c-0.3,0-0.5,0.2-0.5,0.5v34.9c0,0.4,0.2,0.5,0.5,0.5h4.7
		c0.3,0,0.5-0.2,0.5-0.5V38.9z M317.9,74.3c2.1,0,3.6-0.5,4.5-1.6c0.9-1.1,1.4-2.8,1.4-5V38.9c0-0.3-0.2-0.5-0.5-0.5h-4.7
		c-0.3,0-0.5,0.2-0.5,0.5v27.3c0,1.1-0.2,1.8-0.6,2.2c-0.4,0.4-1,0.6-1.8,0.6h-2.5c-0.7,0-1.2,0.2-1.5,0.6c-0.3,0.4-0.5,1.1-0.5,2.1
		c0,1,0.2,1.7,0.5,2.1c0.3,0.3,0.8,0.5,1.5,0.5H317.9z M287.3,56.5l2.6,2.9c0.2,0.2,0.5,0.2,0.7-0.1c0.7-0.8,1.5-1.4,2.4-1.9
		c0.9-0.5,1.9-0.7,3-0.7c1.1,0,2.1,0.2,2.9,0.6c0.8,0.4,1.4,1,1.9,1.7c0.5,0.7,0.8,1.5,1,2.5c0.2,0.9,0.3,2,0.3,3.1
		c0,0.8,0,1.6-0.1,2.1c-0.1,0.6-0.3,1-0.6,1.4c-0.3,0.4-0.7,0.6-1.3,0.7S298.9,69,298,69h-13.5c-0.7,0-1.2,0.2-1.5,0.5
		c-0.3,0.4-0.5,1-0.5,2.1c0,1,0.2,1.6,0.5,2.1c0.3,0.4,0.8,0.6,1.5,0.6h15.7c1.6,0,3-0.2,4.1-0.7c1.1-0.4,2-1.3,2.7-2.5
		c0.6,1.3,1.4,2.2,2.5,2.6c1.1,0.4,2.3,0.6,3.7,0.6c0.7,0,1.2-0.2,1.5-0.6c0.3-0.4,0.5-1.1,0.5-2.1c0-0.9-0.2-1.6-0.5-2
		c-0.3-0.4-0.8-0.6-1.5-0.6h-0.9c-1.3,0-2.2-0.3-3-0.8c-0.7-0.5-1.1-1.3-1.2-2.2c0-0.2,0-0.4,0-0.6c0-0.2,0-0.4,0-0.7
		c0-1.8-0.2-3.5-0.6-5.1c-0.4-1.6-1-3-2-4.2c-0.9-1.2-2.1-2.2-3.7-2.9c-1.5-0.7-3.4-1.1-5.7-1.1c-2.1,0-3.9,0.4-5.3,1.2
		c-1.5,0.8-2.7,1.8-3.8,3.1C287,55.9,287,56.2,287.3,56.5 M268.6,56.7c1.7,0,3,0.4,3.9,1.1c0.9,0.7,1.3,1.9,1.3,3.5v3.5
		c0,0.8,0,1.4-0.1,1.9c-0.1,0.5-0.3,1-0.6,1.3c-0.3,0.3-0.7,0.6-1.2,0.7c-0.5,0.1-1.3,0.2-2.2,0.2h-9.4c-0.3,0-0.5,0.2-0.5,0.5v4.2
		c0,0.4,0.2,0.5,0.5,0.5h11.4c1.7,0,3.1-0.2,4.2-0.6c1.1-0.4,1.9-1.2,2.6-2.4c0.6,1.2,1.4,2.1,2.4,2.5c1,0.4,2.3,0.6,3.7,0.6
		c0.7,0,1.2-0.2,1.5-0.6c0.3-0.4,0.5-1.1,0.5-2.1c0-0.9-0.2-1.6-0.5-2c-0.3-0.4-0.8-0.6-1.5-0.6h-0.9c-1.3,0-2.3-0.3-3-0.8
		c-0.7-0.6-1.1-1.4-1.1-2.4v-4.9c0-3.3-0.8-5.7-2.5-7.2c-1.7-1.5-3.9-2.2-6.7-2.2h-7.7c-0.3,0-0.5,0.2-0.5,0.5v4.2
		c0,0.4,0.2,0.5,0.5,0.5H268.6z M262.4,35.8c0,1.2,0.3,2.3,0.9,3.1c0.6,0.8,1.5,1.2,2.8,1.2c1.2,0,2.1-0.4,2.7-1.2
		c0.6,0.8,1.6,1.2,2.8,1.2c1.2,0,2.1-0.4,2.8-1.2c0.6-0.8,1-1.8,1-3.1v-3.8c0-0.4-0.2-0.5-0.5-0.5h-1c-0.3,0-0.5,0.2-0.5,0.5V36
		c0,1.4-0.6,2.1-1.7,2.1c-1.2,0-1.7-0.6-1.7-1.9v-4.1c0-0.4-0.2-0.5-0.5-0.5h-1c-0.3,0-0.5,0.2-0.5,0.5v4.1c0,1.3-0.6,1.9-1.7,1.9
		s-1.7-0.7-1.7-2.1v-3.9c0-0.4-0.2-0.5-0.5-0.5h-1c-0.3,0-0.5,0.2-0.5,0.5V35.8z M237,63.1c0,2.2-0.4,3.8-1.2,4.8
		c-0.8,1-2,1.5-3.6,1.5c-1.6,0-2.8-0.5-3.6-1.5c-0.8-1-1.2-2.6-1.2-4.8c0-2.1,0.4-3.6,1.2-4.7c0.8-1.1,2-1.6,3.6-1.6
		C235.4,56.7,237,58.9,237,63.1 M236.4,74.1c1.3-0.4,2.4-1.1,3.3-2c0.9-0.9,1.6-2.1,2.1-3.5c0.5-1.4,0.8-3.2,0.8-5.3
		c0-2.1-0.3-4-0.8-5.5c-0.5-1.5-1.3-2.7-2.2-3.6c-0.9-0.9-2-1.6-3.3-2c-1.3-0.4-2.7-0.6-4.2-0.6c-1.5,0-2.9,0.2-4.1,0.6
		c-1.3,0.4-2.3,1.1-3.3,1.9c-0.9,0.9-1.7,2.1-2.2,3.5c-0.5,1.4-0.8,3.2-0.8,5.2v0.8c0,0.2,0,0.5,0,0.8c0,0.9-0.1,1.7-0.3,2.3
		c-0.2,0.6-0.5,1.1-0.8,1.5c-0.3,0.4-0.6,0.6-1,0.8c-0.4,0.2-0.7,0.2-1.1,0.2h-2c-0.7,0-1.2,0.2-1.5,0.5c-0.3,0.4-0.5,1-0.5,2.1
		c0,1,0.2,1.6,0.5,2.1c0.3,0.4,0.8,0.6,1.5,0.6h1.8c0.5,0,1,0,1.5-0.1c0.5-0.1,1.1-0.2,1.6-0.4c0.5-0.2,1-0.5,1.5-0.8
		c0.5-0.4,0.9-0.8,1.2-1.4c0.9,1.1,2,1.9,3.4,2.4c1.4,0.5,2.9,0.7,4.6,0.7C233.7,74.7,235.2,74.5,236.4,74.1 M206.1,73
		c0,2.4-0.6,4.1-1.8,5.2c-1.2,1.1-2.8,1.6-4.7,1.6c-0.8,0-1.6-0.1-2.4-0.3c-0.8-0.2-1.5-0.6-2.2-1.2c-0.7-0.6-1.2-1.3-1.6-2.2
		c-0.4-0.9-0.6-2.1-0.6-3.5c0-1.6,0.2-3,0.7-4.4c0.5-1.3,1-2.5,1.5-3.5c0.1-0.1,0.1-0.3,0.1-0.4c0-0.1-0.1-0.2-0.3-0.3l-4.1-1.7
		c-0.3-0.2-0.6-0.2-0.8,0.1c-0.8,1.4-1.6,3-2.1,4.9c-0.6,1.9-0.9,3.8-0.9,5.7c0,2,0.3,3.8,0.9,5.3c0.6,1.5,1.5,2.8,2.6,3.8
		c1.1,1,2.4,1.8,3.9,2.2c1.5,0.5,3.1,0.7,4.9,0.7c1.9,0,3.5-0.2,5.1-0.7c1.5-0.5,2.8-1.2,3.9-2.2c1.1-1,1.9-2.3,2.5-3.8
		c0.6-1.5,0.9-3.3,0.9-5.3v-0.6c0.6,0.7,1.3,1.2,2.1,1.4c0.8,0.2,1.7,0.3,2.7,0.3c0.7,0,1.2-0.2,1.5-0.6c0.3-0.4,0.5-1.1,0.5-2.1
		c0-0.9-0.2-1.6-0.5-2c-0.3-0.4-0.8-0.6-1.5-0.6H216c-1.3,0-2.3-0.3-3.1-0.8c-0.8-0.6-1.1-1.4-1.1-2.4v-8.4c0-0.3-0.2-0.5-0.5-0.5
		h-4.7c-0.3,0-0.5,0.2-0.5,0.5V73z M203.3,54.2c0.3,0,0.5-0.2,0.5-0.5v-4.6c0-0.4-0.2-0.5-0.5-0.5h-4.9c-0.3,0-0.5,0.2-0.5,0.5v4.6
		c0,0.4,0.2,0.5,0.5,0.5H203.3z M161.1,33.1c-0.2,0-0.3,0.1-0.3,0.4v2c0,0.2,0.1,0.4,0.3,0.4h10.8c0.2,0,0.3-0.1,0.3-0.4v-2
		c0-0.2-0.1-0.4-0.3-0.4h-5.1c-0.4-0.2-0.7-0.6-1.1-1.1c-0.4-0.5-0.5-1.1-0.5-1.8c0-0.8,0.2-1.4,0.7-1.9c0.4-0.5,1-0.8,1.8-0.8
		c0.5,0,0.9,0.1,1.3,0.3c0.4,0.2,0.8,0.5,1.1,0.9c0.1,0.1,0.3,0.1,0.5,0l1.3-1.3c0.1-0.1,0.1-0.3,0-0.5c-0.4-0.6-1-1.1-1.8-1.5
		c-0.7-0.4-1.6-0.6-2.5-0.6c-1,0-1.8,0.2-2.5,0.5c-0.7,0.3-1.2,0.8-1.7,1.3c-0.4,0.5-0.7,1.1-0.9,1.7c-0.2,0.6-0.3,1.2-0.3,1.8
		c0,0.6,0.1,1.2,0.2,1.7c0.2,0.5,0.3,1,0.6,1.3H161.1z M169.5,38.9c0-0.3-0.2-0.5-0.5-0.5h-4.7c-0.3,0-0.5,0.2-0.5,0.5v34.9
		c0,0.4,0.2,0.5,0.5,0.5h4.7c0.3,0,0.5-0.2,0.5-0.5V38.9z M150.6,58.3c0.7,1.1,1.1,2.6,1.1,4.7v6h-4.5c-1.6,0-2.9-0.4-3.7-1.2
		c-0.9-0.8-1.3-2.3-1.3-4.5c0-2,0.4-3.6,1.3-4.8c0.8-1.2,2-1.8,3.6-1.8C148.7,56.7,149.9,57.3,150.6,58.3 M151.7,74.3
		c0,1.2-0.1,2.1-0.3,2.8c-0.2,0.7-0.5,1.2-0.9,1.6c-0.4,0.4-0.9,0.6-1.5,0.8c-0.6,0.1-1.2,0.2-1.9,0.2h-5.9c-0.3,0-0.5,0.2-0.5,0.5
		v4.2c0,0.4,0.2,0.5,0.5,0.5h6.8c3,0,5.4-0.8,7-2.3c1.6-1.5,2.4-3.9,2.4-7.2V63.1c0-2.1-0.3-4-0.8-5.4c-0.5-1.5-1.2-2.7-2.1-3.6
		c-0.9-0.9-2-1.6-3.3-2c-1.3-0.4-2.7-0.6-4.2-0.6c-1.4,0-2.7,0.2-4,0.7c-1.3,0.4-2.4,1.1-3.3,2.1c-1,1-1.7,2.2-2.3,3.8
		c-0.6,1.5-0.8,3.4-0.8,5.5c0,2,0.2,3.7,0.7,5.1c0.5,1.4,1.1,2.5,1.9,3.4c0.8,0.9,1.9,1.5,3.1,1.8c1.2,0.4,2.6,0.6,4.2,0.6H151.7z
		 M122.8,84.4c0.3,0,0.5-0.2,0.5-0.5v-4.6c0-0.4-0.2-0.5-0.5-0.5h-4.9c-0.3,0-0.5,0.2-0.5,0.5v4.6c0,0.4,0.2,0.5,0.5,0.5H122.8z
		 M123.5,74.3c1.3,0,2.5-0.1,3.5-0.4c1-0.3,1.8-0.8,2.5-1.5c0.7-0.7,1.2-1.7,1.5-2.9c0.3-1.2,0.5-2.8,0.5-4.7c0-1.8-0.2-3.5-0.6-5.1
		c-0.4-1.6-1-3-2-4.2c-0.9-1.2-2.1-2.2-3.7-2.9c-1.5-0.7-3.4-1.1-5.7-1.1c-2.1,0-3.9,0.4-5.3,1.2c-1.5,0.8-2.7,1.8-3.8,3.1
		c-0.2,0.2-0.2,0.5,0.1,0.7l2.6,2.9c0.2,0.2,0.5,0.2,0.7-0.1c0.7-0.8,1.5-1.4,2.4-1.9c0.9-0.5,1.9-0.7,3-0.7c1.1,0,2.1,0.2,2.9,0.6
		c0.8,0.4,1.4,0.9,1.8,1.6c0.5,0.7,0.8,1.5,1,2.5c0.2,1,0.3,2,0.3,3.1c0,0.8-0.1,1.6-0.2,2.1c-0.1,0.6-0.3,1-0.6,1.4
		c-0.3,0.4-0.7,0.6-1.3,0.7c-0.5,0.1-1.3,0.2-2.1,0.2h-13.5c-0.7,0-1.2,0.2-1.5,0.5c-0.3,0.4-0.5,1-0.5,2.1c0,1,0.2,1.6,0.5,2.1
		c0.3,0.4,0.8,0.6,1.5,0.6H123.5z M89.7,65.7c-0.8-0.8-1.2-2-1.2-3.6c0-2.1,0.4-3.5,1.3-4.3c0.9-0.8,2-1.2,3.5-1.2h4.5v4.5
		c0,1.9-0.4,3.3-1.2,4.2c-0.8,1-2,1.4-3.6,1.4C91.6,66.9,90.5,66.5,89.7,65.7 M92.7,51.4c-1.3,0-2.5,0.2-3.7,0.5
		c-1.2,0.4-2.2,0.9-3.2,1.8c-0.9,0.8-1.7,1.9-2.2,3.3c-0.6,1.4-0.8,3.1-0.8,5.1c0,1.8,0.3,3.3,0.8,4.5c0.5,1.3,1.2,2.3,2.1,3.1
		c0.9,0.8,1.9,1.4,3,1.8c1.2,0.4,2.4,0.6,3.7,0.6c1.1,0,2.1-0.2,3.1-0.5c1-0.3,1.8-0.8,2.5-1.5c0.3,1.5,0.9,2.6,1.9,3.2
		c0.9,0.6,2.2,0.9,3.9,0.9h4.1c0.7,0,1.2-0.2,1.5-0.5c0.3-0.3,0.5-1,0.5-2.1c0-1.8-0.7-2.7-2-2.7h-1.9c-0.8,0-1.5-0.2-1.9-0.6
		c-0.4-0.4-0.6-1.1-0.6-2.2V49.2c0-0.3-0.2-0.5-0.5-0.5h-4.7c-0.3,0-0.5,0.2-0.5,0.5v2.3H92.7z"/>
</g>
</svg>
