<?xml version="1.0" encoding="utf-8"?>
<svg version="1.1" id="Layer_1" xmlns="http://www.w3.org/2000/svg" xmlns:xlink="http://www.w3.org/1999/xlink" x="0px" y="0px"
	 viewBox="0 0 500 500" style="enable-background:new 0 0 500 500;" xml:space="preserve">
<style type="text/css">
	.st1{fill:#FFFFFF;}
	.st17{fill:Transparent;}
</style>
<rect class="st17" width="500" height="500"/>
<g>
	<path class="st1" d="M332.3,221.8c0,0-4.9,6.5-3.5,12.8c1.4,6.3,8.6,10.1,8.6,10.1s4.9-6.5,3.5-12.8
		C339.5,225.6,332.3,221.8,332.3,221.8"/>
	<path class="st1" d="M324.3,258.8c0,0,4.9-6.5,3.5-12.8c-1.4-6.3-8.6-10.1-8.6-10.1s-4.9,6.5-3.5,12.8
		C317.1,255,324.3,258.8,324.3,258.8"/>
	<path class="st1" d="M344.4,251.9c0,0,5.1,5.2,11,4.7c5.9-0.5,10.2-6.5,10.2-6.5s-5.1-5.2-11-4.7
		C348.7,245.8,344.4,251.9,344.4,251.9"/>
	<path class="st1" d="M352.8,224.1c-4.8,4.8-4.1,13.4-4.1,13.4s8.4,0.7,13.2-4.1c4.8-4.8,4.1-13.4,4.1-13.4S357.6,219.3,352.8,224.1
		"/>
	<path class="st1" d="M342.3,271.1c5.8,0.7,11.3-4.3,11.3-4.3s-4-6.1-9.8-6.8c-5.9-0.7-11.3,4.3-11.3,4.3S336.4,270.4,342.3,271.1"
		/>
	<path class="st1" d="M347.5,365h-43.7c-3.4,0-6.2,2.8-6.2,6.2c0,3.4,2.8,6.2,6.2,6.2h43.7c3.4,0,6.2-2.8,6.2-6.2
		C353.7,367.8,350.9,365,347.5,365"/>
	<path class="st1" d="M347.5,433.2h-43.7c-3.4,0-6.2,2.8-6.2,6.2c0,3.4,2.8,6.2,6.2,6.2h43.7c3.4,0,6.2-2.8,6.2-6.2
		C353.7,435.9,350.9,433.2,347.5,433.2"/>
	<path class="st1" d="M151.1,350c-1-0.3-2-0.6-3-0.8C148,349.3,149.2,349.6,151.1,350"/>
	<path class="st1" d="M221.9,376.8c2.9,0.1,5.8,0,8.7-0.2v22.8l-8.7-0.2V376.8z M345.9,381.7h-40.5c-1.9,0-3.5,1.6-3.5,3.5v12.2
		l-26.4,2.9l-38.6-0.9v-23.6c5.1-0.7,10.3-1.7,15.4-3.1c37.2-10.5,45.3-33.6,44.4-54.9c-0.8-21.7,6.1-30.1,16.1-33.8
		c2.9-1.1,5.7-1.7,8.3-2.2c0.1,5.3,1.2,11.5,3.6,18.9c0.9-0.1,1.8-0.1,2.6-0.2c-2.5-7.5-3.6-13.7-3.6-19c5.1-0.6,8.8-0.3,8.8-0.3
		s-3.5-1.9-8.4-6c1.7-10.3,7.8-16.5,14.1-23c3.5-3.5,7-7.2,9.8-11.6l-2.2-1.4c-2.7,4.1-6.2,7.7-9.5,11.2
		c-6.1,6.3-12.3,12.7-14.4,22.9c-2-1.8-4.1-3.9-6.4-6.4c-9.2-10.3-21-2.7-37.8,12.9c-16.8,15.7-38,16.2-58.7-5
		c-27.3-27.9-51.1-27.8-67.4-26.2c11.2,4.7,15.1,15.2,20.7,41.7c5.9,27.8,20.8,40.4,41.3,42.1c-9.5,1.5-11.9,2.8-27.1,13.4
		c-11.9,8.2-28.6,5.6-35.4,4.1c12.4,3.9,27.2,16.9,40.4,21.5c7.7,2.6,15.8,4.3,24.1,4.9V399l-73.2-1.6v15.7l133.2-3l26.4,2.9v12.2
		c0,1.9,1.6,3.5,3.5,3.5h40.5c1.9,0,3.5-1.6,3.5-3.5v-40.1C349.4,383.3,347.8,381.7,345.9,381.7"/>
	<path class="st1" d="M138.5,410.6c0,3.3-2.3,6-5.2,6h-3.1c-2.8,0-5.2-2.7-5.2-6v-10.9c0-3.3,2.3-6,5.2-6h3.1c2.9,0,5.2,2.7,5.2,6
		V410.6z"/>
</g>
<polygon class="st1" points="37.5,59.4 37.5,77.1 37.6,77.1 49.6,64.7 49.7,64.7 49.7,142.3 66.8,142.3 66.8,41 53.2,41 "/>
<g>
	<path class="st1" d="M109.5,119.4c0,6.4-2.4,10.2-8.2,10.2c-5.7,0-7.9-3.9-7.9-10.2v-18.5c0.3-5.7,2.7-9.3,8.1-9.3
		c5.8,0,8.1,3.6,8.1,10.2V119.4z M126.4,117.9V103c0-16.6-6.6-24.9-18.8-24.9c-7.2,0-11.5,3.3-14,8.2h-0.1V64.4
		c0-6.1,1.9-10.5,8.1-10.5c6.1,0,7.9,3.6,7.9,9.9v6.7h15.5v-5.4c0-14.9-4.9-25.4-23.8-25.4c-17.9,0-24.6,11.5-24.6,27.3v49.3
		c0,15.7,6.9,27,24.8,27C119.4,143.5,126.4,133.6,126.4,117.9"/>
	<path class="st1" d="M164.7,46.3V63h2.6c2.4,0,3.5-1.2,3.5-3.5v-9.7c0-2.3-1.1-3.4-3.5-3.4H164.7z M157.6,40.5h10.6
		c7.2,0,9.8,3.6,9.8,9.5v8.9c0,5.9-2.6,9.6-9.8,9.6h-3.4v14.4h-7.1V40.5z"/>
</g>
<polygon class="st1" points="181.6,40.5 198.6,40.5 198.6,46.3 188.7,46.3 188.7,58.5 195.8,58.5 195.8,64.2 188.7,64.2 188.7,77.1 
	198.6,77.1 198.6,82.9 181.6,82.9 "/>
<path class="st1" d="M210.2,69.4h5.7l-2.8-17H213L210.2,69.4z M201.3,82.9l8-42.3h8.1l8.1,42.3h-7.3l-1.3-7.7h-7.6l-1.2,7.7H201.3z"
	/>
<g>
	<path class="st1" d="M227.4,71.9V51.5c0-6.6,3.1-11.4,10.6-11.4c7.9,0,10.1,4.4,10.1,10.6v5h-6.5v-5.6c0-2.6-0.9-4.1-3.4-4.1
		c-2.6,0-3.6,1.8-3.6,4.4v22.7c0,2.6,1.1,4.4,3.6,4.4c2.6,0,3.4-1.6,3.4-4.1v-7.8h6.5v7.3c0,6-2.5,10.5-10.1,10.5
		C230.6,83.4,227.4,78.5,227.4,71.9"/>
</g>
<polygon class="st1" points="252,40.5 269,40.5 269,46.3 259.1,46.3 259.1,58.5 266.2,58.5 266.2,64.2 259.1,64.2 259.1,77.1 
	269,77.1 269,82.9 252,82.9 "/>
<polygon class="st1" points="273.3,76.1 272.5,86.2 276.4,86.2 280.1,76.6 280.1,76.1 "/>
<g>
	<path class="st1" d="M309.6,40.5v32.7c0,6.1-2.7,10.1-9.8,10.1c-7.4,0-9.4-4.1-9.4-9.4v-8.4h6.7v8.6c0,2.1,0.7,3.4,2.6,3.4
		c1.9,0,2.7-1.2,2.7-3.4V40.5H309.6z"/>
	<path class="st1" d="M334.3,40.5v32c0,6.5-2.8,10.8-10.1,10.8c-7.5,0-10.6-4.3-10.6-10.8v-32h7.1v32.7c0,2.5,1,4.2,3.5,4.2
		c2.5,0,3.5-1.7,3.5-4.2V40.5H334.3z"/>
	<path class="st1" d="M337.9,73.8v-5.7h6.6v5.8c0,2.4,1.1,3.8,3.5,3.8c2.2,0,3.2-1.5,3.2-3.8v-1.6c0-2.4-1-3.9-3.2-6l-4.2-4.2
		c-4.1-4-5.9-6.4-5.9-11.3v-1.4c0-5.2,3.1-9.3,10-9.3c7.1,0,9.9,3.5,9.9,9.6v3.4h-6.5v-3.7c0-2.4-1.1-3.6-3.4-3.6
		c-2,0-3.4,1.1-3.4,3.5v0.9c0,2.4,1.3,3.7,3.4,5.7l4.6,4.5c3.9,3.9,5.7,6.3,5.7,11v2.1c0,5.8-3.1,9.9-10.4,9.9
		S337.9,79.3,337.9,73.8"/>
</g>
<polygon class="st1" points="360.3,40.5 379.3,40.5 379.3,46.3 373.4,46.3 373.4,82.9 366.2,82.9 366.2,46.3 360.3,46.3 "/>
<rect x="382.6" y="40.5" class="st1" width="7.1" height="42.3"/>
<g>
	<path class="st1" d="M393.8,71.9V51.5c0-6.6,3.1-11.4,10.6-11.4c7.9,0,10.1,4.4,10.1,10.6v5H408v-5.6c0-2.6-0.9-4.1-3.4-4.1
		c-2.6,0-3.6,1.8-3.6,4.4v22.7c0,2.6,1.1,4.4,3.6,4.4c2.6,0,3.4-1.6,3.4-4.1v-7.8h6.5v7.3c0,6-2.5,10.5-10.1,10.5
		C396.9,83.4,393.8,78.5,393.8,71.9"/>
</g>
<polygon class="st1" points="418.3,40.5 435.3,40.5 435.3,46.3 425.5,46.3 425.5,58.5 432.5,58.5 432.5,64.2 425.5,64.2 425.5,77.1 
	435.3,77.1 435.3,82.9 418.3,82.9 "/>
<path class="st1" d="M165.4,128.8h5.7l-2.8-17h-0.1L165.4,128.8z M156.5,142.2l8-42.3h8.1l8.1,42.3h-7.3l-1.3-7.7h-7.6l-1.2,7.7
	H156.5z"/>
<polygon class="st1" points="189.6,115.6 189.6,142.2 183.6,142.2 183.6,99.8 190.6,99.8 198.2,124.1 198.2,99.8 204.2,99.8 
	204.2,142.2 197.9,142.2 "/>
<g>
	<path class="st1" d="M218.3,136.4c2.9,0,4.1-1.7,4.1-4.3v-22.2c0-2.5-1.1-4.2-4.1-4.2h-3v30.7H218.3z M229.5,111.2v19.6
		c0,6.5-2.7,11.4-10.3,11.4h-11V99.8h11C226.8,99.8,229.5,104.6,229.5,111.2"/>
	<path class="st1" d="M243.9,133.1v-5.7h6.6v5.8c0,2.4,1.1,3.8,3.5,3.8c2.2,0,3.2-1.5,3.2-3.8v-1.6c0-2.4-1-3.9-3.2-6l-4.2-4.2
		c-4.1-4-5.9-6.4-5.9-11.3v-1.4c0-5.3,3.1-9.3,10-9.3c7.1,0,9.9,3.5,9.9,9.6v3.4h-6.5v-3.7c0-2.4-1.1-3.6-3.4-3.6
		c-2,0-3.4,1.1-3.4,3.5v0.9c0,2.4,1.3,3.7,3.4,5.7l4.6,4.5c3.9,3.9,5.7,6.3,5.7,11v2.1c0,5.8-3.1,9.9-10.4,9.9
		S243.9,138.6,243.9,133.1"/>
</g>
<polygon class="st1" points="266.3,99.8 285.2,99.8 285.2,105.6 279.4,105.6 279.4,142.2 272.2,142.2 272.2,105.6 266.3,105.6 "/>
<g>
	<path class="st1" d="M295.6,105.7v13.2h2.4c2.4,0,3.5-1.2,3.5-3.5v-6.2c0-2.3-1.1-3.4-3.5-3.4H295.6z M295.6,122.8v19.4h-7.1V99.8
		h10.4c7.2,0,9.8,3.6,9.8,9.5v5.4c0,4.6-1.6,7.2-5.7,8.2l6.8,19.2h-7.5L295.6,122.8z"/>
	<path class="st1" d="M327,132.4v-22.7c0-2.6-1.1-4.4-3.7-4.4c-2.5,0-3.6,1.8-3.6,4.4v22.7c0,2.6,1.1,4.4,3.6,4.4
		C325.9,136.7,327,134.9,327,132.4 M312.6,131.2v-20.5c0-6.6,3.2-11.4,10.7-11.4c7.6,0,10.8,4.8,10.8,11.4v20.5
		c0,6.6-3.2,11.4-10.8,11.4C315.8,142.7,312.6,137.8,312.6,131.2"/>
</g>
<polygon class="st1" points="344.2,115.6 344.2,142.2 338.2,142.2 338.2,99.8 345.2,99.8 352.8,124.1 352.8,99.8 358.8,99.8 
	358.8,142.2 352.5,142.2 "/>
<g>
	<path class="st1" d="M373.6,119.6h10.1v22.6h-5.1v-4.6c-0.9,3.2-2.9,5.1-6.8,5.1c-6.1,0-8.9-4.9-8.9-11.4v-20.5
		c0-6.6,3.2-11.4,10.7-11.4c7.9,0,10.2,4.4,10.2,10.6v3.7h-6.5v-4.3c0-2.6-1-4.1-3.6-4.1c-2.6,0-3.7,1.8-3.7,4.4v22.7
		c0,2.6,1.1,4.4,3.5,4.4c2.3,0,3.5-1.3,3.5-4.1v-7.5h-3.4V119.6z"/>
</g>
<rect x="157.6" y="159.1" class="st1" width="7.1" height="42.3"/>
<polygon class="st1" points="174.8,174.9 174.8,201.5 168.8,201.5 168.8,159.1 175.8,159.1 183.5,183.4 183.5,159.1 189.4,159.1 
	189.4,201.5 183.2,201.5 "/>
<g>
	<path class="st1" d="M193.1,192.4v-5.7h6.6v5.8c0,2.4,1.1,3.7,3.5,3.7c2.2,0,3.2-1.5,3.2-3.7v-1.6c0-2.4-1-3.9-3.2-6l-4.2-4.2
		c-4.1-4-5.9-6.4-5.9-11.3V168c0-5.2,3.1-9.3,10-9.3c7.1,0,9.9,3.5,9.9,9.6v3.4h-6.5V168c0-2.4-1.1-3.6-3.4-3.6
		c-2,0-3.4,1.1-3.4,3.5v0.9c0,2.4,1.3,3.7,3.4,5.7l4.6,4.5c3.9,3.9,5.7,6.3,5.7,11v2.1c0,5.8-3.1,9.9-10.4,9.9
		S193.1,197.9,193.1,192.4"/>
</g>
<polygon class="st1" points="215.5,159.1 234.4,159.1 234.4,165 228.6,165 228.6,201.5 221.4,201.5 221.4,165 215.5,165 "/>
<rect x="237.7" y="159.1" class="st1" width="7.1" height="42.3"/>
<polygon class="st1" points="248.2,159.1 267.1,159.1 267.1,165 261.2,165 261.2,201.5 254,201.5 254,165 248.2,165 "/>
<g>
	<path class="st1" d="M291.1,159.1v32c0,6.6-2.8,10.8-10.1,10.8c-7.5,0-10.6-4.2-10.6-10.8v-32h7.1v32.7c0,2.5,1,4.2,3.5,4.2
		c2.5,0,3.5-1.7,3.5-4.2v-32.7H291.1z"/>
</g>
<polygon class="st1" points="294.3,159.1 313.2,159.1 313.2,165 307.4,165 307.4,201.5 300.2,201.5 300.2,165 294.3,165 "/>
<rect x="316.5" y="159.1" class="st1" width="7.1" height="42.3"/>
<g>
	<path class="st1" d="M342.2,191.7V169c0-2.6-1.1-4.4-3.7-4.4c-2.5,0-3.6,1.8-3.6,4.4v22.7c0,2.6,1.1,4.4,3.6,4.4
		C341.1,196,342.2,194.2,342.2,191.7 M327.8,190.6v-20.5c0-6.6,3.2-11.4,10.7-11.4c7.6,0,10.8,4.8,10.8,11.4v20.5
		c0,6.6-3.2,11.4-10.8,11.4C331,202,327.8,197.1,327.8,190.6"/>
</g>
<polygon class="st1" points="359.3,174.9 359.3,201.5 353.4,201.5 353.4,159.1 360.3,159.1 368,183.4 368,159.1 374,159.1 
	374,201.5 367.7,201.5 "/>
<g>
	<path class="st1" d="M377.6,192.4v-5.7h6.6v5.8c0,2.4,1.1,3.7,3.5,3.7c2.2,0,3.2-1.5,3.2-3.7v-1.6c0-2.4-1-3.9-3.2-6l-4.2-4.2
		c-4.1-4-5.9-6.4-5.9-11.3V168c0-5.2,3.1-9.3,10-9.3c7.1,0,9.9,3.5,9.9,9.6v3.4h-6.5V168c0-2.4-1.1-3.6-3.4-3.6
		c-2,0-3.4,1.1-3.4,3.5v0.9c0,2.4,1.3,3.7,3.4,5.7l4.6,4.5c3.9,3.9,5.7,6.3,5.7,11v2.1c0,5.8-3.1,9.9-10.4,9.9
		C380.4,202,377.6,197.9,377.6,192.4"/>
</g>
</svg>
