<?xml version="1.0" encoding="utf-8"?>
<svg version="1.1" id="Layer_1" xmlns="http://www.w3.org/2000/svg" xmlns:xlink="http://www.w3.org/1999/xlink" x="0px" y="0px"
	 viewBox="0 0 500 500" style="enable-background:new 0 0 500 500;" xml:space="preserve">
<style type="text/css">
	.st1{fill:#FFFFFF;}
	.st12{fill:Transparent;}
</style>
<rect class="st12" width="500" height="500"/>
<g>
	<path class="st1" d="M85.3,381.3H86h74.8c1,0,1.9-0.8,1.9-1.9c0-0.5-0.2-0.9-0.5-1.2l-0.1-0.1l-37.6-48.6l-0.4-0.4
		c-0.3-0.4-0.8-0.6-1.4-0.6c-0.5,0-0.9,0.2-1.2,0.5l-0.2,0.3l-0.4,0.4l-36.7,48.1l-0.6,0.7c-0.2,0.3-0.3,0.7-0.3,1
		C83.4,380.4,84.2,381.3,85.3,381.3"/>
	<path class="st1" d="M160.6,388.1H84.9c-1,0-1.9,0.8-1.9,1.9v59.2c0,1,0.8,1.9,1.9,1.9h24.4v-37.3c0-1,0.8-1.9,1.8-1.9h22.6
		c1,0,1.9,0.8,1.9,1.9v37.3h25c1,0,1.9-0.8,1.9-1.9V390C162.4,388.9,161.6,388.1,160.6,388.1"/>
	<path class="st1" d="M415.5,396.9c0,1-0.8,1.8-1.8,1.8h-22.4c-1,0-1.8-0.8-1.8-1.8v-13.6c0-1,0.8-1.8,1.8-1.8h22.4
		c1,0,1.8,0.8,1.8,1.8V396.9z M415.5,422c0,1-0.8,1.8-1.8,1.8h-22.4c-1,0-1.8-0.8-1.8-1.8v-13.6c0-1,0.8-1.8,1.8-1.8h22.4
		c1,0,1.8,0.8,1.8,1.8V422z M381.2,396.9c0,1-0.8,1.8-1.8,1.8H357c-1,0-1.8-0.8-1.8-1.8v-13.6c0-1,0.8-1.8,1.8-1.8h22.4
		c1,0,1.8,0.8,1.8,1.8V396.9z M381.2,422c0,1-0.8,1.8-1.8,1.8H357c-1,0-1.8-0.8-1.8-1.8v-13.6c0-1,0.8-1.8,1.8-1.8h22.4
		c1,0,1.8,0.8,1.8,1.8V422z M422.2,372.6h-74.9c-1,0-1.8,0.8-1.8,1.8V450c0,1,0.8,1.8,1.8,1.8h74.9c1,0,1.8-0.8,1.8-1.8v-75.7
		C424.1,373.4,423.3,372.6,422.2,372.6"/>
	<path class="st1" d="M237.4,250.8c0,0.5-0.4,1-1,1h-16.8c-0.5,0-1-0.4-1-1V232c0-0.5,0.4-1,1-1h16.8c0.5,0,1,0.4,1,1V250.8z
		 M237.4,293.7c0,0.5-0.4,1-1,1h-16.8c-0.5,0-1-0.4-1-1V275c0-0.5,0.4-0.9,1-0.9h16.8c0.5,0,1,0.4,1,0.9V293.7z M237.4,336.7
		c0,0.5-0.4,1-1,1h-16.8c-0.5,0-1-0.4-1-1V318c0-0.5,0.4-1,1-1h16.8c0.5,0,1,0.4,1,1V336.7z M237.4,379.6c0,0.5-0.4,1-1,1h-16.8
		c-0.5,0-1-0.4-1-1v-18.7c0-0.5,0.4-1,1-1h16.8c0.5,0,1,0.4,1,1V379.6z M237.4,422.6c0,0.5-0.4,1-1,1h-16.8c-0.5,0-1-0.4-1-1v-18.7
		c0-0.5,0.4-1,1-1h16.8c0.5,0,1,0.4,1,1V422.6z M204.4,250.8c0,0.5-0.4,1-1,1h-16.8c-0.5,0-1-0.4-1-1V232c0-0.5,0.4-1,1-1h16.8
		c0.5,0,1,0.4,1,1V250.8z M204.4,293.7c0,0.5-0.4,1-1,1h-16.8c-0.5,0-1-0.4-1-1V275c0-0.5,0.4-0.9,1-0.9h16.8c0.5,0,1,0.4,1,0.9
		V293.7z M204.4,336.7c0,0.5-0.4,1-1,1h-16.8c-0.5,0-1-0.4-1-1V318c0-0.5,0.4-1,1-1h16.8c0.5,0,1,0.4,1,1V336.7z M204.4,379.6
		c0,0.5-0.4,1-1,1h-16.8c-0.5,0-1-0.4-1-1v-18.7c0-0.5,0.4-1,1-1h16.8c0.5,0,1,0.4,1,1V379.6z M204.4,422.6c0,0.5-0.4,1-1,1h-16.8
		c-0.5,0-1-0.4-1-1v-18.7c0-0.5,0.4-1,1-1h16.8c0.5,0,1,0.4,1,1V422.6z M248.1,197h-73.3c-1,0-1.8,0.8-1.8,1.8v250.6
		c0,1,0.8,1.8,1.8,1.8h73.3c1,0,1.8-0.8,1.8-1.8V198.8C249.9,197.8,249,197,248.1,197"/>
	<path class="st1" d="M424,365c0,0.8-0.7,1.5-1.5,1.5h-75.4c-0.8,0-1.5-0.7-1.5-1.5v-15.1c0-0.8,0.7-1.5,1.5-1.5h75.4
		c0.8,0,1.5,0.7,1.5,1.5V365z"/>
	<path class="st1" d="M328.3,320.9c0,1-0.8,1.8-1.8,1.8h-21.8c-1,0-1.8-0.8-1.8-1.8v-13.7c0-1,0.8-1.8,1.8-1.8h21.8
		c1,0,1.8,0.8,1.8,1.8V320.9z M328.3,346.2c0,1-0.8,1.8-1.8,1.8h-21.8c-1,0-1.8-0.8-1.8-1.8v-13.7c0-1,0.8-1.8,1.8-1.8h21.8
		c1,0,1.8,0.8,1.8,1.8V346.2z M328.3,371.4c0,1-0.8,1.8-1.8,1.8h-21.8c-1,0-1.8-0.8-1.8-1.8v-13.7c0-1,0.8-1.8,1.8-1.8h21.8
		c1,0,1.8,0.8,1.8,1.8V371.4z M328.3,396.7c0,1-0.8,1.8-1.8,1.8h-21.8c-1,0-1.8-0.8-1.8-1.8V383c0-1,0.8-1.8,1.8-1.8h21.8
		c1,0,1.8,0.8,1.8,1.8V396.7z M328.3,422c0,1-0.8,1.8-1.8,1.8h-21.8c-1,0-1.8-0.8-1.8-1.8v-13.7c0-1,0.8-1.8,1.8-1.8h21.8
		c1,0,1.8,0.8,1.8,1.8V422z M295,316v0.7v29.5c0,1-0.8,1.8-1.8,1.8h-21.8c-1,0-1.8-0.8-1.8-1.8v-3.6v-0.2c0-0.2,0.1-0.5,0.1-0.7
		c0-0.1,0-0.1,0.1-0.2c0-0.1,0.1-0.2,0.2-0.2c0.1-0.1,0.1-0.2,0.2-0.3c2.8-4,15.4-19.5,20.7-26l0.5-0.6c0.4-0.5,1-0.8,1.6-0.8
		c1,0,1.8,0.7,2,1.7V316z M294.9,371.4c0,1-0.8,1.8-1.8,1.8h-21.9c-1,0-1.8-0.8-1.8-1.8v-13.7c0-1,0.8-1.8,1.8-1.8h21.9
		c1,0,1.8,0.8,1.8,1.8V371.4z M294.9,396.7c0,1-0.8,1.8-1.8,1.8h-21.9c-1,0-1.8-0.8-1.8-1.8V383c0-1,0.8-1.8,1.8-1.8h21.9
		c1,0,1.8,0.8,1.8,1.8V396.7z M294.9,422c0,1-0.8,1.8-1.8,1.8h-21.9c-1,0-1.8-0.8-1.8-1.8v-13.7c0-1,0.8-1.8,1.8-1.8h21.9
		c1,0,1.8,0.8,1.8,1.8V422z M306.3,294l0.5-0.7c4.9-6.3,13.2-16.6,17.3-21.5l0.5-0.6c0.4-0.5,1-0.8,1.6-0.8c1,0,1.8,0.7,2,1.7v0.8
		v0.7v21.7c0,1.1-0.9,2-2,2.1c0,0-0.1,0-0.1,0c0,0-0.1,0-0.1,0h-17.1h-0.9c0,0-0.1,0-0.1,0c0,0-0.1,0-0.1,0c-1.1-0.1-2-0.9-2-2.1
		C305.9,294.7,306,294.3,306.3,294 M336.6,244.3c-0.2-0.8-1-1.4-1.8-1.4c-0.4,0-0.7,0.1-1,0.3c0,0-0.1,0.1-0.1,0.1l-0.6,0.8
		l-72.1,91.4l-0.3,0.4c-0.4,0.4-0.6,0.9-0.6,1.4v0.1v112.2c0,1,0.8,1.8,1.8,1.8H335c1,0,1.8-0.8,1.8-1.8V245.1
		C336.8,244.8,336.7,244.5,336.6,244.3"/>
</g>
<polygon class="st1" points="34.8,59.3 34.8,77.1 35,77.1 46.9,64.7 47.1,64.7 47.1,142.2 64.1,142.2 64.1,40.9 50.5,40.9 "/>
<polygon class="st1" points="73.7,59.3 73.7,77.1 73.8,77.1 85.8,64.7 85.9,64.7 85.9,142.2 103,142.2 103,40.9 89.4,40.9 "/>
<g>
	<path class="st1" d="M133.9,74.3v-5.7h6.6v5.8c0,2.4,1.1,3.8,3.5,3.8c2.2,0,3.2-1.5,3.2-3.8v-1.6c0-2.4-1-3.9-3.2-6l-4.2-4.2
		c-4.1-4-5.9-6.4-5.9-11.3v-1.4c0-5.2,3.1-9.3,10-9.3c7.1,0,9.9,3.5,9.9,9.6v3.4h-6.5v-3.7c0-2.4-1.1-3.6-3.4-3.6
		c-2,0-3.4,1.1-3.4,3.5v0.9c0,2.4,1.3,3.7,3.4,5.7l4.6,4.5c3.9,3.9,5.7,6.3,5.7,11v2.1c0,5.8-3.1,9.9-10.4,9.9
		C136.7,83.9,133.9,79.8,133.9,74.3"/>
	<path class="st1" d="M178,41v32c0,6.6-2.8,10.8-10.1,10.8c-7.5,0-10.6-4.2-10.6-10.8V41h7.1v32.7c0,2.5,1,4.2,3.5,4.2
		c2.5,0,3.5-1.7,3.5-4.2V41H178z"/>
	<path class="st1" d="M181,74.3v-5.7h6.6v5.8c0,2.4,1.1,3.8,3.5,3.8c2.2,0,3.2-1.5,3.2-3.8v-1.6c0-2.4-1-3.9-3.2-6l-4.2-4.2
		c-4.1-4-5.9-6.4-5.9-11.3v-1.4c0-5.2,3.1-9.3,10-9.3c7.1,0,9.9,3.5,9.9,9.6v3.4h-6.5v-3.7c0-2.4-1.1-3.6-3.4-3.6
		c-2,0-3.4,1.1-3.4,3.5v0.9c0,2.4,1.3,3.7,3.4,5.7l4.6,4.5c3.9,3.9,5.7,6.3,5.7,11v2.1c0,5.8-3.1,9.9-10.4,9.9
		C183.8,83.9,181,79.8,181,74.3"/>
</g>
<polygon class="st1" points="202.7,41 221.7,41 221.7,46.9 215.8,46.9 215.8,83.4 208.6,83.4 208.6,46.9 202.7,46.9 "/>
<path class="st1" d="M229,70h5.7l-2.8-17h-0.1L229,70z M220,83.4l8-42.3h8.1l8.1,42.3h-7.3l-1.3-7.7H228l-1.2,7.7H220z"/>
<rect x="246.4" y="41" class="st1" width="7.1" height="42.3"/>
<polygon class="st1" points="263,56.8 263,83.4 257,83.4 257,41 264,41 271.7,65.3 271.7,41 277.6,41 277.6,83.4 271.4,83.4 "/>
<path class="st1" d="M288.8,70h5.7l-2.8-17h-0.1L288.8,70z M279.8,83.4l8-42.3h8.1l8.1,42.3h-7.3l-1.3-7.7h-7.6l-1.2,7.7H279.8z"/>
<g>
	<path class="st1" d="M313.4,64.3v13.2h3.1c2.4,0,3.5-1.2,3.5-3.4v-6.4c0-2.2-1.1-3.4-3.6-3.4H313.4z M313.4,58.9h2.5
		c2.3,0,3.4-1.2,3.4-3.4v-5.2c0-2.3-1.1-3.4-3.4-3.4h-2.4V58.9z M306.3,41h10.3c7.1,0,9.5,3.3,9.5,9.3v4.3c0,3.6-1.3,5.8-4.2,6.7
		c3.6,0.8,5.3,3.2,5.3,7v5.6c0,6-2.7,9.3-9.8,9.3h-11.1V41z"/>
</g>
<polygon class="st1" points="330,41 337.1,41 337.1,77.6 345.6,77.6 345.6,83.4 330,83.4 "/>
<polygon class="st1" points="348.1,41 365.1,41 365.1,46.9 355.3,46.9 355.3,59 362.3,59 362.3,64.7 355.3,64.7 355.3,77.6 
	365.1,77.6 365.1,83.4 348.1,83.4 "/>
<g>
	<path class="st1" d="M378.3,72.4V52c0-6.6,3.1-11.4,10.6-11.4c7.9,0,10.1,4.4,10.1,10.6v5h-6.5v-5.6c0-2.6-0.9-4.1-3.4-4.1
		c-2.6,0-3.6,1.8-3.6,4.4v22.7c0,2.6,1.1,4.4,3.6,4.4c2.6,0,3.4-1.6,3.4-4.1V66h6.5v7.3c0,6-2.5,10.5-10.1,10.5
		C381.4,83.9,378.3,79,378.3,72.4"/>
</g>
<rect x="402.1" y="41" class="st1" width="7.1" height="42.3"/>
<polygon class="st1" points="411.9,41 430.8,41 430.8,46.9 424.9,46.9 424.9,83.4 417.7,83.4 417.7,46.9 411.9,46.9 "/>
<rect x="433.4" y="41" class="st1" width="7.1" height="42.3"/>
<polygon class="st1" points="443.9,41 460.9,41 460.9,46.9 451.1,46.9 451.1,59 458.1,59 458.1,64.7 451.1,64.7 451.1,77.6 
	460.9,77.6 460.9,83.4 443.9,83.4 "/>
<g>
	<path class="st1" d="M463.4,74.3v-5.7h6.6v5.8c0,2.4,1.1,3.8,3.5,3.8c2.2,0,3.2-1.5,3.2-3.8v-1.6c0-2.4-1-3.9-3.2-6l-4.2-4.2
		c-4.1-4-5.9-6.4-5.9-11.3v-1.4c0-5.2,3.1-9.3,10-9.3c7.1,0,9.9,3.5,9.9,9.6v3.4h-6.5v-3.7c0-2.4-1.1-3.6-3.4-3.6
		c-2,0-3.4,1.1-3.4,3.5v0.9c0,2.4,1.3,3.7,3.4,5.7l4.6,4.5c3.9,3.9,5.7,6.3,5.7,11v2.1c0,5.8-3.1,9.9-10.4,9.9
		C466.2,83.9,463.4,79.8,463.4,74.3"/>
</g>
<path class="st1" d="M142.1,129.3h5.7l-2.8-17h-0.1L142.1,129.3z M133.2,142.7l8-42.3h8.1l8.1,42.3H150l-1.3-7.7h-7.6l-1.2,7.7
	H133.2z"/>
<polygon class="st1" points="165.6,116.1 165.6,142.7 159.6,142.7 159.6,100.3 166.5,100.3 174.2,124.6 174.2,100.3 180.2,100.3 
	180.2,142.7 173.9,142.7 "/>
<g>
	<path class="st1" d="M193.6,136.9c2.9,0,4.1-1.7,4.1-4.3v-22.2c0-2.5-1.1-4.3-4.1-4.3h-3v30.7H193.6z M204.8,111.7v19.6
		c0,6.5-2.7,11.4-10.3,11.4h-11v-42.3h11C202.1,100.3,204.8,105.2,204.8,111.7"/>
	<path class="st1" d="M218.2,131.8v-20.5c0-6.6,3.1-11.4,10.6-11.4c7.9,0,10.1,4.4,10.1,10.6v5h-6.5v-5.6c0-2.6-0.9-4.1-3.4-4.1
		c-2.6,0-3.6,1.8-3.6,4.4v22.7c0,2.6,1.1,4.4,3.6,4.4c2.6,0,3.4-1.6,3.4-4.1v-7.8h6.5v7.3c0,6-2.5,10.5-10.1,10.5
		C221.3,143.2,218.2,138.3,218.2,131.8"/>
	<path class="st1" d="M256.5,132.9v-22.7c0-2.6-1.1-4.4-3.7-4.4c-2.5,0-3.6,1.8-3.6,4.4v22.7c0,2.6,1.1,4.4,3.6,4.4
		C255.4,137.2,256.5,135.4,256.5,132.9 M242.1,131.8v-20.5c0-6.6,3.2-11.4,10.7-11.4c7.6,0,10.8,4.8,10.8,11.4v20.5
		c0,6.6-3.2,11.4-10.8,11.4C245.3,143.2,242.1,138.3,242.1,131.8"/>
</g>
<polygon class="st1" points="286.6,115.2 286.4,115.2 281.6,142.7 278.3,142.7 273,115.2 272.8,115.2 272.8,142.7 267,142.7 
	267,100.3 275.3,100.3 279.9,124.2 280,124.2 284.1,100.3 293.1,100.3 293.1,142.7 286.6,142.7 "/>
<polygon class="st1" points="316,115.2 315.8,115.2 311,142.7 307.7,142.7 302.4,115.2 302.3,115.2 302.3,142.7 296.4,142.7 
	296.4,100.3 304.7,100.3 309.4,124.2 309.4,124.2 313.5,100.3 322.5,100.3 322.5,142.7 316,142.7 "/>
<g>
	<path class="st1" d="M346.6,100.3v32c0,6.6-2.8,10.8-10.1,10.8c-7.5,0-10.6-4.2-10.6-10.8v-32h7.1v32.7c0,2.5,1,4.2,3.5,4.2
		c2.5,0,3.5-1.7,3.5-4.2v-32.7H346.6z"/>
</g>
<polygon class="st1" points="355.9,116.1 355.9,142.7 349.9,142.7 349.9,100.3 356.9,100.3 364.6,124.6 364.6,100.3 370.5,100.3 
	370.5,142.7 364.3,142.7 "/>
<rect x="373.9" y="100.3" class="st1" width="7.1" height="42.3"/>
<polygon class="st1" points="383.6,100.3 402.6,100.3 402.6,106.2 396.7,106.2 396.7,142.7 389.5,142.7 389.5,106.2 383.6,106.2 "/>
<rect x="405.2" y="100.3" class="st1" width="7.1" height="42.3"/>
<polygon class="st1" points="415.7,100.3 432.7,100.3 432.7,106.2 422.8,106.2 422.8,118.3 429.9,118.3 429.9,124 422.8,124 
	422.8,136.9 432.7,136.9 432.7,142.7 415.7,142.7 "/>
<g>
	<path class="st1" d="M435.1,133.6v-5.7h6.6v5.8c0,2.4,1.1,3.8,3.5,3.8c2.2,0,3.2-1.5,3.2-3.8v-1.6c0-2.4-1-3.9-3.2-6l-4.2-4.2
		c-4.1-4-5.9-6.4-5.9-11.3v-1.4c0-5.2,3.1-9.3,10-9.3c7.1,0,9.9,3.5,9.9,9.6v3.4h-6.5v-3.7c0-2.4-1.1-3.6-3.4-3.6
		c-2,0-3.4,1.1-3.4,3.5v0.9c0,2.4,1.3,3.7,3.4,5.7l4.6,4.5c3.9,3.9,5.7,6.3,5.7,11v2.1c0,5.8-3.1,9.9-10.4,9.9
		C438,143.2,435.1,139.1,435.1,133.6"/>
</g>
</svg>
