<?xml version="1.0" encoding="utf-8"?>
<svg version="1.1" id="Layer_1" xmlns="http://www.w3.org/2000/svg" xmlns:xlink="http://www.w3.org/1999/xlink" x="0px" y="0px"
	 viewBox="0 0 500 500" style="enable-background:new 0 0 500 500;" xml:space="preserve">
<style type="text/css">
	.st1{fill:#FFFFFF;}
	.st15{fill:Transparent;}
</style>
<rect class="st15" width="500" height="500"/>
<g>
	<path class="st1" d="M311.9,373.1c-9.2,0-16.7-7.5-16.7-16.7c0-9.2,7.5-16.7,16.7-16.7c9.3,0,16.7,7.5,16.7,16.7
		C328.7,365.6,321.2,373.1,311.9,373.1 M384.5,365.3c-6.3-8.5-47.2-60.6-104.4-60.6c-49.7,0-102.9,45.1-102.9,45.1
		s-20-40.9-60.8-44.8c-0.2,0-0.5-0.1-0.8-0.1h-0.2c-0.9,0-1.7,0.9-1.6,1.6c0.1,0.7,0.6,1.5,0.6,1.5c5.3,8.8,18.7,33.6,18.7,58.5
		c0,24.9-13.5,49.9-18.7,58.6l-0.4,0.6c-0.2,0.3-0.2,0.5-0.2,0.9c0,0.9,0.7,1.5,1.5,1.6l0.4,0c0.1,0,0.3,0,0.4,0
		c41-3.8,61-44.8,61-44.8s53.2,45.1,102.9,45.1c57.3,0,98.1-52.1,104.4-60.6c0.2-0.2,0.3-0.4,0.4-0.6c0.1-0.2,0.1-0.4,0.1-0.6
		c0-0.2-0.1-0.4-0.1-0.6C384.8,365.8,384.7,365.6,384.5,365.3"/>
	<path class="st1" d="M173.5,258.1c0.1-0.2,0.2-0.3,0.4-0.5c0.3-0.2,0.6-0.3,0.9-0.3c0.4,0,0.8,0.2,1.1,0.5c0,0,0.1,0.1,0.1,0.1
		c31.2,29.7,64,5.6,70.8,0l0.7-0.6c0.2-0.1,0.4-0.1,0.6-0.1c0.2,0,0.5,0,0.7,0.1l0.7,0.6c6.8,5.6,39.5,29.7,70.8,0c0,0,0,0,0.1-0.1
		c0.3-0.3,0.7-0.5,1.1-0.5c0.3,0,0.7,0.1,0.9,0.3c0.2,0.1,0.3,0.3,0.5,0.5c6,6,32.2,28.5,59.8,4.4c0.3-0.3,0.5-0.7,0.5-1.2v-11.4
		c0-0.9-0.7-1.6-1.6-1.6c-0.1,0-0.2,0.1-0.4,0.1c-0.3,0.1-0.5,0.3-0.8,0.4c-8.5,4.3-34.9,14.4-58.8-8.2c-0.2-0.2-0.5-0.4-0.7-0.7
		c-0.2-0.1-0.4-0.2-0.7-0.2c-0.2,0-0.3,0-0.5,0.1c-0.4,0.1-0.6,0.3-0.8,0.6c-7.1,5.4-39.9,27.6-69,0.4l-0.4-0.4
		c-0.3-0.3-0.7-0.5-1.2-0.5c-0.4,0-0.8,0.2-1.1,0.5l-0.4,0.4c-29.1,27.2-61.9,5-69-0.4c-0.2-0.3-0.5-0.5-0.8-0.6
		c-0.2-0.1-0.3-0.1-0.5-0.1c-0.2,0-0.5,0-0.7,0.2c-0.2,0.2-0.5,0.4-0.7,0.7c-23.9,22.6-50.3,12.5-58.8,8.2c-0.3-0.2-0.6-0.3-0.8-0.4
		c-0.1,0-0.2-0.1-0.3-0.1c-0.9,0-1.7,0.7-1.7,1.6v11.4c0,0.5,0.2,0.9,0.5,1.2C141.2,286.5,167.4,264,173.5,258.1"/>
	<path class="st1" d="M115.1,206.9c-0.1,0-0.2-0.1-0.3-0.1c-0.9,0-1.6,0.7-1.6,1.7v11.4c0,0.5,0.2,0.9,0.5,1.2
		c27.6,24,53.8,1.5,59.9-4.4c0.1-0.2,0.2-0.3,0.4-0.5c0.3-0.2,0.6-0.3,0.9-0.3c0.4,0,0.8,0.2,1.1,0.4c0,0,0.1,0.1,0.1,0.1
		c31.2,29.8,63.9,5.7,70.8,0l0.7-0.6c0.2-0.1,0.4-0.1,0.6-0.1c0.2,0,0.5,0,0.7,0.1l0.7,0.6c6.8,5.7,39.5,29.8,70.8,0
		c0,0,0,0,0.1-0.1c0.3-0.3,0.7-0.4,1.1-0.4c0.3,0,0.7,0.1,0.9,0.3c0.2,0.1,0.3,0.3,0.5,0.5c6,6,32.2,28.4,59.8,4.4
		c0.3-0.3,0.5-0.7,0.5-1.2v-11.4c0-0.9-0.7-1.7-1.6-1.7c-0.1,0-0.2,0-0.3,0.1c-0.3,0.1-0.5,0.3-0.8,0.4c-8.5,4.3-34.9,14.4-58.8-8.3
		c-0.2-0.2-0.5-0.4-0.7-0.7c-0.2-0.1-0.4-0.2-0.7-0.2c-0.2,0-0.3,0.1-0.5,0.1c-0.4,0.1-0.6,0.4-0.8,0.6c-7.1,5.4-39.9,27.6-69,0.4
		l-0.4-0.4c-0.3-0.3-0.7-0.5-1.2-0.5c-0.4,0-0.9,0.2-1.1,0.5l-0.4,0.4c-29.1,27.2-61.9,5-69-0.4c-0.2-0.3-0.5-0.5-0.8-0.6
		c-0.2,0-0.3-0.1-0.5-0.1c-0.2,0-0.5,0.1-0.7,0.2c-0.2,0.2-0.5,0.5-0.7,0.7c-23.9,22.6-50.3,12.5-58.8,8.3
		C115.6,207.2,115.3,207,115.1,206.9"/>
</g>
<polygon class="st1" points="64.3,41.1 64.3,142.3 47.3,142.3 47.3,64.8 47.1,64.8 35.2,77.2 35,77.2 35,59.5 50.7,41.1 "/>
<path class="st1" d="M87.7,112.6L102.9,71h0.2v41.7H87.7z M118.9,142.4v-16.4h6.9v-13.3h-6.9V41.1h-16.7l-29.4,74.4v10.5h30v16.4
	H118.9z"/>
<polygon class="st1" points="162.9,40.5 170,40.5 170,77.1 178.5,77.1 178.5,82.9 162.9,82.9 "/>
<rect x="181.7" y="40.5" class="st1" width="7.1" height="42.3"/>
<polygon class="st1" points="193,40.5 209.7,40.5 209.7,46.3 200.1,46.3 200.1,58.5 207.2,58.5 207.2,64.2 200.1,64.2 200.1,82.9 
	193,82.9 "/>
<polygon class="st1" points="212.8,40.5 229.8,40.5 229.8,46.3 219.9,46.3 219.9,58.5 226.9,58.5 226.9,64.2 219.9,64.2 219.9,77.1 
	229.8,77.1 229.8,82.9 212.8,82.9 "/>
<g>
	<path class="st1" d="M170,123.1v13.2h3.1c2.4,0,3.5-1.2,3.5-3.4v-6.4c0-2.2-1.1-3.4-3.6-3.4H170z M170,117.7h2.5
		c2.3,0,3.4-1.2,3.4-3.4v-5.2c0-2.3-1.1-3.4-3.4-3.4H170V117.7z M162.9,99.8h10.3c7.1,0,9.5,3.3,9.5,9.3v4.3c0,3.6-1.3,5.8-4.2,6.8
		c3.6,0.8,5.3,3.2,5.3,7v5.6c0,6-2.7,9.3-9.8,9.3h-11.1V99.8z"/>
</g>
<polygon class="st1" points="187.3,99.8 204.3,99.8 204.3,105.6 194.4,105.6 194.4,117.8 201.5,117.8 201.5,123.5 194.4,123.5 
	194.4,136.4 204.3,136.4 204.3,142.2 187.3,142.2 "/>
<polygon class="st1" points="208.1,99.8 215.2,99.8 215.2,136.4 223.7,136.4 223.7,142.2 208.1,142.2 "/>
<g>
	<path class="st1" d="M241.1,132.4v-22.7c0-2.6-1.1-4.4-3.7-4.4c-2.5,0-3.6,1.8-3.6,4.4v22.7c0,2.6,1.1,4.4,3.6,4.4
		C239.9,136.7,241.1,134.9,241.1,132.4 M226.6,131.2v-20.5c0-6.6,3.2-11.4,10.7-11.4c7.6,0,10.8,4.8,10.8,11.4v20.5
		c0,6.6-3.2,11.4-10.8,11.4C229.9,142.7,226.6,137.8,226.6,131.2"/>
</g>
<polygon class="st1" points="267,116 263,142.2 256.3,142.2 250.6,99.8 257.5,99.8 260.8,126.7 260.8,126.7 264.4,99.8 270.2,99.8 
	274.1,126.7 274.2,126.7 277.5,99.8 283.5,99.8 278,142.2 271.2,142.2 267,116 "/>
<polygon class="st1" points="312.6,116 308.6,142.2 301.9,142.2 296.2,99.8 303.1,99.8 306.4,126.7 306.5,126.7 310,99.8 
	315.8,99.8 319.8,126.7 319.8,126.7 323.1,99.8 329.1,99.8 323.6,142.2 316.8,142.2 312.6,116 "/>
<path class="st1" d="M337.4,128.8h5.7l-2.8-17h-0.1L337.4,128.8z M328.5,142.2l8-42.3h8.1l8.1,42.3h-7.3l-1.3-7.7h-7.6l-1.2,7.7
	H328.5z"/>
<polygon class="st1" points="351.7,99.8 370.6,99.8 370.6,105.6 364.7,105.6 364.7,142.2 357.5,142.2 357.5,105.6 351.7,105.6 "/>
<polygon class="st1" points="373.9,99.8 390.9,99.8 390.9,105.6 381,105.6 381,117.8 388,117.8 388,123.5 381,123.5 381,136.4 
	390.9,136.4 390.9,142.2 373.9,142.2 "/>
<g>
	<path class="st1" d="M401.8,105.7v13.2h2.4c2.4,0,3.5-1.2,3.5-3.5v-6.2c0-2.3-1.1-3.4-3.5-3.4H401.8z M401.8,122.8v19.4h-7.1V99.8
		H405c7.2,0,9.8,3.6,9.8,9.5v5.4c0,4.6-1.6,7.2-5.7,8.2l6.8,19.2h-7.5L401.8,122.8z"/>
</g>
</svg>
