<?xml version="1.0" encoding="utf-8"?>
<svg version="1.1" id="Layer_1" xmlns="http://www.w3.org/2000/svg" xmlns:xlink="http://www.w3.org/1999/xlink" x="0px" y="0px"
	 viewBox="0 0 500 500" style="enable-background:new 0 0 500 500;" xml:space="preserve">
<style type="text/css">
	.st1{fill:#FFFFFF;}
	.st10{fill:Transparent;}
</style>
<rect class="st10" width="500" height="500"/>
<g>
	<path class="st1" d="M377.5,259.5c-22.2-17.5-51.6-17.9-62.3-15.3l-1.2,0.3c-12.4,2.9-32.2,7.8-55.3,36.5c-0.1,0.2-0.3,0.3-0.4,0.5
		l-0.3,0.3c-0.2,0.3-0.4,0.7-0.4,1.1c0,0.3,0.1,0.7,0.2,1l0.5,0.9c2.9,4.8,6.6,11.1,9.7,16.9c0,0.1,0.1,0.1,0.1,0.2
		c0.3,0.6,1,1.1,1.8,1.1c0.5,0,1-0.2,1.4-0.6c0.1-0.2,0.3-0.4,0.4-0.6c20.5-28.4,36.6-32.3,47.6-34.9l1.3-0.3
		c5.7-1.4,27.2-1.3,42.7,11c12.1,9.6,18.3,24.8,18.3,45.3c0,34.3-16.7,47.8-30.7,53c-21.7,8.1-42.5-2.7-42.7-2.8l-0.9-0.4
		c-11.9-5.2-29.7-16-46.5-49.7c-33.8-67.9-62.1-74.3-80.8-78.6l-1-0.2c-8.5-1.9-38.1-3.3-61.4,15.3c-12.2,9.7-26.6,28.5-26.6,63.3
		c0,21.2,4.4,35.1,15.5,49.8c2.4,3.3,27.5,35.5,75.9,26.2c7.7-1.5,18.2-5.2,29.8-13.8l10.7,9.6c0.7,0.6,1.8,0.6,2.4-0.1
		c0.3-0.3,0.4-0.7,0.4-1.2v-0.2l7.7-47.3v-0.5c0-0.5-0.2-0.9-0.6-1.3c-0.3-0.3-0.7-0.4-1.1-0.4l-0.3,0l-0.5,0.1l-45.3,12.7l-0.8,0.1
		c-0.3,0.1-0.6,0.2-0.9,0.5c-0.7,0.7-0.6,1.8,0.1,2.5l0.5,0.5l10.1,9.2c-6.5,4.2-12.3,6.2-16.6,7c-35,6.7-52.3-16.3-53-17.2
		l-0.2-0.3c-8.1-10.7-10.9-19.8-10.9-36c0-20.5,6-35.8,18-45.3c15.1-12.1,36-12.2,41.9-10.8l1,0.2c15.3,3.5,36.3,8.2,65.3,66.4
		c15,30.2,33.9,49.9,57.6,60.3c3,1.5,17.4,8.4,36.1,8.4c7.8,0,16.4-1.2,25.1-4.5c13.7-5.1,45.7-22.6,45.7-74.6
		C404.5,288.1,389.8,269.2,377.5,259.5"/>
</g>
<polygon class="st1" points="49,64.8 49.1,64.8 49.1,142.4 66.2,142.4 66.2,41.1 52.6,41.1 36.9,59.5 36.9,77.3 37,77.3 "/>
<g>
	<path class="st1" d="M76.3,62v12.2h15.5V61.6c0-6.1,3-7.9,6.6-7.9c3.3,0,6.1,1.3,6.1,7.6v8.4c0,8.4-0.7,11.7-6.3,17.5l-9.6,10.2
		c-9.3,9.9-12.7,16.4-12.7,26.4v18.7h44.2v-13.9H92.3v-4.8c0-7.9,2.8-10.9,7.2-15.5l10.9-11.5c8.8-9.4,10.8-15.4,10.8-25.5v-9.9
		c0-14.5-7-21.4-22.3-21.4C83.9,39.9,76.3,47.8,76.3,62"/>
	<path class="st1" d="M167.3,46.9V60h2.4c2.4,0,3.5-1.2,3.5-3.5v-6.2c0-2.3-1.1-3.4-3.5-3.4H167.3z M167.3,64v19.4h-7.1V41h10.4
		c7.2,0,9.8,3.6,9.8,9.5V56c0,4.6-1.6,7.2-5.7,8.2l6.8,19.2H174L167.3,64z"/>
</g>
<polygon class="st1" points="183.4,41 200.3,41 200.3,46.9 190.5,46.9 190.5,59 197.5,59 197.5,64.7 190.5,64.7 190.5,77.6 
	200.3,77.6 200.3,83.4 183.4,83.4 "/>
<g>
	<path class="st1" d="M202.6,74.3v-5.7h6.6v5.8c0,2.4,1.1,3.8,3.5,3.8c2.2,0,3.2-1.5,3.2-3.8v-1.6c0-2.4-1-3.9-3.2-6l-4.2-4.2
		c-4.1-4-5.9-6.4-5.9-11.3v-1.4c0-5.2,3.1-9.3,10-9.3c7.1,0,9.9,3.5,9.9,9.6v3.4h-6.5v-3.7c0-2.4-1.1-3.6-3.4-3.6
		c-2,0-3.4,1.1-3.4,3.5v0.9c0,2.4,1.3,3.7,3.4,5.7l4.6,4.5c3.9,3.9,5.7,6.3,5.7,11v2.1c0,5.8-3.1,9.9-10.4,9.9
		C205.4,83.9,202.6,79.8,202.6,74.3"/>
	<path class="st1" d="M233,46.9v16.7h2.6c2.4,0,3.5-1.2,3.5-3.5v-9.7c0-2.3-1.1-3.4-3.5-3.4H233z M225.9,41h10.6
		c7.2,0,9.8,3.6,9.8,9.5v8.9c0,5.9-2.6,9.6-9.8,9.6H233v14.4h-7.1V41z"/>
	<path class="st1" d="M263.5,73.6V50.8c0-2.6-1.1-4.4-3.7-4.4c-2.5,0-3.6,1.8-3.6,4.4v22.7c0,2.6,1.1,4.4,3.6,4.4
		C262.3,77.9,263.5,76.1,263.5,73.6 M249,72.4V52c0-6.6,3.2-11.4,10.7-11.4c7.6,0,10.8,4.8,10.8,11.4v20.5c0,6.6-3.2,11.4-10.8,11.4
		C252.3,83.9,249,79,249,72.4"/>
</g>
<polygon class="st1" points="279.8,56.8 279.8,83.4 273.8,83.4 273.8,41 280.8,41 288.4,65.3 288.4,41 294.4,41 294.4,83.4 
	288.1,83.4 "/>
<g>
	<path class="st1" d="M297.2,74.3v-5.7h6.6v5.8c0,2.4,1.1,3.8,3.5,3.8c2.2,0,3.2-1.5,3.2-3.8v-1.6c0-2.4-1-3.9-3.2-6l-4.2-4.2
		c-4.1-4-5.9-6.4-5.9-11.3v-1.4c0-5.2,3.1-9.3,10-9.3c7.1,0,9.9,3.5,9.9,9.6v3.4h-6.5v-3.7c0-2.4-1.1-3.6-3.4-3.6
		c-2,0-3.4,1.1-3.4,3.5v0.9c0,2.4,1.3,3.7,3.4,5.7l4.6,4.5c3.9,3.9,5.7,6.3,5.7,11v2.1c0,5.8-3.1,9.9-10.4,9.9
		C300,83.9,297.2,79.8,297.2,74.3"/>
</g>
<rect x="320.4" y="41" class="st1" width="7.1" height="42.3"/>
<g>
	<path class="st1" d="M337.9,64.3v13.2h3.1c2.4,0,3.5-1.2,3.5-3.4v-6.4c0-2.2-1.1-3.4-3.6-3.4H337.9z M337.9,58.9h2.5
		c2.3,0,3.4-1.2,3.4-3.4v-5.2c0-2.3-1.1-3.4-3.4-3.4h-2.4V58.9z M330.8,41h10.3c7.1,0,9.5,3.3,9.5,9.3v4.3c0,3.6-1.3,5.8-4.2,6.7
		c3.6,0.8,5.3,3.2,5.3,7v5.6c0,6-2.7,9.3-9.8,9.3h-11.1V41z"/>
</g>
<polygon class="st1" points="354.3,41 361.5,41 361.5,77.6 370,77.6 370,83.4 354.3,83.4 "/>
<polygon class="st1" points="372.3,41 389.3,41 389.3,46.9 379.4,46.9 379.4,59 386.5,59 386.5,64.7 379.4,64.7 379.4,77.6 
	389.3,77.6 389.3,83.4 372.3,83.4 "/>
<g>
	<path class="st1" d="M160.2,131.8v-20.5c0-6.6,3.1-11.4,10.6-11.4c7.9,0,10.1,4.4,10.1,10.6v5h-6.5v-5.6c0-2.6-0.9-4.1-3.4-4.1
		s-3.6,1.8-3.6,4.4v22.7c0,2.6,1.1,4.4,3.6,4.4s3.4-1.6,3.4-4.1v-7.8h6.5v7.3c0,6-2.5,10.5-10.1,10.5
		C163.3,143.2,160.2,138.3,160.2,131.8"/>
	<path class="st1" d="M198.3,132.9v-22.7c0-2.6-1.1-4.4-3.7-4.4c-2.5,0-3.6,1.8-3.6,4.4v22.7c0,2.6,1.1,4.4,3.6,4.4
		C197.2,137.2,198.3,135.4,198.3,132.9 M183.9,131.8v-20.5c0-6.6,3.2-11.4,10.7-11.4c7.6,0,10.8,4.8,10.8,11.4v20.5
		c0,6.6-3.2,11.4-10.8,11.4C187.1,143.2,183.9,138.3,183.9,131.8"/>
</g>
<polygon class="st1" points="214.6,116.1 214.6,142.7 208.6,142.7 208.6,100.3 215.6,100.3 223.3,124.6 223.3,100.3 229.2,100.3 
	229.2,142.7 222.9,142.7 "/>
<g>
	<path class="st1" d="M232,133.6v-5.7h6.6v5.8c0,2.4,1.1,3.8,3.5,3.8c2.2,0,3.2-1.5,3.2-3.8v-1.6c0-2.4-1-3.9-3.2-6l-4.2-4.2
		c-4.1-4-5.9-6.4-5.9-11.3v-1.4c0-5.2,3.1-9.3,10-9.3c7.1,0,9.9,3.5,9.9,9.6v3.4h-6.5v-3.7c0-2.4-1.1-3.6-3.4-3.6
		c-2,0-3.4,1.1-3.4,3.5v0.9c0,2.4,1.3,3.7,3.4,5.7l4.6,4.5c3.9,3.9,5.7,6.3,5.7,11v2.1c0,5.8-3.1,9.9-10.4,9.9
		C234.8,143.2,232,139.1,232,133.6"/>
	<path class="st1" d="M275.9,100.3v32c0,6.6-2.8,10.8-10.1,10.8c-7.5,0-10.6-4.2-10.6-10.8v-32h7.1v32.7c0,2.5,1,4.2,3.5,4.2
		c2.5,0,3.5-1.7,3.5-4.2v-32.7H275.9z"/>
</g>
<polygon class="st1" points="298.7,115.2 298.5,115.2 293.7,142.7 290.4,142.7 285.1,115.2 285,115.2 285,142.7 279.1,142.7 
	279.1,100.3 287.4,100.3 292,124.2 292.1,124.2 296.2,100.3 305.2,100.3 305.2,142.7 298.7,142.7 "/>
<g>
	<path class="st1" d="M315.5,106.2v16.7h2.6c2.4,0,3.5-1.2,3.5-3.5v-9.7c0-2.3-1.1-3.4-3.5-3.4H315.5z M308.4,100.3H319
		c7.2,0,9.8,3.6,9.8,9.5v8.9c0,5.9-2.6,9.6-9.8,9.6h-3.4v14.4h-7.1V100.3z"/>
</g>
<polygon class="st1" points="330.4,100.3 349.4,100.3 349.4,106.2 343.5,106.2 343.5,142.7 336.3,142.7 336.3,106.2 330.4,106.2 "/>
<rect x="351.8" y="100.3" class="st1" width="7.1" height="42.3"/>
<g>
	<path class="st1" d="M376.6,132.9v-22.7c0-2.6-1.1-4.4-3.7-4.4c-2.5,0-3.6,1.8-3.6,4.4v22.7c0,2.6,1.1,4.4,3.6,4.4
		C375.5,137.2,376.6,135.4,376.6,132.9 M362.1,131.8v-20.5c0-6.6,3.2-11.4,10.7-11.4c7.6,0,10.8,4.8,10.8,11.4v20.5
		c0,6.6-3.2,11.4-10.8,11.4C365.4,143.2,362.1,138.3,362.1,131.8"/>
</g>
<polygon class="st1" points="392.9,116.1 392.9,142.7 386.9,142.7 386.9,100.3 393.9,100.3 401.5,124.6 401.5,100.3 407.5,100.3 
	407.5,142.7 401.2,142.7 "/>
<path class="st1" d="M168,188.6h5.7l-2.8-17h-0.1L168,188.6z M159.1,202l8-42.3h8.1l8.1,42.3h-7.3l-1.3-7.7h-7.6l-1.2,7.7H159.1z"/>
<polygon class="st1" points="191.3,175.4 191.3,202 185.3,202 185.3,159.6 192.3,159.6 200,183.9 200,159.6 205.9,159.6 205.9,202 
	199.7,202 "/>
<g>
	<path class="st1" d="M219.2,196.2c2.9,0,4.1-1.7,4.1-4.3v-22.2c0-2.5-1.1-4.2-4.1-4.2h-3v30.7H219.2z M230.4,171v19.6
		c0,6.5-2.7,11.4-10.3,11.4h-11v-42.3h11C227.7,159.6,230.4,164.5,230.4,171"/>
	<path class="st1" d="M250.5,165.5v16.7h2.6c2.4,0,3.5-1.2,3.5-3.5v-9.7c0-2.3-1.1-3.4-3.5-3.4H250.5z M243.4,159.7h10.6
		c7.2,0,9.8,3.6,9.8,9.5v8.9c0,5.9-2.6,9.6-9.8,9.6h-3.4V202h-7.1V159.7z"/>
	<path class="st1" d="M273.7,165.5v13.2h2.4c2.4,0,3.5-1.2,3.5-3.5v-6.2c0-2.3-1.1-3.4-3.5-3.4H273.7z M273.7,182.6V202h-7.1v-42.3
		h10.4c7.2,0,9.8,3.6,9.8,9.5v5.4c0,4.6-1.6,7.2-5.7,8.2l6.8,19.2h-7.5L273.7,182.6z"/>
	<path class="st1" d="M304.1,192.2v-22.7c0-2.6-1.1-4.4-3.7-4.4c-2.5,0-3.6,1.8-3.6,4.4v22.7c0,2.6,1.1,4.4,3.6,4.4
		C303,196.6,304.1,194.7,304.1,192.2 M289.7,191.1v-20.5c0-6.6,3.2-11.4,10.7-11.4c7.6,0,10.8,4.8,10.8,11.4v20.5
		c0,6.6-3.2,11.4-10.8,11.4C293,202.5,289.7,197.6,289.7,191.1"/>
	<path class="st1" d="M324.5,196.2c2.9,0,4.1-1.7,4.1-4.3v-22.2c0-2.5-1.1-4.2-4.1-4.2h-3v30.7H324.5z M335.7,171v19.6
		c0,6.5-2.7,11.4-10.3,11.4h-11v-42.3h11C333,159.6,335.7,164.5,335.7,171"/>
	<path class="st1" d="M359.6,159.7v32c0,6.5-2.8,10.8-10.1,10.8c-7.5,0-10.6-4.3-10.6-10.8v-32h7.1v32.7c0,2.5,1,4.2,3.5,4.2
		c2.5,0,3.5-1.7,3.5-4.2v-32.7H359.6z"/>
	<path class="st1" d="M362.7,191.1v-20.5c0-6.6,3.1-11.4,10.6-11.4c7.9,0,10.1,4.4,10.1,10.6v5h-6.5v-5.6c0-2.6-0.9-4.1-3.4-4.1
		s-3.6,1.8-3.6,4.4v22.7c0,2.6,1.1,4.4,3.6,4.4s3.4-1.6,3.4-4.1v-7.8h6.5v7.3c0,6-2.5,10.5-10.1,10.5
		C365.9,202.5,362.7,197.6,362.7,191.1"/>
</g>
<polygon class="st1" points="385,159.7 403.9,159.7 403.9,165.5 398,165.5 398,202 390.8,202 390.8,165.5 385,165.5 "/>
<rect x="406.3" y="159.6" class="st1" width="7.1" height="42.3"/>
<g>
	<path class="st1" d="M431.1,192.2v-22.7c0-2.6-1.1-4.4-3.7-4.4c-2.5,0-3.6,1.8-3.6,4.4v22.7c0,2.6,1.1,4.4,3.6,4.4
		C430,196.6,431.1,194.7,431.1,192.2 M416.7,191.1v-20.5c0-6.6,3.2-11.4,10.7-11.4c7.6,0,10.8,4.8,10.8,11.4v20.5
		c0,6.6-3.2,11.4-10.8,11.4C419.9,202.5,416.7,197.6,416.7,191.1"/>
</g>
<polygon class="st1" points="447.4,175.4 447.4,202 441.4,202 441.4,159.6 448.4,159.6 456.1,183.9 456.1,159.6 462,159.6 462,202 
	455.8,202 "/>
</svg>
