<?xml version="1.0" encoding="utf-8"?>
<!-- Generator: Adobe Illustrator 24.2.1, SVG Export Plug-In . SVG Version: 6.00 Build 0)  -->
<svg version="1.1" id="Layer_1" xmlns="http://www.w3.org/2000/svg" xmlns:xlink="http://www.w3.org/1999/xlink" x="0px" y="0px"
	 viewBox="0 0 500 500" style="enable-background:new 0 0 500 500;" xml:space="preserve">
<style type="text/css">
	.st1{fill:#FFFFFF;}
	.st5{fill:Transparent;}
</style>
<rect class="st5" width="500" height="500"/>
<polygon class="st1" points="221.6,268.2 131.5,216.2 131.5,384.4 221.6,411.6 "/>
<polygon class="st1" points="231.5,268.5 231.5,411.7 322.2,384.4 322.2,216.2 "/>
<polygon class="st1" points="374.2,381.4 371.6,381.4 382.2,418.7 392.9,381.4 390.2,381.4 392.9,381.4 392.9,231.7 390.2,231.7 
	387.6,231.7 384.8,231.7 379.5,231.7 376.9,231.7 374.2,231.7 371.6,231.7 371.6,381.4 "/>
<polygon class="st1" points="341.5,223.4 331.9,215.8 331.9,389 231.8,421.3 227.1,421.3 226.2,421.3 221.6,421.3 121.9,393.5 
	121.9,215.8 112.3,223.4 112.3,400.3 221.1,430.4 226.2,430.4 227.1,430.4 232.2,430.4 332.6,398.5 341.5,395.9 "/>
<g>
	<path class="st1" d="M392.9,211.9c0-5.9-4.8-10.7-10.7-10.7c-5.9,0-10.7,4.8-10.7,10.7v11.5h21.3V211.9z"/>
</g>
<path class="st1" d="M62.5,112.5l15.2-41.7h0.2v41.7H62.5z M77.5,142.2h16.1v-16.4h6.9v-13.3h-6.9V40.9H76.9l-29.4,74.4v10.5h30
	V142.2z"/>
<g>
	<path class="st1" d="M161.3,75V51.9c0-2.6-1.1-4.4-3.7-4.4c-2.5,0-3.6,1.8-3.6,4.4V75c0,2.5,1.1,4.4,3.6,4.4
		C160.1,79.4,161.3,77.5,161.3,75 M155,87.3v-2.9c-5.7-1-8.1-5.2-8.1-10.9V53c0-6.6,3.2-11.4,10.7-11.4c7.5,0,10.8,4.8,10.8,11.4
		v20.5c0,4.6-1.6,8.2-5.2,10l5.2,1v5.3L155,87.3z"/>
	<path class="st1" d="M193.1,42.1v32c0,6.6-2.8,10.8-10.1,10.8c-7.5,0-10.6-4.2-10.6-10.8v-32h7.1v32.7c0,2.5,1,4.2,3.5,4.2
		c2.5,0,3.5-1.7,3.5-4.2V42.1H193.1z"/>
</g>
<path class="st1" d="M204,71h5.7l-2.8-17h-0.1L204,71z M195.1,84.4l8-42.3h8.1l8.1,42.3H212l-1.3-7.7h-7.6l-1.2,7.7H195.1z"/>
<polygon class="st1" points="222.2,42.1 229.3,42.1 229.3,78.6 237.8,78.6 237.8,84.4 222.2,84.4 "/>
<rect x="241.1" y="42.1" class="st1" width="7.1" height="42.3"/>
<polygon class="st1" points="251.5,42.1 270.4,42.1 270.4,47.9 264.5,47.9 264.5,84.4 257.3,84.4 257.3,47.9 251.5,47.9 "/>
<polygon class="st1" points="287.6,68.3 287.6,84.4 280.4,84.4 280.4,68.3 272.5,42.1 279.9,42.1 284.2,58.2 284.3,58.2 288.6,42.1 
	295.4,42.1 "/>
<polygon class="st1" points="146.8,101.4 163.8,101.4 163.8,107.2 154,107.2 154,119.3 161,119.3 161,125.1 154,125.1 154,137.9 
	163.8,137.9 163.8,143.8 146.8,143.8 "/>
<g>
	<path class="st1" d="M177.7,137.9c2.9,0,4.1-1.7,4.1-4.3v-22.2c0-2.5-1.1-4.2-4.1-4.2h-3v30.7H177.7z M188.9,112.8v19.6
		c0,6.5-2.7,11.4-10.3,11.4h-11v-42.3h11C186.2,101.4,188.9,106.2,188.9,112.8"/>
	<path class="st1" d="M213.6,101.4v32c0,6.6-2.8,10.8-10.1,10.8c-7.5,0-10.6-4.2-10.6-10.8v-32h7.1v32.7c0,2.5,1,4.2,3.5,4.2
		c2.5,0,3.5-1.7,3.5-4.2v-32.7H213.6z"/>
	<path class="st1" d="M217.7,132.8v-20.5c0-6.6,3.1-11.4,10.6-11.4c7.9,0,10.1,4.4,10.1,10.6v5h-6.5V111c0-2.6-0.9-4.1-3.4-4.1
		c-2.6,0-3.6,1.8-3.6,4.4v22.7c0,2.6,1.1,4.4,3.6,4.4c2.6,0,3.4-1.6,3.4-4.1v-7.8h6.5v7.3c0,6-2.5,10.5-10.1,10.5
		C220.8,144.2,217.7,139.4,217.7,132.8"/>
</g>
<path class="st1" d="M249.4,130.3h5.7l-2.8-17h-0.1L249.4,130.3z M240.5,143.7l8-42.3h8.1l8.1,42.3h-7.3L256,136h-7.6l-1.2,7.7
	H240.5z"/>
<polygon class="st1" points="263.6,101.4 282.6,101.4 282.6,107.2 276.7,107.2 276.7,143.8 269.5,143.8 269.5,107.2 263.6,107.2 "/>
<rect x="285.9" y="101.4" class="st1" width="7.1" height="42.3"/>
<g>
	<path class="st1" d="M311.5,133.9v-22.7c0-2.6-1.1-4.4-3.7-4.4c-2.5,0-3.6,1.8-3.6,4.4v22.7c0,2.6,1.1,4.4,3.6,4.4
		C310.4,138.3,311.5,136.5,311.5,133.9 M297.1,132.8v-20.5c0-6.6,3.2-11.4,10.7-11.4c7.6,0,10.8,4.8,10.8,11.4v20.5
		c0,6.6-3.2,11.4-10.8,11.4C300.4,144.2,297.1,139.4,297.1,132.8"/>
</g>
<polygon class="st1" points="328.7,117.1 328.7,143.7 322.7,143.7 322.7,101.4 329.7,101.4 337.4,125.7 337.4,101.4 343.3,101.4 
	343.3,143.7 337.1,143.7 "/>
</svg>
