<?xml version="1.0" encoding="utf-8"?>
<!-- Generator: Adobe Illustrator 24.2.1, SVG Export Plug-In . SVG Version: 6.00 Build 0)  -->
<svg version="1.1" id="Layer_1" xmlns="http://www.w3.org/2000/svg" xmlns:xlink="http://www.w3.org/1999/xlink" x="0px" y="0px"
	 viewBox="0 0 500 500" style="enable-background:new 0 0 500 500;" xml:space="preserve">
<style type="text/css">
	.st1{fill:#FFFFFF;}
	.st3{fill:#EF412A;}
</style>
<rect class="st3" width="500" height="500"/>
<g>
	<path class="st1" d="M249.1,363.3c-33.2,0-60.2-27-60.2-60.2c0-33.2,27-60.2,60.2-60.2c33.2,0,60.2,27,60.2,60.2
		C309.3,336.3,282.3,363.3,249.1,363.3 M364.7,188.9h-62.4c-0.4,0-0.8,0.4-0.8,0.8v20.7c0,0.4,0.4,0.8,0.8,0.8h24.9l-27.6,27.6
		c-13.9-10.9-31.4-17.5-50.4-17.5c-45.1,0-81.8,36.7-81.8,81.8c0,41.5,31.1,75.9,71.2,81.1v23.9H214c-0.5,0-0.8,0.4-0.8,0.8v22.2
		c0,0.4,0.4,0.8,0.8,0.8h24.6v23.5c0,0.4,0.4,0.8,0.8,0.8h22.2c0.4,0,0.8-0.4,0.8-0.8v-23.5H287c0.4,0,0.8-0.3,0.8-0.8v-22.2
		c0-0.4-0.4-0.8-0.8-0.8h-24.6v-24.3c38.8-6.4,68.5-40.1,68.5-80.7c0-17.5-5.5-33.7-14.9-47l27.2-27.2v23.2c0,0.4,0.4,0.8,0.8,0.8
		h20.7c0.4,0,0.8-0.3,0.8-0.8v-62.4C365.5,189.3,365.2,188.9,364.7,188.9"/>
	<path class="st1" d="M285.9,278.5h-73c-0.4,0-0.8,0.3-0.8,0.7v17.7c0,0.4,0.4,0.7,0.8,0.7h73c0.5,0,0.8-0.3,0.8-0.7v-17.7
		C286.7,278.8,286.4,278.5,285.9,278.5"/>
	<path class="st1" d="M285.9,310h-73c-0.4,0-0.8,0.3-0.8,0.7v17.7c0,0.4,0.4,0.7,0.8,0.7h73c0.5,0,0.8-0.3,0.8-0.7v-17.7
		C286.7,310.3,286.4,310,285.9,310"/>
	<path class="st1" d="M82.2,73c-6.7,0-11.7,2.4-14.3,7h-0.2V54.8H97V40.9H52.2v57.1h15.5v-2.2c0-6,2.7-9.3,7.5-9.3
		c5.2,0,7.3,3.6,7.3,9.1v24.5c0,5.4-1.9,9.1-7.2,9.1c-5.8,0-7.9-3.9-7.9-9.9v-12.7H51.9v11.5c0,15.4,6.1,25.2,23.5,25.2
		c17.2,0,24.2-9.1,24.2-23.2V95.4C99.6,79.4,91.3,73,82.2,73"/>
	<path class="st1" d="M158.7,62.5h10.1v22.6h-5.1v-4.6c-0.9,3.2-2.9,5.1-6.8,5.1c-6.1,0-8.9-4.9-8.9-11.4V53.7
		c0-6.6,3.2-11.4,10.7-11.4c7.9,0,10.2,4.4,10.2,10.6v3.7h-6.5v-4.3c0-2.6-1-4.1-3.6-4.1c-2.6,0-3.7,1.8-3.7,4.4v22.7
		c0,2.6,1.1,4.4,3.5,4.4c2.3,0,3.5-1.3,3.5-4.1v-7.5h-3.4V62.5z"/>
</g>
<polygon class="st1" points="172.9,42.8 189.8,42.8 189.8,48.6 180,48.6 180,60.7 187,60.7 187,66.4 180,66.4 180,79.3 189.8,79.3 
	189.8,85.1 172.9,85.1 "/>
<polygon class="st1" points="199.6,58.5 199.6,85.1 193.7,85.1 193.7,42.8 200.6,42.8 208.3,67.1 208.3,42.8 214.3,42.8 214.3,85.1 
	208,85.1 "/>
<g>
	<path class="st1" d="M228.4,79.3c2.9,0,4.1-1.7,4.1-4.3V52.8c0-2.5-1.1-4.2-4.1-4.2h-3v30.7H228.4z M239.6,54.1v19.6
		c0,6.5-2.7,11.4-10.3,11.4h-11V42.8h11C236.9,42.8,239.6,47.6,239.6,54.1"/>
</g>
<polygon class="st1" points="243.6,42.8 260.6,42.8 260.6,48.6 250.8,48.6 250.8,60.7 257.8,60.7 257.8,66.4 250.8,66.4 250.8,79.3 
	260.6,79.3 260.6,85.1 243.6,85.1 "/>
<g>
	<path class="st1" d="M271.6,48.6v13.2h2.4c2.4,0,3.5-1.2,3.5-3.5V52c0-2.3-1.1-3.4-3.5-3.4H271.6z M271.6,65.7v19.4h-7.1V42.8h10.4
		c7.2,0,9.8,3.6,9.8,9.5v5.4c0,4.6-1.6,7.2-5.7,8.2l6.8,19.2h-7.5L271.6,65.7z"/>
</g>
<polygon class="st1" points="148,102.1 164.9,102.1 164.9,107.9 155.1,107.9 155.1,120 162.1,120 162.1,125.7 155.1,125.7 
	155.1,138.6 164.9,138.6 164.9,144.4 148,144.4 "/>
<g>
	<path class="st1" d="M182.5,135v-23.1c0-2.6-1.1-4.4-3.7-4.4c-2.5,0-3.6,1.8-3.6,4.4V135c0,2.5,1.1,4.4,3.6,4.4
		C181.4,139.4,182.5,137.5,182.5,135 M176.2,147.3v-2.9c-5.7-1-8.1-5.2-8.1-10.9V113c0-6.6,3.2-11.4,10.7-11.4
		c7.5,0,10.8,4.8,10.8,11.4v20.5c0,4.6-1.6,8.2-5.2,10l5.2,1v5.3L176.2,147.3z"/>
	<path class="st1" d="M214.4,102.1v32c0,6.6-2.8,10.8-10.1,10.8c-7.5,0-10.6-4.2-10.6-10.8v-32h7.1v32.7c0,2.5,1,4.2,3.5,4.2
		c2.5,0,3.5-1.7,3.5-4.2v-32.7H214.4z"/>
</g>
<path class="st1" d="M225.3,131h5.7l-2.8-17h-0.1L225.3,131z M216.4,144.4l8-42.3h8.1l8.1,42.3h-7.3l-1.3-7.7h-7.6l-1.2,7.7H216.4z"
	/>
<polygon class="st1" points="243.5,102.1 250.6,102.1 250.6,138.6 259.1,138.6 259.1,144.4 243.5,144.4 "/>
<rect x="262.3" y="102.1" class="st1" width="7.1" height="42.3"/>
<polygon class="st1" points="272.8,102.1 291.7,102.1 291.7,107.9 285.8,107.9 285.8,144.4 278.6,144.4 278.6,107.9 272.8,107.9 "/>
<polygon class="st1" points="308.8,128.3 308.8,144.4 301.7,144.4 301.7,128.3 293.8,102.1 301.2,102.1 305.5,118.1 305.6,118.1 
	309.9,102.1 316.7,102.1 "/>
</svg>
