<?xml version="1.0" encoding="utf-8"?>
<svg version="1.1" id="Layer_1" xmlns="http://www.w3.org/2000/svg" xmlns:xlink="http://www.w3.org/1999/xlink" x="0px" y="0px"
	 viewBox="0 0 500 500" style="enable-background:new 0 0 500 500;" xml:space="preserve">
<style type="text/css">
	.st1{fill:#FFFFFF;}
	.st3{fill:#EF412A;}
</style>
<g>
	<rect class="st3" width="500" height="500"/>
	<path class="st1" d="M249.1,362.8c-33,0-59.9-26.9-59.9-59.9c0-33,26.9-59.9,59.9-59.9c33,0,59.9,26.9,59.9,59.9
		C309.1,335.9,282.2,362.8,249.1,362.8 M364.2,189.2h-62.1c-0.4,0-0.8,0.4-0.8,0.8v20.6c0,0.4,0.4,0.8,0.8,0.8h24.7l-27.5,27.5
		c-13.8-10.9-31.3-17.4-50.2-17.4c-44.9,0-81.4,36.5-81.4,81.4c0,41.3,31,75.5,70.9,80.7v23.8h-24.5c-0.5,0-0.8,0.4-0.8,0.8v22.1
		c0,0.4,0.3,0.8,0.8,0.8h24.5v23.4c0,0.4,0.4,0.8,0.8,0.8h22.1c0.4,0,0.8-0.4,0.8-0.8v-23.4h24.5c0.4,0,0.8-0.4,0.8-0.8v-22.1
		c0-0.4-0.4-0.8-0.8-0.8h-24.5v-24.2c38.6-6.3,68.2-39.9,68.2-80.3c0-17.4-5.5-33.6-14.9-46.8l27.1-27.1v23.1c0,0.4,0.4,0.8,0.8,0.8
		h20.6c0.4,0,0.8-0.4,0.8-0.8V190C365,189.5,364.6,189.2,364.2,189.2"/>
	<path class="st1" d="M285.7,278.3h-72.7c-0.4,0-0.8,0.3-0.8,0.7v17.6c0,0.4,0.4,0.7,0.8,0.7h72.7c0.5,0,0.8-0.3,0.8-0.7V279
		C286.5,278.7,286.2,278.3,285.7,278.3"/>
	<path class="st1" d="M285.7,309.7h-72.7c-0.4,0-0.8,0.3-0.8,0.7v17.6c0,0.4,0.4,0.7,0.8,0.7h72.7c0.5,0,0.8-0.3,0.8-0.7v-17.6
		C286.5,310.1,286.2,309.7,285.7,309.7"/>
	<path class="st1" d="M439,110.9c-1.4-0.4-2.6-1.1-3.5-2.1c-0.9-1.1-1.7-2.5-2.1-4.4c-0.5-1.9-0.7-4.3-0.7-7.2V80.8
		c0-4.5,0.2-8.2,0.7-11.2c0.4-3,1.1-5.5,2-7.3c0.9-1.9,2.1-3.2,3.5-4.1c1.4-0.8,3.1-1.3,5-1.3c4,0,6.9,1.9,8.6,5.5
		c1.7,3.7,2.6,9.9,2.6,18.6v16c0,5.5-0.9,9.3-2.7,11.3c-1.8,2-4.6,3-8.5,3C442,111.4,440.4,111.3,439,110.9 M453.6,124
		c3.2-0.7,6-2.1,8.4-4.1c2.4-2,4.3-4.8,5.7-8.3c1.4-3.6,2.1-8.2,2.1-13.9V80.2c0-7-0.6-12.9-1.9-17.6c-1.3-4.7-3.1-8.4-5.5-11.2
		c-2.4-2.8-5.1-4.7-8.3-5.8c-3.2-1.1-6.6-1.7-10.3-1.7c-3.8,0-7.3,0.6-10.5,1.7c-3.2,1.2-6,3.1-8.3,5.9c-2.4,2.8-4.2,6.5-5.5,11.2
		c-1.3,4.6-1.9,10.4-1.9,17.2v18.3c0,5.9,0.7,10.6,2.2,14.1c1.5,3.5,3.4,6.2,5.9,8.1c2.4,1.9,5.2,3.1,8.3,3.7
		c3.1,0.6,6.3,0.9,9.5,0.9C447,125.1,450.4,124.7,453.6,124"/>
	<path class="st1" d="M355.5,102.7c0-0.4-0.2-0.5-0.5-0.5h-4.9c-0.4,0-0.5,0.2-0.5,0.5v34.9c0,0.4,0.2,0.5,0.5,0.5h4.9
		c0.3,0,0.5-0.2,0.5-0.5V102.7z M336.5,138.1c2.2,0,3.8-0.5,4.7-1.6c0.9-1.1,1.4-2.8,1.4-5v-28.7c0-0.4-0.2-0.5-0.5-0.5h-4.9
		c-0.3,0-0.5,0.2-0.5,0.5v27.3c0,1.1-0.2,1.8-0.6,2.2c-0.4,0.4-1.1,0.6-1.9,0.6h-2.6c-0.7,0-1.3,0.2-1.6,0.6
		c-0.3,0.4-0.5,1.1-0.5,2.1c0,1,0.2,1.7,0.5,2.1c0.4,0.3,0.9,0.5,1.6,0.5H336.5z M317.3,148.2c0.4,0,0.5-0.2,0.5-0.5v-4.6
		c0-0.4-0.2-0.5-0.5-0.5h-5.1c-0.4,0-0.5,0.2-0.5,0.5v4.6c0,0.4,0.2,0.5,0.5,0.5H317.3z M304.7,120.3l2.7,2.9c0.2,0.2,0.5,0.2,0.7,0
		c0.7-0.8,1.6-1.4,2.5-1.9c0.9-0.5,2-0.7,3.2-0.7c1.2,0,2.2,0.2,3,0.6c0.8,0.4,1.4,1,1.9,1.7c0.5,0.7,0.8,1.5,1.1,2.5
		c0.2,0.9,0.3,2,0.3,3.1c0,0.8,0,1.6-0.2,2.1c-0.1,0.6-0.3,1-0.6,1.4c-0.3,0.3-0.8,0.6-1.3,0.7c-0.6,0.1-1.3,0.2-2.2,0.2h-14.1
		c-0.7,0-1.3,0.2-1.6,0.5c-0.3,0.4-0.5,1-0.5,2.1c0,1,0.2,1.6,0.5,2.1c0.4,0.4,0.9,0.6,1.6,0.6h16.3c1.7,0,3.1-0.2,4.3-0.7
		c1.2-0.4,2.1-1.3,2.8-2.5c0.6,1.3,1.5,2.2,2.6,2.6c1.1,0.4,2.4,0.6,3.9,0.6c0.7,0,1.3-0.2,1.6-0.6c0.3-0.4,0.5-1.1,0.5-2.1
		c0-0.9-0.2-1.6-0.5-2c-0.4-0.4-0.9-0.6-1.6-0.6h-0.9c-1.3,0-2.3-0.3-3.1-0.8c-0.8-0.5-1.2-1.3-1.3-2.2c0-0.2,0-0.4,0-0.6
		c0-0.2,0-0.4,0-0.7c0-1.8-0.2-3.5-0.6-5.1c-0.4-1.6-1.1-3-2-4.2c-1-1.2-2.2-2.2-3.8-2.9c-1.6-0.7-3.6-1.1-5.9-1.1
		c-2.2,0-4,0.4-5.5,1.2c-1.5,0.8-2.8,1.8-3.9,3.1C304.4,119.8,304.4,120,304.7,120.3 M296.7,116.7c0-0.3-0.2-0.5-0.5-0.5h-4.9
		c-0.3,0-0.5,0.2-0.5,0.5v11.2c0,0.9,0,1.7-0.1,2.3c0,0.6-0.1,1.1-0.3,1.5c-0.2,0.4-0.4,0.7-0.8,0.8c-0.4,0.2-0.8,0.3-1.4,0.3h-2.5
		c-0.8,0-1.3,0.3-1.7,1c-0.3,0.7-0.5,1.5-0.5,2.4c0,0.8,0.2,1.3,0.5,1.5c0.4,0.2,0.9,0.3,1.6,0.3h4.2c1.7,0,3-0.2,4-0.6
		c1-0.4,1.7-1.1,2.2-2.1c0.6,1.1,1.4,1.9,2.4,2.2c1,0.3,2.2,0.5,3.6,0.5c0.7,0,1.3-0.2,1.6-0.6c0.3-0.4,0.5-1.1,0.5-2.1
		c0-0.9-0.2-1.6-0.5-2c-0.4-0.4-0.9-0.6-1.6-0.6h-0.9c-1.3,0-2.4-0.3-3.2-0.8c-0.8-0.6-1.2-1.4-1.2-2.4V116.7z M296.3,110.9
		c0.4,0,0.5-0.2,0.5-0.5v-4.6c0-0.4-0.2-0.5-0.5-0.5h-5.1c-0.4,0-0.5,0.2-0.5,0.5v4.6c0,0.4,0.2,0.5,0.5,0.5H296.3z M253.4,120.9
		c0-0.4-0.2-0.5-0.5-0.5H248c-0.3,0-0.5,0.2-0.5,0.5v6.8c0,1,0,1.8,0,2.4c0,0.7-0.1,1.2-0.3,1.6c-0.2,0.4-0.4,0.7-0.7,0.9
		c-0.3,0.2-0.8,0.3-1.4,0.3h-4.2c-0.7,0-1.3,0.2-1.6,0.6c-0.3,0.4-0.5,1.2-0.5,2.2c0,0.6,0.1,1,0.2,1.3c0.1,0.3,0.3,0.6,0.5,0.7
		c0.2,0.2,0.5,0.3,0.8,0.3c0.3,0,0.7,0.1,1.1,0.1h5.7c1.6,0,2.8-0.2,3.8-0.6c0.9-0.4,1.6-1.2,2.1-2.2c0.9,1.9,2.6,2.8,5.1,2.8h2.3
		c1.6,0,2.8-0.2,3.8-0.6c0.9-0.4,1.6-1.1,2.1-2.2c0.5,0.9,1.1,1.6,2,2.1c0.9,0.5,1.9,0.7,3.1,0.7h2.3c1.6,0,2.8-0.2,3.8-0.6
		c0.9-0.4,1.6-1.1,2.1-2.1c0.6,1.1,1.4,1.9,2.4,2.2c1,0.3,2.2,0.5,3.6,0.5c0.7,0,1.2-0.2,1.6-0.6c0.4-0.4,0.5-1.1,0.5-2.1
		c0-0.9-0.2-1.6-0.5-2c-0.4-0.4-0.9-0.6-1.6-0.6h-0.9c-1.3,0-2.4-0.3-3.2-0.8c-0.8-0.6-1.2-1.4-1.2-2.4v-12.8c0-0.3-0.2-0.5-0.5-0.5
		h-4.9c-0.3,0-0.5,0.2-0.5,0.5v11c0,1.1,0,2-0.1,2.7c-0.1,0.7-0.2,1.2-0.5,1.6c-0.3,0.4-0.6,0.6-1.1,0.7c-0.5,0.1-1.2,0.2-2,0.2
		c-1.1,0-2-0.3-2.7-0.8c-0.7-0.5-1-1.3-1-2.4v-8.8c0-0.4-0.2-0.5-0.5-0.5h-4.9c-0.3,0-0.5,0.2-0.5,0.5v6.8c0,1.1,0,2-0.1,2.7
		c-0.1,0.7-0.2,1.2-0.5,1.6c-0.2,0.4-0.6,0.6-1.1,0.8c-0.5,0.1-1.2,0.2-2.1,0.2c-1.3,0-2.2-0.3-2.8-0.8c-0.6-0.5-0.9-1.4-0.9-2.5
		V120.9z M237.1,137.6c1,0.3,2.2,0.5,3.6,0.5c0.7,0,1.3-0.2,1.6-0.6c0.3-0.4,0.5-1.1,0.5-2.1c0-0.9-0.2-1.6-0.5-2
		c-0.4-0.4-0.9-0.6-1.6-0.6h-0.9c-1.3,0-2.4-0.3-3.2-0.8c-0.8-0.6-1.2-1.4-1.2-2.4v-12.8c0-0.3-0.2-0.5-0.5-0.5h-4.5
		c-0.2,0-0.4,0-0.6,0.1c-0.2,0.1-0.3,0.2-0.3,0.4v11c0,0.9,0,1.7-0.1,2.4c0,0.6-0.1,1.2-0.3,1.6c-0.2,0.4-0.4,0.7-0.7,0.9
		c-0.3,0.2-0.8,0.3-1.5,0.3h-3.4c-0.7,0-1.3,0.2-1.6,0.6c-0.3,0.4-0.5,1.1-0.5,2.2c0,1,0.2,1.7,0.5,2c0.4,0.3,0.9,0.5,1.6,0.5h4.9
		c1.7,0,3-0.2,4-0.6c1-0.4,1.7-1.1,2.2-2.1C235.3,136.6,236.1,137.3,237.1,137.6 M230.9,148.3c0.4,0,0.5-0.2,0.5-0.5v-4.6
		c0-0.4-0.2-0.5-0.5-0.5h-4.4c-0.4,0-0.5,0.2-0.5,0.5v4.6c0,0.4,0.2,0.5,0.5,0.5H230.9z M237.8,148.3c0.4,0,0.5-0.2,0.5-0.5v-4.6
		c0-0.4-0.2-0.5-0.5-0.5h-4.4c-0.4,0-0.5,0.2-0.5,0.5v4.6c0,0.4,0.2,0.5,0.5,0.5H237.8z M212.4,136.9c0,2.4-0.6,4.1-1.9,5.2
		c-1.3,1.1-2.9,1.6-4.9,1.6c-0.8,0-1.6-0.1-2.5-0.3c-0.8-0.2-1.6-0.6-2.3-1.2c-0.7-0.6-1.3-1.3-1.7-2.2c-0.4-0.9-0.7-2.1-0.7-3.5
		c0-1.6,0.3-3,0.8-4.4c0.5-1.3,1.1-2.5,1.6-3.5c0.1-0.1,0.1-0.3,0.1-0.4c0-0.1-0.1-0.2-0.3-0.3l-4.3-1.7c-0.3-0.2-0.6-0.2-0.8,0.1
		c-0.9,1.4-1.6,3-2.2,4.9c-0.6,1.9-0.9,3.8-0.9,5.7c0,2,0.3,3.8,1,5.3c0.6,1.5,1.6,2.8,2.7,3.8c1.2,1,2.5,1.8,4.1,2.2
		c1.6,0.5,3.3,0.7,5.1,0.7c1.9,0,3.7-0.2,5.3-0.7c1.6-0.5,2.9-1.2,4.1-2.3c1.1-1,2-2.3,2.6-3.8c0.6-1.5,0.9-3.3,0.9-5.3v-0.6
		c0.6,0.7,1.3,1.2,2.1,1.4c0.8,0.2,1.8,0.3,2.8,0.3c0.7,0,1.3-0.2,1.6-0.6c0.3-0.4,0.5-1.1,0.5-2.1c0-0.9-0.2-1.6-0.5-2
		c-0.4-0.4-0.9-0.6-1.6-0.6h-0.6c-1.3,0-2.4-0.3-3.2-0.8c-0.8-0.6-1.2-1.4-1.2-2.4v-8.4c0-0.4-0.2-0.5-0.5-0.5h-4.9
		c-0.3,0-0.5,0.2-0.5,0.5V136.9z M209.4,118c0.4,0,0.5-0.2,0.5-0.5v-4.6c0-0.4-0.2-0.5-0.5-0.5h-5.1c-0.4,0-0.5,0.2-0.5,0.5v4.6
		c0,0.4,0.2,0.5,0.5,0.5H209.4z"/>
	<path class="st1" d="M355.5,40.6c0-0.4-0.2-0.5-0.5-0.5h-4.9c-0.3,0-0.5,0.2-0.5,0.5v34.9c0,0.4,0.2,0.5,0.5,0.5h4.9
		c0.3,0,0.5-0.2,0.5-0.5V40.6z M336.5,76c2.2,0,3.8-0.5,4.7-1.6c0.9-1.1,1.4-2.8,1.4-5V40.6c0-0.4-0.2-0.5-0.5-0.5h-4.9
		c-0.3,0-0.5,0.2-0.5,0.5v27.3c0,1.1-0.2,1.8-0.6,2.2c-0.4,0.4-1,0.6-1.9,0.6h-2.6c-0.7,0-1.3,0.2-1.6,0.6c-0.3,0.4-0.5,1.1-0.5,2.1
		c0,1,0.2,1.7,0.5,2.1c0.4,0.3,0.9,0.5,1.6,0.5H336.5z M305.2,65.1c0,0.2,0,0.5,0.1,0.8c0,1.8-0.4,3.1-1.1,3.8c-0.7,0.7-1.4,1-2.3,1
		h-2.1c-0.7,0-1.3,0.2-1.6,0.5c-0.3,0.4-0.5,1-0.5,2.1c0,1,0.2,1.6,0.5,2.1c0.4,0.4,0.9,0.6,1.6,0.6h1.8c0.5,0,1,0,1.6-0.1
		c0.6-0.1,1.1-0.2,1.6-0.4c0.5-0.2,1-0.5,1.5-0.8c0.5-0.4,0.9-0.8,1.3-1.4c1,1.1,2.1,1.9,3.5,2.4c1.4,0.5,3,0.7,4.8,0.7
		c1.8,0,3.4-0.2,4.8-0.7c1.4-0.5,2.6-1.3,3.6-2.5c0.5,0.7,1,1.2,1.6,1.6c0.6,0.4,1.2,0.7,1.9,0.9c0.7,0.2,1.3,0.3,2,0.3
		c0.7,0,1.3,0.1,1.9,0.1c0.7,0,1.3-0.2,1.6-0.6c0.3-0.4,0.5-1.1,0.5-2.1c0-0.9-0.2-1.6-0.5-2c-0.4-0.4-0.9-0.6-1.6-0.6h-1.5
		c-0.8,0-1.6-0.3-2.2-0.9c-0.7-0.6-1-1.7-1-3.1c0-0.3,0-0.6,0-0.9v-0.9c0-2.1-0.3-4-0.8-5.5c-0.5-1.5-1.3-2.7-2.3-3.6
		c-1-0.9-2.1-1.6-3.5-2c-1.3-0.4-2.8-0.6-4.3-0.6c-1.6,0-3,0.2-4.3,0.6c-1.3,0.4-2.4,1.1-3.4,1.9c-1,0.9-1.7,2.1-2.3,3.5
		c-0.5,1.4-0.8,3.2-0.9,5.2V65.1z M321.1,64.8c0,2.2-0.4,3.8-1.2,4.8c-0.8,1-2.1,1.5-3.8,1.5c-1.7,0-2.9-0.5-3.7-1.5
		c-0.8-1-1.2-2.6-1.2-4.8c0-2.1,0.4-3.6,1.2-4.7c0.8-1.1,2-1.6,3.7-1.6C319.4,58.4,321.1,60.5,321.1,64.8 M267.9,58.7
		c0-0.4-0.2-0.5-0.5-0.5h-4.9c-0.3,0-0.5,0.2-0.5,0.5v6.8c0,1,0,1.8,0,2.4c0,0.7-0.1,1.2-0.3,1.6c-0.2,0.4-0.4,0.7-0.7,0.9
		c-0.3,0.2-0.8,0.3-1.5,0.3h-4.2c-0.7,0-1.3,0.2-1.6,0.6c-0.3,0.4-0.5,1.2-0.5,2.2c0,0.6,0.1,1,0.2,1.3c0.1,0.3,0.3,0.6,0.5,0.7
		c0.2,0.2,0.5,0.3,0.8,0.3c0.3,0,0.7,0.1,1.1,0.1h5.7c1.6,0,2.8-0.2,3.7-0.6c0.9-0.4,1.6-1.2,2.1-2.2c0.9,1.9,2.6,2.8,5.1,2.8h2.3
		c1.6,0,2.8-0.2,3.8-0.6c0.9-0.4,1.6-1.1,2.1-2.2c0.5,0.9,1.1,1.6,2,2.1c0.9,0.5,1.9,0.7,3.1,0.7h2.3c1.6,0,2.8-0.2,3.8-0.6
		c0.9-0.4,1.6-1.1,2.1-2.1c0.6,1.1,1.4,1.9,2.4,2.2c1,0.3,2.2,0.5,3.6,0.5c0.7,0,1.2-0.2,1.6-0.6c0.4-0.4,0.5-1.1,0.5-2.1
		c0-0.9-0.2-1.6-0.5-2c-0.4-0.4-0.9-0.6-1.6-0.6h-0.9c-1.3,0-2.4-0.3-3.2-0.8c-0.8-0.6-1.2-1.4-1.2-2.4V54.6c0-0.3-0.2-0.5-0.5-0.5
		h-4.9c-0.3,0-0.5,0.2-0.5,0.5v11c0,1.1,0,2-0.1,2.7c-0.1,0.7-0.2,1.2-0.5,1.6c-0.3,0.4-0.6,0.6-1.1,0.7c-0.5,0.1-1.2,0.2-2,0.2
		c-1.1,0-2-0.3-2.7-0.8c-0.7-0.5-1-1.3-1-2.4v-8.8c0-0.4-0.2-0.5-0.5-0.5h-4.9c-0.3,0-0.5,0.2-0.5,0.5v6.8c0,1.1,0,2-0.1,2.7
		c-0.1,0.7-0.2,1.2-0.5,1.6c-0.2,0.4-0.6,0.6-1.1,0.8c-0.5,0.1-1.2,0.2-2.1,0.2c-1.3,0-2.2-0.3-2.8-0.8c-0.6-0.5-0.9-1.4-0.9-2.5
		V58.7z M244.9,69.3c0,2.3,0.5,4,1.4,5c0.9,1.1,2.5,1.6,4.7,1.6h4.2c0.7,0,1.3-0.2,1.6-0.5c0.3-0.3,0.5-1,0.5-2.1
		c0-1-0.2-1.7-0.5-2.1c-0.3-0.4-0.9-0.6-1.6-0.6h-1.8c-0.9,0-1.5-0.2-1.9-0.6c-0.4-0.4-0.6-1.1-0.6-2.2V40.6c0-0.4-0.2-0.5-0.5-0.5
		h-4.9c-0.3,0-0.5,0.2-0.5,0.5V69.3z M231.2,60c0.8,1.1,1.2,2.6,1.2,4.7v6h-4.7c-1.7,0-3-0.4-3.9-1.2c-0.9-0.8-1.3-2.3-1.3-4.5
		c0-2,0.4-3.6,1.3-4.8c0.9-1.2,2.1-1.8,3.8-1.8C229.2,58.4,230.4,58.9,231.2,60 M232.3,76c0,1.2-0.1,2.1-0.3,2.8
		c-0.2,0.7-0.6,1.3-1,1.6c-0.4,0.4-0.9,0.6-1.5,0.8c-0.6,0.1-1.3,0.2-2,0.2h-6.2c-0.4,0-0.5,0.2-0.5,0.5v4.2c0,0.4,0.2,0.5,0.5,0.5
		h7.1c3.2,0,5.6-0.8,7.3-2.3c1.7-1.5,2.5-3.9,2.5-7.2V64.8c0-2.1-0.3-4-0.8-5.4c-0.5-1.5-1.3-2.7-2.2-3.6c-1-0.9-2.1-1.6-3.4-2
		c-1.3-0.4-2.8-0.6-4.4-0.6c-1.4,0-2.8,0.2-4.1,0.7c-1.3,0.4-2.5,1.1-3.5,2.1c-1,1-1.8,2.2-2.4,3.8c-0.6,1.5-0.9,3.4-0.9,5.5
		c0,2,0.2,3.7,0.7,5.1c0.5,1.4,1.2,2.5,2,3.4c0.9,0.9,2,1.5,3.2,1.9c1.3,0.4,2.8,0.6,4.4,0.6H232.3z M210.5,40.6
		c0-0.4-0.2-0.5-0.5-0.5h-4.9c-0.3,0-0.5,0.2-0.5,0.5v34.9c0,0.4,0.2,0.5,0.5,0.5h4.9c0.3,0,0.5-0.2,0.5-0.5V40.6z M186.4,48.8
		c0.3,0,0.5-0.2,0.5-0.5v-4.6c0-0.4-0.2-0.5-0.5-0.5H182c-0.4,0-0.5,0.2-0.5,0.5v4.6c0,0.4,0.2,0.5,0.5,0.5H186.4z M193.3,48.8
		c0.4,0,0.5-0.2,0.5-0.5v-4.6c0-0.4-0.2-0.5-0.5-0.5h-4.4c-0.4,0-0.5,0.2-0.5,0.5v4.6c0,0.4,0.2,0.5,0.5,0.5H193.3z M192.5,64.8
		c0,2.2-0.4,3.8-1.2,4.8c-0.8,1-2.1,1.5-3.7,1.5c-1.7,0-2.9-0.5-3.8-1.5c-0.8-1-1.2-2.6-1.2-4.8c0-2.1,0.4-3.6,1.2-4.7
		c0.8-1.1,2.1-1.6,3.8-1.6C190.9,58.4,192.5,60.5,192.5,64.8 M191.9,75.7c1.3-0.4,2.5-1.1,3.5-2c1-0.9,1.7-2.1,2.2-3.5
		c0.5-1.4,0.8-3.2,0.8-5.3c0-2.1-0.3-4-0.8-5.5c-0.6-1.5-1.3-2.7-2.3-3.6c-1-0.9-2.1-1.6-3.5-2c-1.3-0.4-2.8-0.6-4.3-0.6
		s-3,0.2-4.3,0.6c-1.3,0.4-2.5,1.1-3.5,2s-1.7,2.1-2.3,3.6c-0.5,1.5-0.8,3.3-0.8,5.5c0,2.1,0.3,3.8,0.8,5.3c0.5,1.4,1.3,2.6,2.2,3.5
		c1,0.9,2.1,1.6,3.4,2c1.3,0.4,2.8,0.6,4.4,0.6C189.1,76.4,190.6,76.2,191.9,75.7 M152.2,76c2.2,0,3.8-0.5,4.7-1.6
		c0.9-1.1,1.4-2.8,1.4-5V54.6c0-0.4-0.2-0.5-0.5-0.5H153c-0.3,0-0.5,0.2-0.5,0.5v13.3c0,1.1-0.2,1.8-0.6,2.2c-0.4,0.4-1,0.6-1.9,0.6
		h-2.6c-0.7,0-1.3,0.3-1.6,1c-0.3,0.7-0.5,1.5-0.5,2.4c0,0.7,0.2,1.2,0.5,1.5c0.4,0.2,0.9,0.4,1.6,0.4H152.2z M157.1,86
		c0.4,0,0.5-0.2,0.5-0.5v-4.6c0-0.4-0.2-0.5-0.5-0.5H152c-0.4,0-0.5,0.2-0.5,0.5v4.6c0,0.4,0.2,0.5,0.5,0.5H157.1z M143.7,75.5
		c1,0.3,2.2,0.5,3.6,0.5c0.7,0,1.3-0.2,1.6-0.6c0.3-0.4,0.5-1.1,0.5-2.1c0-0.9-0.2-1.6-0.5-2c-0.4-0.4-0.9-0.6-1.6-0.6h-0.9
		c-1.3,0-2.4-0.3-3.2-0.8c-0.8-0.6-1.2-1.4-1.2-2.4V54.6c0-0.3-0.2-0.5-0.5-0.5H137c-0.2,0-0.4,0-0.6,0.1c-0.2,0.1-0.3,0.2-0.3,0.4
		v11c0,0.9,0,1.7-0.1,2.4c0,0.6-0.1,1.2-0.3,1.6c-0.2,0.4-0.4,0.7-0.7,0.9c-0.3,0.2-0.8,0.3-1.5,0.3h-3.4c-0.7,0-1.3,0.2-1.6,0.6
		c-0.3,0.4-0.5,1.1-0.5,2.2c0,1,0.2,1.7,0.5,2c0.4,0.3,0.9,0.5,1.6,0.5h4.9c1.7,0,3-0.2,4-0.6c1-0.4,1.7-1.1,2.2-2.1
		C141.9,74.4,142.7,75.2,143.7,75.5 M137.5,86.1c0.4,0,0.5-0.2,0.5-0.5V81c0-0.4-0.2-0.5-0.5-0.5h-4.4c-0.4,0-0.5,0.2-0.5,0.5v4.6
		c0,0.4,0.2,0.5,0.5,0.5H137.5z M144.4,86.1c0.4,0,0.5-0.2,0.5-0.5V81c0-0.4-0.2-0.5-0.5-0.5h-4.4c-0.4,0-0.5,0.2-0.5,0.5v4.6
		c0,0.4,0.2,0.5,0.5,0.5H144.4z M118.9,74.7c0,2.4-0.6,4.1-1.9,5.2c-1.3,1.1-2.9,1.6-4.9,1.6c-0.8,0-1.6-0.1-2.5-0.3
		c-0.8-0.2-1.6-0.6-2.3-1.2c-0.7-0.6-1.3-1.3-1.7-2.2c-0.4-0.9-0.7-2.1-0.7-3.5c0-1.6,0.3-3,0.8-4.4c0.5-1.3,1-2.5,1.6-3.5
		c0.1-0.1,0.1-0.3,0.1-0.4c0-0.1-0.1-0.2-0.3-0.3l-4.3-1.7c-0.3-0.2-0.6-0.2-0.8,0.1c-0.9,1.4-1.6,3-2.2,4.9
		C99.3,71,99,72.9,99,74.8c0,2,0.3,3.8,1,5.3c0.6,1.5,1.6,2.8,2.7,3.8c1.2,1,2.5,1.8,4.1,2.2c1.6,0.5,3.3,0.7,5.1,0.7
		c1.9,0,3.7-0.2,5.3-0.7c1.6-0.5,2.9-1.2,4.1-2.2c1.1-1,2-2.3,2.6-3.8c0.6-1.5,0.9-3.3,0.9-5.3v-0.6c0.6,0.7,1.3,1.2,2.1,1.4
		c0.8,0.2,1.8,0.3,2.8,0.3c0.7,0,1.3-0.2,1.6-0.6c0.3-0.4,0.5-1.1,0.5-2.1c0-0.9-0.2-1.6-0.5-2c-0.4-0.4-0.9-0.6-1.6-0.6h-0.6
		c-1.3,0-2.4-0.3-3.2-0.8c-0.8-0.6-1.2-1.4-1.2-2.4V59c0-0.4-0.2-0.5-0.5-0.5h-4.9c-0.3,0-0.5,0.2-0.5,0.5V74.7z M116,55.9
		c0.4,0,0.5-0.2,0.5-0.5v-4.6c0-0.4-0.2-0.5-0.5-0.5h-5.1c-0.4,0-0.5,0.2-0.5,0.5v4.6c0,0.4,0.2,0.5,0.5,0.5H116z"/>
</g>
</svg>
