<?xml version="1.0" encoding="utf-8"?>
<svg version="1.1" id="Layer_1" xmlns="http://www.w3.org/2000/svg" xmlns:xlink="http://www.w3.org/1999/xlink" x="0px" y="0px"
	 viewBox="0 0 500 500" style="enable-background:new 0 0 500 500;" xml:space="preserve">
<style type="text/css">
	.st1{fill:#FFFFFF;}
	.st9{fill:#FDB714;}
</style>
<rect class="st9" width="500" height="500"/>
<g>
	<path class="st1" d="M250.2,353.6c-21.1,0-38.3-17.1-38.3-38.3c0-17.2,11.3-31.7,26.9-36.6V293c-8.1,4.1-13.7,12.6-13.7,22.3
		c0,13.8,11.2,25.1,25.1,25.1c13.8,0,25.1-11.2,25.1-25.1c0-9.8-5.6-18.2-13.7-22.3v-14.2c15.6,4.8,27,19.4,27,36.6
		C288.5,336.4,271.3,353.6,250.2,353.6 M244.7,271.3c0-2.5,2.5-5.1,5.5-5.1c3,0,5.5,2.7,5.5,5.1v25.3c0,2.4-2.4,5.1-5.5,5.1
		c-3,0-5.5-2.7-5.5-5.1V271.3z M250.2,242.2c-40.7,0-73.6,33-73.6,73.6c0,40.7,32.9,73.6,73.6,73.6c40.7,0,73.6-33,73.6-73.6
		C323.8,275.2,290.8,242.2,250.2,242.2"/>
	<path class="st1" d="M165.7,315.2c0-3.3-3-6-5.7-6h-32.2c-2.7,0-5.7,2.7-5.7,6c0,3.3,3,6.1,5.7,6.1H160
		C162.7,321.3,165.7,318.5,165.7,315.2"/>
	<path class="st1" d="M378.3,315.2c0-3.3-3-6-5.7-6h-32.2c-2.7,0-5.7,2.7-5.7,6c0,3.3,3,6.1,5.7,6.1h32.2
		C375.4,321.3,378.3,318.5,378.3,315.2"/>
	<path class="st1" d="M250.2,443.3c3.3,0,6-3,6-5.7v-32.2c0-2.7-2.7-5.7-6-5.7c-3.3,0-6.1,3-6.1,5.7v32.2
		C244.1,440.4,246.9,443.3,250.2,443.3"/>
	<path class="st1" d="M361.4,378.8c1.7-2.9,0.4-6.7-1.9-8.1l-28-16c-2.4-1.3-6.3-0.5-7.9,2.4c-1.7,2.9-0.4,6.8,1.9,8.1l28,16
		C355.8,382.6,359.7,381.7,361.4,378.8"/>
	<path class="st1" d="M186.6,426.4c2.9,1.7,6.7,0.4,8-1.9l16-28c1.3-2.4,0.5-6.3-2.4-7.9c-2.9-1.7-6.8-0.4-8.1,1.9l-16,28
		C182.8,420.8,183.7,424.7,186.6,426.4"/>
	<path class="st1" d="M314.1,426.3c2.9-1.7,3.8-5.6,2.4-7.9l-16.1-27.9c-1.4-2.4-5.2-3.6-8.1-1.9c-2.9,1.7-3.8,5.6-2.4,8l16.1,27.9
		C307.3,426.7,311.2,427.9,314.1,426.3"/>
	<path class="st1" d="M139.1,379.1c1.7,2.9,5.6,3.8,7.9,2.4l27.9-16.1c2.4-1.4,3.6-5.2,1.9-8.1c-1.7-2.9-5.6-3.8-8-2.4L141,371
		C138.7,372.3,137.5,376.2,139.1,379.1"/>
	<path class="st1" d="M250.2,230.7c3.3,0,6-3,6-5.7v-32.2c0-2.7-2.7-5.7-6-5.7c-3.3,0-6.1,3-6.1,5.7V225
		C244.1,227.7,246.9,230.7,250.2,230.7"/>
	<path class="st1" d="M176.8,273.2c1.7-2.9,0.4-6.7-1.9-8.1l-28-16c-2.4-1.4-6.3-0.5-7.9,2.4c-1.7,2.9-0.4,6.7,1.9,8.1l28,16
		C171.3,277,175.2,276.1,176.8,273.2"/>
	<path class="st1" d="M292.2,241.8c2.9,1.7,6.7,0.4,8-1.9l16-28c1.3-2.4,0.5-6.3-2.4-8c-2.9-1.7-6.7-0.4-8.1,1.9l-16,28
		C288.4,236.3,289.3,240.2,292.2,241.8"/>
	<path class="st1" d="M208.1,241.9c2.9-1.7,3.8-5.6,2.4-7.9l-16.1-28c-1.4-2.4-5.2-3.6-8.1-1.9c-2.9,1.7-3.8,5.6-2.4,8l16.1,28
		C201.3,242.4,205.2,243.6,208.1,241.9"/>
	<path class="st1" d="M323.5,273.1c1.7,2.9,5.6,3.8,7.9,2.4l27.9-16.1c2.4-1.4,3.6-5.2,1.9-8.1c-1.7-2.9-5.6-3.8-8-2.4l-28,16.1
		C323,266.3,321.8,270.2,323.5,273.1"/>
</g>
<polygon class="st1" points="50.4,54.8 76.7,54.8 54,142.2 70.8,142.2 93.1,56.6 93.1,40.9 50.4,40.9 "/>
<path class="st1" d="M149.7,70h5.7l-2.8-17h-0.1L149.7,70z M140.8,83.4l8-42.3h8.1l8.1,42.3h-7.3l-1.3-7.7h-7.6l-1.2,7.7H140.8z"/>
<polygon class="st1" points="167.9,41 184.5,41 184.5,46.9 175,46.9 175,59 182.1,59 182.1,64.7 175,64.7 175,83.4 167.9,83.4 "/>
<polygon class="st1" points="187.7,41 204.3,41 204.3,46.9 194.8,46.9 194.8,59 201.9,59 201.9,64.7 194.8,64.7 194.8,83.4 
	187.7,83.4 "/>
<g>
	<path class="st1" d="M221.2,73.6V50.8c0-2.6-1.1-4.4-3.7-4.4c-2.5,0-3.6,1.8-3.6,4.4v22.7c0,2.6,1.1,4.4,3.6,4.4
		C220.1,77.9,221.2,76.1,221.2,73.6 M206.8,72.4V52c0-6.6,3.2-11.4,10.7-11.4c7.6,0,10.8,4.8,10.8,11.4v20.5
		c0,6.6-3.2,11.4-10.8,11.4C210.1,83.9,206.8,79,206.8,72.4"/>
	<path class="st1" d="M239.5,46.9V60h2.4c2.4,0,3.5-1.2,3.5-3.5v-6.2c0-2.3-1.1-3.4-3.5-3.4H239.5z M239.5,64v19.4h-7.1V41h10.4
		c7.2,0,9.8,3.6,9.8,9.5V56c0,4.6-1.6,7.2-5.7,8.2l6.8,19.2h-7.5L239.5,64z"/>
	<path class="st1" d="M266.6,77.6c2.9,0,4.1-1.7,4.1-4.3V51.1c0-2.5-1.1-4.2-4.1-4.2h-3v30.7H266.6z M277.7,52.4V72
		c0,6.5-2.7,11.4-10.3,11.4h-11V41h11C275.1,41,277.7,45.8,277.7,52.4"/>
</g>
<path class="st1" d="M288.7,70h5.7l-2.8-17h-0.1L288.7,70z M279.7,83.4l8-42.3h8.1l8.1,42.3h-7.3l-1.3-7.7h-7.6l-1.2,7.7H279.7z"/>
<g>
	<path class="st1" d="M314,64.3v13.2h3.1c2.4,0,3.5-1.2,3.5-3.4v-6.4c0-2.2-1.1-3.4-3.6-3.4H314z M314,58.9h2.5
		c2.3,0,3.4-1.2,3.4-3.4v-5.2c0-2.3-1.1-3.4-3.4-3.4H314V58.9z M306.8,41h10.3c7.1,0,9.5,3.3,9.5,9.3v4.3c0,3.6-1.3,5.8-4.2,6.7
		c3.6,0.8,5.3,3.2,5.3,7v5.6c0,6-2.7,9.3-9.8,9.3h-11.1V41z"/>
</g>
<polygon class="st1" points="331.2,41 338.4,41 338.4,77.6 346.9,77.6 346.9,83.4 331.2,83.4 "/>
<polygon class="st1" points="350.1,41 367.1,41 367.1,46.9 357.2,46.9 357.2,59 364.3,59 364.3,64.7 357.2,64.7 357.2,77.6 
	367.1,77.6 367.1,83.4 350.1,83.4 "/>
<path class="st1" d="M389.4,70h5.7l-2.8-17h-0.1L389.4,70z M380.5,83.4l8-42.3h8.1l8.1,42.3h-7.3l-1.3-7.7h-7.6l-1.2,7.7H380.5z"/>
<polygon class="st1" points="413.5,56.8 413.5,83.4 407.6,83.4 407.6,41 414.5,41 422.2,65.3 422.2,41 428.2,41 428.2,83.4 
	421.9,83.4 "/>
<g>
	<path class="st1" d="M442.3,77.6c2.9,0,4.1-1.7,4.1-4.3V51.1c0-2.5-1.1-4.2-4.1-4.2h-3v30.7H442.3z M453.5,52.4V72
		c0,6.5-2.7,11.4-10.3,11.4h-11V41h11C450.8,41,453.5,45.8,453.5,52.4"/>
	<path class="st1" d="M141.9,131.8v-20.5c0-6.6,3.1-11.4,10.6-11.4c7.9,0,10,4.4,10,10.6v5h-6.5v-5.5c0-2.6-0.9-4.1-3.4-4.1
		c-2.6,0-3.6,1.8-3.6,4.4v22.7c0,2.6,1.1,4.4,3.6,4.4c2.6,0,3.4-1.6,3.4-4.1v-7.8h6.5v7.3c0,6-2.5,10.5-10,10.5
		C145,143.2,141.9,138.3,141.9,131.8"/>
</g>
<polygon class="st1" points="166.4,100.3 173.6,100.3 173.6,136.9 182.1,136.9 182.1,142.7 166.4,142.7 "/>
<polygon class="st1" points="185.3,100.3 202.3,100.3 202.3,106.2 192.4,106.2 192.4,118.3 199.5,118.3 199.5,124 192.4,124 
	192.4,136.9 202.3,136.9 202.3,142.7 185.3,142.7 "/>
<path class="st1" d="M213.9,129.3h5.7l-2.8-17h-0.1L213.9,129.3z M205,142.7l8-42.3h8.1l8.1,42.3h-7.3l-1.3-7.7h-7.6l-1.2,7.7H205z"
	/>
<polygon class="st1" points="238,116.1 238,142.7 232,142.7 232,100.3 239,100.3 246.7,124.6 246.7,100.3 252.7,100.3 252.7,142.7 
	246.4,142.7 "/>
<polygon class="st1" points="267.4,100.3 284.4,100.3 284.4,106.2 274.5,106.2 274.5,118.3 281.6,118.3 281.6,124 274.5,124 
	274.5,136.9 284.4,136.9 284.4,142.7 267.4,142.7 "/>
<polygon class="st1" points="294.2,116.1 294.2,142.7 288.2,142.7 288.2,100.3 295.2,100.3 302.9,124.6 302.9,100.3 308.8,100.3 
	308.8,142.7 302.6,142.7 "/>
<polygon class="st1" points="312.9,100.3 329.8,100.3 329.8,106.2 320,106.2 320,118.3 327,118.3 327,124 320,124 320,136.9 
	329.8,136.9 329.8,142.7 312.9,142.7 "/>
<g>
	<path class="st1" d="M340.8,106.2v13.2h2.4c2.4,0,3.5-1.2,3.5-3.5v-6.2c0-2.3-1.1-3.4-3.5-3.4H340.8z M340.8,123.3v19.4h-7.1v-42.3
		H344c7.2,0,9.8,3.6,9.8,9.5v5.4c0,4.6-1.6,7.2-5.7,8.2l6.8,19.2h-7.5L340.8,123.3z"/>
	<path class="st1" d="M368.4,120.1h10.1v22.6h-5.1v-4.6c-0.9,3.2-2.9,5.1-6.8,5.1c-6.1,0-8.9-4.9-8.9-11.4v-20.5
		c0-6.6,3.2-11.4,10.7-11.4c7.9,0,10.2,4.4,10.2,10.6v3.7H372v-4.3c0-2.6-1-4.1-3.6-4.1c-2.6,0-3.7,1.8-3.7,4.4v22.7
		c0,2.6,1.1,4.4,3.5,4.4c2.3,0,3.5-1.3,3.5-4.1v-7.5h-3.4V120.1z"/>
</g>
<polygon class="st1" points="394.9,126.6 394.9,142.7 387.8,142.7 387.8,126.6 379.8,100.3 387.3,100.3 391.6,116.4 391.6,116.4 
	396,100.3 402.8,100.3 "/>
</svg>
