<?xml version="1.0" encoding="utf-8"?>
<svg version="1.1" id="Layer_1" xmlns="http://www.w3.org/2000/svg" xmlns:xlink="http://www.w3.org/1999/xlink" x="0px" y="0px"
	 viewBox="0 0 500 500" style="enable-background:new 0 0 500 500;" xml:space="preserve">
<style type="text/css">
	.st1{fill:#FFFFFF;}
	.st2{fill:#FFF;}
</style>
<rect class="st2" width="500" height="500"/>
<g>
	<path class="st1" d="M386.4,239.1c0-7.7,6.3-14,14-14c7.7,0,14,6.3,14,14c0,7.7-6.3,14-14,14C392.7,253.1,386.4,246.8,386.4,239.1"
		/>
	<path class="st1" d="M416.7,258.5c9.5,0.9,16.9,8.8,16.9,18.6v4.6v2v32.1c0,3-2.4,5.4-5.4,5.4c-3,0-5.4-2.4-5.4-5.4v-33.3
		c0-1.2-0.4-2.9-2.6-2.9c-1.6,0-1.9,1.7-2,2.7v99.8c0,4.3-3.5,7.8-7.8,7.8c-4.3,0-7.8-3.5-7.8-7.8v-57.5c0-0.6-0.2-2.3-2.2-2.3h0
		c-2,0-2.2,1.6-2.2,2.3v57.5c0,4.3-3.5,7.8-7.8,7.8c-4.3,0-7.8-3.5-7.8-7.8v-99.8c-0.1-1.1-0.4-2.7-2-2.7c-2.3,0-2.6,1.7-2.6,2.9
		v33.3c0,3-2.4,5.4-5.4,5.4s-5.4-2.4-5.4-5.4v-32.1v-2v-4.6c0-9.7,7.4-17.7,16.9-18.6c0.3,0,0.7-0.1,1-0.1h15.3h15.3
		C416.1,258.4,416.4,258.4,416.7,258.5"/>
	<path class="st1" d="M303.3,246.4c0-7.3-5.9-13.2-13.2-13.2s-13.2,5.9-13.2,13.2c0,7.3,5.9,13.2,13.2,13.2S303.3,253.8,303.3,246.4
		"/>
	<path class="st1" d="M263.4,276.4l-11,35.8c0,0-2,6.6,3.6,8.2c5.5,1.6,7.2-4.8,7.2-4.8l8.9-29.9c0,0,0.5-2.3,2.2-1.8
		c1.7,0.5,1.1,3,1.1,3l-15.4,56h14.4v40.1c0,3.8,3.1,6.9,6.9,6.9c3.8,0,6.9-3.1,6.9-6.9V343h2h1.9v40.1c0,3.8,3.1,6.9,6.9,6.9
		c3.8,0,6.9-3.1,6.9-6.9V343h14.4l-15.4-56c0,0-0.7-2.5,1.1-3c1.7-0.5,2.2,1.8,2.2,1.8l8.9,29.9c0,0,1.7,6.4,7.2,4.8
		c5.6-1.6,3.6-8.2,3.6-8.2l-11-35.8c0,0-3.9-10.4-12.6-10.4h-14h-14C267.3,266.1,263.4,276.4,263.4,276.4"/>
	<path class="st1" d="M224,246.4c0-7.3-5.9-13.2-13.2-13.2c-7.3,0-13.2,5.9-13.2,13.2c0,7.3,5.9,13.2,13.2,13.2
		C218.1,259.7,224,253.8,224,246.4"/>
	<path class="st1" d="M184.1,276.4l-11,35.8c0,0-2,6.6,3.6,8.2c5.5,1.6,7.2-4.8,7.2-4.8l8.9-29.9c0,0,0.5-2.3,2.2-1.8
		c1.7,0.5,1.1,3,1.1,3l-15.4,56H195v40.1c0,3.8,3.1,6.9,6.9,6.9c3.8,0,6.9-3.1,6.9-6.9V343h2h1.9v40.1c0,3.8,3.1,6.9,6.9,6.9
		c3.8,0,6.9-3.1,6.9-6.9V343h14.4l-15.4-56c0,0-0.7-2.5,1.1-3c1.7-0.5,2.2,1.8,2.2,1.8l8.9,29.9c0,0,1.7,6.4,7.2,4.8
		c5.6-1.6,3.6-8.2,3.6-8.2l-11-35.8c0,0-3.9-10.4-12.6-10.4h-14h-14C188,266.1,184.1,276.4,184.1,276.4"/>
	<path class="st1" d="M347.7,320.5c6.1,0,11-4.9,11-11c0-6.1-4.9-11-11-11c-6.1,0-11,4.9-11,11C336.7,315.6,341.7,320.5,347.7,320.5
		"/>
	<path class="st1" d="M321.3,354.8c-0.5,1.3-1,4,1.6,5.2c3,1.4,4.7-1.5,4.7-1.5l6-19.1c0,0,1-1.3,1,0v45h0c0,3.1,2.5,5.7,5.6,5.7
		c3.1,0,5.7-2.5,5.7-5.7v-17.7c0,0-0.3-2.5,1.7-2.5c2,0,1.7,2.5,1.7,2.5v17.7c0,3.1,2.5,5.7,5.7,5.7c3.1,0,5.7-2.5,5.7-5.7v-45
		c0-1.3,0.7-0.4,0.7-0.4l4.7,13.1c0,0,2,5.8,2.7,6.1c2.1,0.9,4.6-0.1,5.5-2.3c0.6-1.4,0.4-2.9-0.4-4l0,0c-0.1-0.4-7-17.3-7.8-19.7
		c-2.5-7.3-7-7.2-11.4-7.3c-4.4-0.1-7,0-7,0s-2.8-0.1-8.5,0.1c-5.7,0.2-7.6,3.1-13.9,19.4C324.4,346.7,321.3,354.3,321.3,354.8
		L321.3,354.8z"/>
	<path class="st1" d="M105.8,239.1c0-7.7-6.3-14-14-14c-7.7,0-14,6.3-14,14c0,7.7,6.2,14,14,14C99.5,253.1,105.8,246.8,105.8,239.1"
		/>
	<path class="st1" d="M75.4,258.5c-9.5,0.9-16.9,8.8-16.9,18.6v4.6v2v32.1c0,3,2.4,5.4,5.4,5.4s5.4-2.4,5.4-5.4v-33.3
		c0-1.2,0.4-2.9,2.6-2.9c1.6,0,1.9,1.7,2,2.7v99.8c0,4.3,3.5,7.8,7.8,7.8c4.3,0,7.8-3.5,7.8-7.8v-57.5c0-0.6,0.2-2.3,2.2-2.3h0
		c2,0,2.2,1.6,2.2,2.3v57.5c0,4.3,3.5,7.8,7.8,7.8c4.3,0,7.8-3.5,7.8-7.8v-99.8c0-1.1,0.4-2.7,2-2.7c2.3,0,2.6,1.7,2.6,2.9v33.3
		c0,3,2.4,5.4,5.4,5.4c3,0,5.4-2.4,5.4-5.4v-32.1v-2v-4.6c0-9.7-7.4-17.7-16.9-18.6c-0.3,0-0.6-0.1-1-0.1H91.8H76.5
		C76.1,258.4,75.8,258.4,75.4,258.5"/>
	<path class="st1" d="M50.8,390.2c-0.2,0-0.4,0-0.6-0.1c-1.6-0.3-2.7-1.9-2.4-3.5l12.4-65.8c0.3-1.6,1.9-2.7,3.5-2.4
		c1.6,0.3,2.7,1.9,2.4,3.5l-12.4,65.8C53.5,389.2,52.2,390.2,50.8,390.2"/>
	<path class="st1" d="M131.7,314.8c-0.7-1.1-2-1.9-3.4-1.9c-2.2,0-4,1.8-4,4c0,0.6,0.4,1.8,0.4,1.8l11.1,20.1c0,0,0.7,1.4,0.7,2.6
		v43.2h0c0,3,2.4,5.4,5.4,5.4s5.4-2.4,5.4-5.4v-17c0,0-0.3-2.4,1.6-2.4c1.9,0,1.6,2.4,1.6,2.4v17c0,3,2.4,5.4,5.4,5.4
		c3,0,5.4-2.4,5.4-5.4v-43.2c0-1.3,0.7-2.6,0.7-2.6l10.3-18.6c0,0,1.2-2.7,1.2-3.3c0-2.2-1.8-4-4-4c-1.4,0-2.7,0.7-3.4,1.9l0,0
		c-0.3,0.3-5.5,9.4-7.2,11.1c-1.8,1.8-3.4,1.6-3.4,1.6h-6.7h-6.7c0,0-1.6,0.2-3.4-1.6C137.1,324.2,132,315,131.7,314.8L131.7,314.8z
		"/>
	<path class="st1" d="M148.9,320.5c6.1,0,11-4.9,11-11c0-6.1-4.9-11-11-11c-6.1,0-11,4.9-11,11C137.9,315.6,142.8,320.5,148.9,320.5
		"/>
</g>
<polygon class="st1" points="149,336 161.4,345.1 167.3,366.9 149,366.9 130.6,366.9 136.5,345.1 "/>
<polygon class="st1" points="68,64.6 68.2,64.6 68.2,142.5 85.3,142.5 85.3,40.7 71.6,40.7 55.8,59.2 55.8,77 56,77 "/>
<polygon class="st1" points="148,57.5 148,84.2 142,84.2 142,41.7 149,41.7 156.7,66.1 156.7,41.7 162.7,41.7 162.7,84.2 
	156.4,84.2 "/>
<g>
	<path class="st1" d="M181.3,74.4V51.5c0-2.6-1.1-4.4-3.7-4.4c-2.5,0-3.6,1.8-3.6,4.4v22.8c0,2.6,1.1,4.4,3.6,4.4
		C180.1,78.8,181.3,76.9,181.3,74.4 M166.8,73.2V52.6c0-6.7,3.3-11.5,10.8-11.5c7.6,0,10.9,4.8,10.9,11.5v20.6
		c0,6.6-3.3,11.5-10.9,11.5C170,84.7,166.8,79.8,166.8,73.2"/>
	<path class="st1" d="M149.1,107.1v16.8h2.6c2.4,0,3.5-1.2,3.5-3.5v-9.8c0-2.3-1.1-3.5-3.5-3.5H149.1z M142,101.3h10.6
		c7.2,0,9.9,3.6,9.9,9.5v9c0,6-2.6,9.6-9.9,9.6h-3.5v14.4H142V101.3z"/>
	<path class="st1" d="M180.6,134v-22.8c0-2.6-1.1-4.4-3.7-4.4c-2.5,0-3.6,1.8-3.6,4.4V134c0,2.6,1.1,4.4,3.6,4.4
		C179.5,138.4,180.6,136.6,180.6,134 M166.1,132.9v-20.6c0-6.7,3.3-11.5,10.8-11.5c7.6,0,10.9,4.8,10.9,11.5v20.6
		c0,6.6-3.3,11.5-10.9,11.5C169.4,144.4,166.1,139.5,166.1,132.9"/>
</g>
<polygon class="st1" points="213.5,101.3 205.4,143.9 197.6,143.9 189.6,101.3 196.8,101.3 201.7,131 201.8,131 206.8,101.3 "/>
<polygon class="st1" points="216.5,101.3 233.5,101.3 233.5,107.1 223.6,107.1 223.6,119.3 230.7,119.3 230.7,125.1 223.6,125.1 
	223.6,138 233.5,138 233.5,143.9 216.5,143.9 "/>
<g>
	<path class="st1" d="M244.5,107.1v13.2h2.4c2.4,0,3.5-1.3,3.5-3.5v-6.3c0-2.3-1.1-3.5-3.5-3.5H244.5z M244.5,124.3v19.5h-7.2v-42.6
		h10.4c7.2,0,9.8,3.6,9.8,9.5v5.5c0,4.6-1.6,7.3-5.7,8.2l6.8,19.3h-7.5L244.5,124.3z"/>
</g>
<polygon class="st1" points="260.1,101.3 279.1,101.3 279.1,107.1 273.2,107.1 273.2,143.9 266,143.9 266,107.1 260.1,107.1 "/>
<polygon class="st1" points="296.4,127.7 296.4,143.8 289.2,143.8 289.2,127.7 281.2,101.3 288.7,101.3 293,117.4 293.1,117.4 
	297.4,101.3 304.3,101.3 "/>
</svg>
