<?xml version="1.0" encoding="utf-8"?>
<svg version="1.1" id="Layer_1" xmlns="http://www.w3.org/2000/svg" xmlns:xlink="http://www.w3.org/1999/xlink" x="0px" y="0px"
	 viewBox="0 0 500 500" style="enable-background:new 0 0 500 500;" xml:space="preserve">
<style type="text/css">
	.st1{fill:#FFFFFF;}
	.st6{fill:#26BDE2;}
</style>
<g>
	<rect class="st6" width="500" height="500"/>
	<path class="st1" d="M329.5,241c-5-2.2-11.1-1.4-17.2,1c-22.5,9.1-37.8,12.4-61.5,5c-14.9-4.7-28.9-14.4-45.4-8.5
		c-10.9,4-21.1,7.6-33.5,7.6l-7.1-36.6h169.7L329.5,241z M271.9,349.7c0,0-8.2,8.4-21.6,7.5c-13.4,0.9-21.6-7.5-21.6-7.5
		c-13.6-13.6-8.7-30.5-4-39.2c2.9-5.5,23.8-36.8,25.6-39.5v-0.2c0,0,0,0,0.1,0.1l0.1-0.1v0.2c1.8,2.7,22.6,34,25.6,39.5
		C280.7,319.3,285.5,336.1,271.9,349.7 M342.1,202.2c-0.4-0.5-1-0.7-1.7-0.7H159c-0.6,0-1.2,0.3-1.6,0.7c-0.4,0.5-0.6,1.1-0.5,1.7
		l30.5,184.3c0.2,1,1.1,1.8,2.1,1.8h37.4l2.6,30h-15.8l36.6,36.6l36.7-36.7h-15.8l2.6-30h38c1.1,0,1.9-0.8,2.1-1.8l28.5-184.3
		C342.6,203.3,342.5,202.7,342.1,202.2"/>
	<path class="st1" d="M438.8,57.7c3.3,0,5.5,0.7,6.6,2.2c1.1,1.4,1.6,3.7,1.6,6.6v57.3c0,0.9,0.4,1.3,1.3,1.3h12.3
		c0.9,0,1.3-0.5,1.3-1.3V61.2c0-5.7-1.3-9.8-3.8-12.7c-2.5-2.9-6.6-4.3-12.1-4.3h-27.1c-0.9,0-1.3,0.5-1.3,1.3v10.7
		c0,0.9,0.5,1.3,1.3,1.3L438.8,57.7L438.8,57.7z"/>
	<path class="st1" d="M343.6,121.5c0.7,1.1,1.1,2.7,1.1,4.7v6h-4.4c-1.6,0-2.8-0.4-3.6-1.2c-0.8-0.8-1.3-2.3-1.3-4.6
		c0-2,0.4-3.6,1.2-4.8c0.8-1.2,2-1.8,3.5-1.8C341.7,119.9,342.9,120.4,343.6,121.5 M344.7,137.5c0,1.2-0.1,2.1-0.3,2.8
		c-0.2,0.7-0.5,1.3-0.9,1.7c-0.4,0.4-0.9,0.7-1.4,0.8c-0.6,0.1-1.2,0.2-1.8,0.2h-5.9c-0.3,0-0.5,0.2-0.5,0.5v4.3
		c0,0.4,0.2,0.5,0.5,0.5h6.6c3,0,5.2-0.8,6.7-2.3c1.6-1.5,2.3-4,2.3-7.2v-12.4c0-2.2-0.3-4-0.7-5.5c-0.5-1.5-1.2-2.7-2.1-3.6
		c-0.9-0.9-2-1.6-3.2-2c-1.2-0.4-2.6-0.6-4.1-0.6c-1.4,0-2.6,0.2-3.9,0.7c-1.2,0.4-2.3,1.2-3.2,2.1c-0.9,1-1.7,2.2-2.2,3.8
		c-0.6,1.5-0.8,3.4-0.8,5.6c0,2,0.2,3.7,0.7,5.1c0.4,1.4,1.1,2.5,1.9,3.4c0.8,0.9,1.8,1.5,3,1.9c1.2,0.4,2.6,0.6,4.1,0.6h5V137.5z
		 M324.8,102.1c0-0.4-0.2-0.5-0.5-0.5h-4.6c-0.3,0-0.5,0.2-0.5,0.5V137c0,0.4,0.2,0.5,0.5,0.5h4.6c0.3,0,0.5-0.2,0.5-0.5V102.1z
		 M307.7,137.5c2.1,0,3.5-0.5,4.4-1.6c0.9-1.1,1.3-2.8,1.3-5.1V102c0-0.4-0.2-0.5-0.5-0.5h-4.6c-0.3,0-0.5,0.2-0.5,0.5v27.3
		c0,1.1-0.2,1.8-0.6,2.2c-0.4,0.4-1,0.6-1.8,0.6H303c-0.7,0-1.2,0.2-1.5,0.6c-0.3,0.4-0.5,1.1-0.5,2.1c0,1,0.2,1.7,0.5,2.1
		c0.3,0.3,0.8,0.5,1.5,0.5L307.7,137.5L307.7,137.5z M298.3,116.1c0-0.4-0.2-0.5-0.5-0.5h-4.6c-0.3,0-0.5,0.2-0.5,0.5v11.1
		c0,0.9,0,1.7,0,2.3c0,0.6-0.1,1.1-0.3,1.5s-0.4,0.7-0.7,0.8c-0.3,0.2-0.8,0.3-1.3,0.3h-2.4c-0.7,0-1.2,0.4-1.6,1
		c-0.3,0.7-0.5,1.5-0.5,2.4c0,0.8,0.2,1.3,0.5,1.5c0.3,0.2,0.8,0.4,1.5,0.4h3.9c1.6,0,2.8-0.2,3.7-0.6c0.9-0.4,1.6-1.1,2-2.2
		c0.6,1.2,1.3,1.9,2.3,2.2c1,0.3,2.1,0.5,3.4,0.5c0.7,0,1.2-0.2,1.5-0.6c0.3-0.4,0.5-1.1,0.5-2.2c0-0.9-0.2-1.6-0.5-2
		c-0.3-0.4-0.8-0.6-1.5-0.6h-0.8c-1.3,0-2.3-0.3-3-0.9c-0.7-0.6-1.1-1.4-1.1-2.4V116.1z M298,110.3c0.3,0,0.5-0.2,0.5-0.5v-4.6
		c0-0.4-0.2-0.5-0.5-0.5h-4.7c-0.3,0-0.5,0.2-0.5,0.5v4.6c0,0.4,0.2,0.5,0.5,0.5H298z M260.3,102.1c0-0.4-0.2-0.5-0.5-0.5h-4.6
		c-0.3,0-0.5,0.2-0.5,0.5v23.7c0,1.3,0,2.3-0.1,3.2c-0.1,0.8-0.2,1.5-0.3,2c-0.2,0.5-0.4,0.8-0.8,1c-0.3,0.2-0.8,0.3-1.4,0.3h-2.5
		c-0.7,0-1.2,0.2-1.5,0.5c-0.3,0.4-0.5,1.1-0.5,2.3c0,1,0.2,1.7,0.5,2c0.3,0.3,0.8,0.5,1.5,0.5h3.9c1,0,1.8,0,2.6-0.1
		c0.8-0.1,1.4-0.3,2-0.8c0.4,0.6,1.2,0.9,2.2,0.9h13.1c1.1,0,2.2,0,3.1-0.1c0.9-0.1,1.7-0.2,2.5-0.5c0.7-0.2,1.3-0.6,1.8-1
		c0.5-0.4,1-1,1.3-1.8c0.5,1.4,1.3,2.3,2.4,2.7c1.1,0.5,2.3,0.7,3.7,0.7c0.7,0,1.2-0.2,1.5-0.6c0.3-0.4,0.5-1.1,0.5-2.2
		c0-0.9-0.2-1.6-0.5-2s-0.8-0.6-1.5-0.6h-0.8c-1.3,0-2.2-0.3-3-0.9c-0.7-0.6-1.1-1.4-1.1-2.4c0-0.2,0-0.5,0-0.8c0-0.3,0-0.6,0-1
		c0-1.9-0.2-3.7-0.7-5.2c-0.5-1.6-1.2-2.9-2.1-4c-1-1.1-2.2-1.9-3.7-2.5c-1.5-0.6-3.4-0.9-5.6-0.9c-2,0-4,0.3-5.8,0.9
		c-1.9,0.6-3.6,1.3-5.2,2.1L260.3,102.1L260.3,102.1z M273.8,120.4c0.9,0.3,1.6,0.8,2.2,1.4c0.6,0.6,0.9,1.3,1.1,2.2
		c0.2,0.9,0.3,1.9,0.3,3c0,1.3-0.1,2.3-0.2,3.1c-0.2,0.7-0.5,1.3-1,1.6c-0.5,0.3-1.2,0.5-2,0.6c-0.9,0-2,0.1-3.4,0.1h-10.7
		c0.1-0.4,0.1-0.7,0.2-1.1c0-0.4,0.1-0.8,0.1-1.2v-7.1c1.4-0.7,3-1.4,4.8-2s3.6-0.9,5.5-0.9C271.8,119.9,272.9,120,273.8,120.4
		 M273.7,110.3c0.3,0,0.5-0.2,0.5-0.5v-4.6c0-0.4-0.2-0.5-0.5-0.5h-4.7c-0.3,0-0.5,0.2-0.5,0.5v4.6c0,0.4,0.2,0.5,0.5,0.5H273.7z
		 M239.9,130.8c0,2.3,0.4,4,1.3,5.1c0.9,1.1,2.4,1.6,4.4,1.6h3.9c0.7,0,1.2-0.2,1.5-0.5c0.3-0.3,0.5-1,0.5-2.1c0-1-0.2-1.7-0.5-2.1
		c-0.3-0.4-0.8-0.6-1.5-0.6h-1.7c-0.8,0-1.4-0.2-1.8-0.6c-0.4-0.4-0.6-1.1-0.6-2.2v-27.3c0-0.4-0.2-0.5-0.5-0.5h-4.6
		c-0.3,0-0.5,0.2-0.5,0.5L239.9,130.8L239.9,130.8z M229.2,126.2c0,2.2-0.4,3.8-1.1,4.7c-0.8,0.9-2,1.4-3.6,1.4
		c-1.6,0-2.8-0.5-3.5-1.4c-0.8-0.9-1.1-2.6-1.1-4.9c0-2,0.4-3.5,1.2-4.6c0.8-1.1,1.9-1.6,3.5-1.6C227.6,119.9,229.2,122,229.2,126.2
		 M224.5,137.5c1.5,0,2.9-0.2,4.2-0.6c1.3-0.4,2.3-1,3.2-1.9c0.9-0.9,1.6-2,2.1-3.5c0.5-1.4,0.7-3.2,0.7-5.3c0-2.2-0.3-4-0.8-5.5
		s-1.2-2.7-2.1-3.7c-0.9-0.9-2-1.6-3.3-2c-1.3-0.4-2.6-0.6-4.1-0.6c-1.4,0-2.7,0.2-3.9,0.6c-1.2,0.4-2.3,1.1-3.3,2
		c-0.9,0.9-1.7,2.1-2.2,3.7c-0.5,1.5-0.8,3.4-0.8,5.5c0,2.4,0.4,4.4,1.1,5.9h-4.7c-0.7,0-1.2,0.2-1.5,0.6c-0.3,0.4-0.5,1-0.5,2
		c0,1.1,0.2,1.8,0.5,2.2c0.3,0.4,0.8,0.5,1.5,0.5L224.5,137.5L224.5,137.5z M226.9,110.3c0.3,0,0.5-0.2,0.5-0.5v-4.6
		c0-0.4-0.2-0.5-0.5-0.5h-4.8c-0.3,0-0.5,0.2-0.5,0.5v4.6c0,0.4,0.2,0.5,0.5,0.5H226.9z M192.4,128.8c-0.8-0.8-1.2-2-1.2-3.6
		c0-2.1,0.4-3.5,1.3-4.3c0.9-0.8,2-1.2,3.4-1.2h4.4v4.5c0,1.9-0.4,3.3-1.1,4.3c-0.8,1-1.9,1.5-3.5,1.5
		C194.3,130,193.2,129.6,192.4,128.8 M195.4,114.6c-1.3,0-2.5,0.2-3.6,0.5c-1.2,0.4-2.2,0.9-3.1,1.8c-0.9,0.8-1.6,1.9-2.2,3.3
		c-0.5,1.4-0.8,3.1-0.8,5.2c0,1.8,0.2,3.3,0.7,4.6c0.5,1.3,1.2,2.3,2,3.1c0.8,0.8,1.8,1.4,3,1.8c1.1,0.4,2.4,0.6,3.6,0.6
		c1.1,0,2.1-0.2,3-0.5c1-0.3,1.8-0.8,2.5-1.5c0.3,1.5,0.9,2.6,1.8,3.2c0.9,0.6,2.2,0.9,3.8,0.9h4c0.7,0,1.2-0.2,1.5-0.5
		s0.5-1.1,0.5-2.1c0-1.8-0.7-2.7-2-2.7h-1.9c-0.8,0-1.4-0.2-1.8-0.6c-0.4-0.4-0.6-1.1-0.6-2.2v-17.1c0-0.4-0.2-0.5-0.5-0.5h-4.6
		c-0.3,0-0.5,0.2-0.5,0.5v2.3L195.4,114.6L195.4,114.6z M195,108.2c0.3,0,0.5-0.2,0.5-0.5v-4.6c0-0.4-0.2-0.5-0.5-0.5h-4.2
		c-0.3,0-0.5,0.2-0.5,0.5v4.6c0,0.4,0.2,0.5,0.5,0.5H195z M201.4,108.2c0.3,0,0.5-0.2,0.5-0.5v-4.6c0-0.4-0.2-0.5-0.5-0.5h-4.2
		c-0.3,0-0.5,0.2-0.5,0.5v4.6c0,0.4,0.2,0.5,0.5,0.5H201.4z M173.9,102.1c0-0.4-0.2-0.5-0.5-0.5h-4.6c-0.3,0-0.5,0.2-0.5,0.5V137
		c0,0.4,0.2,0.5,0.5,0.5h4.6c0.3,0,0.5-0.2,0.5-0.5V102.1z M156.7,137.5c2.1,0,3.5-0.5,4.4-1.6c0.9-1.1,1.3-2.8,1.3-5.1V102
		c0-0.4-0.2-0.5-0.5-0.5h-4.6c-0.3,0-0.5,0.2-0.5,0.5v27.3c0,1.1-0.2,1.8-0.6,2.2s-1,0.6-1.8,0.6H152c-0.7,0-1.2,0.2-1.5,0.6
		c-0.3,0.4-0.5,1.1-0.5,2.1c0,1,0.2,1.7,0.5,2.1c0.3,0.3,0.8,0.5,1.5,0.5L156.7,137.5L156.7,137.5z M124.4,115.8
		c0-0.4-0.2-0.5-0.5-0.5h-4.6c-0.3,0-0.5,0.2-0.5,0.5v10.8c0,0.7,0,1.5-0.1,2.1c0,0.7-0.1,1.3-0.3,1.8c-0.2,0.5-0.4,0.9-0.7,1.2
		c-0.3,0.3-0.8,0.4-1.4,0.4h-2.2c-0.7,0-1.2,0.2-1.5,0.5c-0.3,0.4-0.5,1.1-0.5,2.3c0,1,0.2,1.7,0.5,2c0.3,0.3,0.8,0.5,1.5,0.5h4.1
		c0.9,0,1.6-0.1,2.3-0.2c0.6-0.1,1.2-0.4,1.8-0.7c0.3,0.2,0.7,0.4,1.2,0.5c0.5,0.1,1,0.2,1.5,0.3c0.5,0.1,1.1,0.1,1.6,0.1
		c0.6,0,1.1,0,1.6,0h9.6c2.2,0,3.9-0.2,5.3-0.6c1.3-0.4,2.4-1.3,3-2.8c0.5,1.4,1.3,2.3,2.4,2.7c1.1,0.5,2.3,0.7,3.7,0.7
		c0.7,0,1.2-0.2,1.5-0.6s0.5-1.1,0.5-2.2c0-0.9-0.2-1.6-0.5-2s-0.8-0.6-1.5-0.6h-0.8c-1.3,0-2.2-0.3-3-0.9c-0.7-0.6-1.1-1.4-1.1-2.4
		c0-0.2,0-0.5,0-0.8s0-0.6,0-1c0-1.9-0.2-3.7-0.7-5.2c-0.4-1.6-1.2-2.9-2.1-4c-1-1.1-2.2-1.9-3.8-2.5c-1.5-0.6-3.4-0.9-5.5-0.9
		c-2,0-4,0.3-5.9,0.9c-1.9,0.6-3.6,1.3-5.2,2.1v-1.6H124.4z M137.9,120.4c0.9,0.3,1.6,0.8,2.2,1.4c0.5,0.6,0.9,1.3,1.1,2.2
		c0.2,0.9,0.3,1.9,0.3,3c0,1.3-0.1,2.3-0.2,3.1c-0.2,0.7-0.5,1.3-1,1.6c-0.5,0.3-1.2,0.5-2,0.6c-0.9,0-2,0.1-3.5,0.1h-10.7
		c0.1-0.4,0.1-0.7,0.1-1.1c0-0.4,0.1-0.8,0.1-1.2v-7.1c1.4-0.7,3-1.4,4.8-2c1.8-0.6,3.6-0.9,5.5-0.9
		C135.9,119.9,137.1,120,137.9,120.4 M89.1,119.6l2.6,2.9c0.2,0.2,0.5,0.2,0.7-0.1c0.7-0.8,1.5-1.4,2.4-1.9c0.9-0.5,1.9-0.7,3-0.7
		c1.1,0,2.1,0.2,2.8,0.6c0.7,0.4,1.3,1,1.8,1.7s0.8,1.5,1,2.5c0.2,1,0.3,2,0.3,3.1c0,0.9-0.1,1.6-0.1,2.1c-0.1,0.6-0.3,1.1-0.6,1.4
		c-0.3,0.4-0.7,0.6-1.2,0.7s-1.2,0.2-2.1,0.2H86.3c-0.7,0-1.2,0.2-1.5,0.5c-0.3,0.4-0.5,1.1-0.5,2.1c0,1,0.2,1.7,0.5,2.1
		c0.3,0.4,0.8,0.6,1.5,0.6h15.2c1.6,0,2.9-0.2,4-0.7c1.1-0.4,2-1.3,2.6-2.5c0.6,1.3,1.4,2.2,2.4,2.6c1,0.4,2.3,0.6,3.6,0.6
		c0.7,0,1.2-0.2,1.5-0.6c0.3-0.4,0.5-1.1,0.5-2.2c0-0.9-0.2-1.6-0.5-2c-0.3-0.4-0.8-0.6-1.5-0.6h-0.8c-1.2,0-2.2-0.3-2.9-0.8
		c-0.7-0.5-1.1-1.3-1.2-2.2c0-0.2,0-0.4,0-0.6s0-0.4,0-0.7c0-1.8-0.2-3.5-0.6-5.1c-0.4-1.6-1-3-1.9-4.2c-0.9-1.2-2.1-2.2-3.6-2.9
		c-1.5-0.7-3.3-1.1-5.5-1.1c-2,0-3.8,0.4-5.2,1.2c-1.4,0.8-2.6,1.8-3.7,3.1C88.8,119.1,88.8,119.3,89.1,119.6 M83,137
		c1,0.3,2.1,0.5,3.4,0.5c0.7,0,1.2-0.2,1.5-0.6s0.5-1.1,0.5-2.2c0-0.9-0.2-1.6-0.5-2c-0.3-0.4-0.8-0.6-1.5-0.6h-0.8
		c-1.3,0-2.3-0.3-3-0.9s-1.1-1.4-1.1-2.4V116c0-0.4-0.2-0.5-0.5-0.5h-4.2c-0.2,0-0.4,0-0.6,0.1s-0.3,0.2-0.3,0.4v10.9
		c0,1,0,1.8-0.1,2.4c0,0.7-0.1,1.2-0.3,1.6c-0.2,0.4-0.4,0.7-0.7,0.9c-0.3,0.2-0.8,0.3-1.4,0.3h-3.2c-0.7,0-1.2,0.2-1.5,0.6
		c-0.3,0.4-0.5,1.1-0.5,2.2c0,1,0.2,1.7,0.5,2c0.3,0.3,0.8,0.5,1.5,0.5h4.6c1.6,0,2.8-0.2,3.8-0.6c0.9-0.4,1.6-1.1,2.1-2.2
		C81.3,135.9,82.1,136.7,83,137 M77.2,147.6c0.3,0,0.5-0.2,0.5-0.5v-4.6c0-0.4-0.2-0.5-0.5-0.5H73c-0.3,0-0.5,0.2-0.5,0.5v4.6
		c0,0.4,0.2,0.5,0.5,0.5H77.2z M83.7,147.6c0.3,0,0.5-0.2,0.5-0.5v-4.6c0-0.4-0.2-0.5-0.5-0.5h-4.2c-0.3,0-0.5,0.2-0.5,0.5v4.6
		c0,0.4,0.2,0.5,0.5,0.5H83.7z M51.9,128.8c-0.8-0.8-1.2-2-1.2-3.6c0-2.1,0.4-3.5,1.3-4.3c0.9-0.8,2-1.2,3.4-1.2h4.4v4.5
		c0,1.9-0.4,3.3-1.1,4.3c-0.8,1-1.9,1.5-3.5,1.5C53.8,130,52.7,129.6,51.9,128.8 M54.9,114.6c-1.3,0-2.5,0.2-3.6,0.5
		c-1.2,0.4-2.2,0.9-3.1,1.8c-0.9,0.8-1.6,1.9-2.2,3.3c-0.5,1.4-0.8,3.1-0.8,5.2c0,1.8,0.3,3.3,0.7,4.6c0.5,1.3,1.2,2.3,2,3.1
		c0.8,0.8,1.8,1.4,3,1.8c1.1,0.4,2.4,0.6,3.6,0.6c1.1,0,2.1-0.2,3-0.5c1-0.3,1.8-0.8,2.5-1.5c0.3,1.5,0.9,2.6,1.8,3.2
		c0.9,0.6,2.2,0.9,3.8,0.9h4c0.7,0,1.2-0.2,1.5-0.5c0.3-0.3,0.5-1.1,0.5-2.1c0-1.8-0.7-2.7-2-2.7h-1.9c-0.8,0-1.4-0.2-1.8-0.6
		c-0.4-0.4-0.6-1.1-0.6-2.2v-17.1c0-0.4-0.2-0.5-0.5-0.5h-4.6c-0.3,0-0.5,0.2-0.5,0.5v2.3L54.9,114.6L54.9,114.6z M54.6,108.2
		c0.3,0,0.5-0.2,0.5-0.5v-4.6c0-0.4-0.2-0.5-0.5-0.5h-4.2c-0.3,0-0.5,0.2-0.5,0.5v4.6c0,0.4,0.2,0.5,0.5,0.5H54.6z M60.9,108.2
		c0.3,0,0.5-0.2,0.5-0.5v-4.6c0-0.4-0.2-0.5-0.5-0.5h-4.2c-0.3,0-0.5,0.2-0.5,0.5v4.6c0,0.4,0.2,0.5,0.5,0.5H60.9z"/>
	<path class="st1" d="M349.8,39.9c0-0.4-0.2-0.5-0.5-0.5h-4.7c-0.3,0-0.5,0.2-0.5,0.5v34.8c0,0.4,0.2,0.5,0.5,0.5h4.7
		c0.3,0,0.5-0.2,0.5-0.5V39.9z M331.8,75.3c2.1,0,3.6-0.5,4.5-1.6c0.9-1.1,1.4-2.8,1.4-5.1V39.9c0-0.4-0.2-0.5-0.5-0.5h-4.7
		c-0.3,0-0.5,0.2-0.5,0.5v27.3c0,1.1-0.2,1.8-0.6,2.2c-0.4,0.4-1,0.6-1.8,0.6h-2.5c-0.7,0-1.2,0.2-1.5,0.6c-0.3,0.4-0.5,1.1-0.5,2.1
		c0,1,0.2,1.7,0.5,2.1c0.3,0.3,0.8,0.5,1.5,0.5L331.8,75.3L331.8,75.3z M302.1,64.5c0,0.3,0,0.5,0.1,0.8c0,1.8-0.4,3.1-1,3.8
		c-0.6,0.7-1.4,1-2.2,1h-2c-0.7,0-1.2,0.2-1.5,0.5c-0.3,0.4-0.5,1.1-0.5,2.1c0,1,0.2,1.7,0.5,2.1c0.3,0.4,0.8,0.6,1.5,0.6h1.8
		c0.5,0,1,0,1.5-0.1c0.5-0.1,1.1-0.2,1.6-0.4c0.5-0.2,1-0.5,1.5-0.8c0.5-0.4,0.9-0.8,1.2-1.4c0.9,1.1,2,1.9,3.4,2.4
		c1.3,0.5,2.9,0.7,4.6,0.7s3.3-0.3,4.6-0.8c1.4-0.5,2.5-1.3,3.4-2.5c0.4,0.7,0.9,1.2,1.5,1.6c0.6,0.4,1.2,0.7,1.8,0.9
		c0.6,0.2,1.2,0.3,1.9,0.4c0.6,0,1.2,0.1,1.8,0.1c0.7,0,1.2-0.2,1.5-0.6c0.3-0.4,0.5-1.1,0.5-2.2c0-0.9-0.2-1.6-0.5-2
		c-0.3-0.4-0.8-0.6-1.5-0.6h-1.5c-0.8,0-1.5-0.3-2.2-0.9c-0.6-0.6-1-1.7-1-3.2c0-0.3,0.1-0.6,0.1-0.9v-0.9c0-2.2-0.3-4-0.8-5.5
		c-0.5-1.5-1.3-2.7-2.2-3.7c-0.9-0.9-2-1.6-3.3-2c-1.3-0.4-2.7-0.6-4.2-0.6c-1.5,0-2.9,0.2-4.1,0.6c-1.3,0.4-2.3,1.1-3.3,2
		c-0.9,0.9-1.7,2.1-2.2,3.5c-0.5,1.4-0.8,3.2-0.8,5.2L302.1,64.5L302.1,64.5z M317.1,64.1c0,2.2-0.4,3.8-1.2,4.8
		c-0.8,1-2,1.5-3.6,1.5c-1.6,0-2.8-0.5-3.6-1.5c-0.8-1-1.2-2.6-1.2-4.9c0-2.1,0.4-3.7,1.2-4.8c0.8-1.1,2-1.6,3.6-1.6
		C315.5,57.8,317.1,59.8,317.1,64.1 M293.6,74.8c1,0.3,2.1,0.5,3.4,0.5c0.7,0,1.2-0.2,1.5-0.6c0.3-0.4,0.5-1.1,0.5-2.2
		c0-0.9-0.2-1.6-0.5-2c-0.3-0.4-0.8-0.6-1.5-0.6h-0.9c-1.3,0-2.3-0.3-3.1-0.9c-0.8-0.6-1.1-1.4-1.1-2.4V53.9c0-0.4-0.2-0.5-0.5-0.5
		h-4.3c-0.2,0-0.4,0-0.6,0.1c-0.2,0.1-0.3,0.2-0.3,0.4v10.9c0,1,0,1.8-0.1,2.4c0,0.7-0.1,1.2-0.3,1.6c-0.2,0.4-0.4,0.7-0.7,0.9
		c-0.3,0.2-0.8,0.3-1.4,0.3h-3.3c-0.7,0-1.2,0.2-1.5,0.6c-0.3,0.4-0.5,1.1-0.5,2.2c0,1,0.2,1.7,0.5,2c0.3,0.3,0.8,0.5,1.5,0.5h4.7
		c1.6,0,2.9-0.2,3.8-0.6c1-0.4,1.7-1.1,2.1-2.2C291.8,73.7,292.6,74.4,293.6,74.8 M287.7,85.5c0.3,0,0.5-0.2,0.5-0.5v-4.6
		c0-0.4-0.2-0.5-0.5-0.5h-4.2c-0.3,0-0.5,0.2-0.5,0.5V85c0,0.4,0.2,0.5,0.5,0.5H287.7z M294.2,85.5c0.3,0,0.5-0.2,0.5-0.5v-4.6
		c0-0.4-0.2-0.5-0.5-0.5H290c-0.3,0-0.5,0.2-0.5,0.5V85c0,0.4,0.2,0.5,0.5,0.5H294.2z M270.5,68.7c0,2.3,0.5,4,1.4,5.1
		c0.9,1.1,2.4,1.6,4.5,1.6h4c0.7,0,1.2-0.2,1.5-0.5c0.3-0.3,0.5-1,0.5-2.1c0-1-0.2-1.7-0.5-2.1c-0.3-0.4-0.8-0.6-1.5-0.6h-1.8
		c-0.8,0-1.5-0.2-1.8-0.6c-0.4-0.4-0.6-1.1-0.6-2.2V39.9c0-0.4-0.2-0.5-0.5-0.5H271c-0.3,0-0.5,0.2-0.5,0.5V68.7z M259.1,64.1
		c0,2.2-0.4,3.8-1.2,4.8c-0.8,1-2,1.5-3.6,1.5s-2.8-0.5-3.6-1.5c-0.8-1-1.2-2.6-1.2-4.9c0-2.1,0.4-3.7,1.2-4.8
		c0.8-1.1,2-1.6,3.6-1.6C257.5,57.8,259.1,59.8,259.1,64.1 M258.5,75c1.3-0.4,2.4-1.1,3.3-2c0.9-0.9,1.6-2.1,2.2-3.6
		c0.5-1.5,0.8-3.2,0.8-5.3c0-2.2-0.3-4-0.8-5.5c-0.5-1.5-1.2-2.7-2.2-3.7c-0.9-0.9-2-1.6-3.3-2s-2.7-0.6-4.1-0.6
		c-1.5,0-2.9,0.2-4.1,0.6c-1.3,0.4-2.4,1.1-3.3,2c-0.9,0.9-1.7,2.1-2.2,3.7c-0.5,1.5-0.8,3.4-0.8,5.5c0,2.1,0.3,3.9,0.8,5.3
		c0.5,1.5,1.2,2.6,2.1,3.6c0.9,0.9,2,1.6,3.3,2c1.3,0.4,2.7,0.6,4.3,0.6C255.9,75.7,257.3,75.5,258.5,75 M226.7,39.9
		c0-0.4-0.2-0.5-0.5-0.5h-4.7c-0.3,0-0.5,0.2-0.5,0.5v34.8c0,0.4,0.2,0.5,0.5,0.5h4.7c0.3,0,0.5-0.2,0.5-0.5V39.9z M208.7,75.3
		c2.1,0,3.6-0.5,4.5-1.6c0.9-1.1,1.4-2.8,1.4-5.1V39.9c0-0.4-0.2-0.5-0.5-0.5h-4.7c-0.3,0-0.5,0.2-0.5,0.5v27.3
		c0,1.1-0.2,1.8-0.6,2.2c-0.4,0.4-1,0.6-1.8,0.6H204c-0.7,0-1.2,0.2-1.5,0.6c-0.3,0.4-0.5,1.1-0.5,2.1c0,1,0.2,1.7,0.5,2.1
		c0.3,0.3,0.8,0.5,1.5,0.5L208.7,75.3L208.7,75.3z M199.2,53.9c0-0.4-0.2-0.5-0.5-0.5H194c-0.3,0-0.5,0.2-0.5,0.5V65
		c0,0.9,0,1.7,0,2.3s-0.1,1.1-0.3,1.5c-0.2,0.4-0.4,0.7-0.7,0.8c-0.3,0.2-0.8,0.3-1.4,0.3h-2.4c-0.7,0-1.3,0.4-1.6,1
		c-0.3,0.7-0.5,1.5-0.5,2.4c0,0.8,0.2,1.3,0.5,1.5c0.3,0.2,0.8,0.4,1.5,0.4h4c1.6,0,2.9-0.2,3.8-0.6c0.9-0.4,1.6-1.1,2.1-2.2
		c0.6,1.2,1.3,1.9,2.3,2.2c1,0.3,2.1,0.5,3.4,0.5c0.7,0,1.2-0.2,1.5-0.6c0.3-0.4,0.5-1.1,0.5-2.2c0-0.9-0.2-1.6-0.5-2
		c-0.3-0.4-0.8-0.6-1.5-0.6h-0.9c-1.3,0-2.3-0.3-3.1-0.9c-0.8-0.6-1.1-1.4-1.1-2.4L199.2,53.9L199.2,53.9z M198.9,48.1
		c0.3,0,0.5-0.2,0.5-0.5V43c0-0.4-0.2-0.5-0.5-0.5H194c-0.3,0-0.5,0.2-0.5,0.5v4.6c0,0.4,0.2,0.5,0.5,0.5L198.9,48.1L198.9,48.1z
		 M160.3,39.9c0-0.4-0.2-0.5-0.5-0.5h-4.7c-0.3,0-0.5,0.2-0.5,0.5v23.7c0,1.3,0,2.3-0.1,3.2c-0.1,0.8-0.2,1.5-0.3,2
		c-0.2,0.5-0.4,0.8-0.8,1c-0.4,0.2-0.8,0.3-1.4,0.3h-2.5c-0.7,0-1.2,0.2-1.5,0.5c-0.3,0.4-0.5,1.1-0.5,2.3c0,1,0.2,1.7,0.5,2
		c0.3,0.3,0.8,0.5,1.5,0.5h3.9c1,0,1.8,0,2.6-0.1c0.8-0.1,1.4-0.3,2-0.8c0.4,0.6,1.2,0.9,2.3,0.9h13.4c1.2,0,2.2,0,3.1-0.1
		c0.9-0.1,1.8-0.2,2.5-0.5c0.7-0.2,1.4-0.6,1.9-1c0.5-0.4,1-1,1.3-1.8c0.5,1.4,1.3,2.3,2.4,2.7c1.1,0.5,2.4,0.7,3.8,0.7
		c0.7,0,1.2-0.2,1.5-0.6c0.3-0.4,0.5-1.1,0.5-2.2c0-0.9-0.2-1.6-0.5-2c-0.3-0.4-0.8-0.6-1.5-0.6h-0.9c-1.3,0-2.3-0.3-3-0.9
		s-1.1-1.4-1.2-2.4c0-0.2,0-0.5,0-0.8c0-0.3,0-0.6,0-1c0-1.9-0.2-3.7-0.7-5.2c-0.5-1.6-1.2-2.9-2.2-4c-1-1.1-2.3-1.9-3.8-2.5
		c-1.6-0.6-3.4-0.9-5.7-0.9c-2.1,0-4,0.3-6,0.9c-1.9,0.6-3.7,1.3-5.3,2.1V39.9H160.3z M174.2,58.3c0.9,0.3,1.6,0.8,2.2,1.4
		s0.9,1.3,1.2,2.2c0.2,0.9,0.3,1.9,0.3,3c0,1.3-0.1,2.3-0.3,3.1c-0.2,0.7-0.5,1.3-1,1.6c-0.5,0.3-1.2,0.5-2.1,0.6
		c-0.9,0-2.1,0.1-3.5,0.1h-11c0.1-0.4,0.1-0.7,0.2-1.1c0-0.4,0.1-0.8,0.1-1.2v-7.1c1.4-0.7,3-1.4,4.9-2c1.8-0.6,3.7-0.9,5.6-0.9
		C172.1,57.8,173.3,57.9,174.2,58.3 M174,48.1c0.3,0,0.5-0.2,0.5-0.5V43c0-0.4-0.2-0.5-0.5-0.5h-4.9c-0.3,0-0.5,0.2-0.5,0.5v4.6
		c0,0.4,0.2,0.5,0.5,0.5L174,48.1L174,48.1z M145.9,74.8c1,0.3,2.1,0.5,3.4,0.5c0.7,0,1.2-0.2,1.5-0.6c0.3-0.4,0.5-1.1,0.5-2.2
		c0-0.9-0.2-1.6-0.5-2c-0.3-0.4-0.8-0.6-1.5-0.6h-0.9c-1.3,0-2.3-0.3-3.1-0.9s-1.1-1.4-1.1-2.4V53.9c0-0.4-0.2-0.5-0.5-0.5h-4.3
		c-0.2,0-0.4,0-0.6,0.1c-0.2,0.1-0.3,0.2-0.3,0.4v10.9c0,1,0,1.8-0.1,2.4c0,0.7-0.1,1.2-0.3,1.6c-0.2,0.4-0.4,0.7-0.7,0.9
		c-0.3,0.2-0.8,0.3-1.4,0.3H133c-0.7,0-1.2,0.2-1.5,0.6c-0.3,0.4-0.5,1.1-0.5,2.2c0,1,0.2,1.7,0.5,2c0.3,0.3,0.8,0.5,1.5,0.5h4.7
		c1.6,0,2.9-0.2,3.8-0.6c1-0.4,1.7-1.1,2.1-2.2C144.1,73.7,144.9,74.4,145.9,74.8 M140,85.5c0.3,0,0.5-0.2,0.5-0.5v-4.6
		c0-0.4-0.2-0.5-0.5-0.5h-4.2c-0.3,0-0.5,0.2-0.5,0.5V85c0,0.4,0.2,0.5,0.5,0.5H140z M146.5,85.5c0.3,0,0.5-0.2,0.5-0.5v-4.6
		c0-0.4-0.2-0.5-0.5-0.5h-4.2c-0.3,0-0.5,0.2-0.5,0.5V85c0,0.4,0.2,0.5,0.5,0.5H146.5z M121.7,48.1c0.3,0,0.5-0.2,0.5-0.5V43
		c0-0.4-0.2-0.5-0.5-0.5h-4.9c-0.3,0-0.5,0.2-0.5,0.5v4.6c0,0.4,0.2,0.5,0.5,0.5L121.7,48.1L121.7,48.1z M122.6,58.5
		c0.9,0.9,1.4,2.2,1.4,3.9c0,1.8-0.5,3.3-1.4,4.4s-2.1,2-3.4,2.6c-1.3-0.6-2.5-1.5-3.4-2.6c-0.9-1.1-1.4-2.6-1.4-4.4
		c0-1.7,0.5-3,1.4-3.9c1-0.9,2.1-1.3,3.4-1.3S121.7,57.6,122.6,58.5 M111.4,55c-1.8,1.7-2.7,4-2.7,6.8c0,1.7,0.4,3.3,1.1,4.7
		c0.8,1.4,1.8,2.6,3,3.5h-7c-0.7,0-1.2,0.2-1.5,0.5c-0.3,0.3-0.5,1-0.5,2.1c0,1,0.2,1.7,0.5,2.1c0.3,0.4,0.8,0.6,1.5,0.6h6.6
		c1,0,2.1-0.1,3.4-0.2c1.3-0.1,2.5-0.5,3.6-1.1c1,0.6,2,1,3.1,1.1c1.1,0.1,2.2,0.2,3.4,0.2h6.9c0.7,0,1.2-0.2,1.5-0.6
		c0.3-0.4,0.5-1.1,0.5-2.2c0-1-0.2-1.7-0.5-2c-0.3-0.3-0.8-0.5-1.5-0.5h-7.1c1.3-0.9,2.3-2.1,3.1-3.5c0.8-1.4,1.1-3,1.1-4.7
		c0-2.9-0.9-5.2-2.7-6.8c-1.8-1.7-4.5-2.6-7.8-2.6C115.8,52.5,113.2,53.3,111.4,55 M87.1,66.7c-0.8-0.8-1.2-2-1.2-3.6
		c0-2.1,0.4-3.5,1.3-4.3s2-1.2,3.5-1.2h4.5v4.5c0,1.9-0.4,3.3-1.2,4.3c-0.8,1-2,1.5-3.6,1.5C89,67.9,87.9,67.5,87.1,66.7 M90.2,52.5
		c-1.3,0-2.5,0.2-3.7,0.5c-1.2,0.3-2.3,0.9-3.2,1.8c-0.9,0.8-1.7,1.9-2.2,3.3c-0.6,1.4-0.8,3.1-0.8,5.2c0,1.8,0.3,3.3,0.8,4.6
		c0.5,1.3,1.2,2.3,2,3.1c0.9,0.8,1.9,1.4,3,1.8c1.2,0.4,2.4,0.6,3.7,0.6c1.1,0,2.1-0.2,3.1-0.5c1-0.3,1.8-0.8,2.5-1.5
		c0.3,1.5,0.9,2.6,1.8,3.2s2.2,0.9,3.9,0.9h4.1c0.7,0,1.2-0.2,1.5-0.5c0.3-0.3,0.5-1.1,0.5-2.1c0-1.8-0.7-2.7-2-2.7h-1.9
		c-0.8,0-1.5-0.2-1.8-0.6c-0.4-0.4-0.6-1.1-0.6-2.2V50.2c0-0.4-0.2-0.5-0.5-0.5h-4.7c-0.3,0-0.5,0.2-0.5,0.5v2.3H90.2z M89.8,46.1
		c0.3,0,0.5-0.2,0.5-0.5V41c0-0.4-0.2-0.5-0.5-0.5h-4.2c-0.3,0-0.5,0.2-0.5,0.5v4.6c0,0.4,0.2,0.5,0.5,0.5H89.8z M96.4,46.1
		c0.3,0,0.5-0.2,0.5-0.5V41c0-0.4-0.2-0.5-0.5-0.5h-4.2c-0.3,0-0.5,0.2-0.5,0.5v4.6c0,0.4,0.2,0.5,0.5,0.5H96.4z"/>
</g>
</svg>
