<?xml version="1.0" encoding="utf-8"?>
<svg version="1.1" id="Layer_1" xmlns="http://www.w3.org/2000/svg" xmlns:xlink="http://www.w3.org/1999/xlink" x="0px" y="0px"
	 viewBox="0 0 500 500" style="enable-background:new 0 0 500 500;" xml:space="preserve">
<style type="text/css">
	.st1{fill:#FFFFFF;}
	.st4{fill:#2D9A47;}
</style>
<rect class="st4" width="500" height="500"/>
<g>
	<path class="st1" d="M418.7,312.8c0-14.1-9.1-25.6-22.8-25.6c-6.9,0-15.1,7.5-19.6,12.2c-4.5-4.6-12.2-12.2-19.1-12.2
		c-13.7,0-23.4,11.5-23.4,25.6c0,7.1,2.8,13.5,7.3,18.1l35.2,35.3l35.2-35.2l0,0C415.9,326.2,418.7,319.8,418.7,312.8"/>
	<path class="st1" d="M268.8,423.7c-0.1,0-0.2,0-0.4,0c-2.7-0.2-4.9-2.2-5.3-4.8l-17.9-104.2L218.1,365c-1.2,2.2-3.7,3.4-6.1,3
		c-2.5-0.4-4.4-2.4-4.7-4.9l-11.5-80.4l-21,47.3c-0.9,2.1-3,3.4-5.3,3.4H87.7c-3.2,0-5.8-2.6-5.8-5.8s2.6-5.8,5.8-5.8h78l27.7-62.2
		c1-2.4,3.5-3.7,6.1-3.4c2.6,0.4,4.6,2.4,4.9,4.9l11.9,82.9l26.7-49.5c1.2-2.2,3.6-3.4,6-3c2.4,0.4,4.3,2.3,4.8,4.7l16.6,96.5
		l60.4-200.5c0.7-2.3,2.7-3.9,5.1-4.1c2.4-0.2,4.6,1.1,5.7,3.2l31.8,65.8c1.4,2.9,0.2,6.3-2.7,7.7c-2.9,1.4-6.3,0.2-7.7-2.7
		l-25.3-52.5l-63.2,209.8C273.6,422.1,271.3,423.7,268.8,423.7"/>
	<path class="st1" d="M75.1,143.6c17.2,0,24.7-9.1,24.7-23.2v-14.9c0-9.3-4-15.2-12.6-17.2c7-2.2,11.7-7.9,11.7-16.4v-8.8
		c0-14.3-6.9-23.1-22.6-23.1c-17.6,0-23.8,10.4-23.8,25.4v9H68V64c0-6.3,2-9.9,7.3-9.9s7.3,3.6,7.3,9.1v10.9c0,5.4-3.6,8.2-9.1,8.2
		h-6.4v13h7.2c6,0,8.4,2.8,8.4,8.2v16.7c0,5.4-2.4,9.1-7.6,9.1c-5.8,0-7.9-3.9-7.9-9.9V105H51.6v13.3
		C51.6,133.7,57.7,143.6,75.1,143.6"/>
	<path class="st1" d="M158.6,61.9h10.1v22.6h-5.1v-4.6c-0.9,3.2-2.9,5.1-6.8,5.1c-6.1,0-8.9-4.9-8.9-11.4V53
		c0-6.6,3.2-11.4,10.7-11.4c7.9,0,10.2,4.4,10.2,10.6V56h-6.5v-4.3c0-2.6-1-4.1-3.6-4.1c-2.6,0-3.7,1.8-3.7,4.4v22.7
		c0,2.6,1.1,4.4,3.5,4.4c2.3,0,3.5-1.3,3.5-4.1v-7.5h-3.4V61.9z"/>
	<path class="st1" d="M187.2,74.7V51.9c0-2.6-1.1-4.4-3.7-4.4c-2.5,0-3.6,1.8-3.6,4.4v22.7c0,2.6,1.1,4.4,3.6,4.4
		C186.1,79,187.2,77.2,187.2,74.7 M172.8,73.5V53c0-6.6,3.2-11.4,10.7-11.4c7.6,0,10.8,4.8,10.8,11.4v20.5c0,6.6-3.2,11.4-10.8,11.4
		C176,85,172.8,80.1,172.8,73.5"/>
	<path class="st1" d="M212.8,74.7V51.9c0-2.6-1.1-4.4-3.7-4.4c-2.5,0-3.6,1.8-3.6,4.4v22.7c0,2.6,1.1,4.4,3.6,4.4
		C211.7,79,212.8,77.2,212.8,74.7 M198.4,73.5V53c0-6.6,3.2-11.4,10.7-11.4c7.6,0,10.8,4.8,10.8,11.4v20.5c0,6.6-3.2,11.4-10.8,11.4
		C201.6,85,198.4,80.1,198.4,73.5"/>
	<path class="st1" d="M234.1,78.6c2.9,0,4.1-1.7,4.1-4.3V52.2c0-2.5-1.1-4.2-4.1-4.2h-3v30.7H234.1z M245.3,53.5v19.6
		c0,6.5-2.7,11.4-10.3,11.4h-11V42.1h11C242.6,42.1,245.3,46.9,245.3,53.5"/>
</g>
<polygon class="st1" points="274,65.8 267.2,65.8 267.2,84.5 260,84.5 260,42.1 267.2,42.1 267.2,60 274,60 274,42.1 281.2,42.1 
	281.2,84.5 274,84.5 "/>
<polygon class="st1" points="285.3,42.1 302.2,42.1 302.2,47.9 292.4,47.9 292.4,60 299.4,60 299.4,65.8 292.4,65.8 292.4,78.7 
	302.2,78.7 302.2,84.5 285.3,84.5 "/>
<path class="st1" d="M313.8,71h5.7l-2.8-17h-0.1L313.8,71z M304.9,84.5l8-42.3h8.1l8.1,42.3h-7.3l-1.3-7.7h-7.6l-1.2,7.7H304.9z"/>
<polygon class="st1" points="332,42.1 339.1,42.1 339.1,78.7 347.6,78.7 347.6,84.5 332,84.5 "/>
<polygon class="st1" points="346,42.1 364.9,42.1 364.9,47.9 359.1,47.9 359.1,84.5 351.9,84.5 351.9,47.9 346,47.9 "/>
<polygon class="st1" points="382.2,65.8 375.3,65.8 375.3,84.5 368.2,84.5 368.2,42.1 375.3,42.1 375.3,60 382.2,60 382.2,42.1 
	389.4,42.1 389.4,84.5 382.2,84.5 "/>
<path class="st1" d="M155.7,130.3h5.7l-2.8-17h-0.1L155.7,130.3z M146.8,143.8l8-42.3h8.1l8.1,42.3h-7.3l-1.3-7.7h-7.6l-1.2,7.7
	H146.8z"/>
<polygon class="st1" points="179.8,117.2 179.8,143.8 173.9,143.8 173.9,101.4 180.8,101.4 188.5,125.7 188.5,101.4 194.5,101.4 
	194.5,143.8 188.2,143.8 "/>
<g>
	<path class="st1" d="M208.6,137.9c2.9,0,4.1-1.7,4.1-4.3v-22.2c0-2.5-1.1-4.2-4.1-4.2h-3v30.7H208.6z M219.8,112.8v19.6
		c0,6.5-2.7,11.4-10.3,11.4h-11v-42.3h11C217.1,101.4,219.8,106.2,219.8,112.8"/>
</g>
<polygon class="st1" points="249.9,117.6 245.9,143.8 239.3,143.8 233.6,101.4 240.4,101.4 243.8,128.3 243.8,128.3 247.4,101.4 
	253.2,101.4 257.1,128.3 257.2,128.3 260.4,101.4 266.4,101.4 260.9,143.8 254.2,143.8 250,117.6 "/>
<polygon class="st1" points="269.5,101.4 286.4,101.4 286.4,107.2 276.6,107.2 276.6,119.3 283.6,119.3 283.6,125.1 276.6,125.1 
	276.6,138 286.4,138 286.4,143.8 269.5,143.8 "/>
<polygon class="st1" points="290.3,101.4 297.4,101.4 297.4,138 305.9,138 305.9,143.8 290.3,143.8 "/>
<polygon class="st1" points="309.1,101.4 316.2,101.4 316.2,138 324.7,138 324.7,143.8 309.1,143.8 "/>
<rect x="323.8" y="121.2" class="st1" width="10" height="5.7"/>
<g>
	<path class="st1" d="M344.5,124.7V138h3.1c2.4,0,3.5-1.2,3.5-3.4v-6.4c0-2.2-1.1-3.4-3.6-3.4H344.5z M344.5,119.3h2.5
		c2.3,0,3.4-1.2,3.4-3.4v-5.2c0-2.3-1.1-3.4-3.4-3.4h-2.4V119.3z M337.4,101.4h10.3c7.1,0,9.5,3.3,9.5,9.3v4.3
		c0,3.6-1.3,5.8-4.2,6.7c3.6,0.8,5.3,3.2,5.3,7v5.6c0,6-2.7,9.3-9.8,9.3h-11.1V101.4z"/>
</g>
<polygon class="st1" points="361.8,101.4 378.8,101.4 378.8,107.2 368.9,107.2 368.9,119.3 376,119.3 376,125.1 368.9,125.1 
	368.9,138 378.8,138 378.8,143.8 361.8,143.8 "/>
<rect x="382.6" y="101.4" class="st1" width="7.1" height="42.3"/>
<polygon class="st1" points="399.8,117.2 399.8,143.8 393.8,143.8 393.8,101.4 400.8,101.4 408.5,125.7 408.5,101.4 414.4,101.4 
	414.4,143.8 408.2,143.8 "/>
<g>
	<path class="st1" d="M429.2,121.2h10.1v22.6h-5.1v-4.6c-0.9,3.2-2.9,5.1-6.8,5.1c-6.1,0-8.9-4.9-8.9-11.4v-20.5
		c0-6.6,3.2-11.4,10.7-11.4c7.9,0,10.2,4.4,10.2,10.6v3.7h-6.5V111c0-2.6-1-4.1-3.6-4.1c-2.6,0-3.7,1.8-3.7,4.4V134
		c0,2.6,1.1,4.4,3.5,4.4c2.3,0,3.5-1.3,3.5-4.1v-7.5h-3.4V121.2z"/>
</g>
</svg>
