<?xml version="1.0" encoding="utf-8"?>
<svg version="1.1" id="Layer_1" xmlns="http://www.w3.org/2000/svg" xmlns:xlink="http://www.w3.org/1999/xlink" x="0px" y="0px"
	 viewBox="0 0 500 500" style="enable-background:new 0 0 500 500;" xml:space="preserve">
<style type="text/css">
	.st0{fill:#D19F2A;}
	.st1{fill:#FFFFFF;}
</style>
<rect class="st0" width="500" height="500"/>
<g>
	<path class="st1" d="M199.2,425.7v7.1c0,0.1,0,0.1,0,0.2c0,0.1,0,0.1,0,0.2c0.1,1.7,1.5,3.1,3.3,3.2c0,0,0,0,0.1,0c0,0,0.1,0,0.1,0
		h82.8c0,0,0,0,0.1,0c0,0,0,0,0.1,0c1.8,0,3.3-1.5,3.3-3.3c0,0,0,0,0,0c0,0,0,0,0,0v-8c46.6-15.3,81.6-53.1,89.3-99.2
		c0-0.1,0-0.2,0-0.3c0-0.2,0-0.3,0-0.5c0-1.8-1.5-3.3-3.3-3.3H112.4h-1.6c-1.9,0-3.4,1.5-3.4,3.3l0.2,1.5
		C115.7,373,151.6,411,199.2,425.7"/>
	<path class="st1" d="M288.8,208.9c-1.1,1.6-26.6,38.3,0.6,68c12.5,13.6,11.4,25.7,7.8,33.8h17.4c3.5-12,2.1-27-12.1-42.5
		c-20-21.9,0.2-51.5,0.6-51.9c2.4-3.4,1.1-7.7-2.8-9.8C296.3,204.5,291.2,205.6,288.8,208.9"/>
	<path class="st1" d="M244.7,310.7h17.4c3.5-12,2.1-27-12.1-42.5c-20-21.9,0.2-51.5,0.6-51.9c2.4-3.4,1.1-7.7-2.8-9.7
		c-3.9-2-9.1-0.9-11.5,2.4c-1.1,1.5-26.6,38.3,0.6,68C249.3,290.5,248.2,302.6,244.7,310.7"/>
	<path class="st1" d="M183.7,208.9c-1.1,1.6-26.6,38.3,0.6,68c12.5,13.6,11.4,25.7,7.8,33.8h17.4c3.5-12,2.1-27-12.1-42.5
		c-20-21.9,0.2-51.5,0.6-51.9c2.4-3.4,1.1-7.7-2.8-9.7C191.2,204.5,186.1,205.6,183.7,208.9"/>
	<path class="st1" d="M95.3,128.3H67.4v-4.8c0-7.9,2.8-10.9,7.2-15.5l10.9-11.5c8.8-9.4,10.8-15.4,10.8-25.5v-9.9
		c0-14.5-7-21.4-22.3-21.4c-14.9,0-22.6,7.9-22.6,22.1v12.2h15.5V61.4c0-6.1,3-7.9,6.6-7.9c3.3,0,6.1,1.3,6.1,7.6v8.4
		c0,8.4-0.7,11.7-6.3,17.5l-9.6,10.2c-9.3,9.9-12.7,16.4-12.7,26.4v18.7h44.2V128.3z"/>
</g>
<polygon class="st1" points="151.7,78.6 162.5,78.6 162.5,84.4 144.3,84.4 144.3,78.6 155.5,47.9 145.4,47.9 145.4,42.1 163,42.1 
	163,47.9 "/>
<polygon class="st1" points="166.7,42.1 183.7,42.1 183.7,47.9 173.8,47.9 173.8,60 180.9,60 180.9,65.8 173.8,65.8 173.8,78.6 
	183.7,78.6 183.7,84.4 166.7,84.4 "/>
<g>
	<path class="st1" d="M194.6,47.9v13.2h2.4c2.4,0,3.5-1.2,3.5-3.5v-6.2c0-2.3-1.1-3.4-3.5-3.4H194.6z M194.6,65v19.4h-7.1V42.1h10.4
		c7.2,0,9.8,3.6,9.8,9.5V57c0,4.6-1.6,7.2-5.7,8.2l6.8,19.2h-7.5L194.6,65z"/>
	<path class="st1" d="M226,74.6V51.9c0-2.6-1.1-4.4-3.7-4.4c-2.5,0-3.6,1.8-3.6,4.4v22.7c0,2.6,1.1,4.4,3.6,4.4
		C224.8,79,226,77.2,226,74.6 M211.5,73.5V53c0-6.6,3.2-11.4,10.7-11.4c7.6,0,10.8,4.8,10.8,11.4v20.5c0,6.6-3.2,11.4-10.8,11.4
		C214.8,84.9,211.5,80.1,211.5,73.5"/>
</g>
<polygon class="st1" points="158.8,125.1 151.9,125.1 151.9,143.7 144.8,143.7 144.8,101.4 151.9,101.4 151.9,119.3 158.8,119.3 
	158.8,101.4 166,101.4 166,143.7 158.8,143.7 "/>
<g>
	<path class="st1" d="M190.7,101.4v32c0,6.6-2.8,10.8-10.1,10.8c-7.5,0-10.6-4.2-10.6-10.8v-32h7.1v32.7c0,2.5,1,4.2,3.5,4.2
		c2.5,0,3.5-1.7,3.5-4.2v-32.7H190.7z"/>
</g>
<polygon class="st1" points="200.7,117.1 200.7,143.7 194.7,143.7 194.7,101.4 201.7,101.4 209.4,125.7 209.4,101.4 215.3,101.4 
	215.3,143.7 209.1,143.7 "/>
<g>
	<path class="st1" d="M230.1,121.1h10.1v22.6h-5.1v-4.6c-0.9,3.2-2.9,5.1-6.8,5.1c-6.1,0-8.9-4.9-8.9-11.4v-20.5
		c0-6.6,3.2-11.4,10.7-11.4c7.9,0,10.2,4.4,10.2,10.6v3.7h-6.5V111c0-2.6-1-4.1-3.6-4.1s-3.7,1.8-3.7,4.4v22.7
		c0,2.6,1.1,4.4,3.5,4.4c2.3,0,3.5-1.3,3.5-4.1v-7.5h-3.4V121.1z"/>
</g>
<polygon class="st1" points="244.3,101.4 261.3,101.4 261.3,107.2 251.4,107.2 251.4,119.3 258.5,119.3 258.5,125.1 251.4,125.1 
	251.4,137.9 261.3,137.9 261.3,143.8 244.3,143.8 "/>
<g>
	<path class="st1" d="M272.2,107.2v13.2h2.4c2.4,0,3.5-1.2,3.5-3.5v-6.2c0-2.3-1.1-3.4-3.5-3.4H272.2z M272.2,124.3v19.4h-7.1v-42.3
		h10.4c7.2,0,9.8,3.6,9.8,9.5v5.4c0,4.6-1.6,7.2-5.7,8.2l6.8,19.2h-7.5L272.2,124.3z"/>
</g>
</svg>
