<?xml version="1.0" encoding="utf-8"?>
<!-- Generator: Adobe Illustrator 24.2.1, SVG Export Plug-In . SVG Version: 6.00 Build 0)  -->
<svg version="1.1" id="Layer_1" xmlns="http://www.w3.org/2000/svg" xmlns:xlink="http://www.w3.org/1999/xlink" x="0px" y="0px"
	 viewBox="0 0 500 500" style="enable-background:new 0 0 500 500;" xml:space="preserve">
<style type="text/css">
	.st1{fill:#FFFFFF;}
	.st8{fill:#8F1838;}
</style>
<g>
	<rect class="st8" width="500" height="500"/>
	<path class="st1" d="M340.5,254.7L292,300.8c-1.8,1.8-2.8,3.2-2.8,6.9v129.4c0,1.5,1.2,2.8,2.8,2.8h50.1c1.5,0,2.8-1.2,2.8-2.8
		V255.8C344.9,254.3,343.7,251.5,340.5,254.7"/>
	<path class="st1" d="M200.7,314.8L152.1,361c-1.8,1.8-2.8,3.2-2.8,6.9v69.3c0,1.5,1.2,2.8,2.8,2.8h50.1c1.5,0,2.8-1.2,2.8-2.8V316
		C205,314.5,203.8,311.7,200.7,314.8"/>
	<path class="st1" d="M362.6,198.7c0-0.4-0.1-0.8-0.4-1.1c-0.3-0.2-0.6-0.4-0.9-0.4l-0.3,0l-0.4,0l-37.2,8.4l-0.7,0.1
		c-0.3,0-0.5,0.2-0.7,0.4c-0.5,0.6-0.5,1.4,0,2l0.4,0.4l8.5,8.5l-84.2,84.2l-38.9-38.9c-0.4-0.4-1.1-0.4-1.6,0l-10.6,10.6
		c0,0,0,0,0,0l-62.4,62.4c-0.4,0.4-0.4,1.2,0,1.6l10.6,10.6c0.4,0.4,1.1,0.4,1.6,0l61.6-61.6l28.2,28.2c0,0,0,0.1,0.1,0.1l10.6,10.5
		c0.4,0.4,1.1,0.4,1.6,0l95.6-95.6l8.9,8.9c0.5,0.6,1.4,0.6,2,0c0.3-0.3,0.4-0.6,0.4-0.9l0-0.1l8.2-37.9L362.6,198.7z"/>
	<path class="st1" d="M270.9,322.9l-23.5,23.7c-0.4,0.4-1.1,0.4-1.5-0.1l-21.3-21.7c-3.9-3.9-4.7-0.7-4.7,0.8v111.5
		c0,1.5,1.2,2.8,2.7,2.8h50.2c1.5,0,2.8-1.2,2.8-2.8V323.8C275.5,322.3,274.3,319.5,270.9,322.9"/>
	<path class="st1" d="M436.7,62.1l15.5,59.1c0.3,0.9,0.8,1.2,1.6,0.9l12-2.9c1-0.3,1.4-0.8,1.2-1.5L444.6,42c-0.4-1-1.4-1.6-3.1-1.9
		c-1.7-0.3-3.3-0.4-4.7-0.4c-1.5,0-3.1,0.1-4.8,0.3c-1.7,0.2-2.7,0.9-3.1,1.9l-22.7,75.6c-0.2,0.7,0.2,1.2,1.2,1.5l12,2.9
		c0.8,0.3,1.3,0,1.6-0.9L436.7,62.1z"/>
	<path class="st1" d="M337.6,122.5c0.8,1.1,1.2,2.6,1.2,4.7v6H334c-1.7,0-3-0.4-3.9-1.2c-0.9-0.8-1.3-2.3-1.3-4.5
		c0-2,0.4-3.6,1.3-4.8s2.1-1.8,3.8-1.8C335.6,120.9,336.8,121.5,337.6,122.5 M338.7,138.5c0,1.2-0.1,2.1-0.3,2.8
		c-0.2,0.7-0.6,1.3-1,1.6c-0.4,0.4-0.9,0.6-1.5,0.8c-0.6,0.1-1.3,0.2-2,0.2h-6.2c-0.4,0-0.5,0.2-0.5,0.5v4.2c0,0.3,0.2,0.5,0.5,0.5
		h7.1c3.2,0,5.6-0.8,7.3-2.3c1.7-1.5,2.5-3.9,2.5-7.2v-12.4c0-2.1-0.3-4-0.8-5.4c-0.5-1.5-1.3-2.7-2.2-3.6c-1-0.9-2.1-1.6-3.4-2
		c-1.3-0.4-2.8-0.6-4.4-0.6c-1.4,0-2.8,0.2-4.1,0.7c-1.3,0.4-2.5,1.1-3.5,2.1c-1,1-1.8,2.2-2.4,3.8c-0.6,1.5-0.9,3.4-0.9,5.5
		c0,2,0.2,3.7,0.7,5.1c0.5,1.4,1.2,2.5,2,3.4c0.9,0.9,2,1.5,3.2,1.8c1.3,0.4,2.8,0.6,4.4,0.6H338.7z M311.5,138.5
		c2.2,0,3.8-0.5,4.7-1.6c0.9-1.1,1.4-2.8,1.4-5v-14.7c0-0.4-0.2-0.5-0.5-0.5h-4.9c-0.3,0-0.5,0.2-0.5,0.5v13.3
		c0,1.1-0.2,1.8-0.6,2.2c-0.4,0.4-1,0.6-1.9,0.6h-2.6c-0.7,0-1.3,0.3-1.6,1c-0.3,0.7-0.5,1.5-0.5,2.4c0,0.7,0.2,1.2,0.5,1.5
		c0.4,0.2,0.9,0.4,1.6,0.4H311.5z M317.3,111.3c0.4,0,0.5-0.2,0.5-0.5v-4.6c0-0.4-0.2-0.5-0.5-0.5h-5.1c-0.4,0-0.5,0.2-0.5,0.5v4.6
		c0,0.4,0.2,0.5,0.5,0.5H317.3z M279.9,127.7c0,0.2,0,0.5,0.1,0.8c0,1.8-0.4,3.1-1.1,3.8c-0.7,0.7-1.4,1-2.3,1h-2.1
		c-0.7,0-1.3,0.2-1.6,0.5c-0.3,0.4-0.5,1-0.5,2.1c0,1,0.2,1.6,0.5,2.1c0.4,0.4,0.9,0.6,1.6,0.6h1.9c0.5,0,1,0,1.6-0.1
		c0.6-0.1,1.1-0.2,1.6-0.4c0.5-0.2,1-0.5,1.5-0.8c0.5-0.4,0.9-0.8,1.3-1.4c1,1.1,2.1,1.9,3.5,2.4c1.4,0.5,3,0.7,4.8,0.7
		c1.8,0,3.4-0.2,4.8-0.7c1.4-0.5,2.6-1.3,3.6-2.5c0.5,0.7,1,1.2,1.6,1.6c0.6,0.4,1.2,0.7,1.9,0.9c0.7,0.2,1.3,0.3,2,0.3
		c0.7,0,1.3,0.1,1.9,0.1c0.7,0,1.3-0.2,1.6-0.6c0.3-0.4,0.5-1.1,0.5-2.1c0-0.9-0.2-1.6-0.5-2c-0.4-0.4-0.9-0.6-1.6-0.6h-1.5
		c-0.8,0-1.6-0.3-2.2-0.9c-0.6-0.6-1-1.7-1-3.1c0-0.3,0.1-0.6,0.1-0.9v-0.9c0-2.1-0.3-4-0.8-5.5c-0.6-1.5-1.3-2.7-2.3-3.6
		c-1-0.9-2.1-1.6-3.5-2c-1.3-0.4-2.8-0.6-4.3-0.6s-3,0.2-4.3,0.6c-1.3,0.4-2.4,1.1-3.4,1.9c-1,0.9-1.7,2.1-2.3,3.5
		c-0.5,1.4-0.8,3.2-0.9,5.2V127.7z M295.8,127.3c0,2.2-0.4,3.8-1.2,4.8c-0.8,1-2.1,1.5-3.8,1.5c-1.7,0-2.9-0.5-3.7-1.5
		c-0.8-1-1.2-2.6-1.2-4.8c0-2.1,0.4-3.6,1.2-4.7c0.8-1.1,2.1-1.6,3.7-1.6C294.1,120.9,295.8,123.1,295.8,127.3 M263.9,122.5
		c0.8,1.1,1.2,2.6,1.2,4.7v6h-4.7c-1.7,0-3-0.4-3.9-1.2c-0.9-0.8-1.3-2.3-1.3-4.5c0-2,0.4-3.6,1.3-4.8s2.1-1.8,3.7-1.8
		C261.9,120.9,263.2,121.5,263.9,122.5 M261.2,149.2c3.2,0,5.6-0.8,7.3-2.3c1.7-1.5,2.5-3.9,2.5-7.2v-1.2h3.6c0.7,0,1.3-0.2,1.6-0.5
		c0.3-0.3,0.5-1.1,0.5-2.2c0-0.9-0.2-1.6-0.5-2c-0.4-0.4-0.9-0.6-1.6-0.6H271v-5.9c0-2.1-0.3-3.9-0.8-5.4c-0.5-1.5-1.3-2.7-2.2-3.6
		c-1-0.9-2.1-1.6-3.4-2c-1.3-0.4-2.8-0.6-4.4-0.6c-1.4,0-2.8,0.2-4.1,0.7c-1.3,0.4-2.5,1.1-3.4,2.1c-1,1-1.8,2.2-2.4,3.8
		c-0.6,1.5-0.9,3.4-0.9,5.5c0,2,0.2,3.7,0.7,5.1c0.5,1.4,1.2,2.5,2,3.4c0.9,0.9,2,1.5,3.2,1.8c1.3,0.4,2.8,0.6,4.4,0.6h5.3
		c0,1.1-0.1,2-0.3,2.7c-0.2,0.7-0.5,1.3-0.9,1.6c-0.4,0.4-0.9,0.7-1.5,0.8c-0.6,0.2-1.3,0.2-2.1,0.2h-6.2c-0.4,0-0.5,0.2-0.5,0.5
		v4.2c0,0.3,0.2,0.5,0.5,0.5H261.2z M230.8,103.1c0-0.4-0.2-0.5-0.5-0.5h-4.9c-0.3,0-0.5,0.2-0.5,0.5V138c0,0.3,0.2,0.5,0.5,0.5h4.9
		c0.3,0,0.5-0.2,0.5-0.5V103.1z M203.9,110.5c0-0.4-0.2-0.5-0.5-0.5h-4.9c-0.3,0-0.5,0.2-0.5,0.5v22.7h-9.4c-0.4,0-0.5,0.2-0.5,0.5
		v4.2c0,0.4,0.2,0.5,0.5,0.5h23.2c2.2,0,3.8-0.5,4.7-1.6c0.9-1.1,1.4-2.8,1.4-5v-28.7c0-0.4-0.2-0.5-0.5-0.5h-4.9
		c-0.3,0-0.5,0.2-0.5,0.5v27.3c0,1.1-0.2,1.8-0.6,2.2c-0.4,0.4-1.1,0.6-1.9,0.6h-5.5V110.5z M177.4,127.3c0,2.2-0.4,3.8-1.2,4.7
		c-0.8,0.9-2.1,1.3-3.8,1.3c-1.7,0-2.9-0.5-3.8-1.4c-0.8-0.9-1.2-2.6-1.2-4.9c0-1.9,0.4-3.4,1.3-4.5c0.8-1.1,2.1-1.6,3.7-1.6
		C175.7,120.9,177.4,123.1,177.4,127.3 M172.4,138.5c1.6,0,3.1-0.2,4.4-0.6c1.3-0.4,2.5-1,3.4-1.9c1-0.9,1.7-2,2.2-3.4
		c0.5-1.4,0.8-3.2,0.8-5.2c0-2.1-0.3-4-0.8-5.5c-0.5-1.5-1.3-2.7-2.3-3.6c-1-0.9-2.1-1.6-3.5-2c-1.3-0.4-2.8-0.6-4.3-0.6
		c-1.4,0-2.8,0.2-4.2,0.6c-1.3,0.4-2.5,1.1-3.5,2c-1,0.9-1.8,2.1-2.4,3.6c-0.6,1.5-0.9,3.3-0.9,5.5c0,2.4,0.4,4.4,1.2,5.9h-5
		c-0.7,0-1.2,0.2-1.6,0.6c-0.4,0.4-0.5,1-0.5,2c0,1.1,0.2,1.8,0.5,2.2c0.3,0.3,0.9,0.5,1.6,0.5H172.4z M171.3,111.3
		c0.4,0,0.5-0.2,0.5-0.5v-4.6c0-0.4-0.2-0.5-0.5-0.5h-4.4c-0.3,0-0.5,0.2-0.5,0.5v4.6c0,0.4,0.2,0.5,0.5,0.5H171.3z M178.2,111.3
		c0.4,0,0.5-0.2,0.5-0.5v-4.6c0-0.4-0.2-0.5-0.5-0.5h-4.4c-0.4,0-0.5,0.2-0.5,0.5v4.6c0,0.4,0.2,0.5,0.5,0.5H178.2z M153.5,138
		c1,0.3,2.2,0.5,3.6,0.5c0.7,0,1.3-0.2,1.6-0.6c0.3-0.4,0.5-1.1,0.5-2.1c0-0.9-0.2-1.6-0.5-2c-0.4-0.4-0.9-0.6-1.6-0.6h-0.9
		c-1.3,0-2.4-0.3-3.2-0.8c-0.8-0.6-1.2-1.4-1.2-2.4v-12.8c0-0.3-0.2-0.5-0.5-0.5h-4.5c-0.2,0-0.4,0-0.6,0.1
		c-0.2,0.1-0.3,0.2-0.3,0.4v11c0,0.9,0,1.7-0.1,2.4c0,0.6-0.1,1.2-0.3,1.6c-0.2,0.4-0.4,0.7-0.7,0.9c-0.3,0.2-0.8,0.3-1.5,0.3H140
		c-0.7,0-1.3,0.2-1.6,0.6c-0.3,0.4-0.5,1.1-0.5,2.2c0,1,0.2,1.7,0.5,2c0.4,0.3,0.9,0.5,1.6,0.5h4.9c1.7,0,3-0.2,4-0.6
		c1-0.4,1.7-1.1,2.2-2.1C151.7,136.9,152.5,137.7,153.5,138 M147.7,111.3c0.4,0,0.5-0.2,0.5-0.5v-4.6c0-0.4-0.2-0.5-0.5-0.5h-4.4
		c-0.4,0-0.5,0.2-0.5,0.5v4.6c0,0.4,0.2,0.5,0.5,0.5H147.7z M154.6,111.3c0.4,0,0.5-0.2,0.5-0.5v-4.6c0-0.4-0.2-0.5-0.5-0.5h-4.4
		c-0.4,0-0.5,0.2-0.5,0.5v4.6c0,0.4,0.2,0.5,0.5,0.5H154.6z M109.8,116.9c0-0.4-0.2-0.5-0.5-0.5h-4.9c-0.3,0-0.5,0.2-0.5,0.5v10.8
		c0,0.7,0,1.4-0.1,2.1c0,0.7-0.1,1.3-0.3,1.8c-0.2,0.5-0.4,0.9-0.8,1.2c-0.4,0.3-0.9,0.4-1.5,0.4h-2.4c-0.7,0-1.3,0.2-1.6,0.5
		c-0.3,0.4-0.5,1.1-0.5,2.2c0,1,0.2,1.7,0.5,2c0.3,0.3,0.9,0.5,1.6,0.5h4.4c0.9,0,1.7-0.1,2.4-0.2c0.7-0.1,1.3-0.3,1.9-0.7
		c0.4,0.2,0.8,0.4,1.3,0.5c0.5,0.1,1,0.2,1.6,0.3c0.6,0.1,1.1,0.1,1.7,0.1c0.6,0,1.2,0,1.7,0h10.4c2.3,0,4.2-0.2,5.6-0.6
		c1.4-0.4,2.5-1.3,3.2-2.7c0.6,1.3,1.4,2.2,2.6,2.7c1.1,0.4,2.5,0.7,4,0.7c0.7,0,1.3-0.2,1.6-0.6c0.3-0.4,0.5-1.1,0.5-2.1
		c0-0.9-0.2-1.6-0.5-2c-0.4-0.4-0.9-0.6-1.6-0.6h-0.9c-1.3,0-2.4-0.3-3.2-0.8c-0.8-0.6-1.2-1.4-1.2-2.4c0-0.2,0-0.5,0-0.8
		c0-0.3,0-0.6,0-1c0-1.9-0.2-3.6-0.7-5.2c-0.5-1.6-1.2-2.9-2.3-4c-1-1.1-2.4-1.9-4-2.5c-1.6-0.6-3.6-0.9-5.9-0.9
		c-2.2,0-4.2,0.3-6.2,0.9c-2,0.6-3.8,1.3-5.5,2.1V116.9z M124.4,121.4c1,0.3,1.7,0.8,2.3,1.4c0.6,0.6,1,1.3,1.2,2.2
		c0.2,0.9,0.3,1.9,0.3,3c0,1.3-0.1,2.3-0.3,3c-0.2,0.7-0.5,1.2-1,1.6c-0.5,0.3-1.2,0.5-2.2,0.6c-0.9,0.1-2.2,0.1-3.7,0.1h-11.5
		c0.1-0.4,0.1-0.7,0.2-1.1c0-0.4,0.1-0.8,0.1-1.2v-7.1c1.5-0.7,3.2-1.3,5.1-1.9c1.9-0.6,3.8-0.9,5.8-0.9
		C122.2,120.9,123.4,121.1,124.4,121.4 M88.5,131.9c0,2.3,0.5,4,1.4,5c0.9,1.1,2.5,1.6,4.7,1.6h4.2c0.7,0,1.3-0.2,1.6-0.5
		c0.3-0.3,0.5-1,0.5-2.1c0-1-0.2-1.7-0.5-2.1c-0.4-0.4-0.9-0.6-1.6-0.6h-1.9c-0.9,0-1.5-0.2-1.9-0.6c-0.4-0.4-0.6-1.1-0.6-2.2v-27.3
		c0-0.4-0.2-0.5-0.5-0.5H89c-0.4,0-0.5,0.2-0.5,0.5V131.9z M82.2,125.1c0-3.2-0.8-5.6-2.5-7.2c-1.7-1.5-3.9-2.3-6.7-2.3h-8.5
		c-0.4,0-0.5,0.2-0.5,0.5v4.2c0,0.4,0.2,0.5,0.5,0.5h6.3c3.6,0,5.4,1.5,5.4,4.6v3.5c0,0.8,0,1.4-0.1,1.9c-0.1,0.5-0.3,1-0.6,1.3
		c-0.3,0.3-0.7,0.6-1.3,0.7c-0.6,0.1-1.3,0.2-2.3,0.2h-9.8c-0.4,0-0.5,0.2-0.5,0.5v4.2c0,0.4,0.2,0.5,0.5,0.5h12.3
		c1.3,0,2.5-0.1,3.5-0.4c1-0.3,1.8-0.8,2.4-1.5c0.6-0.7,1.1-1.6,1.4-2.8c0.3-1.1,0.5-2.6,0.5-4.4V125.1z"/>
	<path class="st1" d="M344.4,41c0-0.4-0.2-0.5-0.5-0.5H339c-0.3,0-0.5,0.2-0.5,0.5v34.9c0,0.4,0.2,0.5,0.5,0.5h4.9
		c0.3,0,0.5-0.2,0.5-0.5V41z M325.4,76.4c2.2,0,3.8-0.5,4.7-1.6c0.9-1.1,1.4-2.8,1.4-5V41c0-0.4-0.2-0.5-0.5-0.5h-4.9
		c-0.3,0-0.5,0.2-0.5,0.5v27.3c0,1.1-0.2,1.8-0.6,2.2c-0.4,0.4-1,0.6-1.9,0.6h-2.6c-0.7,0-1.3,0.2-1.6,0.6c-0.3,0.4-0.5,1.1-0.5,2.1
		c0,1,0.2,1.7,0.5,2.1c0.3,0.3,0.9,0.5,1.6,0.5H325.4z M304.1,63.9c-1.1-1.6-2.5-3-4.1-4c0.4-0.2,1.1-0.5,2.1-0.7
		c1-0.3,2.3-0.4,3.7-0.4c1.6,0,2.9,0.3,4,0.8c1,0.6,1.6,1.6,1.6,3c0,0.7-0.1,1.4-0.4,2.1c-0.3,0.7-0.6,1.3-1.1,1.9
		c-0.4,0.6-1,1.1-1.5,1.6c-0.6,0.5-1.2,0.9-1.7,1.3C306.1,67.4,305.3,65.6,304.1,63.9 M301.4,53.9c-1.4,0.2-2.7,0.6-3.8,0.9
		c-1.1,0.4-2,0.8-2.6,1.2c-0.7,0.5-1,0.9-1,1.3v3.3c0,0.3,0,0.5,0.1,0.8c0.1,0.2,0.3,0.5,0.7,0.8c0.7,0.5,1.4,1,2.1,1.5
		c0.7,0.5,1.3,1.1,1.9,1.7c0.6,0.6,1.1,1.4,1.6,2.2c0.5,0.8,0.9,1.8,1.1,3c-0.9,0.2-1.8,0.3-2.5,0.4c-0.7,0-1.3,0.1-1.9,0.1H291
		c-0.9,0-1.5,0.2-1.7,0.7c-0.2,0.5-0.3,1.2-0.3,2.1c0,1,0.2,1.6,0.5,2c0.4,0.4,0.9,0.5,1.5,0.5h7.6c1,0,2.2-0.1,3.5-0.3
		c1.3-0.2,2.5-0.7,3.7-1.3c1,0.6,2.1,1.1,3.2,1.3c1.1,0.2,2.3,0.3,3.6,0.3h7.9c0.7,0,1.2-0.2,1.6-0.5c0.3-0.3,0.5-1,0.5-2
		c0-1-0.1-1.7-0.4-2.1c-0.3-0.4-0.8-0.6-1.6-0.6h-6.6h-1.1c-0.3,0-0.6,0-0.9-0.1c0.6-0.4,1.3-0.9,2-1.6c0.7-0.6,1.3-1.3,1.8-2.1
		c0.5-0.8,1-1.7,1.3-2.6c0.3-0.9,0.5-1.9,0.5-3c0-2.5-0.9-4.4-2.8-5.9c-1.9-1.5-4.8-2.3-8.9-2.3C304.3,53.5,302.8,53.6,301.4,53.9
		 M264.6,65.5c0,0.2,0,0.5,0.1,0.8c0,1.8-0.4,3.1-1.1,3.8c-0.7,0.7-1.4,1-2.3,1h-2.1c-0.7,0-1.3,0.2-1.6,0.5c-0.3,0.4-0.5,1-0.5,2.1
		c0,1,0.2,1.6,0.5,2.1c0.4,0.4,0.9,0.6,1.6,0.6h1.9c0.5,0,1,0,1.6-0.1c0.6-0.1,1.1-0.2,1.6-0.4c0.5-0.2,1-0.5,1.5-0.8
		c0.5-0.4,0.9-0.8,1.3-1.4c1,1.1,2.1,1.9,3.5,2.4c1.4,0.5,3,0.7,4.8,0.7c1.8,0,3.4-0.2,4.8-0.7c1.4-0.5,2.6-1.3,3.6-2.5
		c0.5,0.7,1,1.2,1.6,1.6c0.6,0.4,1.2,0.7,1.9,0.9c0.6,0.2,1.3,0.3,2,0.3c0.6,0,1.3,0.1,1.9,0.1c0.7,0,1.3-0.2,1.6-0.6
		c0.3-0.4,0.5-1.1,0.5-2.1c0-0.9-0.2-1.6-0.5-2c-0.4-0.4-0.9-0.6-1.6-0.6h-1.5c-0.8,0-1.6-0.3-2.2-0.9c-0.7-0.6-1-1.7-1-3.1
		c0-0.3,0.1-0.6,0.1-0.9v-0.9c0-2.1-0.3-4-0.8-5.5c-0.5-1.5-1.3-2.7-2.3-3.6c-1-0.9-2.1-1.6-3.5-2c-1.3-0.4-2.8-0.6-4.3-0.6
		c-1.6,0-3,0.2-4.3,0.6c-1.3,0.4-2.4,1.1-3.4,1.9c-1,0.9-1.7,2.1-2.3,3.5c-0.6,1.4-0.8,3.2-0.9,5.2V65.5z M280.4,65.2
		c0,2.2-0.4,3.8-1.2,4.8c-0.8,1-2.1,1.5-3.8,1.5c-1.7,0-2.9-0.5-3.7-1.5c-0.8-1-1.2-2.6-1.2-4.8c0-2.1,0.4-3.6,1.2-4.7
		c0.8-1.1,2-1.6,3.7-1.6C278.8,58.8,280.4,60.9,280.4,65.2 M229.1,80.6c0.7,1.5,1.6,2.8,2.7,3.8c1.2,1,2.5,1.7,4.1,2.2
		c1.6,0.5,3.3,0.7,5.1,0.7c1.9,0,3.7-0.2,5.3-0.7c1.6-0.5,2.9-1.2,4.1-2.3c1.1-1,2-2.3,2.6-3.8c0.6-1.5,0.9-3.3,0.9-5.3v-0.6
		c0.6,0.7,1.4,1.2,2.2,1.4c0.9,0.2,1.9,0.3,3,0.3c0.7,0,1.3-0.2,1.6-0.6c0.3-0.4,0.5-1.1,0.5-2.1c0-0.9-0.2-1.6-0.5-2
		c-0.4-0.4-0.9-0.6-1.6-0.6h-0.8c-1.3,0-2.4-0.3-3.2-0.8c-0.8-0.6-1.2-1.4-1.2-2.4V41c0-0.4-0.2-0.5-0.5-0.5h-4.9
		c-0.4,0-0.5,0.2-0.5,0.5v34.1c0,2.4-0.6,4.1-1.8,5.2c-1.2,1.1-2.9,1.6-4.9,1.6c-0.8,0-1.6-0.1-2.5-0.3c-0.8-0.2-1.6-0.6-2.3-1.2
		c-0.7-0.6-1.3-1.3-1.7-2.2c-0.4-0.9-0.7-2.1-0.7-3.5c0-1.6,0.3-3,0.8-4.4c0.5-1.3,1-2.5,1.6-3.5c0.1-0.1,0.1-0.3,0.1-0.4
		c0-0.1-0.1-0.2-0.3-0.3l-4.3-1.7c-0.4-0.2-0.6-0.1-0.8,0.1c-0.9,1.4-1.6,3-2.2,4.9c-0.6,1.9-0.9,3.8-0.9,5.7
		C228.1,77.3,228.5,79,229.1,80.6 M209.8,41c0-0.4-0.2-0.5-0.5-0.5h-4.9c-0.4,0-0.5,0.2-0.5,0.5v34.9c0,0.4,0.2,0.5,0.5,0.5h4.9
		c0.3,0,0.5-0.2,0.5-0.5V41z M190.9,76.4c2.2,0,3.8-0.5,4.7-1.6s1.4-2.8,1.4-5V41c0-0.4-0.2-0.5-0.5-0.5h-4.9
		c-0.3,0-0.5,0.2-0.5,0.5v27.3c0,1.1-0.2,1.8-0.6,2.2c-0.4,0.4-1,0.6-1.9,0.6H186c-0.7,0-1.3,0.2-1.6,0.6c-0.3,0.4-0.5,1.1-0.5,2.1
		c0,1,0.2,1.7,0.5,2.1c0.4,0.3,0.9,0.5,1.6,0.5H190.9z M174.8,66.4c0,0.9,0,1.6,0,2.2c0,0.6-0.1,1.1-0.3,1.5
		c-0.2,0.4-0.4,0.6-0.8,0.8c-0.3,0.2-0.8,0.2-1.4,0.2h-5.5V48.4c0-0.3-0.2-0.5-0.5-0.5h-4.9c-0.3,0-0.5,0.2-0.5,0.5v22.7h-9.4
		c-0.4,0-0.5,0.2-0.5,0.5v4.2c0,0.4,0.2,0.5,0.5,0.5h22.5c1.6,0,2.9-0.2,3.9-0.6c1-0.4,1.7-1.1,2.2-2.1c0.6,1.1,1.4,1.9,2.5,2.2
		c1,0.3,2.2,0.5,3.5,0.5c0.7,0,1.3-0.2,1.6-0.6c0.3-0.4,0.5-1.1,0.5-2.1c0-0.9-0.2-1.6-0.5-2c-0.4-0.4-0.9-0.6-1.6-0.6H185
		c-2.6,0-4-0.9-4.3-2.7V41c0-0.4-0.2-0.5-0.5-0.5h-4.9c-0.4,0-0.5,0.2-0.5,0.5V66.4z M139,76.4c2.2,0,3.8-0.5,4.7-1.6
		c0.9-1.1,1.4-2.8,1.4-5V55c0-0.3-0.2-0.5-0.5-0.5h-4.9c-0.4,0-0.5,0.2-0.5,0.5v13.3c0,1.1-0.2,1.8-0.6,2.2c-0.4,0.4-1,0.6-1.9,0.6
		h-2.6c-0.7,0-1.3,0.3-1.6,1c-0.3,0.7-0.5,1.5-0.5,2.4c0,0.7,0.2,1.2,0.5,1.5c0.3,0.2,0.9,0.4,1.6,0.4H139z M136.2,46.6
		c-0.2,0-0.3,0.1-0.3,0.4v2.1c0,0.2,0.1,0.4,0.3,0.4h11.6c0.2,0,0.3-0.1,0.3-0.4V47c0-0.2-0.1-0.4-0.3-0.4H142
		c-0.4-0.2-0.8-0.5-1.1-0.9c-0.4-0.4-0.5-1-0.5-1.7c0-0.7,0.2-1.2,0.7-1.7c0.4-0.5,1.1-0.7,1.9-0.7c0.6,0,1.1,0.1,1.6,0.3
		c0.5,0.2,0.9,0.5,1.2,0.8c0.2,0.2,0.3,0.2,0.4,0.1l1.6-1.5c0.1-0.1,0.2-0.3,0-0.5c-0.4-0.6-1.1-1.1-2-1.5c-0.9-0.4-1.8-0.6-2.9-0.6
		c-1.1,0-2,0.2-2.7,0.5c-0.8,0.3-1.4,0.7-1.8,1.2s-0.8,1.1-1,1.7c-0.2,0.6-0.3,1.2-0.3,1.7c0,0.6,0.1,1.1,0.2,1.6
		c0.2,0.5,0.4,0.9,0.6,1.2H136.2z M123.3,60.4c0.8,1.1,1.2,2.6,1.2,4.7v6h-4.7c-1.7,0-2.9-0.4-3.9-1.3c-0.9-0.9-1.4-2.4-1.4-4.6
		c0-2,0.4-3.6,1.3-4.7c0.9-1.1,2.1-1.7,3.7-1.7C121.3,58.8,122.5,59.3,123.3,60.4 M107.8,81.7c-1,0-2-0.1-3-0.3
		c-1-0.2-1.9-0.6-2.6-1.1c-0.8-0.5-1.4-1.2-1.9-2.1c-0.5-0.9-0.7-2-0.7-3.3c0-1.4,0.3-2.7,0.8-4c0.5-1.3,1.1-2.5,1.7-3.4
		c0.2-0.3,0.1-0.5-0.2-0.7l-4.2-2.2c-0.3-0.2-0.6-0.2-0.7,0.1c-0.5,0.6-0.9,1.4-1.3,2.2c-0.4,0.8-0.8,1.7-1.1,2.6
		c-0.3,0.9-0.6,1.9-0.8,2.9c-0.2,1-0.3,2-0.3,3c0,3.6,1.1,6.5,3.4,8.6c2.2,2.1,5.6,3.2,10.2,3.2h12.8c1.9,0,3.5-0.2,4.9-0.6
		c1.3-0.4,2.4-0.9,3.3-1.6c0.8-0.7,1.5-1.5,1.9-2.5c0.4-0.9,0.6-2,0.6-3.1v-2.9h3.6c0.7,0,1.3-0.2,1.6-0.6c0.3-0.4,0.5-1.1,0.5-2.1
		c0-1-0.2-1.7-0.5-2.1s-0.9-0.6-1.6-0.6h-3.6v-5.9c0-2.1-0.3-4-0.8-5.5c-0.5-1.5-1.3-2.7-2.3-3.6c-1-0.9-2.1-1.6-3.5-2
		c-1.3-0.4-2.8-0.6-4.3-0.6c-1.4,0-2.8,0.2-4.1,0.6c-1.3,0.4-2.5,1.1-3.4,2s-1.8,2.1-2.4,3.6c-0.6,1.5-0.9,3.3-0.9,5.5
		c0,4,0.9,6.9,2.7,8.6c1.8,1.7,4.4,2.5,7.7,2.5h5.4v2.4c0,0.9-0.4,1.6-1.2,2.1c-0.8,0.5-2.2,0.8-4.3,0.8H107.8z M118.5,49.2
		c0.3,0,0.5-0.2,0.5-0.5v-4.6c0-0.4-0.2-0.5-0.5-0.5H114c-0.4,0-0.5,0.2-0.5,0.5v4.6c0,0.4,0.2,0.5,0.5,0.5H118.5z M125.3,49.2
		c0.4,0,0.5-0.2,0.5-0.5v-4.6c0-0.4-0.2-0.5-0.5-0.5h-4.4c-0.4,0-0.5,0.2-0.5,0.5v4.6c0,0.4,0.2,0.5,0.5,0.5H125.3z"/>
</g>
</svg>
