<?xml version="1.0" encoding="utf-8"?>
<svg version="1.1" id="Layer_1" xmlns="http://www.w3.org/2000/svg" xmlns:xlink="http://www.w3.org/1999/xlink" x="0px" y="0px"
	 viewBox="0 0 500 500" style="enable-background:new 0 0 500 500;" xml:space="preserve">
<style type="text/css">
	.st1{fill:#FFFFFF;}
	.st6{fill:#26BDE2;}
</style>
<rect class="st6" width="500" height="500"/>
<g>
	<path class="st1" d="M329.9,240.9c-4.9-2.2-11.2-1.4-17.2,1c-22.6,9.2-38,12.5-61.8,5c-15-4.7-29-14.5-45.6-8.5
		c-11,4-21.2,7.7-33.7,7.6l-7.2-36.8h170.5L329.9,240.9z M272.1,350.2c0,0-8.3,8.5-21.8,7.6c-13.5,0.9-21.8-7.6-21.8-7.6
		c-13.7-13.6-8.8-30.6-4-39.4c2.9-5.5,23.9-37,25.7-39.7v-0.2c0,0,0,0,0.1,0.1l0.1-0.1v0.2c1.8,2.7,22.8,34.2,25.7,39.7
		C280.9,319.6,285.7,336.6,272.1,350.2 M342.5,202c-0.4-0.5-1-0.7-1.7-0.7H158.6c-0.6,0-1.2,0.2-1.6,0.7c-0.4,0.5-0.6,1.1-0.5,1.7
		l30.6,185.2c0.2,1,1.1,1.8,2.1,1.8h37.6l2.6,30.2l-15.8,0l36.8,36.8l36.9-36.9l-15.8,0l2.6-30.1h38.2c1.1,0,1.9-0.8,2.1-1.8
		L343,203.7C343.1,203,342.9,202.4,342.5,202"/>
	<path class="st1" d="M66.9,101c0.3-5.7,2.7-9.3,8.1-9.3c5.8,0,8.1,3.6,8.1,10.2v17.6c0,6.4-2.4,10.2-8.2,10.2
		c-5.7,0-7.9-3.9-7.9-10.2V101z M74.9,143.6c18.1,0,25.1-9.9,25.1-25.6v-14.9c0-16.6-6.6-24.9-18.8-24.9c-7.2,0-11.5,3.3-14,8.2
		h-0.1V64.5c0-6.1,1.9-10.5,8.1-10.5c6.1,0,7.9,3.6,7.9,9.9v6.7h15.5v-5.4c0-14.9-4.9-25.4-23.8-25.4c-17.9,0-24.7,11.5-24.7,27.3
		v49.3C50.1,132.2,56.9,143.6,74.9,143.6"/>
	<path class="st1" d="M144.6,73.5V53c0-6.6,3.1-11.4,10.6-11.4c7.9,0,10.1,4.4,10.1,10.6v5h-6.5v-5.5c0-2.6-0.9-4.1-3.4-4.1
		c-2.6,0-3.6,1.8-3.6,4.4v22.7c0,2.6,1.1,4.4,3.6,4.4c2.6,0,3.4-1.6,3.4-4.1v-7.8h6.5v7.3c0,6-2.5,10.5-10.1,10.5
		C147.7,84.9,144.6,80.1,144.6,73.5"/>
</g>
<polygon class="st1" points="169.1,42.1 176.2,42.1 176.2,78.6 184.7,78.6 184.7,84.5 169.1,84.5 "/>
<polygon class="st1" points="188,42.1 205,42.1 205,47.9 195.1,47.9 195.1,60 202.2,60 202.2,65.8 195.1,65.8 195.1,78.6 205,78.6 
	205,84.5 188,84.5 "/>
<path class="st1" d="M216.6,71h5.7l-2.8-17h-0.1L216.6,71z M207.7,84.4l8-42.3h8.1l8.1,42.3h-7.3l-1.3-7.7h-7.6l-1.2,7.7H207.7z"/>
<polygon class="st1" points="240.7,57.8 240.7,84.4 234.7,84.4 234.7,42.1 241.7,42.1 249.4,66.4 249.4,42.1 255.3,42.1 255.3,84.4 
	249.1,84.4 "/>
<polygon class="st1" points="285.5,58.3 281.5,84.4 274.8,84.4 269.1,42.1 276,42.1 279.3,69 279.4,69 282.9,42.1 288.7,42.1 
	292.7,69 292.7,69 296,42.1 302,42.1 296.5,84.4 289.7,84.4 285.5,58.3 "/>
<path class="st1" d="M310.3,71h5.7l-2.8-17h-0.1L310.3,71z M301.4,84.4l8-42.3h8.1l8.1,42.3h-7.3l-1.3-7.7h-7.6l-1.2,7.7H301.4z"/>
<polygon class="st1" points="324.6,42.1 343.5,42.1 343.5,47.9 337.6,47.9 337.6,84.5 330.4,84.5 330.4,47.9 324.6,47.9 "/>
<polygon class="st1" points="346.8,42.1 363.8,42.1 363.8,47.9 353.9,47.9 353.9,60 360.9,60 360.9,65.8 353.9,65.8 353.9,78.6 
	363.8,78.6 363.8,84.5 346.8,84.5 "/>
<g>
	<path class="st1" d="M374.7,47.9v13.2h2.4c2.4,0,3.5-1.2,3.5-3.5v-6.2c0-2.3-1.1-3.4-3.5-3.4H374.7z M374.7,65v19.4h-7.1V42.1h10.4
		c7.2,0,9.8,3.6,9.8,9.5V57c0,4.6-1.6,7.2-5.7,8.2l6.8,19.2h-7.5L374.7,65z"/>
</g>
<path class="st1" d="M152.4,130.3h5.7l-2.8-17h-0.1L152.4,130.3z M143.5,143.7l8-42.3h8.1l8.1,42.3h-7.3L159,136h-7.6l-1.2,7.7
	H143.5z"/>
<polygon class="st1" points="176.6,117.2 176.6,143.7 170.6,143.7 170.6,101.4 177.6,101.4 185.2,125.7 185.2,101.4 191.2,101.4 
	191.2,143.7 184.9,143.7 "/>
<g>
	<path class="st1" d="M205.3,137.9c2.9,0,4.1-1.7,4.1-4.3v-22.2c0-2.5-1.1-4.2-4.1-4.2h-3v30.7H205.3z M216.5,112.8v19.6
		c0,6.5-2.7,11.4-10.3,11.4h-11v-42.3h11C213.8,101.4,216.5,106.2,216.5,112.8"/>
	<path class="st1" d="M230.9,134.6V129h6.6v5.8c0,2.4,1.1,3.7,3.5,3.7c2.2,0,3.2-1.5,3.2-3.7v-1.6c0-2.4-1-3.9-3.2-6l-4.2-4.2
		c-4.1-4-5.9-6.4-5.9-11.3v-1.4c0-5.2,3.1-9.3,10-9.3c7.1,0,9.9,3.5,9.9,9.6v3.4h-6.5v-3.7c0-2.4-1.1-3.6-3.4-3.6
		c-2,0-3.4,1.1-3.4,3.5v0.9c0,2.4,1.3,3.7,3.4,5.7l4.6,4.5c3.9,3.9,5.7,6.3,5.7,11v2.1c0,5.8-3.1,9.9-10.4,9.9
		S230.9,140.2,230.9,134.6"/>
</g>
<path class="st1" d="M262.2,130.3h5.7l-2.8-17h-0.1L262.2,130.3z M253.3,143.7l8-42.3h8.1l8.1,42.3h-7.3l-1.3-7.7h-7.6l-1.2,7.7
	H253.3z"/>
<polygon class="st1" points="286.4,117.2 286.4,143.7 280.4,143.7 280.4,101.4 287.4,101.4 295.1,125.7 295.1,101.4 301,101.4 
	301,143.7 294.8,143.7 "/>
<rect x="305.1" y="101.4" class="st1" width="7.1" height="42.3"/>
<polygon class="st1" points="315.5,101.4 334.4,101.4 334.4,107.2 328.5,107.2 328.5,143.8 321.4,143.8 321.4,107.2 315.5,107.2 "/>
<path class="st1" d="M342.4,130.3h5.7l-2.8-17h-0.1L342.4,130.3z M333.5,143.7l8-42.3h8.1l8.1,42.3h-7.3L349,136h-7.6l-1.2,7.7
	H333.5z"/>
<polygon class="st1" points="356.6,101.4 375.5,101.4 375.5,107.2 369.7,107.2 369.7,143.8 362.5,143.8 362.5,107.2 356.6,107.2 "/>
<rect x="378.9" y="101.4" class="st1" width="7.1" height="42.3"/>
<g>
	<path class="st1" d="M404.5,134v-22.7c0-2.6-1.1-4.4-3.7-4.4c-2.5,0-3.6,1.8-3.6,4.4V134c0,2.6,1.1,4.4,3.6,4.4
		C403.4,138.3,404.5,136.5,404.5,134 M390.1,132.8v-20.5c0-6.6,3.2-11.4,10.7-11.4c7.6,0,10.8,4.8,10.8,11.4v20.5
		c0,6.6-3.2,11.4-10.8,11.4C393.3,144.2,390.1,139.4,390.1,132.8"/>
</g>
<polygon class="st1" points="421.7,117.2 421.7,143.7 415.7,143.7 415.7,101.4 422.7,101.4 430.4,125.7 430.4,101.4 436.3,101.4 
	436.3,143.7 430.1,143.7 "/>
</svg>
