<?xml version="1.0" encoding="utf-8"?>
<svg version="1.1" id="Layer_1" xmlns="http://www.w3.org/2000/svg" xmlns:xlink="http://www.w3.org/1999/xlink" x="0px" y="0px"
	 viewBox="0 0 500 500" style="enable-background:new 0 0 500 500;" xml:space="preserve">
<style type="text/css">
	.st1{fill:#FFFFFF;}
	.st16{fill:#3FAE49;}
</style>
<g>
	<rect class="st16" width="500" height="500"/>
	<path class="st1" d="M207.1,338.1c0.6,0,1.1,0.5,1.1,1.1v36.4c0,0.6-0.5,1.1-1.1,1.1h-14.7c-0.6,0-1.1-0.5-1.1-1.1v-36.4
		c0-0.6,0.5-1.1,1.1-1.1H207.1z"/>
	<path class="st1" d="M368.9,392.3H126.1c-0.6,0-1.1,0.5-1.1,1.1v14.8c0,0.6,0.5,1.1,1.1,1.1h242.8c0.6,0,1.1-0.5,1.1-1.1v-14.8
		C370,392.8,369.5,392.3,368.9,392.3"/>
	<path class="st1" d="M368.9,421.8H126.1c-0.6,0-1.1,0.5-1.1,1.1v14.9c0,0.6,0.5,1.1,1.1,1.1h242.8c0.6,0,1.1-0.5,1.1-1.1v-14.9
		C370,422.3,369.5,421.8,368.9,421.8"/>
	<path class="st1" d="M322.7,297.8c-3-2.4-11.1-7.9-21-7.9c-7.1,0-13.6,2.8-19.5,8.3c-0.4,0.4-0.6,0.9-0.6,1.5v1.3
		c0,0.6,0.2,1.3,0.7,1.7c0.5,0.4,1.1,0.6,1.7,0.4c0.1,0,0.3-0.1,0.5-0.1c0.4-0.2,0.9-0.4,1.2-0.8c1.3-0.9,4.8-2,9.7-2
		c5.1,0,15.3,1.4,25,10.5l0.2,0.2c0.6,0.6,1.3,0.9,2.1,0.9c0.8,0,1.6-0.3,2.1-0.9l0.2-0.2c9.8-9.1,19.9-10.5,25.1-10.5
		c5,0,8.5,1.2,9.7,2c0.3,0.3,0.8,0.6,1.3,0.8c0.2,0.1,0.8,0.2,1.4,0c0.9-0.3,1.5-1.1,1.5-2v-1.2c0-0.6-0.2-1.1-0.6-1.5
		c-5.9-5.7-12.6-8.5-19.7-8.5C333.8,289.8,325.8,295.3,322.7,297.8"/>
	<path class="st1" d="M307.6,201c-0.5,0.2-0.9,0.7-1.1,1.3l-0.2,0.8c-0.2,0.6-0.1,1.3,0.3,1.8c0.4,0.5,0.9,0.8,1.5,0.8
		c0.1,0,0.2,0,0.3,0c0.4,0,0.8-0.1,1.2-0.3c0.2,0,0.7-0.2,1.5-0.2c1.1,0,10.9,0.3,17.3,11.3l0.1,0.2c0.3,0.6,0.9,1.1,1.6,1.2
		c0.2,0.1,0.5,0.1,0.8,0.1c0.4,0,0.9-0.1,1.2-0.3l0.2-0.1c3.5-1.8,7.2-2.7,10.8-2.7c6.1,0,10.1,2.5,11.1,3.5
		c0.2,0.4,0.5,0.7,0.8,0.9c0.2,0.1,0.6,0.3,0.8,0.4c0.1,0,0.2,0,0.4,0c0.1,0,0.1,0,0.2,0c0.3,0,0.6-0.1,1-0.2c0.5-0.2,0.9-0.7,1-1.2
		l0.2-0.7c0.1-0.2,0.1-0.4,0.1-0.6c0-0.4-0.1-0.7-0.3-1c-4.7-8.2-11.6-9.9-16.5-9.9c-3.7,0-6.9,0.9-8.7,1.6c-2.2-3-7.8-9.2-16.4-9.2
		C313.7,198.7,310.6,199.5,307.6,201"/>
	<path class="st1" d="M256.3,238.3l0.1,1.1c0,0.7,0.4,1.3,1,1.6c0.5,0.3,1.1,0.4,1.6,0.3c0.1,0,0.3-0.1,0.4-0.1
		c0.4-0.2,0.8-0.4,1-0.8c1-0.7,4.4-2.1,9.3-2.1c4.7,0,11.9,1.3,19.2,7.3l0.2,0.2c0.5,0.4,1.2,0.7,1.9,0.7h0.2
		c0.8-0.1,1.5-0.4,1.9-0.9l0.2-0.2c8.1-8.6,16.8-9.8,21.3-9.8c3.2,0,5.5,0.7,6.3,1.2c0.3,0.3,0.7,0.5,1.3,0.7c0.1,0,0.5,0.1,0.9,0.1
		c0.2,0,0.4-0.1,0.5-0.1c0.9-0.3,1.4-1.1,1.4-2.1l-0.1-1c0-0.6-0.3-1.1-0.7-1.4c-4.8-4.1-10-6.1-15.5-6.1c-8.5,0-15.4,5-18.2,7.5
		c-2.6-1.8-8.8-5.4-16.2-5.4c-6.5,0-12.3,2.7-17.2,8C256.5,237.2,256.3,237.8,256.3,238.3"/>
	<path class="st1" d="M133.4,257.8c0-14.5,11.8-26.3,26.3-26.3c0.6,0,1.1,0,1.7,0.1c1.4-18.4,16.7-32.9,35.5-32.9
		c19.7,0,35.6,15.9,35.6,35.6c0,5.6-1.3,10.8-3.6,15.5c17.8,3.9,31.2,19.8,31.2,38.8c0,22-17.8,39.8-39.8,39.8
		c-1.6,0-53.1-0.3-53.1-0.3c-15.6,0-28.2-12.6-28.2-28.2c0-7.5,2.9-14.2,7.7-19.3C138.8,276.1,133.4,267.6,133.4,257.8"/>
	<path class="st1" d="M437.2,118.6c-1.4-0.4-2.6-1.1-3.5-2.1c-0.9-1.1-1.7-2.5-2.2-4.4c-0.5-1.9-0.7-4.3-0.7-7.2V88.6
		c0-4.5,0.2-8.2,0.7-11.2c0.4-3,1.1-5.5,2-7.3c0.9-1.9,2.1-3.2,3.5-4.1c1.4-0.8,3.1-1.3,5-1.3c4,0,6.9,1.9,8.6,5.5
		c1.7,3.7,2.6,9.9,2.6,18.6v16c0,5.5-0.9,9.3-2.7,11.3c-1.8,2-4.6,3-8.5,3C440.1,119.1,438.5,119,437.2,118.6 M451.8,131.7
		c3.2-0.7,6-2.1,8.4-4.1c2.4-2,4.3-4.8,5.7-8.4c1.4-3.6,2.1-8.2,2.1-13.9V87.9c0-7-0.6-12.9-1.9-17.6c-1.3-4.7-3.1-8.4-5.5-11.2
		c-2.4-2.8-5.1-4.7-8.3-5.8c-3.2-1.1-6.6-1.7-10.3-1.7c-3.8,0-7.3,0.6-10.5,1.7c-3.2,1.2-6,3.1-8.3,5.9c-2.4,2.8-4.2,6.5-5.5,11.2
		c-1.3,4.6-1.9,10.4-1.9,17.2v18.3c0,5.9,0.7,10.6,2.2,14.1c1.5,3.5,3.4,6.2,5.9,8.1c2.4,1.9,5.2,3.1,8.3,3.7
		c3.1,0.6,6.3,0.9,9.5,0.9C445.2,132.8,448.6,132.4,451.8,131.7 M399.8,53.3c0-0.9-0.4-1.3-1.3-1.3h-12.3c-0.9,0-1.3,0.4-1.3,1.3
		v78.2c0,0.9,0.4,1.3,1.3,1.3h12.3c0.9,0,1.3-0.4,1.3-1.3V53.3z"/>
	<path class="st1" d="M346.3,130.8c0,2.2-0.4,3.8-1.2,4.7c-0.8,0.9-2.1,1.3-3.8,1.3c-1.7,0-2.9-0.5-3.8-1.4
		c-0.8-0.9-1.2-2.6-1.2-4.9c0-1.9,0.4-3.4,1.3-4.5c0.8-1.1,2.1-1.6,3.7-1.6C344.6,124.4,346.3,126.5,346.3,130.8 M341.3,142
		c1.6,0,3.1-0.2,4.4-0.6c1.3-0.4,2.5-1,3.4-1.9c1-0.9,1.7-2,2.2-3.4c0.5-1.4,0.8-3.2,0.8-5.2c0-2.1-0.3-4-0.8-5.5
		c-0.5-1.5-1.3-2.7-2.3-3.6c-1-0.9-2.1-1.6-3.5-2c-1.3-0.4-2.8-0.6-4.3-0.6c-1.4,0-2.8,0.2-4.2,0.6c-1.3,0.4-2.5,1.1-3.5,2
		c-1,0.9-1.8,2.1-2.4,3.6c-0.6,1.5-0.9,3.3-0.9,5.5c0,2.4,0.4,4.4,1.2,5.9h-5c-0.7,0-1.2,0.2-1.6,0.6c-0.4,0.4-0.5,1-0.5,2
		c0,1.1,0.2,1.8,0.5,2.2c0.3,0.4,0.9,0.5,1.6,0.5H341.3z M343.8,114.8c0.4,0,0.5-0.2,0.5-0.5v-4.6c0-0.4-0.2-0.5-0.5-0.5h-5.1
		c-0.4,0-0.5,0.2-0.5,0.5v4.6c0,0.4,0.2,0.5,0.5,0.5H343.8z M301.9,147.3c-1,0-2-0.1-3-0.3c-1-0.2-1.9-0.6-2.6-1.1
		c-0.8-0.5-1.4-1.2-1.9-2.1c-0.5-0.9-0.7-2-0.7-3.3c0-1.4,0.3-2.7,0.8-4c0.5-1.3,1.1-2.4,1.7-3.4c0.2-0.3,0.1-0.5-0.2-0.7l-4.2-2.2
		c-0.3-0.2-0.6-0.2-0.7,0.1c-0.5,0.6-0.9,1.4-1.3,2.2c-0.4,0.8-0.8,1.7-1.1,2.6c-0.3,0.9-0.6,1.9-0.8,2.9c-0.2,1-0.3,2-0.3,3
		c0,3.6,1.1,6.5,3.3,8.6c2.2,2.1,5.6,3.2,10.2,3.2h12c1.9,0,3.5-0.2,4.8-0.6c1.3-0.4,2.4-0.9,3.2-1.6c0.8-0.7,1.4-1.4,1.8-2.3
		c0.4-0.9,0.6-1.8,0.6-2.8c0-0.7-0.1-1.4-0.3-2c-0.2-0.6-0.4-1.1-0.6-1.3h3.6c0.7,0,1.3-0.2,1.6-0.6c0.3-0.4,0.5-1.2,0.5-2.2
		c0-0.9-0.2-1.6-0.5-1.9c-0.4-0.4-0.9-0.5-1.6-0.5H321c-1,0-2-0.1-2.9-0.3c-0.9-0.2-1.9-0.5-2.9-0.8c-1-0.3-2-0.7-3-1.2
		c-1-0.4-2.1-0.9-3.2-1.3c-0.3-0.1-0.5,0-0.6,0.4l-1.4,4.2c-0.1,0.3,0,0.5,0.3,0.6c1.8,0.7,3.4,1.2,4.7,1.7c1.3,0.5,2.4,0.9,3.3,1.4
		c0.9,0.4,1.5,0.9,1.9,1.4c0.4,0.5,0.6,1.1,0.6,1.7c0,0.8-0.4,1.5-1.2,2c-0.8,0.5-2.2,0.8-4.3,0.8H301.9z M304.8,161.9
		c0.4,0,0.5-0.2,0.5-0.5v-4.6c0-0.4-0.2-0.5-0.5-0.5h-4.4c-0.4,0-0.5,0.2-0.5,0.5v4.6c0,0.4,0.2,0.5,0.5,0.5H304.8z M311.7,161.9
		c0.4,0,0.5-0.2,0.5-0.5v-4.6c0-0.4-0.2-0.5-0.5-0.5h-4.4c-0.4,0-0.5,0.2-0.5,0.5v4.6c0,0.4,0.2,0.5,0.5,0.5H311.7z M269.6,106.6
		c0-0.3-0.2-0.5-0.5-0.5h-4.9c-0.3,0-0.5,0.2-0.5,0.5v34.9c0,0.4,0.2,0.5,0.5,0.5h4.9c0.3,0,0.5-0.2,0.5-0.5V106.6z M250.6,142
		c2.2,0,3.8-0.5,4.7-1.6c0.9-1.1,1.4-2.8,1.4-5v-28.7c0-0.3-0.2-0.5-0.5-0.5h-4.9c-0.3,0-0.5,0.2-0.5,0.5v27.3
		c0,1.1-0.2,1.8-0.6,2.2c-0.4,0.4-1,0.6-1.9,0.6h-2.6c-0.7,0-1.3,0.2-1.6,0.6c-0.3,0.4-0.5,1.1-0.5,2.1c0,1,0.2,1.7,0.5,2.1
		c0.4,0.3,0.9,0.5,1.6,0.5H250.6z M240.6,120.6c0-0.4-0.2-0.5-0.5-0.5h-4.9c-0.3,0-0.5,0.2-0.5,0.5v11.2c0,0.9,0,1.7-0.1,2.3
		c0,0.6-0.1,1.1-0.3,1.5c-0.2,0.4-0.4,0.7-0.8,0.8s-0.8,0.3-1.4,0.3h-2.5c-0.8,0-1.3,0.3-1.7,1c-0.3,0.7-0.5,1.5-0.5,2.4
		c0,0.8,0.2,1.3,0.5,1.5c0.4,0.2,0.9,0.3,1.6,0.3h4.2c1.7,0,3-0.2,4-0.6c1-0.4,1.7-1.1,2.2-2.1c0.6,1.1,1.4,1.9,2.4,2.2
		c1,0.3,2.2,0.5,3.6,0.5c0.7,0,1.3-0.2,1.6-0.6c0.3-0.4,0.5-1.1,0.5-2.1c0-0.9-0.2-1.6-0.5-2c-0.4-0.4-0.9-0.6-1.6-0.6H245
		c-1.3,0-2.4-0.3-3.2-0.8c-0.8-0.6-1.2-1.4-1.2-2.4V120.6z M240.2,152c0.4,0,0.5-0.2,0.5-0.5v-4.6c0-0.4-0.2-0.5-0.5-0.5h-5.1
		c-0.4,0-0.5,0.2-0.5,0.5v4.6c0,0.4,0.2,0.5,0.5,0.5H240.2z M218.1,139.4c0,1.3,0,2.4-0.1,3.4c-0.1,1-0.2,1.8-0.5,2.5
		c-0.3,0.7-0.7,1.2-1.2,1.6c-0.6,0.4-1.4,0.5-2.4,0.5h-1.2c-0.4,0-0.5,0.2-0.5,0.5v4.2c0,0.4,0.2,0.5,0.5,0.5h2
		c1.8,0,3.2-0.2,4.4-0.7c1.2-0.5,2.1-1.2,2.9-2.1c0.7-1,1.2-2.1,1.5-3.6c0.3-1.4,0.5-3.1,0.5-5v-1c0.6,0.7,1.3,1.2,2.2,1.4
		c0.9,0.2,1.9,0.3,3.1,0.3c0.7,0,1.3-0.2,1.6-0.6c0.3-0.4,0.5-1.1,0.5-2.1c0-0.9-0.2-1.6-0.5-2c-0.3-0.4-0.9-0.6-1.6-0.6h-0.9
		c-1.3,0-2.4-0.3-3.2-0.8c-0.8-0.6-1.2-1.4-1.2-2.4v-12.8c0-0.4-0.2-0.5-0.5-0.5h-4.9c-0.3,0-0.5,0.2-0.5,0.5V139.4z M214.4,103.5
		c0,1.2,0.3,2.3,1,3.1c0.6,0.8,1.6,1.2,2.9,1.2c1.2,0,2.2-0.4,2.9-1.2c0.7,0.8,1.6,1.2,2.9,1.2c1.3,0,2.2-0.4,2.9-1.2
		c0.7-0.8,1-1.8,1-3.1v-3.8c0-0.4-0.2-0.5-0.5-0.5h-1.1c-0.4,0-0.5,0.2-0.5,0.5v3.9c0,1.4-0.6,2.1-1.8,2.1c-1.2,0-1.8-0.6-1.8-1.9
		v-4.1c0-0.4-0.2-0.5-0.5-0.5h-1.1c-0.4,0-0.5,0.2-0.5,0.5v4.1c0,1.3-0.6,1.9-1.8,1.9c-1.2,0-1.8-0.7-1.8-2.1v-3.9
		c0-0.4-0.2-0.5-0.5-0.5h-1.1c-0.4,0-0.5,0.2-0.5,0.5V103.5z"/>
	<path class="st1" d="M351.5,44.5c0-0.4-0.2-0.5-0.5-0.5h-4.9c-0.4,0-0.5,0.2-0.5,0.5v34.9c0,0.4,0.2,0.5,0.5,0.5h4.9
		c0.3,0,0.5-0.2,0.5-0.5V44.5z M332.5,79.8c2.2,0,3.8-0.5,4.7-1.6c0.9-1.1,1.4-2.8,1.4-5V44.5c0-0.4-0.2-0.5-0.5-0.5h-4.9
		c-0.3,0-0.5,0.2-0.5,0.5v27.3c0,1.1-0.2,1.8-0.6,2.2c-0.4,0.4-1.1,0.6-1.9,0.6h-2.6c-0.7,0-1.3,0.2-1.6,0.6
		c-0.3,0.4-0.5,1.1-0.5,2.1c0,1,0.2,1.7,0.5,2.1c0.4,0.3,0.9,0.5,1.6,0.5H332.5z M300.7,62l2.7,2.9c0.2,0.2,0.5,0.2,0.7-0.1
		c0.7-0.8,1.6-1.4,2.5-1.8c0.9-0.5,2-0.7,3.2-0.7c1.2,0,2.2,0.2,3,0.6c0.8,0.4,1.4,1,1.9,1.7c0.5,0.7,0.8,1.5,1.1,2.5
		c0.2,0.9,0.3,2,0.3,3.1c0,0.8,0,1.6-0.2,2.1c-0.1,0.6-0.3,1-0.6,1.4c-0.3,0.4-0.8,0.6-1.3,0.7c-0.6,0.1-1.3,0.2-2.2,0.2h-14.1
		c-0.7,0-1.3,0.2-1.6,0.5c-0.3,0.4-0.5,1-0.5,2.1c0,1,0.2,1.6,0.5,2.1c0.4,0.4,0.9,0.6,1.6,0.6h16.3c1.7,0,3.1-0.2,4.3-0.7
		c1.2-0.4,2.1-1.3,2.8-2.5c0.6,1.3,1.5,2.2,2.6,2.6c1.1,0.4,2.4,0.6,3.9,0.6c0.7,0,1.3-0.2,1.6-0.6c0.3-0.4,0.5-1.1,0.5-2.1
		c0-0.9-0.2-1.6-0.5-2c-0.4-0.4-0.9-0.6-1.6-0.6h-0.9c-1.3,0-2.3-0.3-3.1-0.8c-0.8-0.5-1.2-1.3-1.3-2.2c0-0.2,0-0.4,0-0.6
		c0-0.2,0-0.4,0-0.7c0-1.8-0.2-3.5-0.6-5.1c-0.4-1.6-1.1-3-2-4.2c-1-1.2-2.2-2.2-3.8-2.9c-1.6-0.7-3.6-1.1-5.9-1.1
		c-2.2,0-4,0.4-5.5,1.2c-1.5,0.8-2.8,1.8-3.9,3.1C300.4,61.5,300.4,61.7,300.7,62 M294.1,79.3c1,0.3,2.2,0.5,3.6,0.5
		c0.7,0,1.3-0.2,1.6-0.6c0.3-0.4,0.5-1.1,0.5-2.1c0-0.9-0.2-1.6-0.5-2c-0.4-0.4-0.9-0.6-1.6-0.6h-0.9c-1.3,0-2.4-0.3-3.2-0.8
		c-0.8-0.6-1.2-1.4-1.2-2.4V58.4c0-0.3-0.2-0.5-0.5-0.5h-4.5c-0.2,0-0.4,0-0.6,0.1c-0.2,0.1-0.3,0.2-0.3,0.4v11c0,0.9,0,1.7-0.1,2.4
		c0,0.6-0.1,1.2-0.3,1.6c-0.2,0.4-0.4,0.7-0.7,0.9c-0.3,0.2-0.8,0.3-1.4,0.3h-3.4c-0.7,0-1.3,0.2-1.6,0.6c-0.3,0.4-0.5,1.1-0.5,2.2
		c0,1,0.2,1.7,0.5,2c0.4,0.3,0.9,0.5,1.6,0.5h4.9c1.7,0,3-0.2,4-0.6c1-0.4,1.7-1.1,2.2-2.1C292.3,78.3,293.1,79,294.1,79.3
		 M287.9,90c0.3,0,0.5-0.2,0.5-0.5v-4.6c0-0.4-0.2-0.5-0.5-0.5h-4.4c-0.4,0-0.5,0.2-0.5,0.5v4.6c0,0.4,0.2,0.5,0.5,0.5H287.9z
		 M294.8,90c0.4,0,0.5-0.2,0.5-0.5v-4.6c0-0.4-0.2-0.5-0.5-0.5h-4.4c-0.4,0-0.5,0.2-0.5,0.5v4.6c0,0.4,0.2,0.5,0.5,0.5H294.8z
		 M269.9,73.2c0,2.3,0.5,4,1.4,5c0.9,1.1,2.5,1.6,4.7,1.6h4.2c0.7,0,1.3-0.2,1.6-0.5c0.3-0.3,0.5-1,0.5-2.1c0-1-0.2-1.7-0.5-2.1
		c-0.4-0.4-0.9-0.6-1.6-0.6h-1.9c-0.9,0-1.5-0.2-1.9-0.6c-0.4-0.4-0.6-1.1-0.6-2.2V44.5c0-0.4-0.2-0.5-0.5-0.5h-4.9
		c-0.3,0-0.5,0.2-0.5,0.5V73.2z M251.8,52.6c0.4,0,0.5-0.2,0.5-0.5v-4.6c0-0.4-0.2-0.5-0.5-0.5h-4.4c-0.4,0-0.5,0.2-0.5,0.5v4.6
		c0,0.4,0.2,0.5,0.5,0.5H251.8z M258.7,52.6c0.4,0,0.5-0.2,0.5-0.5v-4.6c0-0.4-0.2-0.5-0.5-0.5h-4.4c-0.4,0-0.5,0.2-0.5,0.5v4.6
		c0,0.4,0.2,0.5,0.5,0.5H258.7z M257.9,68.6c0,2.2-0.4,3.8-1.2,4.8c-0.8,1-2,1.5-3.7,1.5c-1.7,0-2.9-0.5-3.8-1.5
		c-0.8-1-1.2-2.6-1.2-4.8c0-2.1,0.4-3.6,1.2-4.7c0.8-1.1,2.1-1.6,3.8-1.6C256.2,62.2,257.9,64.4,257.9,68.6 M257.3,79.6
		c1.3-0.4,2.5-1.1,3.5-2c1-0.9,1.7-2.1,2.2-3.5c0.5-1.4,0.8-3.2,0.8-5.3c0-2.1-0.3-4-0.8-5.5c-0.5-1.5-1.3-2.7-2.3-3.6
		c-1-0.9-2.1-1.6-3.5-2c-1.3-0.4-2.8-0.6-4.3-0.6c-1.6,0-3,0.2-4.3,0.6c-1.3,0.4-2.5,1.1-3.5,2c-1,0.9-1.7,2.1-2.3,3.6
		c-0.5,1.5-0.8,3.3-0.8,5.5c0,2.1,0.3,3.8,0.8,5.3c0.5,1.4,1.3,2.6,2.2,3.5c1,0.9,2.1,1.6,3.4,2c1.3,0.4,2.8,0.6,4.4,0.6
		C254.5,80.2,256,80,257.3,79.6"/>
</g>
</svg>
