<?xml version="1.0" encoding="utf-8"?>
<svg version="1.1" id="Layer_1" xmlns="http://www.w3.org/2000/svg" xmlns:xlink="http://www.w3.org/1999/xlink" x="0px" y="0px"
	 viewBox="0 0 500 500" style="enable-background:new 0 0 500 500;" xml:space="preserve">
<style type="text/css">
	.st1{fill:#FFFFFF;}
	.st17{fill:#00558A;}
</style>
<g>
	<rect class="st17" width="500" height="500"/>
	<path class="st1" d="M333.4,226c0,0-4.8,6.4-3.4,12.7c1.4,6.3,8.6,10,8.6,10s4.8-6.4,3.4-12.7C340.5,229.7,333.4,226,333.4,226"/>
	<path class="st1" d="M325.5,262.8c0,0,4.8-6.4,3.4-12.7c-1.4-6.3-8.6-10-8.6-10s-4.9,6.4-3.4,12.7
		C318.3,259,325.5,262.8,325.5,262.8"/>
	<path class="st1" d="M345.4,255.9c0,0,5.1,5.2,10.9,4.6c5.8-0.5,10.1-6.5,10.1-6.5s-5.1-5.2-10.9-4.6
		C349.7,249.9,345.4,255.9,345.4,255.9"/>
	<path class="st1" d="M353.7,228.3c-4.7,4.8-4.1,13.3-4.1,13.3s8.4,0.7,13.1-4.1c4.7-4.8,4.1-13.3,4.1-13.3S358.5,223.5,353.7,228.3
		"/>
	<path class="st1" d="M343.3,275c5.8,0.7,11.3-4.3,11.3-4.3s-4-6.1-9.7-6.8c-5.8-0.7-11.3,4.3-11.3,4.3S337.5,274.3,343.3,275"/>
	<path class="st1" d="M348.5,368.3h-43.4c-3.4,0-6.1,2.7-6.1,6.1c0,3.4,2.8,6.1,6.1,6.1h43.4c3.4,0,6.1-2.8,6.1-6.1
		C354.6,371,351.9,368.3,348.5,368.3"/>
	<path class="st1" d="M348.5,435.9h-43.4c-3.4,0-6.1,2.7-6.1,6.1c0,3.4,2.8,6.1,6.1,6.1h43.4c3.4,0,6.1-2.7,6.1-6.1
		C354.6,438.7,351.9,435.9,348.5,435.9"/>
	<path class="st1" d="M153.4,353.4c-1-0.3-2-0.6-3-0.8C150.4,352.6,151.5,353,153.4,353.4"/>
	<path class="st1" d="M223.7,379.9c2.9,0,5.7,0,8.6-0.2v22.7l-8.6-0.2V379.9z M346.9,384.8h-40.2c-1.9,0-3.5,1.6-3.5,3.5v12.2
		l-26.2,2.9l-38.3-0.9v-23.4c5.1-0.6,10.2-1.7,15.3-3.1c36.9-10.4,45-33.4,44.2-54.5c-0.8-21.5,6.1-29.8,16-33.6
		c2.8-1.1,5.6-1.7,8.2-2.2c0.1,5.3,1.2,11.4,3.5,18.7c0.9,0,1.8-0.1,2.6-0.2c-2.5-7.5-3.6-13.6-3.6-18.9c5.1-0.6,8.8-0.3,8.8-0.3
		s-3.5-1.9-8.3-5.9c1.7-10.2,7.7-16.4,14-22.8c3.4-3.5,7-7.2,9.8-11.5l-2.2-1.4c-2.6,4.1-6.1,7.6-9.5,11.1
		c-6.1,6.2-12.2,12.6-14.3,22.7c-2-1.8-4.1-3.9-6.3-6.4c-9.1-10.2-20.8-2.7-37.5,12.8c-16.7,15.5-37.7,16.1-58.3-4.9
		c-27.1-27.7-50.7-27.6-66.9-26c11.1,4.7,15,15.1,20.6,41.4c5.9,27.6,20.7,40.1,41,41.8c-9.4,1.5-11.8,2.8-26.9,13.3
		c-11.8,8.1-28.4,5.6-35.1,4c12.4,3.8,27,16.8,40.1,21.3c7.6,2.6,15.7,4.2,23.9,4.9V402l-72.7-1.6v15.6l132.3-2.9l26.2,2.9v12.2
		c0,1.9,1.6,3.5,3.5,3.5h40.2c1.9,0,3.5-1.6,3.5-3.5v-39.9C350.4,386.4,348.8,384.8,346.9,384.8"/>
	<path class="st1" d="M140.9,413.5c0,3.3-2.3,6-5.1,6h-3.1c-2.8,0-5.1-2.7-5.1-6v-10.8c0-3.3,2.3-6,5.1-6h3.1c2.8,0,5.1,2.7,5.1,6
		V413.5z"/>
	<path class="st1" d="M440.1,65.3c3.3,0,5.5,0.7,6.5,2.1c1.1,1.4,1.6,3.7,1.6,6.7v57.3c0,0.9,0.4,1.3,1.3,1.3h12.3
		c0.9,0,1.3-0.4,1.3-1.3V68.9c0-5.6-1.3-9.8-3.8-12.7c-2.5-2.8-6.6-4.3-12.1-4.3h-27.1c-0.9,0-1.3,0.4-1.3,1.3V64
		c0,0.9,0.4,1.3,1.3,1.3H440.1z M400.6,53.3c0-0.9-0.4-1.3-1.3-1.3h-12.3c-0.9,0-1.3,0.4-1.3,1.3v78.2c0,0.9,0.4,1.3,1.3,1.3h12.3
		c0.9,0,1.3-0.4,1.3-1.3V53.3z"/>
	<path class="st1" d="M336.2,168.7c0-0.4-0.2-0.5-0.5-0.5h-4.5c-0.3,0-0.5,0.2-0.5,0.5v34.9c0,0.4,0.2,0.5,0.5,0.5h4.5
		c0.3,0,0.5-0.2,0.5-0.5V168.7z M319.8,204.1c2,0,3.5-0.5,4.4-1.6c0.9-1.1,1.3-2.8,1.3-5v-28.7c0-0.4-0.2-0.5-0.5-0.5h-4.5
		c-0.3,0-0.5,0.2-0.5,0.5V196c0,1.1-0.2,1.8-0.6,2.2c-0.4,0.4-1,0.6-1.8,0.6h-2.4c-0.7,0-1.2,0.2-1.5,0.6c-0.3,0.4-0.5,1.1-0.5,2.1
		c0,1,0.2,1.7,0.5,2.1c0.3,0.3,0.8,0.5,1.5,0.5H319.8z M301.1,176.9c0.3,0,0.5-0.2,0.5-0.5v-4.6c0-0.4-0.2-0.5-0.5-0.5h-4.1
		c-0.3,0-0.5,0.2-0.5,0.5v4.6c0,0.4,0.2,0.5,0.5,0.5H301.1z M307.5,176.9c0.3,0,0.5-0.2,0.5-0.5v-4.6c0-0.4-0.2-0.5-0.5-0.5h-4.1
		c-0.3,0-0.5,0.2-0.5,0.5v4.6c0,0.4,0.2,0.5,0.5,0.5H307.5z M305.3,187.2c0.9,0.9,1.4,2.1,1.4,3.8c0,1.8-0.5,3.2-1.4,4.4
		c-0.9,1.1-2,2-3.3,2.6c-1.3-0.6-2.4-1.5-3.3-2.6c-0.9-1.1-1.4-2.6-1.4-4.4c0-1.7,0.5-3,1.4-3.8c0.9-0.9,2-1.3,3.3-1.3
		S304.4,186.4,305.3,187.2 M294.3,183.8c-1.8,1.7-2.7,4-2.7,6.8c0,1.7,0.4,3.3,1.1,4.7c0.7,1.4,1.7,2.6,2.9,3.5h-6.9
		c-0.7,0-1.2,0.2-1.5,0.5c-0.3,0.3-0.5,1-0.5,2.1c0,1,0.2,1.7,0.5,2.1c0.3,0.4,0.8,0.6,1.5,0.6h6.5c0.9,0,2-0.1,3.3-0.2
		c1.2-0.1,2.4-0.5,3.5-1.1c0.9,0.6,1.9,1,3,1.1c1.1,0.1,2.2,0.2,3.3,0.2h6.8c0.7,0,1.2-0.2,1.5-0.6c0.3-0.4,0.5-1.1,0.5-2.2
		c0-1-0.2-1.7-0.5-2c-0.3-0.3-0.8-0.5-1.5-0.5h-7c1.2-0.9,2.2-2.1,3-3.5c0.7-1.4,1.1-3,1.1-4.7c0-2.8-0.9-5.1-2.7-6.8
		c-1.8-1.7-4.3-2.6-7.7-2.6S296.1,182.1,294.3,183.8 M278.9,188.1c0.7,1.1,1.1,2.6,1.1,4.7v6h-4.4c-1.6,0-2.8-0.4-3.6-1.2
		c-0.8-0.8-1.3-2.3-1.3-4.5c0-2,0.4-3.6,1.3-4.8c0.8-1.2,2-1.8,3.5-1.8C277,186.5,278.1,187.1,278.9,188.1 M276.4,214.8
		c3,0,5.2-0.8,6.8-2.3c1.6-1.5,2.3-3.9,2.3-7.2v-1.2h3.4c0.7,0,1.2-0.2,1.5-0.5s0.5-1.1,0.5-2.2c0-0.9-0.2-1.6-0.5-2
		c-0.3-0.4-0.8-0.6-1.5-0.6h-3.4v-5.9c0-2.1-0.2-3.9-0.7-5.4s-1.2-2.7-2.1-3.6c-0.9-0.9-1.9-1.6-3.2-2c-1.2-0.4-2.6-0.6-4.1-0.6
		c-1.3,0-2.6,0.2-3.8,0.7c-1.2,0.4-2.3,1.1-3.2,2.1c-0.9,1-1.7,2.2-2.2,3.7c-0.6,1.5-0.8,3.4-0.8,5.5c0,2,0.2,3.7,0.7,5.1
		c0.4,1.4,1.1,2.5,1.9,3.4c0.8,0.9,1.8,1.5,3,1.9c1.2,0.4,2.6,0.6,4.1,0.6h5c0,1.1-0.1,2-0.3,2.7c-0.2,0.7-0.5,1.3-0.8,1.6
		c-0.4,0.4-0.8,0.7-1.4,0.8c-0.6,0.2-1.2,0.2-2,0.2h-5.8c-0.3,0-0.5,0.2-0.5,0.5v4.2c0,0.4,0.2,0.5,0.5,0.5H276.4z M255.5,214.3
		c0.3,0,0.5-0.2,0.5-0.5v-4.6c0-0.4-0.2-0.5-0.5-0.5h-4.1c-0.3,0-0.5,0.2-0.5,0.5v4.6c0,0.4,0.2,0.5,0.5,0.5H255.5z M261.9,214.3
		c0.3,0,0.5-0.2,0.5-0.5v-4.6c0-0.4-0.2-0.5-0.5-0.5h-4.1c-0.3,0-0.5,0.2-0.5,0.5v4.6c0,0.4,0.2,0.5,0.5,0.5H261.9z M254.8,204.1
		c2,0,3.5-0.5,4.4-1.6c0.9-1.1,1.3-2.8,1.3-5v-14.7c0-0.3-0.2-0.5-0.5-0.5h-4.5c-0.3,0-0.5,0.2-0.5,0.5V196c0,1.1-0.2,1.8-0.6,2.2
		c-0.4,0.4-1,0.6-1.8,0.6h-3.2c-0.7,0-1.2,0.2-1.5,0.6c-0.3,0.4-0.5,1.2-0.5,2.2c0,1,0.2,1.6,0.5,1.9c0.3,0.3,0.8,0.5,1.5,0.5H254.8
		z M231.3,195.5c-0.8-0.8-1.2-2-1.2-3.6c0-2.1,0.4-3.5,1.3-4.3c0.8-0.8,2-1.2,3.4-1.2h4.4v4.5c0,1.9-0.4,3.3-1.1,4.2
		c-0.8,1-1.9,1.4-3.5,1.4C233.2,196.7,232.1,196.3,231.3,195.5 M234.3,181.2c-1.2,0-2.4,0.2-3.6,0.5c-1.1,0.4-2.2,0.9-3.1,1.8
		c-0.9,0.8-1.6,1.9-2.2,3.3c-0.5,1.4-0.8,3.1-0.8,5.1c0,1.8,0.2,3.3,0.7,4.5c0.5,1.3,1.2,2.3,2,3.1c0.8,0.8,1.8,1.4,2.9,1.8
		c1.1,0.4,2.3,0.6,3.6,0.6c1,0,2-0.2,3-0.5c1-0.3,1.8-0.8,2.5-1.5c0.3,1.5,0.9,2.6,1.8,3.2c0.9,0.6,2.2,0.9,3.8,0.9h4
		c0.7,0,1.2-0.2,1.5-0.5c0.3-0.3,0.5-1,0.5-2.1c0-1.8-0.7-2.7-2-2.7H247c-0.8,0-1.4-0.2-1.8-0.6c-0.4-0.4-0.6-1.1-0.6-2.2V179
		c0-0.3-0.2-0.5-0.5-0.5h-4.5c-0.3,0-0.5,0.2-0.5,0.5v2.3H234.3z M233.9,174.8c0.3,0,0.5-0.2,0.5-0.5v-4.6c0-0.4-0.2-0.5-0.5-0.5
		h-4.1c-0.3,0-0.5,0.2-0.5,0.5v4.6c0,0.4,0.2,0.5,0.5,0.5H233.9z M240.3,174.8c0.3,0,0.5-0.2,0.5-0.5v-4.6c0-0.4-0.2-0.5-0.5-0.5
		h-4.1c-0.3,0-0.5,0.2-0.5,0.5v4.6c0,0.4,0.2,0.5,0.5,0.5H240.3z"/>
	<path class="st1" d="M329.9,126c0.7,1.1,1.1,2.6,1.1,4.7v6h-4.4c-1.6,0-2.8-0.4-3.6-1.2c-0.8-0.8-1.3-2.3-1.3-4.5
		c0-2,0.4-3.6,1.2-4.8c0.8-1.2,2-1.8,3.5-1.8C328,124.4,329.1,124.9,329.9,126 M330.9,142c0,1.2-0.1,2.1-0.3,2.8
		c-0.2,0.7-0.5,1.2-0.9,1.6c-0.4,0.4-0.9,0.6-1.4,0.8c-0.6,0.1-1.2,0.2-1.8,0.2h-5.7c-0.3,0-0.5,0.2-0.5,0.5v4.2
		c0,0.4,0.2,0.5,0.5,0.5h6.6c3,0,5.2-0.8,6.8-2.3c1.5-1.5,2.3-3.9,2.3-7.2v-12.4c0-2.1-0.2-4-0.7-5.4c-0.5-1.5-1.2-2.7-2.1-3.6
		c-0.9-0.9-1.9-1.6-3.2-2c-1.2-0.4-2.6-0.6-4.1-0.6c-1.3,0-2.6,0.2-3.8,0.7c-1.2,0.4-2.3,1.1-3.2,2.1c-0.9,1-1.7,2.2-2.2,3.8
		c-0.5,1.5-0.8,3.4-0.8,5.5c0,2,0.2,3.7,0.7,5.1c0.4,1.4,1.1,2.5,1.9,3.3c0.8,0.9,1.8,1.5,3,1.9c1.2,0.4,2.6,0.6,4.1,0.6H330.9z
		 M311.6,106.6c0-0.3-0.2-0.5-0.5-0.5h-4.5c-0.3,0-0.5,0.2-0.5,0.5v34.9c0,0.4,0.2,0.5,0.5,0.5h4.5c0.3,0,0.5-0.2,0.5-0.5V106.6z
		 M294.9,142c2,0,3.5-0.5,4.4-1.6c0.9-1.1,1.3-2.8,1.3-5v-28.7c0-0.3-0.2-0.5-0.5-0.5h-4.5c-0.3,0-0.5,0.2-0.5,0.5v27.3
		c0,1.1-0.2,1.8-0.6,2.2c-0.4,0.4-1,0.6-1.8,0.6h-2.4c-0.7,0-1.2,0.2-1.5,0.6c-0.3,0.4-0.5,1.1-0.5,2.1c0,1,0.2,1.7,0.5,2.1
		c0.3,0.3,0.8,0.5,1.5,0.5H294.9z M265.8,131.1c0,0.2,0,0.5,0,0.8c0,1.8-0.4,3.1-1,3.8c-0.6,0.7-1.3,1-2.1,1h-1.9
		c-0.7,0-1.2,0.2-1.5,0.5c-0.3,0.4-0.5,1-0.5,2.1c0,1,0.2,1.6,0.5,2.1c0.3,0.4,0.8,0.6,1.5,0.6h1.7c0.5,0,1,0,1.5-0.1
		c0.5-0.1,1-0.2,1.5-0.4c0.5-0.2,1-0.5,1.4-0.8c0.5-0.4,0.9-0.8,1.2-1.4c0.9,1.1,2,1.9,3.3,2.4c1.3,0.5,2.8,0.7,4.4,0.7
		c1.7,0,3.2-0.2,4.5-0.7c1.3-0.5,2.4-1.3,3.3-2.5c0.4,0.7,0.9,1.2,1.5,1.6c0.5,0.4,1.1,0.7,1.7,0.9c0.6,0.2,1.2,0.3,1.8,0.3
		c0.6,0,1.2,0,1.7,0c0.7,0,1.2-0.2,1.5-0.6c0.3-0.4,0.5-1.1,0.5-2.1c0-0.9-0.2-1.6-0.5-2c-0.3-0.4-0.8-0.6-1.5-0.6H289
		c-0.8,0-1.5-0.3-2.1-0.9c-0.6-0.6-0.9-1.7-1-3.1c0-0.3,0-0.6,0-0.9v-0.9c0-2.1-0.3-4-0.8-5.5c-0.5-1.5-1.2-2.7-2.1-3.6
		c-0.9-0.9-2-1.6-3.2-2c-1.3-0.4-2.6-0.6-4-0.6c-1.4,0-2.8,0.2-4,0.6c-1.2,0.4-2.3,1.1-3.2,1.9c-0.9,0.9-1.6,2.1-2.1,3.5
		c-0.5,1.4-0.8,3.2-0.8,5.2V131.1z M280.5,130.8c0,2.2-0.4,3.8-1.1,4.8c-0.7,1-1.9,1.5-3.5,1.5c-1.6,0-2.7-0.5-3.5-1.5
		c-0.7-1-1.1-2.6-1.1-4.8c0-2.1,0.4-3.6,1.1-4.7c0.7-1.1,1.9-1.6,3.5-1.6C279,124.4,280.5,126.5,280.5,130.8 M242.1,112.2
		c-0.2,0-0.3,0.1-0.3,0.4v2.1c0,0.2,0.1,0.4,0.3,0.4h10.8c0.2,0,0.3-0.1,0.3-0.4v-2.1c0-0.2-0.1-0.4-0.3-0.4h-5.4
		c-0.4-0.2-0.7-0.5-1-1c-0.3-0.4-0.5-1-0.5-1.7c0-0.7,0.2-1.2,0.6-1.7c0.4-0.5,1-0.7,1.8-0.7c0.6,0,1,0.1,1.5,0.3
		c0.4,0.2,0.8,0.5,1.1,0.8c0.2,0.2,0.3,0.2,0.4,0.1l1.5-1.5c0.1-0.1,0.1-0.3,0-0.5c-0.4-0.6-1-1.1-1.8-1.5c-0.8-0.4-1.7-0.6-2.7-0.6
		c-1,0-1.8,0.2-2.5,0.5c-0.7,0.3-1.3,0.7-1.7,1.2c-0.4,0.5-0.7,1.1-0.9,1.7c-0.2,0.6-0.3,1.2-0.3,1.7c0,0.6,0.1,1.1,0.2,1.6
		c0.1,0.5,0.3,0.9,0.6,1.2H242.1z M250.9,126c0.7,1.1,1.1,2.6,1.1,4.7v6h-4.4c-1.6,0-2.8-0.4-3.6-1.2s-1.3-2.3-1.3-4.5
		c0-2,0.4-3.6,1.3-4.8c0.8-1.2,2-1.8,3.5-1.8C249,124.4,250.2,124.9,250.9,126 M248.4,152.6c3,0,5.2-0.8,6.8-2.3
		c1.6-1.5,2.3-3.9,2.3-7.2V142h3.4c0.7,0,1.2-0.2,1.5-0.5c0.3-0.3,0.5-1.1,0.5-2.2c0-0.9-0.2-1.6-0.5-2c-0.3-0.4-0.8-0.6-1.5-0.6
		h-3.4v-5.9c0-2.1-0.2-3.9-0.7-5.4s-1.2-2.7-2.1-3.6c-0.9-0.9-1.9-1.6-3.2-2c-1.2-0.4-2.6-0.6-4.1-0.6c-1.3,0-2.6,0.2-3.8,0.7
		c-1.2,0.4-2.3,1.1-3.2,2.1c-0.9,1-1.7,2.2-2.2,3.8c-0.6,1.5-0.8,3.4-0.8,5.5c0,2,0.2,3.7,0.7,5.1c0.4,1.4,1.1,2.5,1.9,3.3
		c0.8,0.9,1.8,1.5,3,1.9c1.2,0.4,2.6,0.6,4.1,0.6h5c0,1.1-0.1,2-0.3,2.7c-0.2,0.7-0.5,1.3-0.8,1.6c-0.4,0.4-0.8,0.7-1.4,0.8
		c-0.6,0.2-1.2,0.2-2,0.2h-5.8c-0.3,0-0.5,0.2-0.5,0.5v4.2c0,0.4,0.2,0.5,0.5,0.5H248.4z M208,124.7c0-0.3-0.2-0.5-0.5-0.5H203
		c-0.3,0-0.5,0.2-0.5,0.5v8c0,1.5-0.1,2.6-0.4,3.1c-0.3,0.6-0.9,0.9-1.9,0.9h-3.9c-0.7,0-1.2,0.2-1.5,0.6c-0.3,0.4-0.5,1.2-0.5,2.2
		c0,0.9,0.2,1.6,0.5,1.9c0.3,0.3,0.8,0.5,1.5,0.5h5.6c1.5,0,2.7-0.2,3.5-0.6c0.9-0.4,1.5-1.2,2-2.2c0.8,1.9,2.4,2.8,4.8,2.8h2.2
		c1.5,0,2.6-0.2,3.5-0.6c0.9-0.4,1.5-1.1,2-2.2c0.4,0.9,1,1.6,1.8,2.1c0.8,0.5,1.8,0.7,2.9,0.7h2.1c2.2,0,3.8-0.5,4.7-1.5
		c0.9-1,1.4-2.7,1.4-5.1v-14.7c0-0.4-0.2-0.5-0.5-0.5h-4.5c-0.3,0-0.5,0.2-0.5,0.5v11c0,1.1,0,2-0.1,2.7c-0.1,0.7-0.2,1.2-0.4,1.6
		c-0.2,0.4-0.6,0.6-1,0.7c-0.5,0.1-1.1,0.2-1.9,0.2c-1.1,0-1.9-0.3-2.5-0.8c-0.6-0.5-0.9-1.4-0.9-2.5v-8.7c0-0.3-0.2-0.5-0.5-0.5
		h-4.5c-0.3,0-0.5,0.2-0.5,0.5v8c0,0.9,0,1.6-0.1,2.2c-0.1,0.5-0.2,0.9-0.5,1.2c-0.2,0.3-0.6,0.4-1,0.5c-0.4,0.1-1,0.1-1.7,0.1
		c-2.4,0-3.6-1.1-3.6-3.3V124.7z M166.5,124.7c0-0.3-0.2-0.5-0.5-0.5h-4.5c-0.3,0-0.5,0.2-0.5,0.5v6.8c0,1,0,1.8,0,2.4
		c0,0.6-0.1,1.2-0.2,1.6c-0.1,0.4-0.4,0.7-0.7,0.9c-0.3,0.2-0.8,0.3-1.3,0.3h-3.9c-0.7,0-1.2,0.2-1.5,0.6c-0.3,0.4-0.5,1.2-0.5,2.2
		c0,0.6,0,1,0.1,1.3c0.1,0.3,0.2,0.6,0.4,0.7c0.2,0.2,0.4,0.3,0.7,0.3c0.3,0,0.6,0,1,0h5.3c1.5,0,2.6-0.2,3.5-0.6
		c0.9-0.4,1.5-1.2,2-2.2c0.8,1.9,2.4,2.8,4.8,2.8h2.2c1.5,0,2.6-0.2,3.5-0.6c0.9-0.4,1.5-1.1,2-2.2c0.4,0.9,1,1.6,1.8,2.1
		c0.8,0.5,1.8,0.7,2.9,0.7h2.1c1.5,0,2.6-0.2,3.5-0.6c0.9-0.4,1.5-1.1,2-2.1c0.6,1.1,1.3,1.9,2.2,2.2c0.9,0.3,2,0.5,3.3,0.5
		c0.7,0,1.1-0.2,1.5-0.6c0.3-0.4,0.5-1.1,0.5-2.1c0-0.9-0.2-1.6-0.5-2c-0.3-0.4-0.8-0.6-1.5-0.6h-0.8c-1.2,0-2.2-0.3-3-0.8
		c-0.7-0.6-1.1-1.4-1.1-2.4v-12.8c0-0.3-0.2-0.5-0.5-0.5h-4.5c-0.3,0-0.5,0.2-0.5,0.5v11c0,1.1,0,2-0.1,2.7
		c-0.1,0.7-0.2,1.2-0.5,1.6c-0.2,0.4-0.6,0.6-1.1,0.7c-0.5,0.1-1.1,0.2-1.8,0.2c-1,0-1.8-0.3-2.5-0.8c-0.6-0.5-0.9-1.3-0.9-2.4v-8.8
		c0-0.3-0.2-0.5-0.5-0.5h-4.5c-0.3,0-0.5,0.2-0.5,0.5v6.8c0,1.1,0,2-0.1,2.7c0,0.7-0.2,1.2-0.4,1.6s-0.6,0.6-1.1,0.8
		c-0.5,0.1-1.1,0.2-2,0.2c-1.2,0-2.1-0.3-2.6-0.8c-0.5-0.5-0.8-1.4-0.8-2.5V124.7z M145.2,135.3c0,2.3,0.4,4,1.3,5
		c0.9,1.1,2.3,1.6,4.4,1.6h3.9c0.7,0,1.2-0.1,1.5-0.5s0.5-1,0.5-2.1c0-1-0.2-1.7-0.5-2.1c-0.3-0.4-0.8-0.6-1.5-0.6H153
		c-0.8,0-1.4-0.2-1.8-0.6c-0.4-0.4-0.6-1.1-0.6-2.2v-27.3c0-0.3-0.2-0.5-0.5-0.5h-4.5c-0.3,0-0.5,0.2-0.5,0.5V135.3z M121.4,117.9
		c0.3,0,0.5-0.2,0.5-0.5v-4.6c0-0.4-0.2-0.5-0.5-0.5h-4.1c-0.3,0-0.5,0.2-0.5,0.5v4.6c0,0.4,0.2,0.5,0.5,0.5H121.4z M127.8,117.9
		c0.3,0,0.5-0.2,0.5-0.5v-4.6c0-0.4-0.2-0.5-0.5-0.5h-4.1c-0.3,0-0.5,0.2-0.5,0.5v4.6c0,0.4,0.2,0.5,0.5,0.5H127.8z M132.5,136.7
		h-20.3c-0.8,0-1.4-0.2-1.8-0.6c-0.4-0.4-0.6-1.1-0.6-2.2v-10c0-0.4-0.2-0.5-0.5-0.5h-4.5c-0.3,0-0.5,0.2-0.5,0.5v11.4
		c0,2.3,0.4,4,1.3,5.1c0.9,1.1,2.4,1.6,4.4,1.6h24.5c2.1,0,3.6-0.5,4.5-1.6c0.9-1.1,1.3-2.8,1.3-5v-14.7c0-0.4-0.2-0.5-0.5-0.5h-4.5
		c-0.3,0-0.5,0.2-0.5,0.5v13.3c0,1.1-0.2,1.8-0.6,2.2C134,136.5,133.4,136.7,132.5,136.7"/>
	<path class="st1" d="M336.2,44.4c0-0.3-0.2-0.5-0.5-0.5h-4.5c-0.3,0-0.5,0.2-0.5,0.5v34.9c0,0.4,0.2,0.5,0.5,0.5h4.5
		c0.3,0,0.5-0.2,0.5-0.5V44.4z M319,79.8c2,0,3.5-0.5,4.4-1.6c0.9-1.1,1.3-2.8,1.3-5V44.4c0-0.3-0.2-0.5-0.5-0.5h-4.5
		c-0.3,0-0.5,0.2-0.5,0.5v27.3c0,1.1-0.2,1.8-0.6,2.2c-0.4,0.4-1,0.6-1.8,0.6h-2.4c-0.7,0-1.2,0.2-1.5,0.6c-0.3,0.4-0.5,1.1-0.5,2.1
		c0,1,0.2,1.7,0.5,2.1c0.3,0.3,0.8,0.5,1.5,0.5H319z M284.7,62.6c0-0.4-0.2-0.5-0.5-0.5h-4.5c-0.3,0-0.5,0.2-0.5,0.5v6.8
		c0,0.9,0,1.8,0,2.4c0,0.6-0.1,1.2-0.2,1.6c-0.2,0.4-0.4,0.7-0.7,0.9c-0.3,0.2-0.8,0.3-1.3,0.3H273c-0.7,0-1.2,0.2-1.5,0.6
		c-0.3,0.4-0.5,1.2-0.5,2.2c0,0.6,0,1,0.1,1.3c0.1,0.3,0.2,0.6,0.4,0.7c0.2,0.2,0.4,0.3,0.7,0.3c0.3,0,0.6,0,1,0h5.3
		c1.5,0,2.6-0.2,3.5-0.6c0.9-0.4,1.5-1.2,2-2.2c0.9,1.9,2.4,2.8,4.8,2.8h2.2c1.5,0,2.6-0.2,3.5-0.6c0.9-0.4,1.5-1.1,2-2.2
		c0.4,0.9,1,1.6,1.8,2.1c0.8,0.5,1.8,0.7,2.9,0.7h2.1c1.5,0,2.6-0.2,3.5-0.6c0.9-0.4,1.5-1.1,2-2.1c0.6,1.1,1.3,1.9,2.2,2.2
		c0.9,0.3,2,0.5,3.3,0.5c0.7,0,1.1-0.2,1.5-0.6c0.3-0.4,0.5-1.1,0.5-2.1c0-0.9-0.2-1.6-0.5-2c-0.3-0.4-0.8-0.6-1.5-0.6h-0.8
		c-1.2,0-2.2-0.3-3-0.8c-0.7-0.6-1.1-1.4-1.1-2.4V58.4c0-0.3-0.2-0.5-0.5-0.5h-4.5c-0.3,0-0.5,0.2-0.5,0.5v11c0,1.1,0,2-0.1,2.7
		c-0.1,0.7-0.2,1.2-0.5,1.6c-0.2,0.4-0.6,0.6-1.1,0.7c-0.5,0.1-1.1,0.2-1.8,0.2c-1,0-1.8-0.3-2.5-0.8c-0.6-0.5-0.9-1.3-0.9-2.4v-8.8
		c0-0.4-0.2-0.5-0.5-0.5h-4.5c-0.3,0-0.5,0.2-0.5,0.5v6.8c0,1.1,0,2-0.1,2.7c0,0.7-0.2,1.2-0.4,1.6c-0.2,0.4-0.6,0.6-1.1,0.8
		c-0.5,0.1-1.1,0.2-2,0.2c-1.2,0-2.1-0.3-2.6-0.8c-0.5-0.5-0.8-1.4-0.8-2.5V62.6z M262.6,69.8c0,0.9,0,1.6,0,2.2
		c0,0.6-0.1,1.1-0.3,1.5c-0.2,0.4-0.4,0.6-0.7,0.8c-0.3,0.2-0.7,0.2-1.3,0.2H255V51.8c0-0.4-0.2-0.5-0.5-0.5H250
		c-0.3,0-0.5,0.2-0.5,0.5v22.7h-8.7c-0.3,0-0.5,0.2-0.5,0.5v4.2c0,0.4,0.2,0.5,0.5,0.5h20.9c1.5,0,2.7-0.2,3.6-0.6
		c0.9-0.4,1.6-1.1,2-2.1c0.6,1.1,1.3,1.9,2.3,2.2c0.9,0.3,2,0.5,3.3,0.5c0.7,0,1.2-0.2,1.5-0.6c0.3-0.4,0.5-1.1,0.5-2.1
		c0-0.9-0.2-1.6-0.5-2c-0.3-0.4-0.8-0.6-1.5-0.6h-0.8c-2.4,0-3.7-0.9-4-2.7V44.4c0-0.3-0.2-0.5-0.5-0.5H263c-0.3,0-0.5,0.2-0.5,0.5
		V69.8z M231.1,68.6c0,2.2-0.4,3.8-1.1,4.8c-0.7,1-1.9,1.5-3.5,1.5c-1.6,0-2.7-0.5-3.5-1.5c-0.8-1-1.1-2.6-1.1-4.8
		c0-2.1,0.4-3.6,1.1-4.7c0.8-1.1,1.9-1.6,3.5-1.6C229.5,62.2,231.1,64.4,231.1,68.6 M230.5,79.6c1.2-0.4,2.3-1.1,3.2-2
		c0.9-0.9,1.6-2.1,2.1-3.5c0.5-1.4,0.7-3.2,0.7-5.3c0-2.1-0.3-4-0.8-5.5c-0.5-1.5-1.2-2.7-2.1-3.6c-0.9-0.9-2-1.6-3.2-2
		c-1.2-0.4-2.6-0.6-4-0.6c-1.4,0-2.8,0.2-4,0.6c-1.2,0.4-2.3,1.1-3.2,2c-0.9,0.9-1.6,2.1-2.1,3.6c-0.5,1.5-0.8,3.3-0.8,5.5
		c0,0.4,0,0.8,0,1.2c0,0.4,0,0.7,0.1,1.1c-0.1,0.7-0.3,1.2-0.6,1.6c-0.3,0.4-0.7,0.8-1.2,1.1c-0.4,0.3-0.9,0.7-1.4,1
		c-0.5,0.3-1,0.7-1.4,1.2c-0.4,0.5-0.8,1.1-1.1,1.9c-0.3,0.7-0.4,1.7-0.4,2.8v9.9h5.5v-8.8c0-0.8,0.1-1.4,0.4-1.9
		c0.2-0.4,0.5-0.8,0.9-1c0.3-0.3,0.7-0.5,1.1-0.7c0.4-0.2,0.7-0.6,1-1c0.8,1.1,1.9,1.9,3.2,2.4c1.3,0.5,2.7,0.7,4.3,0.7
		C227.9,80.2,229.3,80,230.5,79.6 M190.8,63.9c0.7,1.1,1.1,2.6,1.1,4.7v6h-4.4c-1.6,0-2.8-0.4-3.6-1.2c-0.8-0.8-1.3-2.3-1.3-4.5
		c0-2,0.4-3.6,1.2-4.8c0.8-1.2,2-1.8,3.5-1.8C189,62.2,190.1,62.8,190.8,63.9 M191.9,79.8c0,1.2-0.1,2.1-0.3,2.8
		c-0.2,0.7-0.5,1.2-0.9,1.6s-0.9,0.6-1.4,0.8c-0.6,0.1-1.2,0.2-1.8,0.2h-5.8c-0.3,0-0.5,0.2-0.5,0.5V90c0,0.4,0.2,0.5,0.5,0.5h6.6
		c3,0,5.2-0.8,6.8-2.3c1.6-1.5,2.3-3.9,2.3-7.2V68.6c0-2.1-0.2-4-0.7-5.4c-0.5-1.5-1.2-2.7-2.1-3.6c-0.9-0.9-1.9-1.6-3.2-2
		c-1.2-0.4-2.6-0.6-4.1-0.6c-1.3,0-2.6,0.2-3.8,0.7c-1.2,0.4-2.3,1.1-3.2,2.1c-0.9,1-1.7,2.2-2.2,3.8c-0.5,1.5-0.8,3.4-0.8,5.5
		c0,2,0.2,3.7,0.7,5.1c0.4,1.4,1.1,2.5,1.9,3.4c0.8,0.9,1.8,1.5,3,1.9c1.2,0.4,2.6,0.6,4.1,0.6H191.9z M172.1,44.4
		c0-0.3-0.2-0.5-0.5-0.5h-4.5c-0.3,0-0.5,0.2-0.5,0.5v34.9c0,0.4,0.2,0.5,0.5,0.5h4.5c0.3,0,0.5-0.2,0.5-0.5V44.4z M154.9,79.8
		c2,0,3.5-0.5,4.4-1.6c0.9-1.1,1.3-2.8,1.3-5V44.4c0-0.3-0.2-0.5-0.5-0.5h-4.5c-0.3,0-0.5,0.2-0.5,0.5v27.3c0,1.1-0.2,1.8-0.6,2.2
		c-0.4,0.4-1,0.6-1.8,0.6h-2.4c-0.7,0-1.2,0.2-1.5,0.6c-0.3,0.4-0.5,1.1-0.5,2.1c0,1,0.2,1.7,0.5,2.1c0.3,0.3,0.8,0.5,1.5,0.5H154.9
		z M135.1,67.4c-1.1-1.6-2.4-3-3.9-4c0.4-0.2,1-0.5,2-0.7c1-0.3,2.1-0.4,3.4-0.4c1.5,0,2.7,0.3,3.7,0.8c1,0.6,1.4,1.6,1.4,3
		c0,0.7-0.1,1.4-0.4,2.1c-0.3,0.7-0.6,1.3-1,1.9c-0.4,0.6-0.9,1.1-1.4,1.6c-0.5,0.5-1.1,0.9-1.6,1.3C136.9,70.9,136.2,69,135.1,67.4
		 M132.6,57.3c-1.3,0.2-2.5,0.6-3.5,0.9c-1,0.4-1.8,0.8-2.5,1.2c-0.6,0.5-0.9,0.9-0.9,1.3v3.3c0,0.3,0,0.5,0.1,0.8
		c0,0.2,0.2,0.5,0.6,0.8c0.7,0.5,1.3,1,1.9,1.5c0.6,0.5,1.2,1.1,1.8,1.7c0.6,0.6,1.1,1.4,1.5,2.2c0.4,0.8,0.8,1.8,1.1,3
		c-0.9,0.2-1.7,0.3-2.3,0.4c-0.7,0.1-1.2,0.1-1.8,0.1h-5.7c-0.9,0-1.4,0.2-1.6,0.7c-0.2,0.5-0.3,1.2-0.3,2.1c0,1,0.2,1.6,0.5,2
		c0.3,0.4,0.8,0.5,1.4,0.5h7.1c0.9,0,2-0.1,3.2-0.3c1.2-0.2,2.4-0.7,3.4-1.3c0.9,0.6,2,1.1,3,1.3c1.1,0.2,2.2,0.3,3.4,0.3h7.3
		c0.7,0,1.1-0.2,1.4-0.5s0.5-1,0.5-2c0-1-0.1-1.7-0.4-2.1c-0.3-0.4-0.8-0.6-1.5-0.6h-6.1h-1c-0.3,0-0.6,0-0.9-0.1
		c0.6-0.4,1.2-0.9,1.8-1.6c0.6-0.6,1.2-1.3,1.7-2.1c0.5-0.8,0.9-1.7,1.2-2.6c0.3-0.9,0.5-1.9,0.5-3c0-2.5-0.9-4.4-2.6-5.9
		c-1.7-1.5-4.5-2.3-8.3-2.3C135.3,57,133.9,57.1,132.6,57.3 M107.5,62.2c1.7,0,2.9,0.4,3.8,1.1c0.8,0.7,1.3,1.9,1.3,3.5v3.5
		c0,0.8,0,1.4-0.1,1.9c-0.1,0.5-0.3,1-0.5,1.3c-0.3,0.3-0.7,0.6-1.2,0.7c-0.5,0.1-1.2,0.2-2.1,0.2h-9.1c-0.3,0-0.5,0.2-0.5,0.5v4.2
		c0,0.4,0.2,0.5,0.5,0.5h11c1.7,0,3-0.2,4.1-0.6c1.1-0.4,1.9-1.2,2.5-2.4c0.6,1.2,1.3,2.1,2.3,2.5c1,0.4,2.2,0.6,3.6,0.6
		c0.7,0,1.2-0.2,1.5-0.6c0.3-0.4,0.5-1.1,0.5-2.1c0-0.9-0.2-1.6-0.5-2c-0.3-0.4-0.8-0.6-1.5-0.6H122c-1.2,0-2.2-0.3-2.9-0.8
		c-0.7-0.6-1.1-1.4-1.1-2.4v-4.9c0-3.3-0.8-5.7-2.4-7.2c-1.6-1.5-3.8-2.2-6.5-2.2h-7.5c-0.3,0-0.5,0.2-0.5,0.5v4.2
		c0,0.4,0.2,0.5,0.5,0.5H107.5z M70.5,73c-0.6,1.9-0.8,3.8-0.8,5.7c0,2,0.3,3.8,0.9,5.3c0.6,1.5,1.4,2.8,2.5,3.8
		c1.1,1,2.3,1.8,3.8,2.2c1.5,0.5,3,0.7,4.8,0.7c1.8,0,3.4-0.2,4.9-0.7c1.5-0.5,2.7-1.2,3.8-2.2c1.1-1,1.9-2.3,2.5-3.8
		c0.6-1.5,0.9-3.3,0.9-5.3V44.4c0-0.3-0.2-0.5-0.5-0.5h-4.5c-0.3,0-0.5,0.2-0.5,0.5v34.1c0,2.4-0.6,4.1-1.7,5.2
		c-1.1,1.1-2.7,1.6-4.6,1.6c-0.8,0-1.5-0.1-2.3-0.3c-0.8-0.2-1.5-0.6-2.1-1.2c-0.6-0.6-1.2-1.3-1.6-2.2c-0.4-0.9-0.6-2.1-0.6-3.5
		c0-1.6,0.2-3,0.7-4.4c0.5-1.3,1-2.5,1.5-3.5c0.1-0.1,0.1-0.3,0.1-0.4c0-0.1-0.1-0.2-0.3-0.3l-4-1.7c-0.4-0.2-0.6-0.1-0.7,0.1
		C71.7,69.4,71,71.1,70.5,73"/>
</g>
</svg>
