<?xml version="1.0" encoding="utf-8"?>
<svg version="1.1" id="Layer_1" xmlns="http://www.w3.org/2000/svg" xmlns:xlink="http://www.w3.org/1999/xlink" x="0px" y="0px"
	 viewBox="0 0 500 500" style="enable-background:new 0 0 500 500;" xml:space="preserve">
<style type="text/css">
	.st1{fill:#FFFFFF;}
	.st8{fill:Transparent;}
</style>
<g>
	<rect class="st8" width="500" height="500"/>
	<g>
		<path class="st1" d="M345.3,246l-51.1,48.6c-1.9,1.9-2.9,3.3-2.9,7.3V438c0,1.6,1.3,2.9,2.9,2.9H347c1.6,0,2.9-1.3,2.9-2.9V247.2
			C349.9,245.6,348.6,242.7,345.3,246"/>
		<path class="st1" d="M198.2,309.2l-51.1,48.6c-1.9,1.9-2.9,3.3-2.9,7.3V438c0,1.6,1.3,2.9,2.9,2.9h52.7c1.6,0,2.9-1.3,2.9-2.9
			V310.5C202.8,308.9,201.5,305.9,198.2,309.2"/>
		<path class="st1" d="M368.5,187.1c0-0.4-0.1-0.8-0.4-1.1c-0.3-0.3-0.6-0.4-0.9-0.4l-0.3,0l-0.4,0l-39.1,8.8l-0.7,0.1
			c-0.3,0.1-0.6,0.2-0.8,0.4c-0.6,0.6-0.6,1.5,0,2.1l0.4,0.4l8.9,8.9l-88.6,88.6L205.7,254c-0.5-0.5-1.2-0.5-1.7,0L193,265.1
			c0,0,0,0,0,0l-65.6,65.6c-0.5,0.5-0.5,1.2,0,1.7l11.1,11.1c0.5,0.5,1.2,0.5,1.7,0l64.8-64.8l29.7,29.7c0,0,0,0.1,0.1,0.1
			l11.1,11.1c0.5,0.5,1.2,0.5,1.7,0L348,219.1l9.4,9.4c0.6,0.6,1.5,0.6,2.1,0c0.3-0.3,0.4-0.6,0.4-1v-0.1l8.6-39.9L368.5,187.1z"/>
		<path class="st1" d="M272.1,317.8l-24.7,24.9c-0.5,0.4-1.2,0.4-1.6-0.1l-22.4-22.8c-4.1-4.1-5-0.8-5,0.8v117.3
			c0,1.6,1.3,2.9,2.9,2.9H274c1.6,0,2.9-1.3,2.9-2.9V318.7C276.9,317.1,275.7,314.1,272.1,317.8"/>
		<path class="st1" d="M79.4,119.2c0,6.1-2.2,10.5-8.4,10.5c-6,0-8.2-4.3-8.2-10.5v-16.4c0-6.1,2.2-10.5,8.2-10.5
			c6.1,0,8.4,4.3,8.4,10.5V119.2z M63.4,63.2c0-6.1,2.1-9.7,7.6-9.7c5.7,0,7.8,3.6,7.8,9.7v6.9c0,6.1-2.1,9.7-7.8,9.7
			c-5.5,0-7.6-3.6-7.6-9.7V63.2z M96.4,117.4v-11.1c0-9.7-3.4-16.7-11.3-20.3c6.7-3.3,9.9-9.3,9.9-17.6v-4.2
			c0-15.8-8.2-24.3-23.9-24.3c-15.5,0-23.6,8.5-23.6,24.3v4.2c0,8.2,3,14.3,9.6,17.6c-7.9,3.6-11.2,10.6-11.2,20.3v11.1
			c0,15.4,7.3,26.1,25.2,26.1C89.1,143.6,96.4,132.8,96.4,117.4"/>
		<path class="st1" d="M143,77.6c2.9,0,4.1-1.7,4.1-4.3V51.1c0-2.5-1.1-4.2-4.1-4.2h-3v30.7H143z M154.2,52.4V72
			c0,6.5-2.7,11.4-10.3,11.4h-11V41h11C151.5,41,154.2,45.8,154.2,52.4"/>
	</g>
	<polygon class="st1" points="158.3,41 175.3,41 175.3,46.9 165.4,46.9 165.4,59 172.4,59 172.4,64.7 165.4,64.7 165.4,77.6 
		175.3,77.6 175.3,83.4 158.3,83.4 	"/>
	<g>
		<path class="st1" d="M178.4,72.4V52c0-6.6,3.1-11.4,10.6-11.4c7.9,0,10,4.4,10,10.6v5h-6.5v-5.6c0-2.6-0.9-4.1-3.4-4.1
			c-2.6,0-3.6,1.8-3.6,4.4v22.7c0,2.6,1.1,4.4,3.6,4.4c2.6,0,3.4-1.6,3.4-4.1V66h6.5v7.3c0,6-2.5,10.5-10,10.5
			C181.6,83.9,178.4,79,178.4,72.4"/>
	</g>
	<polygon class="st1" points="203,41 220,41 220,46.9 210.1,46.9 210.1,59 217.1,59 217.1,64.7 210.1,64.7 210.1,77.6 220,77.6 
		220,83.4 203,83.4 	"/>
	<polygon class="st1" points="229.8,56.8 229.8,83.4 223.8,83.4 223.8,41 230.8,41 238.4,65.3 238.4,41 244.4,41 244.4,83.4 
		238.1,83.4 	"/>
	<polygon class="st1" points="247.6,41 266.5,41 266.5,46.9 260.7,46.9 260.7,83.4 253.5,83.4 253.5,46.9 247.6,46.9 	"/>
	<polygon class="st1" points="295.9,57.2 291.9,83.4 285.2,83.4 279.5,41 286.4,41 289.7,67.9 289.8,67.9 293.3,41 299.1,41 
		303.1,67.9 303.1,67.9 306.4,41 312.4,41 306.9,83.4 300.1,83.4 296,57.2 	"/>
	<g>
		<path class="st1" d="M329.2,73.6V50.8c0-2.6-1.1-4.4-3.7-4.4c-2.5,0-3.6,1.8-3.6,4.4v22.7c0,2.6,1.1,4.4,3.6,4.4
			C328.1,77.9,329.2,76.1,329.2,73.6 M314.8,72.4V52c0-6.6,3.2-11.4,10.7-11.4c7.6,0,10.8,4.8,10.8,11.4v20.5
			c0,6.6-3.2,11.4-10.8,11.4C318.1,83.9,314.8,79,314.8,72.4"/>
		<path class="st1" d="M347.5,46.9V60h2.4c2.4,0,3.5-1.2,3.5-3.5v-6.2c0-2.3-1.1-3.4-3.5-3.4H347.5z M347.5,64v19.4h-7.1V41h10.4
			c7.2,0,9.8,3.6,9.8,9.5V56c0,4.6-1.6,7.2-5.7,8.2l6.8,19.2h-7.5L347.5,64z"/>
	</g>
	<polygon class="st1" points="371.6,62.8 371.6,83.4 364.4,83.4 364.4,41 371.6,41 371.6,59.6 379.3,41 386.3,41 378,60.1 
		386.5,83.4 379,83.4 	"/>
	<path class="st1" d="M407.7,70h5.7l-2.8-17h-0.1L407.7,70z M398.7,83.4l8-42.3h8.1l8.1,42.3h-7.3l-1.3-7.7h-7.6l-1.2,7.7H398.7z"/>
	<polygon class="st1" points="431.8,56.8 431.8,83.4 425.8,83.4 425.8,41 432.8,41 440.5,65.3 440.5,41 446.4,41 446.4,83.4 
		440.2,83.4 	"/>
	<g>
		<path class="st1" d="M460.6,77.6c2.9,0,4.1-1.7,4.1-4.3V51.1c0-2.5-1.1-4.2-4.1-4.2h-3v30.7H460.6z M471.8,52.4V72
			c0,6.5-2.7,11.4-10.3,11.4h-11V41h11C469.1,41,471.8,45.8,471.8,52.4"/>
	</g>
	<polygon class="st1" points="132.9,100.3 149.9,100.3 149.9,106.2 140.1,106.2 140.1,118.3 147.1,118.3 147.1,124 140.1,124 
		140.1,136.9 149.9,136.9 149.9,142.7 132.9,142.7 	"/>
	<g>
		<path class="st1" d="M153.1,131.8v-20.5c0-6.6,3.1-11.4,10.6-11.4c7.9,0,10,4.4,10,10.6v5h-6.5v-5.6c0-2.6-0.9-4.1-3.4-4.1
			c-2.6,0-3.6,1.8-3.6,4.4v22.7c0,2.6,1.1,4.4,3.6,4.4c2.6,0,3.4-1.6,3.4-4.1v-7.8h6.5v7.3c0,6-2.5,10.5-10,10.5
			C156.2,143.2,153.1,138.3,153.1,131.8"/>
		<path class="st1" d="M192,132.9v-22.7c0-2.6-1.1-4.4-3.7-4.4c-2.5,0-3.6,1.8-3.6,4.4v22.7c0,2.6,1.1,4.4,3.6,4.4
			C190.9,137.2,192,135.4,192,132.9 M177.6,131.8v-20.5c0-6.6,3.2-11.4,10.7-11.4c7.6,0,10.8,4.8,10.8,11.4v20.5
			c0,6.6-3.2,11.4-10.8,11.4C180.9,143.2,177.6,138.3,177.6,131.8"/>
	</g>
	<polygon class="st1" points="209.2,116.1 209.2,142.7 203.2,142.7 203.2,100.3 210.2,100.3 217.9,124.6 217.9,100.3 223.8,100.3 
		223.8,142.7 217.6,142.7 	"/>
	<g>
		<path class="st1" d="M242.3,132.9v-22.7c0-2.6-1.1-4.4-3.7-4.4c-2.5,0-3.6,1.8-3.6,4.4v22.7c0,2.6,1.1,4.4,3.6,4.4
			C241.2,137.2,242.3,135.4,242.3,132.9 M227.9,131.8v-20.5c0-6.6,3.2-11.4,10.7-11.4c7.6,0,10.8,4.8,10.8,11.4v20.5
			c0,6.6-3.2,11.4-10.8,11.4C231.1,143.2,227.9,138.3,227.9,131.8"/>
	</g>
	<polygon class="st1" points="273.1,115.2 272.9,115.2 268.1,142.7 264.8,142.7 259.5,115.2 259.3,115.2 259.3,142.7 253.5,142.7 
		253.5,100.3 261.8,100.3 266.4,124.2 266.5,124.2 270.6,100.3 279.6,100.3 279.6,142.7 273.1,142.7 	"/>
	<rect x="283.6" y="100.3" class="st1" width="7.1" height="42.3"/>
	<g>
		<path class="st1" d="M294.9,131.8v-20.5c0-6.6,3.1-11.4,10.6-11.4c7.9,0,10,4.4,10,10.6v5H309v-5.6c0-2.6-0.9-4.1-3.4-4.1
			c-2.6,0-3.6,1.8-3.6,4.4v22.7c0,2.6,1.1,4.4,3.6,4.4c2.6,0,3.4-1.6,3.4-4.1v-7.8h6.5v7.3c0,6-2.5,10.5-10,10.5
			C298,143.2,294.9,138.3,294.9,131.8"/>
		<path class="st1" d="M340.8,120.1H351v22.6h-5.1v-4.6c-0.9,3.2-2.9,5.1-6.8,5.1c-6.1,0-8.9-4.9-8.9-11.4v-20.5
			c0-6.6,3.2-11.4,10.7-11.4c7.9,0,10.2,4.4,10.2,10.6v3.7h-6.5v-4.3c0-2.6-1-4.1-3.6-4.1c-2.6,0-3.7,1.8-3.7,4.4v22.7
			c0,2.6,1.1,4.4,3.5,4.4c2.3,0,3.5-1.3,3.5-4.1v-7.5h-3.4V120.1z"/>
		<path class="st1" d="M362.1,106.2v13.2h2.4c2.4,0,3.5-1.2,3.5-3.5v-6.2c0-2.3-1.1-3.4-3.5-3.4H362.1z M362.1,123.3v19.4H355v-42.3
			h10.4c7.2,0,9.8,3.6,9.8,9.5v5.4c0,4.6-1.6,7.2-5.7,8.2l6.8,19.2h-7.5L362.1,123.3z"/>
		<path class="st1" d="M393.5,132.9v-22.7c0-2.6-1.1-4.4-3.7-4.4c-2.5,0-3.6,1.8-3.6,4.4v22.7c0,2.6,1.1,4.4,3.6,4.4
			C392.3,137.2,393.5,135.4,393.5,132.9 M379,131.8v-20.5c0-6.6,3.2-11.4,10.7-11.4c7.6,0,10.8,4.8,10.8,11.4v20.5
			c0,6.6-3.2,11.4-10.8,11.4C382.3,143.2,379,138.3,379,131.8"/>
	</g>
	<polygon class="st1" points="419.4,116.5 415.4,142.7 408.7,142.7 403,100.3 409.9,100.3 413.2,127.2 413.3,127.2 416.8,100.3 
		422.6,100.3 426.6,127.2 426.6,127.2 429.9,100.3 435.9,100.3 430.4,142.7 423.6,142.7 419.4,116.5 	"/>
	<polygon class="st1" points="438.1,100.3 457,100.3 457,106.2 451.2,106.2 451.2,142.7 444,142.7 444,106.2 438.1,106.2 	"/>
	<polygon class="st1" points="474.3,124 467.4,124 467.4,142.7 460.3,142.7 460.3,100.3 467.4,100.3 467.4,118.3 474.3,118.3 
		474.3,100.3 481.5,100.3 481.5,142.7 474.3,142.7 	"/>
</g>
</svg>
