<?xml version="1.0" encoding="utf-8"?>
<svg version="1.1" id="Layer_1" xmlns="http://www.w3.org/2000/svg" xmlns:xlink="http://www.w3.org/1999/xlink" x="0px" y="0px"
	 viewBox="0 0 500 500" style="enable-background:new 0 0 500 500;" xml:space="preserve">
<style type="text/css">
	.st1{fill:#FFFFFF;}
	.st18{fill:Transparent;}
</style>
<rect class="st18" width="500" height="500"/>
<g>
	<path class="st1" d="M297.4,307.8c12.9-12,21-29,21-47.9c0-2.8-0.2-5.6-0.6-8.4c26.2,2.8,46.7,25,46.7,51.9
		c0,15.3-6.6,29-17.2,38.6C337.5,323.6,319,310.4,297.4,307.8 M341.8,372.8c0,28.8-23.4,52.2-52.2,52.2c-9.4,0-18.2-2.5-25.8-6.9
		c11.1-11.7,18-27.6,18-44.9c0-4.3-0.4-8.5-1.2-12.5c9.4,5.2,20.2,8.2,31.7,8.2c10.2,0,19.9-2.4,28.5-6.6
		C341.5,365.7,341.8,369.2,341.8,372.8 M164.1,373.2c0-3.7,0.4-7.3,1.1-10.8c8.6,4.2,18.3,6.5,28.4,6.5c11.5,0,22.2-3,31.6-8.2
		c-0.7,3.9-1.1,7.9-1.1,12c0,17.7,7.1,33.7,18.5,45.5c-7.7,4.5-16.7,7.2-26.3,7.2C187.5,425.5,164.1,402,164.1,373.2 M141.4,303.5
		c0-26.9,20.5-49.1,46.6-51.9c-0.3,2.7-0.5,5.5-0.5,8.4c0,19.1,8.3,36.4,21.4,48.3c-21.7,2.5-40.2,15.6-50.2,34
		C148.2,332.7,141.4,318.9,141.4,303.5 M253,207.6c21.4,0,39.8,12.9,47.9,31.4c-21.3,3.7-39,17.8-47.9,36.8
		c-8.9-19-26.6-33-47.9-36.8C213.1,220.6,231.6,207.6,253,207.6 M265.4,326.5c7.2-3.8,15.4-6,24.2-6c20.5,0,38.3,12,46.8,29.2
		c-7.2,3.8-15.5,6-24.2,6C291.7,355.7,273.9,343.8,265.4,326.5 M240.3,326.9c-8.6,17.1-26.3,28.9-46.7,28.9c-8.7,0-16.8-2.2-24-5.9
		c8.6-17.1,26.3-28.9,46.7-28.9C225,321,233.2,323.1,240.3,326.9 M201.4,251.9c25.2,3.7,44.5,25.4,44.5,51.6c0,2.7-0.3,5.4-0.7,8
		c-25.2-3.7-44.5-25.4-44.5-51.6C200.7,257.2,201,254.5,201.4,251.9 M253.2,410.2c-9.8-9.5-15.9-22.8-15.9-37.4
		c0-14.4,5.9-27.5,15.4-37c9.8,9.5,15.9,22.8,15.9,37.4C268.6,387.6,262.7,400.7,253.2,410.2 M305.2,259.9
		c0,26.2-19.4,47.9-44.5,51.6c-0.4-2.6-0.7-5.3-0.7-8c0-26.2,19.4-47.9,44.5-51.6C304.9,254.5,305.2,257.2,305.2,259.9 M377.7,303.5
		c0-35.3-28.1-64.1-63-65.4c-9-25.4-33.2-43.6-61.7-43.6c-28.4,0-52.7,18.2-61.7,43.6c-35,1.3-63,30.1-63,65.4
		c0,20.9,9.9,39.6,25.2,51.6c-1.7,5.8-2.6,11.9-2.6,18.2c0,36.1,29.3,65.4,65.4,65.4c13.7,0,26.4-4.2,36.9-11.4
		c10.4,7,22.9,11,36.3,11c36.1,0,65.4-29.3,65.4-65.4c0-6.2-0.9-12.1-2.5-17.8C367.8,343,377.7,324.4,377.7,303.5"/>
</g>
<polygon class="st1" points="74,40.9 74,142.2 57,142.2 57,64.7 56.8,64.7 44.9,77.1 44.7,77.1 44.7,59.3 60.4,40.9 "/>
<polygon class="st1" points="81.8,40.9 124.5,40.9 124.5,56.6 102.3,142.2 85.4,142.2 108.1,54.8 81.8,54.8 "/>
<g>
	<path class="st1" d="M169.2,46.3V63h2.6c2.4,0,3.5-1.2,3.5-3.5v-9.7c0-2.3-1.1-3.4-3.5-3.4H169.2z M162,40.5h10.6
		c7.2,0,9.8,3.6,9.8,9.5V59c0,5.9-2.6,9.6-9.8,9.6h-3.4v14.4H162V40.5z"/>
</g>
<path class="st1" d="M191.4,69.4h5.7l-2.8-17h-0.1L191.4,69.4z M182.5,82.9l8-42.3h8.1l8.1,42.3h-7.3l-1.3-7.7h-7.6l-1.2,7.7H182.5z
	"/>
<g>
	<path class="st1" d="M216.7,46.3v13.2h2.4c2.4,0,3.5-1.2,3.5-3.5v-6.2c0-2.3-1.1-3.4-3.5-3.4H216.7z M216.7,63.4v19.4h-7.1V40.5
		h10.4c7.2,0,9.8,3.6,9.8,9.5v5.4c0,4.6-1.6,7.2-5.7,8.2l6.8,19.2h-7.5L216.7,63.4z"/>
</g>
<polygon class="st1" points="232.1,40.5 251.1,40.5 251.1,46.3 245.2,46.3 245.2,82.9 238,82.9 238,46.3 232.1,46.3 "/>
<polygon class="st1" points="260.4,56.3 260.4,82.9 254.4,82.9 254.4,40.5 261.4,40.5 269,64.8 269,40.5 275,40.5 275,82.9 
	268.7,82.9 "/>
<polygon class="st1" points="279,40.5 296,40.5 296,46.3 286.1,46.3 286.1,58.5 293.2,58.5 293.2,64.2 286.1,64.2 286.1,77.1 
	296,77.1 296,82.9 279,82.9 "/>
<g>
	<path class="st1" d="M306.9,46.3v13.2h2.4c2.4,0,3.5-1.2,3.5-3.5v-6.2c0-2.3-1.1-3.4-3.5-3.4H306.9z M306.9,63.4v19.4h-7.1V40.5
		h10.4c7.2,0,9.8,3.6,9.8,9.5v5.4c0,4.6-1.6,7.2-5.7,8.2l6.8,19.2h-7.5L306.9,63.4z"/>
	<path class="st1" d="M323.2,73.8v-5.7h6.6v5.8c0,2.4,1.1,3.8,3.5,3.8c2.2,0,3.2-1.5,3.2-3.8v-1.6c0-2.4-1-3.9-3.2-6l-4.2-4.2
		c-4.1-4-5.9-6.4-5.9-11.3v-1.4c0-5.2,3.1-9.3,10-9.3c7.1,0,9.9,3.5,9.9,9.6v3.4h-6.5v-3.7c0-2.4-1.1-3.6-3.4-3.6
		c-2,0-3.4,1.1-3.4,3.5v0.9c0,2.4,1.3,3.7,3.4,5.7l4.6,4.5c3.9,3.9,5.7,6.3,5.7,11v2.1c0,5.8-3.1,9.9-10.4,9.9
		C326,83.4,323.2,79.3,323.2,73.8"/>
</g>
<polygon class="st1" points="361.3,64.2 354.4,64.2 354.4,82.9 347.3,82.9 347.3,40.5 354.4,40.5 354.4,58.5 361.3,58.5 361.3,40.5 
	368.5,40.5 368.5,82.9 361.3,82.9 "/>
<rect x="372.5" y="40.5" class="st1" width="7.1" height="42.3"/>
<g>
	<path class="st1" d="M390.9,46.3V63h2.6c2.4,0,3.5-1.2,3.5-3.5v-9.7c0-2.3-1.1-3.4-3.5-3.4H390.9z M383.8,40.5h10.6
		c7.2,0,9.8,3.6,9.8,9.5V59c0,5.9-2.6,9.6-9.8,9.6h-3.4v14.4h-7.1V40.5z"/>
	<path class="st1" d="M407.4,73.8v-5.7h6.6v5.8c0,2.4,1.1,3.8,3.5,3.8c2.2,0,3.2-1.5,3.2-3.8v-1.6c0-2.4-1-3.9-3.2-6l-4.2-4.2
		c-4.1-4-5.9-6.4-5.9-11.3v-1.4c0-5.2,3.1-9.3,10-9.3c7.1,0,9.9,3.5,9.9,9.6v3.4h-6.5v-3.7c0-2.4-1.1-3.6-3.4-3.6
		c-2,0-3.4,1.1-3.4,3.5v0.9c0,2.4,1.3,3.7,3.4,5.7l4.6,4.5c3.9,3.9,5.7,6.3,5.7,11v2.1c0,5.8-3.1,9.9-10.4,9.9
		S407.4,79.3,407.4,73.8"/>
</g>
<polygon class="st1" points="162,99.8 178.7,99.8 178.7,105.7 169.2,105.7 169.2,117.8 176.3,117.8 176.3,123.5 169.2,123.5 
	169.2,142.2 162,142.2 "/>
<g>
	<path class="st1" d="M195.6,132.4v-22.7c0-2.6-1.1-4.4-3.7-4.4c-2.5,0-3.6,1.8-3.6,4.4v22.7c0,2.6,1.1,4.4,3.6,4.4
		C194.5,136.7,195.6,134.9,195.6,132.4 M181.2,131.2v-20.5c0-6.6,3.2-11.4,10.7-11.4c7.6,0,10.8,4.8,10.8,11.4v20.5
		c0,6.6-3.2,11.4-10.8,11.4C184.5,142.7,181.2,137.8,181.2,131.2"/>
	<path class="st1" d="M213.9,105.7v13.2h2.4c2.4,0,3.5-1.2,3.5-3.5v-6.2c0-2.3-1.1-3.4-3.5-3.4H213.9z M213.9,122.8v19.4h-7.1V99.8
		h10.4c7.2,0,9.8,3.6,9.8,9.5v5.4c0,4.6-1.6,7.2-5.7,8.2l6.8,19.2h-7.5L213.9,122.8z"/>
</g>
<polygon class="st1" points="240.7,99.8 259.7,99.8 259.7,105.7 253.8,105.7 253.8,142.2 246.6,142.2 246.6,105.7 240.7,105.7 "/>
<polygon class="st1" points="276.9,123.5 270.1,123.5 270.1,142.2 263,142.2 263,99.8 270.1,99.8 270.1,117.8 276.9,117.8 
	276.9,99.8 284.1,99.8 284.1,142.2 276.9,142.2 "/>
<polygon class="st1" points="288.2,99.8 305.2,99.8 305.2,105.7 295.3,105.7 295.3,117.8 302.4,117.8 302.4,123.5 295.3,123.5 
	295.3,136.4 305.2,136.4 305.2,142.2 288.2,142.2 "/>
<g>
	<path class="st1" d="M330.4,119.6h10.1v22.6h-5.1v-4.6c-0.9,3.2-2.9,5.1-6.8,5.1c-6.1,0-8.9-4.9-8.9-11.4v-20.5
		c0-6.6,3.2-11.4,10.7-11.4c7.9,0,10.2,4.4,10.2,10.6v3.7H334v-4.3c0-2.6-1-4.1-3.6-4.1c-2.6,0-3.7,1.8-3.7,4.4v22.7
		c0,2.6,1.1,4.4,3.5,4.4c2.3,0,3.5-1.3,3.5-4.1v-7.5h-3.4V119.6z"/>
	<path class="st1" d="M359,132.4v-22.7c0-2.6-1.1-4.4-3.7-4.4c-2.5,0-3.6,1.8-3.6,4.4v22.7c0,2.6,1.1,4.4,3.6,4.4
		C357.9,136.7,359,134.9,359,132.4 M344.6,131.2v-20.5c0-6.6,3.2-11.4,10.7-11.4c7.6,0,10.8,4.8,10.8,11.4v20.5
		c0,6.6-3.2,11.4-10.8,11.4C347.8,142.7,344.6,137.8,344.6,131.2"/>
</g>
<path class="st1" d="M377,128.8h5.7l-2.8-17h-0.1L377,128.8z M368.1,142.2l8-42.3h8.1l8.1,42.3H385l-1.3-7.7h-7.6l-1.2,7.7H368.1z"
	/>
<polygon class="st1" points="395.2,99.8 402.3,99.8 402.3,136.4 410.8,136.4 410.8,142.2 395.2,142.2 "/>
<g>
	<path class="st1" d="M413.4,133.1v-5.7h6.6v5.8c0,2.4,1.1,3.8,3.5,3.8c2.2,0,3.2-1.5,3.2-3.8v-1.6c0-2.4-1-3.9-3.2-6l-4.2-4.2
		c-4.1-4-5.9-6.4-5.9-11.3v-1.4c0-5.3,3.1-9.3,10-9.3c7.1,0,9.9,3.5,9.9,9.6v3.4h-6.5v-3.7c0-2.4-1.1-3.6-3.4-3.6
		c-2,0-3.4,1.1-3.4,3.5v0.9c0,2.4,1.3,3.7,3.4,5.7l4.6,4.5c3.9,3.9,5.7,6.3,5.7,11v2.1c0,5.8-3.1,9.9-10.4,9.9
		C416.2,142.7,413.4,138.6,413.4,133.1"/>
</g>
</svg>
