<?xml version="1.0" encoding="utf-8"?>
<svg version="1.1" id="Layer_1" xmlns="http://www.w3.org/2000/svg" xmlns:xlink="http://www.w3.org/1999/xlink" x="0px" y="0px"
	 viewBox="0 0 500 500" style="enable-background:new 0 0 500 500;" xml:space="preserve">
<style type="text/css">
	.st1{fill:#FFFFFF;}
	.st7{fill:Transparent;}
</style>
<rect class="st7" width="500" height="500"/>
<g>
	<path class="st1" d="M372.2,401.5l-53.6,30.9v-61.9l53.6-30.9V401.5z M195.1,432.4v-57.2l49.5,28.6L195.1,432.4z M187,432.4
		l-53.6-30.9v-61.9l53.6,30.9V432.4z M244.7,261.2l-49.5,28.6v-57.2L244.7,261.2z M310.5,289.8l-49.5-28.6l49.5-28.6V289.8z
		 M260.9,332.5l53.6-30.9l53.6,30.9l-53.6,31L260.9,332.5z M248.7,325.5l-49.5-28.6l49.5-28.6V325.5z M306.4,296.9l-49.5,28.6v-57.2
		L306.4,296.9z M248.7,396.8l-49.5-28.6l49.5-28.6V396.8z M378.3,329l-59.7-34.5v-68.9c0-1.5-0.8-2.8-2-3.5l-61.7-35.6
		c-1.3-0.7-2.8-0.7-4.1,0L189,222.1c-1.3,0.7-2,2.1-2,3.5v68.9L127.3,329c-1.3,0.7-2,2.1-2,3.5v71.3c0,1.5,0.8,2.8,2,3.5L189,443
		c0.6,0.4,1.3,0.5,2,0.5c0.7,0,1.4-0.2,2-0.5l59.7-34.5l59.7,34.5c0.6,0.4,1.3,0.5,2,0.5c0.7,0,1.4-0.2,2-0.5l61.7-35.6
		c1.3-0.7,2-2.1,2-3.5v-71.3C380.3,331.1,379.6,329.7,378.3,329"/>
	<path class="st1" d="M74,82c-0.3,5.7-2.7,9.3-8.1,9.3c-5.8,0-8.1-3.6-8.1-10.2V63.4c0-6.4,2.4-10.2,8.2-10.2
		c5.7,0,7.9,3.9,7.9,10.2V82z M90.9,66.4c0-15.7-6.9-27-24.8-27C48,39.4,41,49.3,41,64.9v14.9c0,16.6,6.6,24.9,18.8,24.9
		c7.2,0,11.5-3.3,14-8.2H74v21.8c0,6.1-2.4,10.5-8.5,10.5c-6.1,0-8.4-3.6-8.4-9.9v-6.7H41.6v5.4c0,14.9,5.4,25.4,24.2,25.4
		c17.9,0,25.1-11.5,25.1-27.3V66.4z"/>
</g>
<rect x="119.9" y="41" class="st1" width="7.1" height="42.3"/>
<polygon class="st1" points="135.4,56.8 135.4,83.4 129.4,83.4 129.4,41 136.4,41 144,65.3 144,41 150,41 150,83.4 143.7,83.4 "/>
<g>
	<path class="st1" d="M162.3,77.6c2.9,0,4.1-1.7,4.1-4.3V51.1c0-2.5-1.1-4.2-4.1-4.2h-3v30.7H162.3z M173.5,52.4V72
		c0,6.5-2.7,11.4-10.3,11.4h-11V41h11C170.8,41,173.5,45.8,173.5,52.4"/>
	<path class="st1" d="M196.4,41v32c0,6.6-2.8,10.8-10.1,10.8c-7.5,0-10.6-4.2-10.6-10.8V41h7.1v32.7c0,2.5,1,4.2,3.5,4.2
		s3.5-1.7,3.5-4.2V41H196.4z"/>
	<path class="st1" d="M198.3,74.3v-5.7h6.6v5.8c0,2.4,1.1,3.8,3.5,3.8c2.2,0,3.2-1.5,3.2-3.8v-1.6c0-2.4-1-3.9-3.2-6l-4.2-4.2
		c-4.1-4-5.9-6.4-5.9-11.3v-1.4c0-5.2,3.1-9.3,10-9.3c7.1,0,9.9,3.5,9.9,9.6v3.4h-6.5v-3.7c0-2.4-1.1-3.6-3.4-3.6
		c-2,0-3.4,1.1-3.4,3.5v0.9c0,2.4,1.3,3.7,3.4,5.7l4.6,4.5c3.9,3.9,5.7,6.3,5.7,11v2.1c0,5.8-3.1,9.9-10.4,9.9
		S198.3,79.8,198.3,74.3"/>
</g>
<polygon class="st1" points="218.9,41 237.8,41 237.8,46.9 231.9,46.9 231.9,83.4 224.7,83.4 224.7,46.9 218.9,46.9 "/>
<g>
	<path class="st1" d="M246.4,46.9V60h2.4c2.4,0,3.5-1.2,3.5-3.5v-6.2c0-2.3-1.1-3.4-3.5-3.4H246.4z M246.4,64v19.4h-7.1V41h10.4
		c7.2,0,9.8,3.6,9.8,9.5V56c0,4.6-1.6,7.2-5.7,8.2l6.8,19.2h-7.5L246.4,64z"/>
</g>
<polygon class="st1" points="274.4,67.3 274.4,83.4 267.3,83.4 267.3,67.3 259.4,41 266.8,41 271.1,57.1 271.2,57.1 275.5,41 
	282.3,41 "/>
<polygon class="st1" points="279.9,76.6 279,86.7 283,86.7 286.6,77.1 286.6,76.6 "/>
<rect x="293.6" y="41" class="st1" width="7.1" height="42.3"/>
<polygon class="st1" points="309,56.8 309,83.4 303,83.4 303,41 310,41 317.7,65.3 317.7,41 323.6,41 323.6,83.4 317.4,83.4 "/>
<polygon class="st1" points="331.9,56.8 331.9,83.4 325.9,83.4 325.9,41 332.9,41 340.5,65.3 340.5,41 346.5,41 346.5,83.4 
	340.2,83.4 "/>
<g>
	<path class="st1" d="M363.1,73.6V50.9c0-2.6-1.1-4.4-3.7-4.4c-2.5,0-3.6,1.8-3.6,4.4v22.7c0,2.6,1.1,4.4,3.6,4.4
		C362,77.9,363.1,76.1,363.1,73.6 M348.7,72.5V52c0-6.6,3.2-11.4,10.7-11.4c7.6,0,10.8,4.8,10.8,11.4v20.5c0,6.6-3.2,11.4-10.8,11.4
		C352,83.9,348.7,79,348.7,72.5"/>
</g>
<polygon class="st1" points="394.1,41 386,83.4 378.2,83.4 370.2,41 377.4,41 382.3,70.6 382.4,70.6 387.4,41 "/>
<path class="st1" d="M399.2,70h5.7l-2.8-17H402L399.2,70z M390.3,83.4l8-42.3h8.1l8.1,42.3h-7.3l-1.3-7.7h-7.6l-1.2,7.7H390.3z"/>
<polygon class="st1" points="411.6,41 430.6,41 430.6,46.9 424.7,46.9 424.7,83.4 417.5,83.4 417.5,46.9 411.6,46.9 "/>
<rect x="432.1" y="41" class="st1" width="7.1" height="42.3"/>
<g>
	<path class="st1" d="M455.9,73.6V50.9c0-2.6-1.1-4.4-3.7-4.4c-2.5,0-3.6,1.8-3.6,4.4v22.7c0,2.6,1.1,4.4,3.6,4.4
		C454.8,77.9,455.9,76.1,455.9,73.6 M441.5,72.5V52c0-6.6,3.2-11.4,10.7-11.4c7.6,0,10.8,4.8,10.8,11.4v20.5
		c0,6.6-3.2,11.4-10.8,11.4C444.7,83.9,441.5,79,441.5,72.5"/>
</g>
<polygon class="st1" points="471.3,56.8 471.3,83.4 465.3,83.4 465.3,41 472.3,41 479.9,65.3 479.9,41 485.9,41 485.9,83.4 
	479.6,83.4 "/>
<path class="st1" d="M127.7,129.3h5.7l-2.8-17h-0.1L127.7,129.3z M118.8,142.7l8-42.3h8.1l8.1,42.3h-7.3l-1.3-7.7h-7.6l-1.2,7.7
	H118.8z"/>
<polygon class="st1" points="150.1,116.1 150.1,142.7 144.1,142.7 144.1,100.3 151.1,100.3 158.8,124.6 158.8,100.3 164.7,100.3 
	164.7,142.7 158.5,142.7 "/>
<g>
	<path class="st1" d="M177.1,136.9c2.9,0,4.1-1.8,4.1-4.3v-22.2c0-2.5-1.1-4.3-4.1-4.3h-3v30.7H177.1z M188.2,111.7v19.6
		c0,6.5-2.7,11.4-10.3,11.4h-11v-42.3h11C185.6,100.3,188.2,105.2,188.2,111.7"/>
</g>
<rect x="199.4" y="100.3" class="st1" width="7.1" height="42.3"/>
<polygon class="st1" points="214.8,116.1 214.8,142.7 208.8,142.7 208.8,100.3 215.8,100.3 223.5,124.6 223.5,100.3 229.4,100.3 
	229.4,142.7 223.2,142.7 "/>
<polygon class="st1" points="231.6,100.3 248.3,100.3 248.3,106.2 238.8,106.2 238.8,118.3 245.9,118.3 245.9,124 238.8,124 
	238.8,142.7 231.6,142.7 "/>
<g>
	<path class="st1" d="M256.7,106.2v13.2h2.4c2.4,0,3.5-1.2,3.5-3.5v-6.2c0-2.3-1.1-3.4-3.5-3.4H256.7z M256.7,123.3v19.4h-7.1v-42.3
		H260c7.2,0,9.8,3.6,9.8,9.5v5.4c0,4.6-1.6,7.2-5.7,8.2l6.8,19.2h-7.5L256.7,123.3z"/>
</g>
<path class="st1" d="M279.7,129.3h5.7l-2.8-17h-0.1L279.7,129.3z M270.7,142.7l8-42.3h8.1l8.1,42.3h-7.3l-1.3-7.7h-7.6l-1.2,7.7
	H270.7z"/>
<g>
	<path class="st1" d="M295,133.6v-5.7h6.6v5.8c0,2.4,1.1,3.8,3.5,3.8c2.2,0,3.2-1.5,3.2-3.8v-1.6c0-2.4-1-3.9-3.2-6l-4.2-4.2
		c-4.1-4-5.9-6.4-5.9-11.3v-1.4c0-5.2,3.1-9.3,10-9.3c7.1,0,9.9,3.5,9.9,9.6v3.4h-6.5v-3.7c0-2.4-1.1-3.6-3.4-3.6
		c-2,0-3.4,1.1-3.4,3.5v0.9c0,2.4,1.3,3.7,3.4,5.7l4.6,4.5c3.9,3.9,5.7,6.3,5.7,11v2.1c0,5.8-3.1,9.9-10.4,9.9
		C297.8,143.2,295,139.1,295,133.6"/>
</g>
<polygon class="st1" points="315.6,100.3 334.5,100.3 334.5,106.2 328.7,106.2 328.7,142.7 321.5,142.7 321.5,106.2 315.6,106.2 "/>
<g>
	<path class="st1" d="M343.1,106.2v13.2h2.4c2.4,0,3.5-1.2,3.5-3.5v-6.2c0-2.3-1.1-3.4-3.5-3.4H343.1z M343.1,123.3v19.4H336v-42.3
		h10.4c7.2,0,9.8,3.6,9.8,9.5v5.4c0,4.6-1.6,7.2-5.7,8.2l6.8,19.2h-7.5L343.1,123.3z"/>
	<path class="st1" d="M378.9,100.3v32c0,6.6-2.8,10.8-10.1,10.8c-7.5,0-10.6-4.2-10.6-10.8v-32h7.1v32.7c0,2.5,1,4.2,3.5,4.2
		s3.5-1.7,3.5-4.2v-32.7H378.9z"/>
	<path class="st1" d="M381.2,131.8v-20.5c0-6.6,3.1-11.4,10.6-11.4c7.9,0,10,4.4,10,10.6v5h-6.5v-5.6c0-2.6-0.9-4.1-3.4-4.1
		c-2.6,0-3.6,1.8-3.6,4.4v22.7c0,2.6,1.1,4.4,3.6,4.4c2.6,0,3.4-1.6,3.4-4.1v-7.8h6.5v7.3c0,6-2.5,10.5-10,10.5
		C384.3,143.2,381.2,138.3,381.2,131.8"/>
</g>
<polygon class="st1" points="402.4,100.3 421.4,100.3 421.4,106.2 415.5,106.2 415.5,142.7 408.3,142.7 408.3,106.2 402.4,106.2 "/>
<g>
	<path class="st1" d="M443.5,100.3v32c0,6.6-2.8,10.8-10.1,10.8c-7.5,0-10.6-4.2-10.6-10.8v-32h7.1v32.7c0,2.5,1,4.2,3.5,4.2
		s3.5-1.7,3.5-4.2v-32.7H443.5z"/>
	<path class="st1" d="M452.9,106.2v13.2h2.4c2.4,0,3.5-1.2,3.5-3.5v-6.2c0-2.3-1.1-3.4-3.5-3.4H452.9z M452.9,123.3v19.4h-7.1v-42.3
		h10.4c7.2,0,9.8,3.6,9.8,9.5v5.4c0,4.6-1.6,7.2-5.7,8.2l6.8,19.2h-7.5L452.9,123.3z"/>
</g>
<polygon class="st1" points="468,100.3 485,100.3 485,106.2 475.1,106.2 475.1,118.3 482.2,118.3 482.2,124 475.1,124 475.1,136.9 
	485,136.9 485,142.7 468,142.7 "/>
</svg>
