<?xml version="1.0" encoding="utf-8"?>
<svg version="1.1" id="Layer_1" xmlns="http://www.w3.org/2000/svg" xmlns:xlink="http://www.w3.org/1999/xlink" x="0px" y="0px"
	 viewBox="0 0 500 500" style="enable-background:new 0 0 500 500;" xml:space="preserve">
<style type="text/css">
	.st1{fill:#FFFFFF;}
	.st14{fill:Transparent;}
</style>
<rect x="0" y="0" class="st14" width="500" height="500"/>
<g>
	<path class="st1" d="M329.7,331.7c-2.1-0.6-10.8-12.6-3.9-20.5c1.1-1.3-2.3-5.1-1.4-5.2c3.8-0.3,5.8,2,6.8,5.4
		c0.1,1.5,0.1,3,0.1,4.5C331.3,321.3,330.7,326.6,329.7,331.7 M308.4,370.8c-0.8-0.2-1.6-0.5-2.4-0.9c-4.2-2.2-3.7,1.3-5.8,0.5
		c-2.1-0.8,2.4-5.6-3.9-1.5c-6.2,4.1-4.5-0.6-7.2-7.5c-2.7-6.9,3.1-14.8,8-16.6c6.7-2.4,10.9-2.9,14.1-3.7c9.3-2.3,11.3-7.8,13-4.5
		c0.3,0.6,0.6,1.2,0.9,1.8c0.5,1,1.2,3.1,1.2,5.1C322.2,353.9,316.1,363.2,308.4,370.8 M253.7,393.3c-7.6,0-14.9-1.1-21.8-3.2
		c-1-0.8-1.6-2.2-0.9-3.8c2.4-6.2,9.6-8.7,15.2-9.2c12.6-1.2,29.1,8.2,31.7,6.7c2.6-1.5,8-8.4,15.8-8.1c5.3,0.2,5.3,1.1,7.1,1.8
		C287.6,387.5,271.4,393.4,253.7,393.3 M243.2,342.8c-1.1,1.7-4,14.8-6,13.3c-2-1.5,0.8-15.1,1.4-16.1
		C241.7,334.3,248.3,334.6,243.2,342.8 M274.9,327.4c-1.5,1.4-5.5,0.9-7.4-0.7c-1.9-1.5,1.2-4,2.4-4.1
		C272.5,322.4,276.4,326.1,274.9,327.4 M309.1,327.6c-0.8-0.3-1.6-1.1-2.2-3c-0.6-1.9,1-3,2.5-2.2c1.6,0.8,3.6,3.2,3.6,4.5
		C313.1,328.1,310,328,309.1,327.6 M312.4,330c2.6-0.2,6.5,3.4,5,4.8c-1.5,1.4-5.4,0.9-7.4-0.7C308,332.6,311.2,330.1,312.4,330
		 M229.2,360.8c-1.5,5.9-3.3,8.1-4.8,9.9c-1.5,1.9-7.1,4.3-10.6,4c-3.5-0.3-4-9.7-4-14.5c0-1.7-2.4,3.3-3.6-6.8
		c-0.8-6.5-4.9,0.7-5.2-3.6c-0.3-4.3-2.4-3.4-4.5-6.1c-2.2-2.7-4.9,0.2-7.9,1.6c-3,1.3-1.8,2-6,0.7c-0.1,0-0.2-0.1-0.3-0.1
		c-3.9-9.3-6.1-19.5-6-30.2c0-2.6,0.1-5.2,0.4-7.7c0.1-0.3,0.3-0.5,0.5-0.7c4.1-4.8,4-6,4-6l4.5-1.6c0,0,7.2,1.1,12.7,3.2
		c4.5,1.7,11.6,5.5,15.7,3.8c3-1.2,5.3-2.8,5-5.3c-0.3-3.1-2.8-3.8-5.7-1.8c-1.1,0.8-3.4-4.7-5.2-4.4c-1.8,0.3,2.2,6.4,0.7,6.7
		c-1.6,0.3-4.7-6.4-5.2-7.5c-0.5-1.1-2.9-3.7-5.1-1.7c-4.6,4.3-12,4.1-13.5,5.2c-4.5,3.4-5.7-1.1-5.6-3.9c0.2-0.6,0.4-1.3,0.6-1.9
		c1.5-1.6,6.8-2.2,8.6-0.9c2,1.3,3.4-0.3,4.2-1.2c0.8-0.8,0.5-2.1,0-3.1c-0.5-1.1,1-1.9,2-2.2c1-0.3,4.5-2.7,5.9-3.5
		c1.4-0.8,8.6-1.7,11.8-0.1c3.2,1.6,6.1,0.3,7.7-1.6c2-2.3,4.5-4.1,5.6-4.7c1.1-0.5-2.8-4.2-6-0.2c-3.2,3.9-4.8,4.3-6.3,4.3
		c-1.5,0-10.5-2.2-11.6-5.1c-1.1-2.8,2.8-4.9,6.1-6.5c3.3-1.6,12.3-1.5,14.6-2.1c4.7-1,10.7-3.4,13.7-1.3c3,2-12.6,5.6-7.5,8.4
		c1.8,1,10.1-4.7,12.9-6.2c6.7-3.4-6.5-4.6-4.7-11.6c1.9-7.9-16.1-4.9-25.1-4.2c12.1-7.7,26.4-12.2,41.8-12.2
		c36.6,0.1,67.2,25.4,75.3,59.5c0.1,1.7-0.2,2.9-0.4,3.6c-0.7,2.8-6,5.2-9.1,0.7c-0.8-1.1-4.1-4.3-4,1.1c0.1,5.4,5.2,5.9,0.3,9.1
		c-5,3.2-5.9,2.4-8.2,3.2c-2.3,0.8-4.5,6.3-4,9.3c0.5,3,7.6,11.1,2.4,10.7c-1.2-0.1-10.5-6.4-12-10.5c-1.6-4.3-3.4-8.5-4.6-11.7
		c-1.3-3.2-4.5-4.1-7.3-2.2c-2.8,1.9,0.8,3.8-1.2,7.8c-2,4-3.4,7.6-6.3,4.3c-7.6-8.7-18.6-4.4-20.3-14.1c-0.9-5.2-5.4-4.7-9.2-7.7
		c-3.8-3-5.9-4.6-6.5-2.4c-0.6,1.9,11.8,11.7,12.7,14.2c1.3,3.7-3.7,7-7.4,7.9c-3.7,0.9-5.3-2.1-8.9-5.8c-3.6-3.8-5.2-6.4-5.4-3.5
		c-0.4,4.3,3.4,10.5,7.1,12.9c3.1,2,6.6,2.9,5.6,6.1c-1,3.2,0,1.4-3.5,4.9c-3.5,3.5-4.2,4.6-4,9.4c0.2,4.8-1,5.1-1.8,9.1
		C232.5,358.4,230.7,354.9,229.2,360.8 M187.7,275.3c0.2-0.2,0.3-0.4,0.4-0.5c1.4-1.6,4.2-1.9,6.1-2.2c1.9-0.3,4.5,0.7,4.8,1.9
		c0.3,1.3-4.8,3.6-5.8,4.5c-2.7,2.5-6.9,7.5-9.3,8c-0.8,0.2-1.5,0.1-2-0.2C183.5,282.8,185.4,279,187.7,275.3 M191.7,267.4
		c1-1.5,4.3-5.7,4.7-6.2c0.9-1.1,2.6-1.3,3.8-1.5c1.2-0.2,2.8,0.4,2.9,1.3c0.2,0.9-0.5,4.3-1,4.9c-1.6,1.7-5.9,4.1-8.2,3.7
		C192,269.4,191.3,268,191.7,267.4 M438,313.6c-13.2-18.6-73-92.8-184.2-92.9c-111.3-0.2-171.2,73.9-184.5,92.4
		c-0.6,0.8-1,1.5-1.4,2.1c0.4,0.6,0.9,1.3,1.4,2.1c13.2,18.6,73,92.8,184.3,92.9c111.3,0.2,171.2-73.9,184.5-92.4
		c0.6-0.8,1.1-1.5,1.4-2.1C439.1,315,438.6,314.4,438,313.6"/>
</g>
<polygon class="st1" points="62.5,40.7 62.4,142 45.4,141.9 45.5,64.4 45.3,64.4 33.4,76.8 33.2,76.8 33.3,59 48.9,40.7 "/>
<g>
	<path class="st1" d="M118.7,62.8l0,8.8c0,8.5-4.6,14.2-11.7,16.4c8.5,2,12.5,7.9,12.5,17.2l0,14.9c0,14-7.5,23.1-24.7,23.1
		c-17.3,0-23.4-9.9-23.4-25.3l0-13.3l15.5,0l0,14.5c0,6,2.1,9.8,7.9,9.9c5.2,0,7.6-3.7,7.6-9.1l0-16.7c0-5.4-2.4-8.2-8.3-8.2L87,95
		l0-13l6.4,0c5.5,0,9.1-2.8,9.1-8.2l0-10.9c0-5.5-1.9-9.1-7.3-9.1c-5.4,0-7.3,3.6-7.3,9.8l0,10.3l-15.5,0l0-9
		c0-14.9,6.2-25.4,23.8-25.3C111.8,39.6,118.7,48.4,118.7,62.8"/>
	<path class="st1" d="M154,71.8l0-20.5c0-6.6,3.1-11.4,10.6-11.4c7.9,0,10,4.4,10,10.6l0,5l-6.5,0l0-5.6c0-2.6-0.9-4.1-3.4-4.1
		c-2.6,0-3.6,1.8-3.6,4.4l0,22.7c0,2.6,1.1,4.4,3.6,4.4c2.6,0,3.4-1.6,3.4-4.1l0-7.8l6.5,0l0,7.3c0,6.1-2.5,10.6-10.1,10.5
		C157.2,83.2,154,78.4,154,71.8"/>
</g>
<polygon class="st1" points="178.6,40.4 185.8,40.4 185.7,77 194.2,77 194.2,82.8 178.6,82.8 "/>
<rect x="179.8" y="58.1" transform="matrix(1.535239e-03 -1 1 1.535239e-03 139.0589 262.5472)" class="st1" width="42.3" height="7.1"/>
<polygon class="st1" points="228.3,55.4 228.1,55.4 223.3,82.8 220,82.8 214.7,55.3 214.6,55.3 214.5,82.8 208.7,82.8 208.7,40.5 
	217,40.5 221.6,64.3 221.7,64.3 225.8,40.5 234.8,40.5 234.8,82.9 228.3,82.8 "/>
<path class="st1" d="M246.6,69.4l5.7,0l-2.8-17h-0.1L246.6,69.4z M237.7,82.9l8-42.3l8.1,0l8,42.4l-7.3,0l-1.3-7.7l-7.6,0l-1.3,7.7
	L237.7,82.9z"/>
<polygon class="st1" points="260.9,40.5 279.8,40.6 279.8,46.4 273.9,46.4 273.9,82.9 266.7,82.9 266.8,46.4 260.9,46.4 "/>
<polygon class="st1" points="283.1,40.6 300.1,40.6 300.1,46.4 290.2,46.4 290.2,58.5 297.3,58.5 297.3,64.3 290.2,64.3 290.2,77.1 
	300.1,77.1 300.1,82.9 283.1,82.9 "/>
<path class="st1" d="M161.8,128.6l5.7,0l-2.8-17h-0.1L161.8,128.6z M152.8,142l8-42.3l8.1,0l8,42.3l-7.3,0l-1.3-7.7l-7.6,0l-1.3,7.7
	L152.8,142z"/>
<g>
	<path class="st1" d="M179,131.2l0-20.5c0-6.6,3.1-11.4,10.6-11.4c7.9,0,10,4.4,10,10.6l0,5l-6.5,0l0-5.6c0-2.6-0.9-4.1-3.4-4.1
		c-2.6,0-3.6,1.8-3.6,4.4l0,22.7c0,2.6,1.1,4.4,3.6,4.4c2.6,0,3.4-1.6,3.4-4.1l0-7.8h6.5l0,7.3c0,6.1-2.5,10.6-10.1,10.5
		C182.1,142.6,179,137.7,179,131.2"/>
</g>
<polygon class="st1" points="202.1,99.8 221.1,99.8 221.1,105.6 215.2,105.6 215.1,142.1 208,142.1 208,105.6 202.1,105.6 "/>
<rect x="206.7" y="117.4" transform="matrix(1.535239e-03 -1 1 1.535239e-03 106.5648 348.6835)" class="st1" width="42.3" height="7.1"/>
<g>
	<path class="st1" d="M250,132.4l0-22.7c0-2.6-1.1-4.4-3.7-4.4c-2.5,0-3.6,1.8-3.6,4.4l0,22.7c0,2.6,1.1,4.4,3.6,4.4
		C248.9,136.7,250,134.9,250,132.4 M235.6,131.2l0-20.5c0-6.6,3.3-11.4,10.8-11.4c7.6,0,10.8,4.8,10.8,11.4l0,20.5
		c0,6.5-3.3,11.4-10.8,11.4C238.8,142.7,235.5,137.8,235.6,131.2"/>
</g>
<polygon class="st1" points="267.2,115.6 267.1,142.2 261.1,142.2 261.2,99.9 268.2,99.9 275.8,124.2 275.9,99.9 281.8,99.9 
	281.7,142.2 275.5,142.2 "/>
</svg>
