<?xml version="1.0" encoding="utf-8"?>
<svg version="1.1" id="Layer_1" xmlns="http://www.w3.org/2000/svg" xmlns:xlink="http://www.w3.org/1999/xlink" x="0px" y="0px"
	 viewBox="0 0 500 500" style="enable-background:new 0 0 500 500;" xml:space="preserve">
<style type="text/css">
	.st1{fill:#FFFFFF;}
	.st13{fill:Transparent;}
</style>
<rect class="st13" width="500" height="500"/>
<g>
	<path class="st1" d="M301.9,330.7H201.5c-0.6,0-1.1,0.5-1.1,1.1v22.8c0,0.6,0.5,1.1,1.1,1.1h100.4c0.6,0,1.1-0.5,1.1-1.1v-22.8
		C303,331.1,302.5,330.7,301.9,330.7"/>
	<path class="st1" d="M361.1,297.9c-4.1-16.5-11.6-31.3-21.5-43.9l-0.2,0.2c3.2,4.8,6.1,9.9,8.6,15.2c13,23.9,17,52.7,8.8,80.9
		c-16.5,56.5-75.7,89-132.2,72.5c-23.8-6.9-43.3-21.4-56.7-40.1c-8.4-10.8-14.7-23.4-18.2-37.5c-13.4-54,19.4-108.6,73.4-122
		c33.4-8.3,66.9,1.2,90.9,22.3c0.2,0.2,0.4,0.4,0.6,0.6c0.7,0.5,1.4,0.8,2.3,0.8c1,0,1.8-0.4,2.5-1l0.4-0.4l12.8-12.6l0.8-0.8
		c0.5-0.7,0.8-1.4,0.8-2.3c0-1-0.4-1.9-1-2.6c-0.1-0.1-0.3-0.2-0.4-0.4c-29.5-26.4-71-38.2-112.3-27.9
		c-66.3,16.5-106.6,83.6-90.1,149.9c6.9,27.8,22.7,51,43.6,67.4c20.8,17.1,47.3,26.8,75.1,26.5c8.9-0.1,18-1.2,27.1-3.5
		C338.6,423.7,376.6,360.4,361.1,297.9"/>
	<path class="st1" d="M303,289c0-0.6-0.5-1.1-1.1-1.1h-83.2h-17.2c-0.6,0-1.1,0.5-1.1,1.1v9v13.8c0,0.6,0.5,1.1,1.1,1.1h100.4
		c0.6,0,1.1-0.5,1.1-1.1V289z"/>
</g>
<polygon class="st1" points="47.3,64.7 47.3,142.3 64.4,142.3 64.4,40.9 50.8,40.9 35.1,59.3 35.1,77.1 35.2,77.1 47.2,64.7 "/>
<g>
	<path class="st1" d="M93.2,118.8V64.4c0-6.1,2.2-10.5,8.1-10.5c6,0,8.2,4.3,8.2,10.5v54.4c0,6.1-2.2,10.5-8.2,10.5
		C95.5,129.3,93.2,124.9,93.2,118.8 M126.6,116.1V67.1c0-15.8-7.9-27.4-25.3-27.4c-17.2,0-25.1,11.5-25.1,27.4v49.1
		c0,15.7,7.9,27.4,25.1,27.4C118.6,143.5,126.6,131.8,126.6,116.1"/>
	<path class="st1" d="M168.2,46.9V60h2.4c2.4,0,3.5-1.2,3.5-3.5v-6.2c0-2.3-1.1-3.4-3.5-3.4H168.2z M168.2,64v19.4h-7.1V41h10.4
		c7.2,0,9.8,3.6,9.8,9.5V56c0,4.6-1.6,7.2-5.7,8.2l6.8,19.2h-7.5L168.2,64z"/>
</g>
<polygon class="st1" points="185.1,41 202.1,41 202.1,46.9 192.2,46.9 192.2,59 199.3,59 199.3,64.7 192.2,64.7 192.2,77.6 
	202.1,77.6 202.1,83.4 185.1,83.4 "/>
<g>
	<path class="st1" d="M216,77.6c2.9,0,4.1-1.7,4.1-4.3V51.1c0-2.5-1.1-4.2-4.1-4.2h-3v30.7H216z M227.2,52.4V72
		c0,6.5-2.7,11.4-10.3,11.4h-11V41h11C224.5,41,227.2,45.8,227.2,52.4"/>
	<path class="st1" d="M251.9,41v32c0,6.6-2.8,10.8-10.1,10.8c-7.5,0-10.6-4.2-10.6-10.8V41h7.1v32.7c0,2.5,1,4.2,3.5,4.2
		c2.5,0,3.5-1.7,3.5-4.2V41H251.9z"/>
	<path class="st1" d="M255.9,72.4V52c0-6.6,3.1-11.4,10.6-11.4c7.9,0,10.1,4.4,10.1,10.6v5h-6.5v-5.6c0-2.6-0.9-4.1-3.4-4.1
		c-2.6,0-3.6,1.8-3.6,4.4v22.7c0,2.6,1.1,4.4,3.6,4.4c2.6,0,3.4-1.6,3.4-4.1V66h6.5v7.3c0,6-2.5,10.5-10.1,10.5
		C259.1,83.9,255.9,79,255.9,72.4"/>
</g>
<polygon class="st1" points="280.5,41 297.5,41 297.5,46.9 287.6,46.9 287.6,59 294.6,59 294.6,64.7 287.6,64.7 287.6,77.6 
	297.5,77.6 297.5,83.4 280.5,83.4 "/>
<g>
	<path class="st1" d="M311.4,77.6c2.9,0,4.1-1.7,4.1-4.3V51.1c0-2.5-1.1-4.2-4.1-4.2h-3v30.7H311.4z M322.6,52.4V72
		c0,6.5-2.7,11.4-10.3,11.4h-11V41h11C319.9,41,322.6,45.8,322.6,52.4"/>
</g>
<rect x="161" y="100.3" class="st1" width="7.1" height="42.3"/>
<polygon class="st1" points="178.3,116.1 178.3,142.7 172.3,142.7 172.3,100.3 179.3,100.3 187,124.6 187,100.3 192.9,100.3 
	192.9,142.7 186.7,142.7 "/>
<polygon class="st1" points="196.9,100.3 213.9,100.3 213.9,106.2 204.1,106.2 204.1,118.3 211.1,118.3 211.1,124 204.1,124 
	204.1,136.9 213.9,136.9 213.9,142.7 196.9,142.7 "/>
<g>
	<path class="st1" d="M231.5,133.2v-23.1c0-2.6-1.1-4.4-3.7-4.4c-2.5,0-3.6,1.8-3.6,4.4v23.1c0,2.5,1.1,4.4,3.6,4.4
		C230.4,137.6,231.5,135.7,231.5,133.2 M225.2,145.6v-2.9c-5.7-1-8.1-5.2-8.1-10.9v-20.5c0-6.6,3.2-11.4,10.7-11.4
		c7.5,0,10.8,4.8,10.8,11.4v20.5c0,4.6-1.6,8.2-5.2,10l5.2,1v5.3L225.2,145.6z"/>
	<path class="st1" d="M263.4,100.3v32c0,6.6-2.8,10.8-10.1,10.8c-7.5,0-10.6-4.2-10.6-10.8v-32h7.1v32.7c0,2.5,1,4.2,3.5,4.2
		c2.5,0,3.5-1.7,3.5-4.2v-32.7H263.4z"/>
</g>
<path class="st1" d="M274.3,129.3h5.7l-2.8-17h-0.1L274.3,129.3z M265.4,142.7l8-42.3h8.1l8.1,42.3h-7.3l-1.3-7.7h-7.6l-1.2,7.7
	H265.4z"/>
<polygon class="st1" points="292.5,100.3 299.6,100.3 299.6,136.9 308.1,136.9 308.1,142.7 292.5,142.7 "/>
<rect x="311.3" y="100.3" class="st1" width="7.1" height="42.3"/>
<polygon class="st1" points="321.7,100.3 340.7,100.3 340.7,106.2 334.8,106.2 334.8,142.7 327.6,142.7 327.6,106.2 321.7,106.2 "/>
<rect x="344" y="100.3" class="st1" width="7.1" height="42.3"/>
<polygon class="st1" points="355.2,100.3 372.2,100.3 372.2,106.2 362.3,106.2 362.3,118.3 369.4,118.3 369.4,124 362.3,124 
	362.3,136.9 372.2,136.9 372.2,142.7 355.2,142.7 "/>
<g>
	<path class="st1" d="M375.3,133.6v-5.7h6.6v5.8c0,2.4,1.1,3.8,3.5,3.8c2.2,0,3.2-1.5,3.2-3.8v-1.6c0-2.4-1-3.9-3.2-6l-4.2-4.2
		c-4.1-4-5.9-6.4-5.9-11.3v-1.4c0-5.2,3.1-9.3,10-9.3c7.1,0,9.9,3.5,9.9,9.6v3.4h-6.5v-3.7c0-2.4-1.1-3.6-3.4-3.6
		c-2,0-3.4,1.1-3.4,3.5v0.9c0,2.4,1.3,3.7,3.4,5.7l4.6,4.5c3.9,3.9,5.7,6.3,5.7,11v2.1c0,5.8-3.1,9.9-10.4,9.9
		C378.1,143.2,375.3,139.1,375.3,133.6"/>
</g>
</svg>
